{
    "asset": {
        "generator": "FBX2glTF v0.13.1",
        "version": "2.0"
    },
    "scene": 0,
    "buffers": [
        {
            "byteLength": 5064,
            "uri": "buffer.bin"
        }
    ],
    "bufferViews": [
        {
            "buffer": 0,
            "byteLength": 228,
            "byteOffset": 0,
            "target": 34963
        },
        {
            "buffer": 0,
            "byteLength": 864,
            "byteOffset": 228,
            "target": 34962
        },
        {
            "buffer": 0,
            "byteLength": 864,
            "byteOffset": 1092,
            "target": 34962
        },
        {
            "buffer": 0,
            "byteLength": 576,
            "byteOffset": 1956,
            "target": 34962
        },
        {
            "buffer": 0,
            "byteLength": 228,
            "byteOffset": 2532,
            "target": 34963
        },
        {
            "buffer": 0,
            "byteLength": 864,
            "byteOffset": 2760,
            "target": 34962
        },
        {
            "buffer": 0,
            "byteLength": 864,
            "byteOffset": 3624,
            "target": 34962
        },
        {
            "buffer": 0,
            "byteLength": 576,
            "byteOffset": 4488,
            "target": 34962
        }
    ],
    "scenes": [
        {
            "name": "Root Scene",
            "nodes": [
                0
            ]
        }
    ],
    "accessors": [
        {
            "componentType": 5123,
            "type": "SCALAR",
            "count": 114,
            "bufferView": 0,
            "byteOffset": 0
        },
        {
            "componentType": 5126,
            "type": "VEC3",
            "count": 72,
            "bufferView": 1,
            "byteOffset": 0,
            "min": [
                -0.0749999955296516,
                0.0,
                0.0
            ],
            "max": [
                0.0,
                0.0131200002506375,
                0.0122999995946884
            ]
        },
        {
            "componentType": 5126,
            "type": "VEC3",
            "count": 72,
            "bufferView": 2,
            "byteOffset": 0
        },
        {
            "componentType": 5126,
            "type": "VEC2",
            "count": 72,
            "bufferView": 3,
            "byteOffset": 0
        },
        {
            "componentType": 5123,
            "type": "SCALAR",
            "count": 114,
            "bufferView": 4,
            "byteOffset": 0
        },
        {
            "componentType": 5126,
            "type": "VEC3",
            "count": 72,
            "bufferView": 5,
            "byteOffset": 0,
            "min": [
                -0.0999999940395355,
                0.0,
                0.0
            ],
            "max": [
                -0.0249999985098839,
                0.0131200002506375,
                0.0122999995946884
            ]
        },
        {
            "componentType": 5126,
            "type": "VEC3",
            "count": 72,
            "bufferView": 6,
            "byteOffset": 0
        },
        {
            "componentType": 5126,
            "type": "VEC2",
            "count": 72,
            "bufferView": 7,
            "byteOffset": 0
        }
    ],
    "samplers": [
        {}
    ],
    "materials": [
        {
            "name": "grey",
            "alphaMode": "OPAQUE",
            "doubleSided": false,
            "extras": {
                "fromFBX": {
                    "shadingModel": "Phong",
                    "isTruePBR": false
                }
            },
            "pbrMetallicRoughness": {
                "baseColorFactor": [
                    0.945097982883453,
                    0.949019610881805,
                    0.964705884456635,
                    1.0
                ],
                "metallicFactor": 0.400000005960464,
                "roughnessFactor": 1.0
            }
        },
        {
            "name": "red",
            "alphaMode": "OPAQUE",
            "doubleSided": false,
            "extras": {
                "fromFBX": {
                    "shadingModel": "Phong",
                    "isTruePBR": false
                }
            },
            "pbrMetallicRoughness": {
                "baseColorFactor": [
                    0.909803926944733,
                    0.333333313465118,
                    0.325490206480026,
                    1.0
                ],
                "metallicFactor": 0.400000005960464,
                "roughnessFactor": 1.0
            }
        }
    ],
    "meshes": [
        {
            "name": "barrierWall",
            "primitives": [
                {
                    "material": 0,
                    "mode": 4,
                    "attributes": {
                        "NORMAL": 2,
                        "POSITION": 1,
                        "TEXCOORD_0": 3
                    },
                    "indices": 0
                },
                {
                    "material": 1,
                    "mode": 4,
                    "attributes": {
                        "NORMAL": 6,
                        "POSITION": 5,
                        "TEXCOORD_0": 7
                    },
                    "indices": 4
                }
            ]
        }
    ],
    "nodes": [
        {
            "name": "RootNode",
            "translation": [
                0.0,
                0.0,
                0.0
            ],
            "rotation": [
                0.0,
                0.0,
                0.0,
                1.0
            ],
            "scale": [
                1.0,
                1.0,
                1.0
            ],
            "children": [
                1
            ]
        },
        {
            "name": "barrierWall",
            "translation": [
                3.5,
                -0.0999999865889549,
                6.5
            ],
            "rotation": [
                0.0,
                0.0,
                0.0,
                1.0
            ],
            "scale": [
                100.0,
                100.0,
                100.0
            ],
            "mesh": 0
        }
    ]
}