{
    "asset": {
        "generator": "FBX2glTF v0.13.1",
        "version": "2.0"
    },
    "scene": 0,
    "buffers": [
        {
            "byteLength": 28600,
            "uri": "buffer.bin"
        }
    ],
    "bufferViews": [
        {
            "buffer": 0,
            "byteLength": 1800,
            "byteOffset": 0,
            "target": 34963
        },
        {
            "buffer": 0,
            "byteLength": 5280,
            "byteOffset": 1800,
            "target": 34962
        },
        {
            "buffer": 0,
            "byteLength": 5280,
            "byteOffset": 7080,
            "target": 34962
        },
        {
            "buffer": 0,
            "byteLength": 3520,
            "byteOffset": 12360,
            "target": 34962
        },
        {
            "buffer": 0,
            "byteLength": 1200,
            "byteOffset": 15880,
            "target": 34963
        },
        {
            "buffer": 0,
            "byteLength": 4320,
            "byteOffset": 17080,
            "target": 34962
        },
        {
            "buffer": 0,
            "byteLength": 4320,
            "byteOffset": 21400,
            "target": 34962
        },
        {
            "buffer": 0,
            "byteLength": 2880,
            "byteOffset": 25720,
            "target": 34962
        }
    ],
    "scenes": [
        {
            "name": "Root Scene",
            "nodes": [
                0
            ]
        }
    ],
    "accessors": [
        {
            "componentType": 5123,
            "type": "SCALAR",
            "count": 900,
            "bufferView": 0,
            "byteOffset": 0
        },
        {
            "componentType": 5126,
            "type": "VEC3",
            "count": 440,
            "bufferView": 1,
            "byteOffset": 0,
            "min": [
                -0.0443168021738529,
                0.0,
                -0.023920800536871
            ],
            "max": [
                0.0443168021738529,
                0.0209999978542328,
                0.023920800536871
            ]
        },
        {
            "componentType": 5126,
            "type": "VEC3",
            "count": 440,
            "bufferView": 2,
            "byteOffset": 0
        },
        {
            "componentType": 5126,
            "type": "VEC2",
            "count": 440,
            "bufferView": 3,
            "byteOffset": 0
        },
        {
            "componentType": 5123,
            "type": "SCALAR",
            "count": 600,
            "bufferView": 4,
            "byteOffset": 0
        },
        {
            "componentType": 5126,
            "type": "VEC3",
            "count": 360,
            "bufferView": 5,
            "byteOffset": 0,
            "min": [
                -0.0474752001464367,
                0.0,
                -0.023920800536871
            ],
            "max": [
                0.0474752001464367,
                0.0139999995008111,
                0.023920800536871
            ]
        },
        {
            "componentType": 5126,
            "type": "VEC3",
            "count": 360,
            "bufferView": 6,
            "byteOffset": 0
        },
        {
            "componentType": 5126,
            "type": "VEC2",
            "count": 360,
            "bufferView": 7,
            "byteOffset": 0
        }
    ],
    "samplers": [
        {}
    ],
    "materials": [
        {
            "name": "natureKit-wood",
            "alphaMode": "OPAQUE",
            "doubleSided": false,
            "extras": {
                "fromFBX": {
                    "shadingModel": "Phong",
                    "isTruePBR": false
                }
            },
            "pbrMetallicRoughness": {
                "baseColorFactor": [
                    1.0,
                    0.682353019714355,
                    0.435294091701508,
                    1.0
                ],
                "metallicFactor": 0.400000005960464,
                "roughnessFactor": 1.0
            }
        },
        {
            "name": "natureKit-stone",
            "alphaMode": "OPAQUE",
            "doubleSided": false,
            "extras": {
                "fromFBX": {
                    "shadingModel": "Phong",
                    "isTruePBR": false
                }
            },
            "pbrMetallicRoughness": {
                "baseColorFactor": [
                    0.658823490142822,
                    0.807843089103699,
                    0.82745099067688,
                    1.0
                ],
                "metallicFactor": 0.400000005960464,
                "roughnessFactor": 1.0
            }
        }
    ],
    "meshes": [
        {
            "name": "bridge_arch",
            "primitives": [
                {
                    "material": 0,
                    "mode": 4,
                    "attributes": {
                        "NORMAL": 2,
                        "POSITION": 1,
                        "TEXCOORD_0": 3
                    },
                    "indices": 0
                },
                {
                    "material": 1,
                    "mode": 4,
                    "attributes": {
                        "NORMAL": 6,
                        "POSITION": 5,
                        "TEXCOORD_0": 7
                    },
                    "indices": 4
                }
            ]
        }
    ],
    "nodes": [
        {
            "name": "RootNode",
            "translation": [
                0.0,
                0.0,
                0.0
            ],
            "rotation": [
                0.0,
                0.0,
                0.0,
                1.0
            ],
            "scale": [
                1.0,
                1.0,
                1.0
            ],
            "children": [
                1
            ]
        },
        {
            "name": "bridge_arch",
            "translation": [
                -6.99999809265137,
                0.0,
                89.0000076293945
            ],
            "rotation": [
                0.0,
                0.0,
                0.0,
                1.0
            ],
            "scale": [
                100.0,
                100.0,
                100.0
            ],
            "mesh": 0
        }
    ]
}