{
    "asset": {
        "generator": "FBX2glTF v0.13.1",
        "version": "2.0"
    },
    "scene": 0,
    "buffers": [
        {
            "byteLength": 4600,
            "uri": "buffer.bin"
        }
    ],
    "bufferViews": [
        {
            "buffer": 0,
            "byteLength": 48,
            "byteOffset": 0,
            "target": 34963
        },
        {
            "buffer": 0,
            "byteLength": 192,
            "byteOffset": 48,
            "target": 34962
        },
        {
            "buffer": 0,
            "byteLength": 192,
            "byteOffset": 240,
            "target": 34962
        },
        {
            "buffer": 0,
            "byteLength": 128,
            "byteOffset": 432,
            "target": 34962
        },
        {
            "buffer": 0,
            "byteLength": 192,
            "byteOffset": 560,
            "target": 34963
        },
        {
            "buffer": 0,
            "byteLength": 672,
            "byteOffset": 752,
            "target": 34962
        },
        {
            "buffer": 0,
            "byteLength": 672,
            "byteOffset": 1424,
            "target": 34962
        },
        {
            "buffer": 0,
            "byteLength": 448,
            "byteOffset": 2096,
            "target": 34962
        },
        {
            "buffer": 0,
            "byteLength": 240,
            "byteOffset": 2544,
            "target": 34963
        },
        {
            "buffer": 0,
            "byteLength": 576,
            "byteOffset": 2784,
            "target": 34962
        },
        {
            "buffer": 0,
            "byteLength": 576,
            "byteOffset": 3360,
            "target": 34962
        },
        {
            "buffer": 0,
            "byteLength": 384,
            "byteOffset": 3936,
            "target": 34962
        },
        {
            "buffer": 0,
            "byteLength": 24,
            "byteOffset": 4320,
            "target": 34963
        },
        {
            "buffer": 0,
            "byteLength": 96,
            "byteOffset": 4344,
            "target": 34962
        },
        {
            "buffer": 0,
            "byteLength": 96,
            "byteOffset": 4440,
            "target": 34962
        },
        {
            "buffer": 0,
            "byteLength": 64,
            "byteOffset": 4536,
            "target": 34962
        }
    ],
    "scenes": [
        {
            "name": "Root Scene",
            "nodes": [
                0
            ]
        }
    ],
    "accessors": [
        {
            "componentType": 5123,
            "type": "SCALAR",
            "count": 24,
            "bufferView": 0,
            "byteOffset": 0
        },
        {
            "componentType": 5126,
            "type": "VEC3",
            "count": 16,
            "bufferView": 1,
            "byteOffset": 0,
            "min": [
                -0.0295025706291199,
                0.0,
                -0.0295025706291199
            ],
            "max": [
                0.0295025706291199,
                0.00923094153404236,
                0.0295025706291199
            ]
        },
        {
            "componentType": 5126,
            "type": "VEC3",
            "count": 16,
            "bufferView": 2,
            "byteOffset": 0
        },
        {
            "componentType": 5126,
            "type": "VEC2",
            "count": 16,
            "bufferView": 3,
            "byteOffset": 0
        },
        {
            "componentType": 5123,
            "type": "SCALAR",
            "count": 96,
            "bufferView": 4,
            "byteOffset": 0
        },
        {
            "componentType": 5126,
            "type": "VEC3",
            "count": 56,
            "bufferView": 5,
            "byteOffset": 0,
            "min": [
                -0.0295025706291199,
                0.0,
                -0.0295025706291199
            ],
            "max": [
                0.0295025706291199,
                0.0399999991059303,
                0.0295025706291199
            ]
        },
        {
            "componentType": 5126,
            "type": "VEC3",
            "count": 56,
            "bufferView": 6,
            "byteOffset": 0
        },
        {
            "componentType": 5126,
            "type": "VEC2",
            "count": 56,
            "bufferView": 7,
            "byteOffset": 0
        },
        {
            "componentType": 5123,
            "type": "SCALAR",
            "count": 120,
            "bufferView": 8,
            "byteOffset": 0
        },
        {
            "componentType": 5126,
            "type": "VEC3",
            "count": 48,
            "bufferView": 9,
            "byteOffset": 0,
            "min": [
                -0.0295025706291199,
                0.0,
                -0.0295025706291199
            ],
            "max": [
                0.0295025706291199,
                0.0399999991059303,
                0.0295025706291199
            ]
        },
        {
            "componentType": 5126,
            "type": "VEC3",
            "count": 48,
            "bufferView": 10,
            "byteOffset": 0
        },
        {
            "componentType": 5126,
            "type": "VEC2",
            "count": 48,
            "bufferView": 11,
            "byteOffset": 0
        },
        {
            "componentType": 5123,
            "type": "SCALAR",
            "count": 12,
            "bufferView": 12,
            "byteOffset": 0
        },
        {
            "componentType": 5126,
            "type": "VEC3",
            "count": 8,
            "bufferView": 13,
            "byteOffset": 0,
            "min": [
                -0.0182440299540758,
                0.0221563596278429,
                0.0295025706291199
            ],
            "max": [
                0.0106681892648339,
                0.0363324508070946,
                0.0295025706291199
            ]
        },
        {
            "componentType": 5126,
            "type": "VEC3",
            "count": 8,
            "bufferView": 14,
            "byteOffset": 0
        },
        {
            "componentType": 5126,
            "type": "VEC2",
            "count": 8,
            "bufferView": 15,
            "byteOffset": 0
        }
    ],
    "samplers": [
        {}
    ],
    "materials": [
        {
            "name": "brickDark",
            "alphaMode": "OPAQUE",
            "doubleSided": false,
            "extras": {
                "fromFBX": {
                    "shadingModel": "Phong",
                    "isTruePBR": false
                }
            },
            "pbrMetallicRoughness": {
                "baseColorFactor": [
                    0.686274528503418,
                    0.729411780834198,
                    0.686274528503418,
                    1.0
                ],
                "metallicFactor": 0.400000005960464,
                "roughnessFactor": 1.0
            }
        },
        {
            "name": "brickLight",
            "alphaMode": "OPAQUE",
            "doubleSided": false,
            "extras": {
                "fromFBX": {
                    "shadingModel": "Phong",
                    "isTruePBR": false
                }
            },
            "pbrMetallicRoughness": {
                "baseColorFactor": [
                    0.858823478221893,
                    0.909803926944733,
                    0.858823478221893,
                    1.0
                ],
                "metallicFactor": 0.400000005960464,
                "roughnessFactor": 1.0
            }
        },
        {
            "name": "brick",
            "alphaMode": "OPAQUE",
            "doubleSided": false,
            "extras": {
                "fromFBX": {
                    "shadingModel": "Phong",
                    "isTruePBR": false
                }
            },
            "pbrMetallicRoughness": {
                "baseColorFactor": [
                    0.756862819194794,
                    0.800000011920929,
                    0.756862819194794,
                    1.0
                ],
                "metallicFactor": 0.400000005960464,
                "roughnessFactor": 1.0
            }
        },
        {
            "name": "grey",
            "alphaMode": "OPAQUE",
            "doubleSided": false,
            "extras": {
                "fromFBX": {
                    "shadingModel": "Phong",
                    "isTruePBR": false
                }
            },
            "pbrMetallicRoughness": {
                "baseColorFactor": [
                    0.603921592235565,
                    0.639215707778931,
                    0.603921592235565,
                    1.0
                ],
                "metallicFactor": 0.400000005960464,
                "roughnessFactor": 1.0
            }
        }
    ],
    "meshes": [
        {
            "name": "tile_017",
            "primitives": [
                {
                    "material": 0,
                    "mode": 4,
                    "attributes": {
                        "NORMAL": 2,
                        "POSITION": 1,
                        "TEXCOORD_0": 3
                    },
                    "indices": 0
                },
                {
                    "material": 1,
                    "mode": 4,
                    "attributes": {
                        "NORMAL": 6,
                        "POSITION": 5,
                        "TEXCOORD_0": 7
                    },
                    "indices": 4
                },
                {
                    "material": 2,
                    "mode": 4,
                    "attributes": {
                        "NORMAL": 10,
                        "POSITION": 9,
                        "TEXCOORD_0": 11
                    },
                    "indices": 8
                },
                {
                    "material": 3,
                    "mode": 4,
                    "attributes": {
                        "NORMAL": 14,
                        "POSITION": 13,
                        "TEXCOORD_0": 15
                    },
                    "indices": 12
                }
            ]
        }
    ],
    "nodes": [
        {
            "name": "RootNode",
            "translation": [
                0.0,
                0.0,
                0.0
            ],
            "rotation": [
                0.0,
                0.0,
                0.0,
                1.0
            ],
            "scale": [
                1.0,
                1.0,
                1.0
            ],
            "children": [
                1
            ]
        },
        {
            "name": "tile_017",
            "translation": [
                0.0,
                0.0,
                0.0
            ],
            "rotation": [
                0.0,
                0.0,
                0.0,
                1.0
            ],
            "scale": [
                10.0,
                10.0,
                10.0
            ],
            "children": [
                2
            ],
            "mesh": 0
        },
        {
            "name": "Group",
            "translation": [
                -0.0499999970197678,
                0.0,
                -0.0499999970197678
            ],
            "rotation": [
                -0.0,
                0.70710676908493,
                0.0,
                0.70710676908493
            ],
            "scale": [
                1.0,
                1.0,
                1.0
            ]
        }
    ]
}