{
    "asset": {
        "generator": "FBX2glTF v0.13.1",
        "version": "2.0"
    },
    "scene": 0,
    "buffers": [
        {
            "byteLength": 32364,
            "uri": "buffer.bin"
        }
    ],
    "bufferViews": [
        {
            "buffer": 0,
            "byteLength": 1524,
            "byteOffset": 0,
            "target": 34963
        },
        {
            "buffer": 0,
            "byteLength": 4452,
            "byteOffset": 1524,
            "target": 34962
        },
        {
            "buffer": 0,
            "byteLength": 4452,
            "byteOffset": 5976,
            "target": 34962
        },
        {
            "buffer": 0,
            "byteLength": 5936,
            "byteOffset": 10428,
            "target": 34962
        },
        {
            "buffer": 0,
            "byteLength": 2968,
            "byteOffset": 16364,
            "target": 34962
        },
        {
            "buffer": 0,
            "byteLength": 1032,
            "byteOffset": 19332,
            "target": 34963
        },
        {
            "buffer": 0,
            "byteLength": 3000,
            "byteOffset": 20364,
            "target": 34962
        },
        {
            "buffer": 0,
            "byteLength": 3000,
            "byteOffset": 23364,
            "target": 34962
        },
        {
            "buffer": 0,
            "byteLength": 4000,
            "byteOffset": 26364,
            "target": 34962
        },
        {
            "buffer": 0,
            "byteLength": 2000,
            "byteOffset": 30364,
            "target": 34962
        }
    ],
    "scenes": [
        {
            "name": "Root Scene",
            "nodes": [
                0
            ]
        }
    ],
    "accessors": [
        {
            "componentType": 5123,
            "type": "SCALAR",
            "count": 762,
            "bufferView": 0,
            "byteOffset": 0
        },
        {
            "componentType": 5126,
            "type": "VEC3",
            "count": 371,
            "bufferView": 1,
            "byteOffset": 0,
            "min": [
                -0.892499983310699,
                0.0,
                -1.7849999666214
            ],
            "max": [
                0.892499983310699,
                1.4724999666214,
                2.28500008583069
            ]
        },
        {
            "componentType": 5126,
            "type": "VEC3",
            "count": 371,
            "bufferView": 2,
            "byteOffset": 0
        },
        {
            "componentType": 5126,
            "type": "VEC4",
            "count": 371,
            "bufferView": 3,
            "byteOffset": 0
        },
        {
            "componentType": 5126,
            "type": "VEC2",
            "count": 371,
            "bufferView": 4,
            "byteOffset": 0
        },
        {
            "componentType": 5123,
            "type": "SCALAR",
            "count": 516,
            "bufferView": 5,
            "byteOffset": 0
        },
        {
            "componentType": 5126,
            "type": "VEC3",
            "count": 250,
            "bufferView": 6,
            "byteOffset": 0,
            "min": [
                -0.190088286995888,
                0.0,
                -1.33218932151794
            ],
            "max": [
                0.190088286995888,
                3.1808648109436,
                1.32408857345581
            ]
        },
        {
            "componentType": 5126,
            "type": "VEC3",
            "count": 250,
            "bufferView": 7,
            "byteOffset": 0
        },
        {
            "componentType": 5126,
            "type": "VEC4",
            "count": 250,
            "bufferView": 8,
            "byteOffset": 0
        },
        {
            "componentType": 5126,
            "type": "VEC2",
            "count": 250,
            "bufferView": 9,
            "byteOffset": 0
        }
    ],
    "images": [
        {
            "name": "colormap.png",
            "uri": "colormap.png"
        }
    ],
    "samplers": [
        {}
    ],
    "textures": [
        {
            "name": "DiffuseColor_Texture",
            "sampler": 0,
            "source": 0
        }
    ],
    "materials": [
        {
            "name": "colormap",
            "alphaMode": "OPAQUE",
            "doubleSided": false,
            "extras": {
                "fromFBX": {
                    "shadingModel": "Lambert",
                    "isTruePBR": false
                }
            },
            "pbrMetallicRoughness": {
                "baseColorTexture": {
                    "index": 0,
                    "texCoord": 0
                },
                "baseColorFactor": [
                    1.0,
                    1.0,
                    1.0,
                    1.0
                ],
                "metallicFactor": 0.200000002980232,
                "roughnessFactor": 0.800000011920929
            }
        }
    ],
    "meshes": [
        {
            "name": "boat-sail-b",
            "primitives": [
                {
                    "material": 0,
                    "mode": 4,
                    "attributes": {
                        "NORMAL": 2,
                        "POSITION": 1,
                        "TANGENT": 3,
                        "TEXCOORD_0": 4
                    },
                    "indices": 0
                }
            ]
        },
        {
            "name": "sail",
            "primitives": [
                {
                    "material": 0,
                    "mode": 4,
                    "attributes": {
                        "NORMAL": 7,
                        "POSITION": 6,
                        "TANGENT": 8,
                        "TEXCOORD_0": 9
                    },
                    "indices": 5
                }
            ]
        }
    ],
    "nodes": [
        {
            "name": "RootNode",
            "translation": [
                0.0,
                0.0,
                0.0
            ],
            "rotation": [
                0.0,
                0.0,
                0.0,
                1.0
            ],
            "scale": [
                1.0,
                1.0,
                1.0
            ],
            "children": [
                1
            ]
        },
        {
            "name": "boat-sail-b",
            "translation": [
                0.0,
                0.0,
                0.0
            ],
            "rotation": [
                0.0,
                0.0,
                0.0,
                1.0
            ],
            "scale": [
                1.0,
                1.0,
                1.0
            ],
            "children": [
                2
            ],
            "mesh": 0
        },
        {
            "name": "sail",
            "translation": [
                -1.21281118286264e-13,
                1.29999995231628,
                -0.124666810035706
            ],
            "rotation": [
                0.0,
                0.0,
                0.0,
                1.0
            ],
            "scale": [
                1.0,
                1.0,
                1.0
            ],
            "mesh": 1
        }
    ]
}