{
    "asset": {
        "generator": "FBX2glTF v0.13.1",
        "version": "2.0"
    },
    "scene": 0,
    "buffers": [
        {
            "byteLength": 26892,
            "uri": "buffer.bin"
        }
    ],
    "bufferViews": [
        {
            "buffer": 0,
            "byteLength": 124,
            "byteOffset": 0
        },
        {
            "buffer": 0,
            "byteLength": 496,
            "byteOffset": 124
        },
        {
            "buffer": 0,
            "byteLength": 496,
            "byteOffset": 620
        },
        {
            "buffer": 0,
            "byteLength": 124,
            "byteOffset": 1116
        },
        {
            "buffer": 0,
            "byteLength": 496,
            "byteOffset": 1240
        },
        {
            "buffer": 0,
            "byteLength": 496,
            "byteOffset": 1736
        },
        {
            "buffer": 0,
            "byteLength": 244,
            "byteOffset": 2232
        },
        {
            "buffer": 0,
            "byteLength": 976,
            "byteOffset": 2476
        },
        {
            "buffer": 0,
            "byteLength": 976,
            "byteOffset": 3452
        },
        {
            "buffer": 0,
            "byteLength": 912,
            "byteOffset": 4428,
            "target": 34963
        },
        {
            "buffer": 0,
            "byteLength": 3072,
            "byteOffset": 5340,
            "target": 34962
        },
        {
            "buffer": 0,
            "byteLength": 3072,
            "byteOffset": 8412,
            "target": 34962
        },
        {
            "buffer": 0,
            "byteLength": 4096,
            "byteOffset": 11484,
            "target": 34962
        },
        {
            "buffer": 0,
            "byteLength": 2048,
            "byteOffset": 15580,
            "target": 34962
        },
        {
            "buffer": 0,
            "byteLength": 408,
            "byteOffset": 17628,
            "target": 34963
        },
        {
            "buffer": 0,
            "byteLength": 1056,
            "byteOffset": 18036,
            "target": 34962
        },
        {
            "buffer": 0,
            "byteLength": 1056,
            "byteOffset": 19092,
            "target": 34962
        },
        {
            "buffer": 0,
            "byteLength": 1408,
            "byteOffset": 20148,
            "target": 34962
        },
        {
            "buffer": 0,
            "byteLength": 704,
            "byteOffset": 21556,
            "target": 34962
        },
        {
            "buffer": 0,
            "byteLength": 408,
            "byteOffset": 22260,
            "target": 34963
        },
        {
            "buffer": 0,
            "byteLength": 1056,
            "byteOffset": 22668,
            "target": 34962
        },
        {
            "buffer": 0,
            "byteLength": 1056,
            "byteOffset": 23724,
            "target": 34962
        },
        {
            "buffer": 0,
            "byteLength": 1408,
            "byteOffset": 24780,
            "target": 34962
        },
        {
            "buffer": 0,
            "byteLength": 704,
            "byteOffset": 26188,
            "target": 34962
        }
    ],
    "scenes": [
        {
            "name": "Root Scene",
            "nodes": [
                0
            ]
        }
    ],
    "accessors": [
        {
            "componentType": 5126,
            "type": "SCALAR",
            "count": 31,
            "bufferView": 0,
            "byteOffset": 0,
            "min": [
                0.0
            ],
            "max": [
                1.0
            ]
        },
        {
            "componentType": 5126,
            "type": "VEC4",
            "count": 31,
            "bufferView": 1,
            "byteOffset": 0
        },
        {
            "componentType": 5126,
            "type": "VEC4",
            "count": 31,
            "bufferView": 2,
            "byteOffset": 0
        },
        {
            "componentType": 5126,
            "type": "SCALAR",
            "count": 31,
            "bufferView": 3,
            "byteOffset": 0,
            "min": [
                0.0
            ],
            "max": [
                1.0
            ]
        },
        {
            "componentType": 5126,
            "type": "VEC4",
            "count": 31,
            "bufferView": 4,
            "byteOffset": 0
        },
        {
            "componentType": 5126,
            "type": "VEC4",
            "count": 31,
            "bufferView": 5,
            "byteOffset": 0
        },
        {
            "componentType": 5126,
            "type": "SCALAR",
            "count": 61,
            "bufferView": 6,
            "byteOffset": 0,
            "min": [
                0.0
            ],
            "max": [
                2.0
            ]
        },
        {
            "componentType": 5126,
            "type": "VEC4",
            "count": 61,
            "bufferView": 7,
            "byteOffset": 0
        },
        {
            "componentType": 5126,
            "type": "VEC4",
            "count": 61,
            "bufferView": 8,
            "byteOffset": 0
        },
        {
            "componentType": 5123,
            "type": "SCALAR",
            "count": 456,
            "bufferView": 9,
            "byteOffset": 0
        },
        {
            "componentType": 5126,
            "type": "VEC3",
            "count": 256,
            "bufferView": 10,
            "byteOffset": 0,
            "min": [
                -0.5,
                0.0,
                -0.0750000029802322
            ],
            "max": [
                0.5,
                0.379000008106232,
                0.0750000029802322
            ]
        },
        {
            "componentType": 5126,
            "type": "VEC3",
            "count": 256,
            "bufferView": 11,
            "byteOffset": 0
        },
        {
            "componentType": 5126,
            "type": "VEC4",
            "count": 256,
            "bufferView": 12,
            "byteOffset": 0
        },
        {
            "componentType": 5126,
            "type": "VEC2",
            "count": 256,
            "bufferView": 13,
            "byteOffset": 0
        },
        {
            "componentType": 5123,
            "type": "SCALAR",
            "count": 204,
            "bufferView": 14,
            "byteOffset": 0
        },
        {
            "componentType": 5126,
            "type": "VEC3",
            "count": 88,
            "bufferView": 15,
            "byteOffset": 0,
            "min": [
                8.94069671630859e-08,
                -0.050000011920929,
                -0.0249999985098839
            ],
            "max": [
                0.275000095367432,
                0.25,
                0.0249999985098839
            ]
        },
        {
            "componentType": 5126,
            "type": "VEC3",
            "count": 88,
            "bufferView": 16,
            "byteOffset": 0
        },
        {
            "componentType": 5126,
            "type": "VEC4",
            "count": 88,
            "bufferView": 17,
            "byteOffset": 0
        },
        {
            "componentType": 5126,
            "type": "VEC2",
            "count": 88,
            "bufferView": 18,
            "byteOffset": 0
        },
        {
            "componentType": 5123,
            "type": "SCALAR",
            "count": 204,
            "bufferView": 19,
            "byteOffset": 0
        },
        {
            "componentType": 5126,
            "type": "VEC3",
            "count": 88,
            "bufferView": 20,
            "byteOffset": 0,
            "min": [
                -0.275000005960464,
                -0.050000011920929,
                -0.0249999985098839
            ],
            "max": [
                0.0,
                0.25,
                0.0249999985098839
            ]
        },
        {
            "componentType": 5126,
            "type": "VEC3",
            "count": 88,
            "bufferView": 21,
            "byteOffset": 0
        },
        {
            "componentType": 5126,
            "type": "VEC4",
            "count": 88,
            "bufferView": 22,
            "byteOffset": 0
        },
        {
            "componentType": 5126,
            "type": "VEC2",
            "count": 88,
            "bufferView": 23,
            "byteOffset": 0
        }
    ],
    "images": [
        {
            "name": "colormap.png",
            "uri": "colormap.png"
        }
    ],
    "samplers": [
        {}
    ],
    "textures": [
        {
            "name": "DiffuseColor_Texture",
            "sampler": 0,
            "source": 0
        }
    ],
    "materials": [
        {
            "name": "colormap",
            "alphaMode": "OPAQUE",
            "doubleSided": false,
            "extras": {
                "fromFBX": {
                    "shadingModel": "Lambert",
                    "isTruePBR": false
                }
            },
            "pbrMetallicRoughness": {
                "baseColorTexture": {
                    "index": 0,
                    "texCoord": 0
                },
                "baseColorFactor": [
                    1.0,
                    1.0,
                    1.0,
                    1.0
                ],
                "metallicFactor": 0.200000002980232,
                "roughnessFactor": 0.800000011920929
            }
        }
    ],
    "meshes": [
        {
            "name": "fence-door-rotate",
            "primitives": [
                {
                    "material": 0,
                    "mode": 4,
                    "attributes": {
                        "NORMAL": 11,
                        "POSITION": 10,
                        "TANGENT": 12,
                        "TEXCOORD_0": 13
                    },
                    "indices": 9
                }
            ]
        },
        {
            "name": "door-left",
            "primitives": [
                {
                    "material": 0,
                    "mode": 4,
                    "attributes": {
                        "NORMAL": 16,
                        "POSITION": 15,
                        "TANGENT": 17,
                        "TEXCOORD_0": 18
                    },
                    "indices": 14
                }
            ]
        },
        {
            "name": "door-right",
            "primitives": [
                {
                    "material": 0,
                    "mode": 4,
                    "attributes": {
                        "NORMAL": 21,
                        "POSITION": 20,
                        "TANGENT": 22,
                        "TEXCOORD_0": 23
                    },
                    "indices": 19
                }
            ]
        }
    ],
    "animations": [
        {
            "name": "open",
            "channels": [
                {
                    "sampler": 0,
                    "target": {
                        "node": 2,
                        "path": "rotation"
                    }
                },
                {
                    "sampler": 1,
                    "target": {
                        "node": 3,
                        "path": "rotation"
                    }
                }
            ],
            "samplers": [
                {
                    "input": 0,
                    "interpolation": "LINEAR",
                    "output": 1
                },
                {
                    "input": 0,
                    "interpolation": "LINEAR",
                    "output": 2
                }
            ]
        },
        {
            "name": "close",
            "channels": [
                {
                    "sampler": 0,
                    "target": {
                        "node": 2,
                        "path": "rotation"
                    }
                },
                {
                    "sampler": 1,
                    "target": {
                        "node": 3,
                        "path": "rotation"
                    }
                }
            ],
            "samplers": [
                {
                    "input": 3,
                    "interpolation": "LINEAR",
                    "output": 4
                },
                {
                    "input": 3,
                    "interpolation": "LINEAR",
                    "output": 5
                }
            ]
        },
        {
            "name": "open-and-close",
            "channels": [
                {
                    "sampler": 0,
                    "target": {
                        "node": 2,
                        "path": "rotation"
                    }
                },
                {
                    "sampler": 1,
                    "target": {
                        "node": 3,
                        "path": "rotation"
                    }
                }
            ],
            "samplers": [
                {
                    "input": 6,
                    "interpolation": "LINEAR",
                    "output": 7
                },
                {
                    "input": 6,
                    "interpolation": "LINEAR",
                    "output": 8
                }
            ]
        }
    ],
    "nodes": [
        {
            "name": "RootNode",
            "translation": [
                0.0,
                0.0,
                0.0
            ],
            "rotation": [
                0.0,
                0.0,
                0.0,
                1.0
            ],
            "scale": [
                1.0,
                1.0,
                1.0
            ],
            "children": [
                1
            ]
        },
        {
            "name": "fence-door-rotate",
            "translation": [
                0.0,
                0.0,
                0.0
            ],
            "rotation": [
                0.0,
                0.0,
                0.0,
                1.0
            ],
            "scale": [
                1.0,
                1.0,
                1.0
            ],
            "children": [
                2,
                3
            ],
            "mesh": 0
        },
        {
            "name": "door-left",
            "translation": [
                -0.300000011920929,
                0.129000023007393,
                -7.21911410807822e-16
            ],
            "rotation": [
                0.0,
                0.0,
                0.0,
                1.0
            ],
            "scale": [
                1.0,
                1.0,
                1.0
            ],
            "mesh": 1
        },
        {
            "name": "door-right",
            "translation": [
                0.300000011920929,
                0.128999978303909,
                -7.21911410807822e-16
            ],
            "rotation": [
                0.0,
                0.0,
                0.0,
                1.0
            ],
            "scale": [
                1.0,
                1.0,
                1.0
            ],
            "mesh": 2
        }
    ]
}