{
    "asset": {
        "generator": "FBX2glTF v0.13.1",
        "version": "2.0"
    },
    "scene": 0,
    "buffers": [
        {
            "byteLength": 4164,
            "uri": "buffer.bin"
        }
    ],
    "bufferViews": [
        {
            "buffer": 0,
            "byteLength": 342,
            "byteOffset": 0,
            "target": 34963
        },
        {
            "buffer": 0,
            "byteLength": 1308,
            "byteOffset": 344,
            "target": 34962
        },
        {
            "buffer": 0,
            "byteLength": 1308,
            "byteOffset": 1652,
            "target": 34962
        },
        {
            "buffer": 0,
            "byteLength": 872,
            "byteOffset": 2960,
            "target": 34962
        },
        {
            "buffer": 0,
            "byteLength": 42,
            "byteOffset": 3832,
            "target": 34963
        },
        {
            "buffer": 0,
            "byteLength": 108,
            "byteOffset": 3876,
            "target": 34962
        },
        {
            "buffer": 0,
            "byteLength": 108,
            "byteOffset": 3984,
            "target": 34962
        },
        {
            "buffer": 0,
            "byteLength": 72,
            "byteOffset": 4092,
            "target": 34962
        }
    ],
    "scenes": [
        {
            "name": "Root Scene",
            "nodes": [
                0
            ]
        }
    ],
    "accessors": [
        {
            "componentType": 5123,
            "type": "SCALAR",
            "count": 171,
            "bufferView": 0,
            "byteOffset": 0
        },
        {
            "componentType": 5126,
            "type": "VEC3",
            "count": 109,
            "bufferView": 1,
            "byteOffset": 0,
            "min": [
                -0.151809692382812,
                0.0,
                -0.127476587891579
            ],
            "max": [
                0.151809692382812,
                0.080999992787838,
                0.127476587891579
            ]
        },
        {
            "componentType": 5126,
            "type": "VEC3",
            "count": 109,
            "bufferView": 2,
            "byteOffset": 0
        },
        {
            "componentType": 5126,
            "type": "VEC2",
            "count": 109,
            "bufferView": 3,
            "byteOffset": 0
        },
        {
            "componentType": 5123,
            "type": "SCALAR",
            "count": 21,
            "bufferView": 4,
            "byteOffset": 0
        },
        {
            "componentType": 5126,
            "type": "VEC3",
            "count": 9,
            "bufferView": 5,
            "byteOffset": 0,
            "min": [
                -0.118411593139172,
                0.080999992787838,
                -0.0994317606091499
            ],
            "max": [
                0.105354994535446,
                0.080999992787838,
                0.0994317606091499
            ]
        },
        {
            "componentType": 5126,
            "type": "VEC3",
            "count": 9,
            "bufferView": 6,
            "byteOffset": 0
        },
        {
            "componentType": 5126,
            "type": "VEC2",
            "count": 9,
            "bufferView": 7,
            "byteOffset": 0
        }
    ],
    "samplers": [
        {}
    ],
    "materials": [
        {
            "name": "natureKit-wood",
            "alphaMode": "OPAQUE",
            "doubleSided": false,
            "extras": {
                "fromFBX": {
                    "shadingModel": "Phong",
                    "isTruePBR": false
                }
            },
            "pbrMetallicRoughness": {
                "baseColorFactor": [
                    1.0,
                    0.682353019714355,
                    0.435294091701508,
                    1.0
                ],
                "metallicFactor": 0.400000005960464,
                "roughnessFactor": 1.0
            }
        },
        {
            "name": "natureKit-leavesGreen",
            "alphaMode": "OPAQUE",
            "doubleSided": false,
            "extras": {
                "fromFBX": {
                    "shadingModel": "Phong",
                    "isTruePBR": false
                }
            },
            "pbrMetallicRoughness": {
                "baseColorFactor": [
                    0.352941185235977,
                    0.768627524375916,
                    0.713725507259369,
                    1.0
                ],
                "metallicFactor": 0.400000005960464,
                "roughnessFactor": 1.0
            }
        }
    ],
    "meshes": [
        {
            "name": "rock_large5",
            "primitives": [
                {
                    "material": 0,
                    "mode": 4,
                    "attributes": {
                        "NORMAL": 2,
                        "POSITION": 1,
                        "TEXCOORD_0": 3
                    },
                    "indices": 0
                },
                {
                    "material": 1,
                    "mode": 4,
                    "attributes": {
                        "NORMAL": 6,
                        "POSITION": 5,
                        "TEXCOORD_0": 7
                    },
                    "indices": 4
                }
            ]
        }
    ],
    "nodes": [
        {
            "name": "RootNode",
            "translation": [
                0.0,
                0.0,
                0.0
            ],
            "rotation": [
                0.0,
                0.0,
                0.0,
                1.0
            ],
            "scale": [
                1.0,
                1.0,
                1.0
            ],
            "children": [
                1
            ]
        },
        {
            "name": "rock_large5",
            "translation": [
                -19.1772994995117,
                0.0,
                53.0993576049805
            ],
            "rotation": [
                0.0,
                0.0,
                0.0,
                1.0
            ],
            "scale": [
                36.0800018310547,
                36.0800018310547,
                36.0800018310547
            ],
            "mesh": 0
        }
    ]
}