{
    "asset": {
        "generator": "FBX2glTF v0.13.1",
        "version": "2.0"
    },
    "scene": 0,
    "buffers": [
        {
            "byteLength": 6612,
            "uri": "buffer.bin"
        }
    ],
    "bufferViews": [
        {
            "buffer": 0,
            "byteLength": 240,
            "byteOffset": 0,
            "target": 34963
        },
        {
            "buffer": 0,
            "byteLength": 768,
            "byteOffset": 240,
            "target": 34962
        },
        {
            "buffer": 0,
            "byteLength": 768,
            "byteOffset": 1008,
            "target": 34962
        },
        {
            "buffer": 0,
            "byteLength": 1236,
            "byteOffset": 1776,
            "target": 34963
        },
        {
            "buffer": 0,
            "byteLength": 1800,
            "byteOffset": 3012,
            "target": 34962
        },
        {
            "buffer": 0,
            "byteLength": 1800,
            "byteOffset": 4812,
            "target": 34962
        }
    ],
    "scenes": [
        {
            "name": "Root Scene",
            "nodes": [
                0
            ]
        }
    ],
    "accessors": [
        {
            "componentType": 5123,
            "type": "SCALAR",
            "count": 120,
            "bufferView": 0,
            "byteOffset": 0
        },
        {
            "componentType": 5126,
            "type": "VEC3",
            "count": 64,
            "bufferView": 1,
            "byteOffset": 0,
            "min": [
                -0.134002566337585,
                0.250845789909363,
                -0.0847355350852013
            ],
            "max": [
                0.129035323858261,
                2.06467747688293,
                0.0846460834145546
            ]
        },
        {
            "componentType": 5126,
            "type": "VEC3",
            "count": 64,
            "bufferView": 2,
            "byteOffset": 0
        },
        {
            "componentType": 5123,
            "type": "SCALAR",
            "count": 618,
            "bufferView": 3,
            "byteOffset": 0
        },
        {
            "componentType": 5126,
            "type": "VEC3",
            "count": 150,
            "bufferView": 4,
            "byteOffset": 0,
            "min": [
                -0.426834255456924,
                -0.360954612493515,
                -0.0847355350852013
            ],
            "max": [
                0.421866983175278,
                0.327772945165634,
                0.0846460834145546
            ]
        },
        {
            "componentType": 5126,
            "type": "VEC3",
            "count": 150,
            "bufferView": 5,
            "byteOffset": 0
        }
    ],
    "samplers": [
        {}
    ],
    "materials": [
        {
            "name": "Steel 2",
            "alphaMode": "OPAQUE",
            "doubleSided": false,
            "extras": {
                "fromFBX": {
                    "shadingModel": "Phong",
                    "isTruePBR": false
                }
            },
            "pbrMetallicRoughness": {
                "baseColorFactor": [
                    0.164063006639481,
                    0.209800526499748,
                    0.262222498655319,
                    1.0
                ],
                "metallicFactor": 0.400000005960464,
                "roughnessFactor": 0.415087103843689
            }
        },
        {
            "name": "Orange 1",
            "alphaMode": "OPAQUE",
            "doubleSided": false,
            "extras": {
                "fromFBX": {
                    "shadingModel": "Phong",
                    "isTruePBR": false
                }
            },
            "pbrMetallicRoughness": {
                "baseColorFactor": [
                    0.723729014396667,
                    0.251190960407257,
                    0.0295115690678358,
                    1.0
                ],
                "metallicFactor": 0.400000005960464,
                "roughnessFactor": 0.415087103843689
            }
        }
    ],
    "meshes": [
        {
            "name": "Sword",
            "primitives": [
                {
                    "material": 0,
                    "mode": 4,
                    "attributes": {
                        "NORMAL": 2,
                        "POSITION": 1
                    },
                    "indices": 0
                },
                {
                    "material": 1,
                    "mode": 4,
                    "attributes": {
                        "NORMAL": 5,
                        "POSITION": 4
                    },
                    "indices": 3
                }
            ]
        }
    ],
    "nodes": [
        {
            "name": "RootNode",
            "translation": [
                0.0,
                0.0,
                0.0
            ],
            "rotation": [
                0.0,
                0.0,
                0.0,
                1.0
            ],
            "scale": [
                1.0,
                1.0,
                1.0
            ],
            "children": [
                1
            ]
        },
        {
            "name": "Sword",
            "translation": [
                0.0,
                0.0,
                0.0
            ],
            "rotation": [
                0.0,
                0.0,
                0.0,
                1.0
            ],
            "scale": [
                1.0,
                1.0,
                1.0
            ],
            "mesh": 0
        }
    ]
}