{
    "asset": {
        "generator": "FBX2glTF v0.13.1",
        "version": "2.0"
    },
    "scene": 0,
    "buffers": [
        {
            "byteLength": 78060,
            "uri": "buffer.bin"
        }
    ],
    "bufferViews": [
        {
            "buffer": 0,
            "byteLength": 124,
            "byteOffset": 0
        },
        {
            "buffer": 0,
            "byteLength": 496,
            "byteOffset": 124
        },
        {
            "buffer": 0,
            "byteLength": 124,
            "byteOffset": 620
        },
        {
            "buffer": 0,
            "byteLength": 496,
            "byteOffset": 744
        },
        {
            "buffer": 0,
            "byteLength": 244,
            "byteOffset": 1240
        },
        {
            "buffer": 0,
            "byteLength": 976,
            "byteOffset": 1484
        },
        {
            "buffer": 0,
            "byteLength": 3552,
            "byteOffset": 2460,
            "target": 34963
        },
        {
            "buffer": 0,
            "byteLength": 10992,
            "byteOffset": 6012,
            "target": 34962
        },
        {
            "buffer": 0,
            "byteLength": 10992,
            "byteOffset": 17004,
            "target": 34962
        },
        {
            "buffer": 0,
            "byteLength": 14656,
            "byteOffset": 27996,
            "target": 34962
        },
        {
            "buffer": 0,
            "byteLength": 7328,
            "byteOffset": 42652,
            "target": 34962
        },
        {
            "buffer": 0,
            "byteLength": 2736,
            "byteOffset": 49980,
            "target": 34963
        },
        {
            "buffer": 0,
            "byteLength": 6336,
            "byteOffset": 52716,
            "target": 34962
        },
        {
            "buffer": 0,
            "byteLength": 6336,
            "byteOffset": 59052,
            "target": 34962
        },
        {
            "buffer": 0,
            "byteLength": 8448,
            "byteOffset": 65388,
            "target": 34962
        },
        {
            "buffer": 0,
            "byteLength": 4224,
            "byteOffset": 73836,
            "target": 34962
        }
    ],
    "scenes": [
        {
            "name": "Root Scene",
            "nodes": [
                0
            ]
        }
    ],
    "accessors": [
        {
            "componentType": 5126,
            "type": "SCALAR",
            "count": 31,
            "bufferView": 0,
            "byteOffset": 0,
            "min": [
                0.0
            ],
            "max": [
                1.0
            ]
        },
        {
            "componentType": 5126,
            "type": "VEC4",
            "count": 31,
            "bufferView": 1,
            "byteOffset": 0
        },
        {
            "componentType": 5126,
            "type": "SCALAR",
            "count": 31,
            "bufferView": 2,
            "byteOffset": 0,
            "min": [
                0.0
            ],
            "max": [
                1.0
            ]
        },
        {
            "componentType": 5126,
            "type": "VEC4",
            "count": 31,
            "bufferView": 3,
            "byteOffset": 0
        },
        {
            "componentType": 5126,
            "type": "SCALAR",
            "count": 61,
            "bufferView": 4,
            "byteOffset": 0,
            "min": [
                0.0
            ],
            "max": [
                2.0
            ]
        },
        {
            "componentType": 5126,
            "type": "VEC4",
            "count": 61,
            "bufferView": 5,
            "byteOffset": 0
        },
        {
            "componentType": 5123,
            "type": "SCALAR",
            "count": 1776,
            "bufferView": 6,
            "byteOffset": 0
        },
        {
            "componentType": 5126,
            "type": "VEC3",
            "count": 916,
            "bufferView": 7,
            "byteOffset": 0,
            "min": [
                -2.20000004768372,
                0.0,
                -0.700000047683716
            ],
            "max": [
                2.20000004768372,
                4.39999961853027,
                0.700000047683716
            ]
        },
        {
            "componentType": 5126,
            "type": "VEC3",
            "count": 916,
            "bufferView": 8,
            "byteOffset": 0
        },
        {
            "componentType": 5126,
            "type": "VEC4",
            "count": 916,
            "bufferView": 9,
            "byteOffset": 0
        },
        {
            "componentType": 5126,
            "type": "VEC2",
            "count": 916,
            "bufferView": 10,
            "byteOffset": 0
        },
        {
            "componentType": 5123,
            "type": "SCALAR",
            "count": 1368,
            "bufferView": 11,
            "byteOffset": 0
        },
        {
            "componentType": 5126,
            "type": "VEC3",
            "count": 528,
            "bufferView": 12,
            "byteOffset": 0,
            "min": [
                -3.0,
                -2.70838784884563e-17,
                -0.399999618530273
            ],
            "max": [
                0.0,
                3.59568524360657,
                0.400000363588333
            ]
        },
        {
            "componentType": 5126,
            "type": "VEC3",
            "count": 528,
            "bufferView": 13,
            "byteOffset": 0
        },
        {
            "componentType": 5126,
            "type": "VEC4",
            "count": 528,
            "bufferView": 14,
            "byteOffset": 0
        },
        {
            "componentType": 5126,
            "type": "VEC2",
            "count": 528,
            "bufferView": 15,
            "byteOffset": 0
        }
    ],
    "images": [
        {
            "name": "colormap.png",
            "uri": "colormap.png"
        }
    ],
    "samplers": [
        {}
    ],
    "textures": [
        {
            "name": "DiffuseColor_Texture",
            "sampler": 0,
            "source": 0
        }
    ],
    "materials": [
        {
            "name": "colormap",
            "alphaMode": "OPAQUE",
            "doubleSided": false,
            "extras": {
                "fromFBX": {
                    "shadingModel": "Lambert",
                    "isTruePBR": false
                }
            },
            "pbrMetallicRoughness": {
                "baseColorTexture": {
                    "index": 0,
                    "texCoord": 0
                },
                "baseColorFactor": [
                    1.0,
                    1.0,
                    1.0,
                    1.0
                ],
                "metallicFactor": 0.200000002980232,
                "roughnessFactor": 0.800000011920929
            }
        }
    ],
    "meshes": [
        {
            "name": "gate-door-window",
            "primitives": [
                {
                    "material": 0,
                    "mode": 4,
                    "attributes": {
                        "NORMAL": 8,
                        "POSITION": 7,
                        "TANGENT": 9,
                        "TEXCOORD_0": 10
                    },
                    "indices": 6
                }
            ]
        },
        {
            "name": "door",
            "primitives": [
                {
                    "material": 0,
                    "mode": 4,
                    "attributes": {
                        "NORMAL": 13,
                        "POSITION": 12,
                        "TANGENT": 14,
                        "TEXCOORD_0": 15
                    },
                    "indices": 11
                }
            ]
        }
    ],
    "animations": [
        {
            "name": "open",
            "channels": [
                {
                    "sampler": 0,
                    "target": {
                        "node": 2,
                        "path": "rotation"
                    }
                }
            ],
            "samplers": [
                {
                    "input": 0,
                    "interpolation": "LINEAR",
                    "output": 1
                }
            ]
        },
        {
            "name": "close",
            "channels": [
                {
                    "sampler": 0,
                    "target": {
                        "node": 2,
                        "path": "rotation"
                    }
                }
            ],
            "samplers": [
                {
                    "input": 2,
                    "interpolation": "LINEAR",
                    "output": 3
                }
            ]
        },
        {
            "name": "open-and-close",
            "channels": [
                {
                    "sampler": 0,
                    "target": {
                        "node": 2,
                        "path": "rotation"
                    }
                }
            ],
            "samplers": [
                {
                    "input": 4,
                    "interpolation": "LINEAR",
                    "output": 5
                }
            ]
        }
    ],
    "nodes": [
        {
            "name": "RootNode",
            "translation": [
                0.0,
                0.0,
                0.0
            ],
            "rotation": [
                0.0,
                0.0,
                0.0,
                1.0
            ],
            "scale": [
                1.0,
                1.0,
                1.0
            ],
            "children": [
                1
            ]
        },
        {
            "name": "gate-door-window",
            "translation": [
                0.0,
                0.0,
                0.0
            ],
            "rotation": [
                0.0,
                0.0,
                0.0,
                1.0
            ],
            "scale": [
                1.0,
                1.0,
                1.0
            ],
            "children": [
                2
            ],
            "mesh": 0
        },
        {
            "name": "door",
            "translation": [
                1.5,
                0.0,
                2.98320190772472e-09
            ],
            "rotation": [
                0.0,
                0.0,
                0.0,
                1.0
            ],
            "scale": [
                1.0,
                1.0,
                1.0
            ],
            "mesh": 1
        }
    ]
}