{
    "asset": {
        "generator": "FBX2glTF v0.13.1",
        "version": "2.0"
    },
    "scene": 0,
    "buffers": [
        {
            "byteLength": 11092,
            "uri": "buffer.bin"
        }
    ],
    "bufferViews": [
        {
            "buffer": 0,
            "byteLength": 2436,
            "byteOffset": 0,
            "target": 34963
        },
        {
            "buffer": 0,
            "byteLength": 2592,
            "byteOffset": 2436,
            "target": 34962
        },
        {
            "buffer": 0,
            "byteLength": 2592,
            "byteOffset": 5028,
            "target": 34962
        },
        {
            "buffer": 0,
            "byteLength": 708,
            "byteOffset": 7620,
            "target": 34963
        },
        {
            "buffer": 0,
            "byteLength": 864,
            "byteOffset": 8328,
            "target": 34962
        },
        {
            "buffer": 0,
            "byteLength": 864,
            "byteOffset": 9192,
            "target": 34962
        },
        {
            "buffer": 0,
            "byteLength": 186,
            "byteOffset": 10056,
            "target": 34963
        },
        {
            "buffer": 0,
            "byteLength": 264,
            "byteOffset": 10244,
            "target": 34962
        },
        {
            "buffer": 0,
            "byteLength": 264,
            "byteOffset": 10508,
            "target": 34962
        },
        {
            "buffer": 0,
            "byteLength": 54,
            "byteOffset": 10772,
            "target": 34963
        },
        {
            "buffer": 0,
            "byteLength": 132,
            "byteOffset": 10828,
            "target": 34962
        },
        {
            "buffer": 0,
            "byteLength": 132,
            "byteOffset": 10960,
            "target": 34962
        }
    ],
    "scenes": [
        {
            "name": "Root Scene",
            "nodes": [
                0
            ]
        }
    ],
    "accessors": [
        {
            "componentType": 5123,
            "type": "SCALAR",
            "count": 1218,
            "bufferView": 0,
            "byteOffset": 0
        },
        {
            "componentType": 5126,
            "type": "VEC3",
            "count": 216,
            "bufferView": 1,
            "byteOffset": 0,
            "min": [
                -0.618757903575897,
                -0.19708676636219,
                -0.582440674304962
            ],
            "max": [
                0.514099895954132,
                0.246340289711952,
                0.560419380664825
            ]
        },
        {
            "componentType": 5126,
            "type": "VEC3",
            "count": 216,
            "bufferView": 2,
            "byteOffset": 0
        },
        {
            "componentType": 5123,
            "type": "SCALAR",
            "count": 354,
            "bufferView": 3,
            "byteOffset": 0
        },
        {
            "componentType": 5126,
            "type": "VEC3",
            "count": 72,
            "bufferView": 4,
            "byteOffset": 0,
            "min": [
                -0.422527730464935,
                -0.220610797405243,
                -0.573423981666565
            ],
            "max": [
                0.498126447200775,
                -0.0582218207418919,
                0.457661807537079
            ]
        },
        {
            "componentType": 5126,
            "type": "VEC3",
            "count": 72,
            "bufferView": 5,
            "byteOffset": 0
        },
        {
            "componentType": 5123,
            "type": "SCALAR",
            "count": 93,
            "bufferView": 6,
            "byteOffset": 0
        },
        {
            "componentType": 5126,
            "type": "VEC3",
            "count": 22,
            "bufferView": 7,
            "byteOffset": 0,
            "min": [
                0.276626348495483,
                -0.162569716572762,
                0.205572351813316
            ],
            "max": [
                0.473261475563049,
                0.030022319406271,
                0.449288666248322
            ]
        },
        {
            "componentType": 5126,
            "type": "VEC3",
            "count": 22,
            "bufferView": 8,
            "byteOffset": 0
        },
        {
            "componentType": 5123,
            "type": "SCALAR",
            "count": 27,
            "bufferView": 9,
            "byteOffset": 0
        },
        {
            "componentType": 5126,
            "type": "VEC3",
            "count": 11,
            "bufferView": 10,
            "byteOffset": 0,
            "min": [
                0.318652838468552,
                -0.162569716572762,
                0.236376449465752
            ],
            "max": [
                0.473261475563049,
                0.029417160898447,
                0.449288666248322
            ]
        },
        {
            "componentType": 5126,
            "type": "VEC3",
            "count": 11,
            "bufferView": 11,
            "byteOffset": 0
        }
    ],
    "samplers": [
        {}
    ],
    "materials": [
        {
            "name": "Tan 1",
            "alphaMode": "OPAQUE",
            "doubleSided": false,
            "extras": {
                "fromFBX": {
                    "shadingModel": "Phong",
                    "isTruePBR": false
                }
            },
            "pbrMetallicRoughness": {
                "baseColorFactor": [
                    0.596323490142822,
                    0.254837453365326,
                    0.0998174697160721,
                    1.0
                ],
                "metallicFactor": 0.400000005960464,
                "roughnessFactor": 0.415087103843689
            }
        },
        {
            "name": "Tan 2",
            "alphaMode": "OPAQUE",
            "doubleSided": false,
            "extras": {
                "fromFBX": {
                    "shadingModel": "Phong",
                    "isTruePBR": false
                }
            },
            "pbrMetallicRoughness": {
                "baseColorFactor": [
                    0.200126647949219,
                    0.0875693634152412,
                    0.0489968471229076,
                    1.0
                ],
                "metallicFactor": 0.400000005960464,
                "roughnessFactor": 0.415087103843689
            }
        },
        {
            "name": "Steel 3",
            "alphaMode": "OPAQUE",
            "doubleSided": false,
            "extras": {
                "fromFBX": {
                    "shadingModel": "Phong",
                    "isTruePBR": false
                }
            },
            "pbrMetallicRoughness": {
                "baseColorFactor": [
                    0.050408024340868,
                    0.0799189880490303,
                    0.11301064491272,
                    1.0
                ],
                "metallicFactor": 0.400000005960464,
                "roughnessFactor": 0.415087103843689
            }
        },
        {
            "name": "Steel 2",
            "alphaMode": "OPAQUE",
            "doubleSided": false,
            "extras": {
                "fromFBX": {
                    "shadingModel": "Phong",
                    "isTruePBR": false
                }
            },
            "pbrMetallicRoughness": {
                "baseColorFactor": [
                    0.164063006639481,
                    0.209800526499748,
                    0.262222498655319,
                    1.0
                ],
                "metallicFactor": 0.400000005960464,
                "roughnessFactor": 0.415087103843689
            }
        }
    ],
    "meshes": [
        {
            "name": "militaryBeret",
            "primitives": [
                {
                    "material": 0,
                    "mode": 4,
                    "attributes": {
                        "NORMAL": 2,
                        "POSITION": 1
                    },
                    "indices": 0
                },
                {
                    "material": 1,
                    "mode": 4,
                    "attributes": {
                        "NORMAL": 5,
                        "POSITION": 4
                    },
                    "indices": 3
                },
                {
                    "material": 2,
                    "mode": 4,
                    "attributes": {
                        "NORMAL": 8,
                        "POSITION": 7
                    },
                    "indices": 6
                },
                {
                    "material": 3,
                    "mode": 4,
                    "attributes": {
                        "NORMAL": 11,
                        "POSITION": 10
                    },
                    "indices": 9
                }
            ]
        }
    ],
    "nodes": [
        {
            "name": "RootNode",
            "translation": [
                0.0,
                0.0,
                0.0
            ],
            "rotation": [
                0.0,
                0.0,
                0.0,
                1.0
            ],
            "scale": [
                1.0,
                1.0,
                1.0
            ],
            "children": [
                1
            ]
        },
        {
            "name": "militaryBeret",
            "translation": [
                0.0,
                0.0,
                0.0
            ],
            "rotation": [
                0.0,
                0.0,
                0.0,
                1.0
            ],
            "scale": [
                1.0,
                1.0,
                1.0
            ],
            "mesh": 0
        }
    ]
}