{
    "asset": {
        "generator": "FBX2glTF v0.13.1",
        "version": "2.0"
    },
    "scene": 0,
    "buffers": [
        {
            "byteLength": 15604,
            "uri": "buffer.bin"
        }
    ],
    "bufferViews": [
        {
            "buffer": 0,
            "byteLength": 744,
            "byteOffset": 0,
            "target": 34963
        },
        {
            "buffer": 0,
            "byteLength": 1716,
            "byteOffset": 744,
            "target": 34962
        },
        {
            "buffer": 0,
            "byteLength": 1716,
            "byteOffset": 2460,
            "target": 34962
        },
        {
            "buffer": 0,
            "byteLength": 1144,
            "byteOffset": 4176,
            "target": 34962
        },
        {
            "buffer": 0,
            "byteLength": 426,
            "byteOffset": 5320,
            "target": 34963
        },
        {
            "buffer": 0,
            "byteLength": 1356,
            "byteOffset": 5748,
            "target": 34962
        },
        {
            "buffer": 0,
            "byteLength": 1356,
            "byteOffset": 7104,
            "target": 34962
        },
        {
            "buffer": 0,
            "byteLength": 904,
            "byteOffset": 8460,
            "target": 34962
        },
        {
            "buffer": 0,
            "byteLength": 180,
            "byteOffset": 9364,
            "target": 34963
        },
        {
            "buffer": 0,
            "byteLength": 552,
            "byteOffset": 9544,
            "target": 34962
        },
        {
            "buffer": 0,
            "byteLength": 552,
            "byteOffset": 10096,
            "target": 34962
        },
        {
            "buffer": 0,
            "byteLength": 368,
            "byteOffset": 10648,
            "target": 34962
        },
        {
            "buffer": 0,
            "byteLength": 522,
            "byteOffset": 11016,
            "target": 34963
        },
        {
            "buffer": 0,
            "byteLength": 1524,
            "byteOffset": 11540,
            "target": 34962
        },
        {
            "buffer": 0,
            "byteLength": 1524,
            "byteOffset": 13064,
            "target": 34962
        },
        {
            "buffer": 0,
            "byteLength": 1016,
            "byteOffset": 14588,
            "target": 34962
        }
    ],
    "scenes": [
        {
            "name": "Root Scene",
            "nodes": [
                0
            ]
        }
    ],
    "accessors": [
        {
            "componentType": 5123,
            "type": "SCALAR",
            "count": 372,
            "bufferView": 0,
            "byteOffset": 0
        },
        {
            "componentType": 5126,
            "type": "VEC3",
            "count": 143,
            "bufferView": 1,
            "byteOffset": 0,
            "min": [
                -0.0999999940395355,
                0.0,
                0.0
            ],
            "max": [
                0.0,
                0.0999999940395355,
                0.0458422191441059
            ]
        },
        {
            "componentType": 5126,
            "type": "VEC3",
            "count": 143,
            "bufferView": 2,
            "byteOffset": 0
        },
        {
            "componentType": 5126,
            "type": "VEC2",
            "count": 143,
            "bufferView": 3,
            "byteOffset": 0
        },
        {
            "componentType": 5123,
            "type": "SCALAR",
            "count": 213,
            "bufferView": 4,
            "byteOffset": 0
        },
        {
            "componentType": 5126,
            "type": "VEC3",
            "count": 113,
            "bufferView": 5,
            "byteOffset": 0,
            "min": [
                -0.0853331908583641,
                0.0949999913573265,
                0.0
            ],
            "max": [
                -0.0187499988824129,
                0.0999999940395355,
                0.031365729868412
            ]
        },
        {
            "componentType": 5126,
            "type": "VEC3",
            "count": 113,
            "bufferView": 6,
            "byteOffset": 0
        },
        {
            "componentType": 5126,
            "type": "VEC2",
            "count": 113,
            "bufferView": 7,
            "byteOffset": 0
        },
        {
            "componentType": 5123,
            "type": "SCALAR",
            "count": 90,
            "bufferView": 8,
            "byteOffset": 0
        },
        {
            "componentType": 5126,
            "type": "VEC3",
            "count": 46,
            "bufferView": 9,
            "byteOffset": 0,
            "min": [
                -0.0999999940395355,
                0.0,
                0.0
            ],
            "max": [
                0.0,
                0.0999999940395355,
                0.0458422191441059
            ]
        },
        {
            "componentType": 5126,
            "type": "VEC3",
            "count": 46,
            "bufferView": 10,
            "byteOffset": 0
        },
        {
            "componentType": 5126,
            "type": "VEC2",
            "count": 46,
            "bufferView": 11,
            "byteOffset": 0
        },
        {
            "componentType": 5123,
            "type": "SCALAR",
            "count": 261,
            "bufferView": 12,
            "byteOffset": 0
        },
        {
            "componentType": 5126,
            "type": "VEC3",
            "count": 127,
            "bufferView": 13,
            "byteOffset": 0,
            "min": [
                -0.0795730501413345,
                2.46106200374513e-17,
                3.60955705403911e-16
            ],
            "max": [
                -0.0249999985098839,
                0.0949999913573265,
                0.0458422191441059
            ]
        },
        {
            "componentType": 5126,
            "type": "VEC3",
            "count": 127,
            "bufferView": 14,
            "byteOffset": 0
        },
        {
            "componentType": 5126,
            "type": "VEC2",
            "count": 127,
            "bufferView": 15,
            "byteOffset": 0
        }
    ],
    "samplers": [
        {}
    ],
    "materials": [
        {
            "name": "natureKit-leavesGreen",
            "alphaMode": "OPAQUE",
            "doubleSided": false,
            "extras": {
                "fromFBX": {
                    "shadingModel": "Phong",
                    "isTruePBR": false
                }
            },
            "pbrMetallicRoughness": {
                "baseColorFactor": [
                    0.352941185235977,
                    0.768627524375916,
                    0.713725507259369,
                    1.0
                ],
                "metallicFactor": 0.400000005960464,
                "roughnessFactor": 1.0
            }
        },
        {
            "name": "natureKit-wood",
            "alphaMode": "OPAQUE",
            "doubleSided": false,
            "extras": {
                "fromFBX": {
                    "shadingModel": "Phong",
                    "isTruePBR": false
                }
            },
            "pbrMetallicRoughness": {
                "baseColorFactor": [
                    1.0,
                    0.682353019714355,
                    0.435294091701508,
                    1.0
                ],
                "metallicFactor": 0.400000005960464,
                "roughnessFactor": 1.0
            }
        },
        {
            "name": "natureKit-stone",
            "alphaMode": "OPAQUE",
            "doubleSided": false,
            "extras": {
                "fromFBX": {
                    "shadingModel": "Phong",
                    "isTruePBR": false
                }
            },
            "pbrMetallicRoughness": {
                "baseColorFactor": [
                    0.658823490142822,
                    0.807843089103699,
                    0.82745099067688,
                    1.0
                ],
                "metallicFactor": 0.400000005960464,
                "roughnessFactor": 1.0
            }
        },
        {
            "name": "natureKit-water",
            "alphaMode": "OPAQUE",
            "doubleSided": false,
            "extras": {
                "fromFBX": {
                    "shadingModel": "Phong",
                    "isTruePBR": false
                }
            },
            "pbrMetallicRoughness": {
                "baseColorFactor": [
                    0.691176474094391,
                    0.957887828350067,
                    1.0,
                    1.0
                ],
                "metallicFactor": 0.400000005960464,
                "roughnessFactor": 1.0
            }
        }
    ],
    "meshes": [
        {
            "name": "cliffGrey_waterfallTop",
            "primitives": [
                {
                    "material": 0,
                    "mode": 4,
                    "attributes": {
                        "NORMAL": 2,
                        "POSITION": 1,
                        "TEXCOORD_0": 3
                    },
                    "indices": 0
                },
                {
                    "material": 1,
                    "mode": 4,
                    "attributes": {
                        "NORMAL": 6,
                        "POSITION": 5,
                        "TEXCOORD_0": 7
                    },
                    "indices": 4
                },
                {
                    "material": 2,
                    "mode": 4,
                    "attributes": {
                        "NORMAL": 10,
                        "POSITION": 9,
                        "TEXCOORD_0": 11
                    },
                    "indices": 8
                },
                {
                    "material": 3,
                    "mode": 4,
                    "attributes": {
                        "NORMAL": 14,
                        "POSITION": 13,
                        "TEXCOORD_0": 15
                    },
                    "indices": 12
                }
            ]
        }
    ],
    "nodes": [
        {
            "name": "RootNode",
            "translation": [
                0.0,
                0.0,
                0.0
            ],
            "rotation": [
                0.0,
                0.0,
                0.0,
                1.0
            ],
            "scale": [
                1.0,
                1.0,
                1.0
            ],
            "children": [
                1
            ]
        },
        {
            "name": "cliffGrey_waterfallTop",
            "translation": [
                -62.0,
                2.05088497554825e-17,
                -36.0
            ],
            "rotation": [
                0.0,
                0.0,
                0.0,
                1.0
            ],
            "scale": [
                100.0,
                100.0,
                100.0
            ],
            "mesh": 0
        }
    ]
}