{
    "asset": {
        "generator": "FBX2glTF v0.13.1",
        "version": "2.0"
    },
    "scene": 0,
    "buffers": [
        {
            "byteLength": 23280,
            "uri": "buffer.bin"
        }
    ],
    "bufferViews": [
        {
            "buffer": 0,
            "byteLength": 1080,
            "byteOffset": 0,
            "target": 34963
        },
        {
            "buffer": 0,
            "byteLength": 2760,
            "byteOffset": 1080,
            "target": 34962
        },
        {
            "buffer": 0,
            "byteLength": 2760,
            "byteOffset": 3840,
            "target": 34962
        },
        {
            "buffer": 0,
            "byteLength": 3680,
            "byteOffset": 6600,
            "target": 34962
        },
        {
            "buffer": 0,
            "byteLength": 1840,
            "byteOffset": 10280,
            "target": 34962
        },
        {
            "buffer": 0,
            "byteLength": 1176,
            "byteOffset": 12120,
            "target": 34963
        },
        {
            "buffer": 0,
            "byteLength": 2496,
            "byteOffset": 13296,
            "target": 34962
        },
        {
            "buffer": 0,
            "byteLength": 2496,
            "byteOffset": 15792,
            "target": 34962
        },
        {
            "buffer": 0,
            "byteLength": 3328,
            "byteOffset": 18288,
            "target": 34962
        },
        {
            "buffer": 0,
            "byteLength": 1664,
            "byteOffset": 21616,
            "target": 34962
        }
    ],
    "scenes": [
        {
            "name": "Root Scene",
            "nodes": [
                0
            ]
        }
    ],
    "accessors": [
        {
            "componentType": 5123,
            "type": "SCALAR",
            "count": 540,
            "bufferView": 0,
            "byteOffset": 0
        },
        {
            "componentType": 5126,
            "type": "VEC3",
            "count": 230,
            "bufferView": 1,
            "byteOffset": 0,
            "min": [
                0.39999994635582,
                0.0,
                -0.5
            ],
            "max": [
                0.5,
                1.0,
                0.5
            ]
        },
        {
            "componentType": 5126,
            "type": "VEC3",
            "count": 230,
            "bufferView": 2,
            "byteOffset": 0
        },
        {
            "componentType": 5126,
            "type": "VEC4",
            "count": 230,
            "bufferView": 3,
            "byteOffset": 0
        },
        {
            "componentType": 5126,
            "type": "VEC2",
            "count": 230,
            "bufferView": 4,
            "byteOffset": 0
        },
        {
            "componentType": 5123,
            "type": "SCALAR",
            "count": 588,
            "bufferView": 5,
            "byteOffset": 0
        },
        {
            "componentType": 5126,
            "type": "VEC3",
            "count": 208,
            "bufferView": 6,
            "byteOffset": 0,
            "min": [
                -0.0249999985098839,
                0.0,
                -1.9371509552002e-07
            ],
            "max": [
                0.0249999985098839,
                0.75,
                0.399999797344208
            ]
        },
        {
            "componentType": 5126,
            "type": "VEC3",
            "count": 208,
            "bufferView": 7,
            "byteOffset": 0
        },
        {
            "componentType": 5126,
            "type": "VEC4",
            "count": 208,
            "bufferView": 8,
            "byteOffset": 0
        },
        {
            "componentType": 5126,
            "type": "VEC2",
            "count": 208,
            "bufferView": 9,
            "byteOffset": 0
        }
    ],
    "images": [
        {
            "name": "colormap.png",
            "uri": "colormap.png"
        }
    ],
    "samplers": [
        {}
    ],
    "textures": [
        {
            "name": "DiffuseColor_Texture",
            "sampler": 0,
            "source": 0
        }
    ],
    "materials": [
        {
            "name": "colormap",
            "alphaMode": "OPAQUE",
            "doubleSided": false,
            "extras": {
                "fromFBX": {
                    "shadingModel": "Lambert",
                    "isTruePBR": false
                }
            },
            "pbrMetallicRoughness": {
                "baseColorTexture": {
                    "index": 0,
                    "texCoord": 0
                },
                "baseColorFactor": [
                    1.0,
                    1.0,
                    1.0,
                    1.0
                ],
                "metallicFactor": 0.200000002980232,
                "roughnessFactor": 0.800000011920929
            }
        }
    ],
    "meshes": [
        {
            "name": "wall-wood-door",
            "primitives": [
                {
                    "material": 0,
                    "mode": 4,
                    "attributes": {
                        "NORMAL": 2,
                        "POSITION": 1,
                        "TANGENT": 3,
                        "TEXCOORD_0": 4
                    },
                    "indices": 0
                }
            ]
        },
        {
            "name": "door",
            "primitives": [
                {
                    "material": 0,
                    "mode": 4,
                    "attributes": {
                        "NORMAL": 7,
                        "POSITION": 6,
                        "TANGENT": 8,
                        "TEXCOORD_0": 9
                    },
                    "indices": 5
                }
            ]
        }
    ],
    "nodes": [
        {
            "name": "RootNode",
            "translation": [
                0.0,
                0.0,
                0.0
            ],
            "rotation": [
                0.0,
                0.0,
                0.0,
                1.0
            ],
            "scale": [
                1.0,
                1.0,
                1.0
            ],
            "children": [
                1
            ]
        },
        {
            "name": "wall-wood-door",
            "translation": [
                0.0,
                0.0,
                0.0
            ],
            "rotation": [
                0.0,
                0.0,
                0.0,
                1.0
            ],
            "scale": [
                1.0,
                1.0,
                1.0
            ],
            "children": [
                2
            ],
            "mesh": 0
        },
        {
            "name": "door",
            "translation": [
                0.449999988079071,
                3.67408844989421e-20,
                -0.199999988079071
            ],
            "rotation": [
                0.0,
                0.0,
                0.0,
                1.0
            ],
            "scale": [
                1.0,
                1.0,
                1.0
            ],
            "mesh": 1
        }
    ]
}