{
    "asset": {
        "generator": "FBX2glTF v0.13.1",
        "version": "2.0"
    },
    "scene": 0,
    "buffers": [
        {
            "byteLength": 14152,
            "uri": "buffer.bin"
        }
    ],
    "bufferViews": [
        {
            "buffer": 0,
            "byteLength": 204,
            "byteOffset": 0,
            "target": 34963
        },
        {
            "buffer": 0,
            "byteLength": 720,
            "byteOffset": 204,
            "target": 34962
        },
        {
            "buffer": 0,
            "byteLength": 720,
            "byteOffset": 924,
            "target": 34962
        },
        {
            "buffer": 0,
            "byteLength": 480,
            "byteOffset": 1644,
            "target": 34962
        },
        {
            "buffer": 0,
            "byteLength": 204,
            "byteOffset": 2124,
            "target": 34963
        },
        {
            "buffer": 0,
            "byteLength": 720,
            "byteOffset": 2328,
            "target": 34962
        },
        {
            "buffer": 0,
            "byteLength": 720,
            "byteOffset": 3048,
            "target": 34962
        },
        {
            "buffer": 0,
            "byteLength": 480,
            "byteOffset": 3768,
            "target": 34962
        },
        {
            "buffer": 0,
            "byteLength": 1092,
            "byteOffset": 4248,
            "target": 34963
        },
        {
            "buffer": 0,
            "byteLength": 2976,
            "byteOffset": 5340,
            "target": 34962
        },
        {
            "buffer": 0,
            "byteLength": 2976,
            "byteOffset": 8316,
            "target": 34962
        },
        {
            "buffer": 0,
            "byteLength": 1984,
            "byteOffset": 11292,
            "target": 34962
        },
        {
            "buffer": 0,
            "byteLength": 36,
            "byteOffset": 13276,
            "target": 34963
        },
        {
            "buffer": 0,
            "byteLength": 96,
            "byteOffset": 13312,
            "target": 34962
        },
        {
            "buffer": 0,
            "byteLength": 96,
            "byteOffset": 13408,
            "target": 34962
        },
        {
            "buffer": 0,
            "byteLength": 64,
            "byteOffset": 13504,
            "target": 34962
        },
        {
            "buffer": 0,
            "byteLength": 36,
            "byteOffset": 13568,
            "target": 34963
        },
        {
            "buffer": 0,
            "byteLength": 96,
            "byteOffset": 13604,
            "target": 34962
        },
        {
            "buffer": 0,
            "byteLength": 96,
            "byteOffset": 13700,
            "target": 34962
        },
        {
            "buffer": 0,
            "byteLength": 64,
            "byteOffset": 13796,
            "target": 34962
        },
        {
            "buffer": 0,
            "byteLength": 36,
            "byteOffset": 13860,
            "target": 34963
        },
        {
            "buffer": 0,
            "byteLength": 96,
            "byteOffset": 13896,
            "target": 34962
        },
        {
            "buffer": 0,
            "byteLength": 96,
            "byteOffset": 13992,
            "target": 34962
        },
        {
            "buffer": 0,
            "byteLength": 64,
            "byteOffset": 14088,
            "target": 34962
        }
    ],
    "scenes": [
        {
            "name": "Root Scene",
            "nodes": [
                0
            ]
        }
    ],
    "accessors": [
        {
            "componentType": 5123,
            "type": "SCALAR",
            "count": 102,
            "bufferView": 0,
            "byteOffset": 0
        },
        {
            "componentType": 5126,
            "type": "VEC3",
            "count": 60,
            "bufferView": 1,
            "byteOffset": 0,
            "min": [
                -0.001759999897331,
                0.0,
                -0.001759999897331
            ],
            "max": [
                0.001759999897331,
                0.0645655170083046,
                0.001759999897331
            ]
        },
        {
            "componentType": 5126,
            "type": "VEC3",
            "count": 60,
            "bufferView": 2,
            "byteOffset": 0
        },
        {
            "componentType": 5126,
            "type": "VEC2",
            "count": 60,
            "bufferView": 3,
            "byteOffset": 0
        },
        {
            "componentType": 5123,
            "type": "SCALAR",
            "count": 102,
            "bufferView": 4,
            "byteOffset": 0
        },
        {
            "componentType": 5126,
            "type": "VEC3",
            "count": 60,
            "bufferView": 5,
            "byteOffset": 0,
            "min": [
                -0.001759999897331,
                0.0,
                -0.001759999897331
            ],
            "max": [
                0.001759999897331,
                0.0645655170083046,
                0.001759999897331
            ]
        },
        {
            "componentType": 5126,
            "type": "VEC3",
            "count": 60,
            "bufferView": 6,
            "byteOffset": 0
        },
        {
            "componentType": 5126,
            "type": "VEC2",
            "count": 60,
            "bufferView": 7,
            "byteOffset": 0
        },
        {
            "componentType": 5123,
            "type": "SCALAR",
            "count": 546,
            "bufferView": 8,
            "byteOffset": 0
        },
        {
            "componentType": 5126,
            "type": "VEC3",
            "count": 248,
            "bufferView": 9,
            "byteOffset": 0,
            "min": [
                -0.00353999994695187,
                0.0430247187614441,
                -0.00910666212439537
            ],
            "max": [
                0.00353999994695187,
                0.0642647221684456,
                -0.000999999814666808
            ]
        },
        {
            "componentType": 5126,
            "type": "VEC3",
            "count": 248,
            "bufferView": 10,
            "byteOffset": 0
        },
        {
            "componentType": 5126,
            "type": "VEC2",
            "count": 248,
            "bufferView": 11,
            "byteOffset": 0
        },
        {
            "componentType": 5123,
            "type": "SCALAR",
            "count": 18,
            "bufferView": 12,
            "byteOffset": 0
        },
        {
            "componentType": 5126,
            "type": "VEC3",
            "count": 8,
            "bufferView": 13,
            "byteOffset": 0,
            "min": [
                -0.00226863985881209,
                0.0510251186788082,
                -0.0071844425983727
            ],
            "max": [
                0.00226863985881209,
                0.0562643185257912,
                -0.0071844425983727
            ]
        },
        {
            "componentType": 5126,
            "type": "VEC3",
            "count": 8,
            "bufferView": 14,
            "byteOffset": 0
        },
        {
            "componentType": 5126,
            "type": "VEC2",
            "count": 8,
            "bufferView": 15,
            "byteOffset": 0
        },
        {
            "componentType": 5123,
            "type": "SCALAR",
            "count": 18,
            "bufferView": 16,
            "byteOffset": 0
        },
        {
            "componentType": 5126,
            "type": "VEC3",
            "count": 8,
            "bufferView": 17,
            "byteOffset": 0,
            "min": [
                -0.00226863985881209,
                0.0581051297485828,
                -0.0071844425983727
            ],
            "max": [
                0.00226863985881209,
                0.0633443295955658,
                -0.0071844425983727
            ]
        },
        {
            "componentType": 5126,
            "type": "VEC3",
            "count": 8,
            "bufferView": 18,
            "byteOffset": 0
        },
        {
            "componentType": 5126,
            "type": "VEC2",
            "count": 8,
            "bufferView": 19,
            "byteOffset": 0
        },
        {
            "componentType": 5123,
            "type": "SCALAR",
            "count": 18,
            "bufferView": 20,
            "byteOffset": 0
        },
        {
            "componentType": 5126,
            "type": "VEC3",
            "count": 8,
            "bufferView": 21,
            "byteOffset": 0,
            "min": [
                -0.00226863985881209,
                0.0439451225101948,
                -0.0071844425983727
            ],
            "max": [
                0.00226863985881209,
                0.0491843223571777,
                -0.0071844425983727
            ]
        },
        {
            "componentType": 5126,
            "type": "VEC3",
            "count": 8,
            "bufferView": 22,
            "byteOffset": 0
        },
        {
            "componentType": 5126,
            "type": "VEC2",
            "count": 8,
            "bufferView": 23,
            "byteOffset": 0
        }
    ],
    "samplers": [
        {}
    ],
    "materials": [
        {
            "name": "_defaultMat",
            "alphaMode": "OPAQUE",
            "doubleSided": false,
            "extras": {
                "fromFBX": {
                    "shadingModel": "Phong",
                    "isTruePBR": false
                }
            },
            "pbrMetallicRoughness": {
                "baseColorFactor": [
                    1.0,
                    1.0,
                    1.0,
                    1.0
                ],
                "metallicFactor": 0.400000005960464,
                "roughnessFactor": 1.0
            }
        },
        {
            "name": "grey",
            "alphaMode": "OPAQUE",
            "doubleSided": false,
            "extras": {
                "fromFBX": {
                    "shadingModel": "Phong",
                    "isTruePBR": false
                }
            },
            "pbrMetallicRoughness": {
                "baseColorFactor": [
                    0.945097982883453,
                    0.949019610881805,
                    0.964705884456635,
                    1.0
                ],
                "metallicFactor": 0.400000005960464,
                "roughnessFactor": 1.0
            }
        },
        {
            "name": "road",
            "alphaMode": "OPAQUE",
            "doubleSided": false,
            "extras": {
                "fromFBX": {
                    "shadingModel": "Phong",
                    "isTruePBR": false
                }
            },
            "pbrMetallicRoughness": {
                "baseColorFactor": [
                    0.26666671037674,
                    0.26666671037674,
                    0.26666671037674,
                    1.0
                ],
                "metallicFactor": 0.400000005960464,
                "roughnessFactor": 1.0
            }
        },
        {
            "name": "pylon",
            "alphaMode": "OPAQUE",
            "doubleSided": false,
            "extras": {
                "fromFBX": {
                    "shadingModel": "Phong",
                    "isTruePBR": false
                }
            },
            "pbrMetallicRoughness": {
                "baseColorFactor": [
                    0.960784316062927,
                    0.725490212440491,
                    0.25882351398468,
                    1.0
                ],
                "metallicFactor": 0.400000005960464,
                "roughnessFactor": 1.0
            }
        },
        {
            "name": "red",
            "alphaMode": "OPAQUE",
            "doubleSided": false,
            "extras": {
                "fromFBX": {
                    "shadingModel": "Phong",
                    "isTruePBR": false
                }
            },
            "pbrMetallicRoughness": {
                "baseColorFactor": [
                    0.909803926944733,
                    0.333333313465118,
                    0.325490206480026,
                    1.0
                ],
                "metallicFactor": 0.400000005960464,
                "roughnessFactor": 1.0
            }
        },
        {
            "name": "grass",
            "alphaMode": "OPAQUE",
            "doubleSided": false,
            "extras": {
                "fromFBX": {
                    "shadingModel": "Phong",
                    "isTruePBR": false
                }
            },
            "pbrMetallicRoughness": {
                "baseColorFactor": [
                    0.301960796117783,
                    0.56078428030014,
                    0.431372612714767,
                    1.0
                ],
                "metallicFactor": 0.400000005960464,
                "roughnessFactor": 1.0
            }
        }
    ],
    "meshes": [
        {
            "name": "lightColored",
            "primitives": [
                {
                    "material": 0,
                    "mode": 4,
                    "attributes": {
                        "NORMAL": 2,
                        "POSITION": 1,
                        "TEXCOORD_0": 3
                    },
                    "indices": 0
                },
                {
                    "material": 1,
                    "mode": 4,
                    "attributes": {
                        "NORMAL": 6,
                        "POSITION": 5,
                        "TEXCOORD_0": 7
                    },
                    "indices": 4
                },
                {
                    "material": 2,
                    "mode": 4,
                    "attributes": {
                        "NORMAL": 10,
                        "POSITION": 9,
                        "TEXCOORD_0": 11
                    },
                    "indices": 8
                },
                {
                    "material": 3,
                    "mode": 4,
                    "attributes": {
                        "NORMAL": 14,
                        "POSITION": 13,
                        "TEXCOORD_0": 15
                    },
                    "indices": 12
                },
                {
                    "material": 4,
                    "mode": 4,
                    "attributes": {
                        "NORMAL": 18,
                        "POSITION": 17,
                        "TEXCOORD_0": 19
                    },
                    "indices": 16
                },
                {
                    "material": 5,
                    "mode": 4,
                    "attributes": {
                        "NORMAL": 22,
                        "POSITION": 21,
                        "TEXCOORD_0": 23
                    },
                    "indices": 20
                }
            ]
        }
    ],
    "nodes": [
        {
            "name": "RootNode",
            "translation": [
                0.0,
                0.0,
                0.0
            ],
            "rotation": [
                0.0,
                0.0,
                0.0,
                1.0
            ],
            "scale": [
                1.0,
                1.0,
                1.0
            ],
            "children": [
                1
            ]
        },
        {
            "name": "lightColored",
            "translation": [
                3.5,
                -0.0999999865889549,
                6.5
            ],
            "rotation": [
                0.0,
                0.0,
                0.0,
                1.0
            ],
            "scale": [
                100.0,
                100.0,
                100.0
            ],
            "mesh": 0
        }
    ]
}