{
    "asset": {
        "generator": "FBX2glTF v0.13.1",
        "version": "2.0"
    },
    "scene": 0,
    "buffers": [
        {
            "byteLength": 6956,
            "uri": "buffer.bin"
        }
    ],
    "bufferViews": [
        {
            "buffer": 0,
            "byteLength": 474,
            "byteOffset": 0,
            "target": 34963
        },
        {
            "buffer": 0,
            "byteLength": 1524,
            "byteOffset": 476,
            "target": 34962
        },
        {
            "buffer": 0,
            "byteLength": 1524,
            "byteOffset": 2000,
            "target": 34962
        },
        {
            "buffer": 0,
            "byteLength": 1016,
            "byteOffset": 3524,
            "target": 34962
        },
        {
            "buffer": 0,
            "byteLength": 114,
            "byteOffset": 4540,
            "target": 34963
        },
        {
            "buffer": 0,
            "byteLength": 300,
            "byteOffset": 4656,
            "target": 34962
        },
        {
            "buffer": 0,
            "byteLength": 300,
            "byteOffset": 4956,
            "target": 34962
        },
        {
            "buffer": 0,
            "byteLength": 200,
            "byteOffset": 5256,
            "target": 34962
        },
        {
            "buffer": 0,
            "byteLength": 156,
            "byteOffset": 5456,
            "target": 34963
        },
        {
            "buffer": 0,
            "byteLength": 504,
            "byteOffset": 5612,
            "target": 34962
        },
        {
            "buffer": 0,
            "byteLength": 504,
            "byteOffset": 6116,
            "target": 34962
        },
        {
            "buffer": 0,
            "byteLength": 336,
            "byteOffset": 6620,
            "target": 34962
        }
    ],
    "scenes": [
        {
            "name": "Root Scene",
            "nodes": [
                0
            ]
        }
    ],
    "accessors": [
        {
            "componentType": 5123,
            "type": "SCALAR",
            "count": 237,
            "bufferView": 0,
            "byteOffset": 0
        },
        {
            "componentType": 5126,
            "type": "VEC3",
            "count": 127,
            "bufferView": 1,
            "byteOffset": 0,
            "min": [
                -0.149999991059303,
                1.04677199830457e-15,
                -0.149999991059303
            ],
            "max": [
                0.112499997019768,
                0.063000001013279,
                0.149999991059303
            ]
        },
        {
            "componentType": 5126,
            "type": "VEC3",
            "count": 127,
            "bufferView": 2,
            "byteOffset": 0
        },
        {
            "componentType": 5126,
            "type": "VEC2",
            "count": 127,
            "bufferView": 3,
            "byteOffset": 0
        },
        {
            "componentType": 5123,
            "type": "SCALAR",
            "count": 57,
            "bufferView": 4,
            "byteOffset": 0
        },
        {
            "componentType": 5126,
            "type": "VEC3",
            "count": 25,
            "bufferView": 5,
            "byteOffset": 0,
            "min": [
                -0.149999991059303,
                0.0274999998509884,
                -0.149999991059303
            ],
            "max": [
                0.0749999955296516,
                0.0599999986588955,
                0.149999991059303
            ]
        },
        {
            "componentType": 5126,
            "type": "VEC3",
            "count": 25,
            "bufferView": 6,
            "byteOffset": 0
        },
        {
            "componentType": 5126,
            "type": "VEC2",
            "count": 25,
            "bufferView": 7,
            "byteOffset": 0
        },
        {
            "componentType": 5123,
            "type": "SCALAR",
            "count": 78,
            "bufferView": 8,
            "byteOffset": 0
        },
        {
            "componentType": 5126,
            "type": "VEC3",
            "count": 42,
            "bufferView": 9,
            "byteOffset": 0,
            "min": [
                -0.149999991059303,
                0.0,
                -0.149999991059303
            ],
            "max": [
                0.149999991059303,
                0.0549999997019768,
                0.149999991059303
            ]
        },
        {
            "componentType": 5126,
            "type": "VEC3",
            "count": 42,
            "bufferView": 10,
            "byteOffset": 0
        },
        {
            "componentType": 5126,
            "type": "VEC2",
            "count": 42,
            "bufferView": 11,
            "byteOffset": 0
        }
    ],
    "samplers": [
        {}
    ],
    "materials": [
        {
            "name": "pavement",
            "alphaMode": "OPAQUE",
            "doubleSided": false,
            "extras": {
                "fromFBX": {
                    "shadingModel": "Phong",
                    "isTruePBR": false
                }
            },
            "pbrMetallicRoughness": {
                "baseColorFactor": [
                    0.847058773040771,
                    0.82745099067688,
                    0.749019622802734,
                    1.0
                ],
                "metallicFactor": 0.400000005960464,
                "roughnessFactor": 1.0
            }
        },
        {
            "name": "asphalt",
            "alphaMode": "OPAQUE",
            "doubleSided": false,
            "extras": {
                "fromFBX": {
                    "shadingModel": "Phong",
                    "isTruePBR": false
                }
            },
            "pbrMetallicRoughness": {
                "baseColorFactor": [
                    0.411764711141586,
                    0.411764711141586,
                    0.411764711141586,
                    1.0
                ],
                "metallicFactor": 0.400000005960464,
                "roughnessFactor": 1.0
            }
        },
        {
            "name": "grass",
            "alphaMode": "OPAQUE",
            "doubleSided": false,
            "extras": {
                "fromFBX": {
                    "shadingModel": "Phong",
                    "isTruePBR": false
                }
            },
            "pbrMetallicRoughness": {
                "baseColorFactor": [
                    0.541176497936249,
                    0.709803879261017,
                    0.286274492740631,
                    1.0
                ],
                "metallicFactor": 0.400000005960464,
                "roughnessFactor": 1.0
            }
        }
    ],
    "meshes": [
        {
            "name": "tile162",
            "primitives": [
                {
                    "material": 0,
                    "mode": 4,
                    "attributes": {
                        "NORMAL": 2,
                        "POSITION": 1,
                        "TEXCOORD_0": 3
                    },
                    "indices": 0
                },
                {
                    "material": 1,
                    "mode": 4,
                    "attributes": {
                        "NORMAL": 6,
                        "POSITION": 5,
                        "TEXCOORD_0": 7
                    },
                    "indices": 4
                },
                {
                    "material": 2,
                    "mode": 4,
                    "attributes": {
                        "NORMAL": 10,
                        "POSITION": 9,
                        "TEXCOORD_0": 11
                    },
                    "indices": 8
                }
            ]
        }
    ],
    "nodes": [
        {
            "name": "RootNode",
            "translation": [
                0.0,
                0.0,
                0.0
            ],
            "rotation": [
                0.0,
                0.0,
                0.0,
                1.0
            ],
            "scale": [
                1.0,
                1.0,
                1.0
            ],
            "children": [
                1
            ]
        },
        {
            "name": "tile162",
            "translation": [
                0.0,
                0.0,
                0.0
            ],
            "rotation": [
                0.0,
                0.0,
                0.0,
                1.0
            ],
            "scale": [
                3.33333301544189,
                3.33333301544189,
                3.33333301544189
            ],
            "mesh": 0
        }
    ]
}