{
    "asset": {
        "generator": "FBX2glTF v0.13.1",
        "version": "2.0"
    },
    "scene": 0,
    "buffers": [
        {
            "byteLength": 105456,
            "uri": "buffer.bin"
        }
    ],
    "bufferViews": [
        {
            "buffer": 0,
            "byteLength": 1320,
            "byteOffset": 0,
            "target": 34963
        },
        {
            "buffer": 0,
            "byteLength": 4248,
            "byteOffset": 1320,
            "target": 34962
        },
        {
            "buffer": 0,
            "byteLength": 4248,
            "byteOffset": 5568,
            "target": 34962
        },
        {
            "buffer": 0,
            "byteLength": 5664,
            "byteOffset": 9816,
            "target": 34962
        },
        {
            "buffer": 0,
            "byteLength": 2832,
            "byteOffset": 15480,
            "target": 34962
        },
        {
            "buffer": 0,
            "byteLength": 1320,
            "byteOffset": 18312,
            "target": 34963
        },
        {
            "buffer": 0,
            "byteLength": 4248,
            "byteOffset": 19632,
            "target": 34962
        },
        {
            "buffer": 0,
            "byteLength": 4248,
            "byteOffset": 23880,
            "target": 34962
        },
        {
            "buffer": 0,
            "byteLength": 5664,
            "byteOffset": 28128,
            "target": 34962
        },
        {
            "buffer": 0,
            "byteLength": 2832,
            "byteOffset": 33792,
            "target": 34962
        },
        {
            "buffer": 0,
            "byteLength": 1320,
            "byteOffset": 36624,
            "target": 34963
        },
        {
            "buffer": 0,
            "byteLength": 4248,
            "byteOffset": 37944,
            "target": 34962
        },
        {
            "buffer": 0,
            "byteLength": 4248,
            "byteOffset": 42192,
            "target": 34962
        },
        {
            "buffer": 0,
            "byteLength": 5664,
            "byteOffset": 46440,
            "target": 34962
        },
        {
            "buffer": 0,
            "byteLength": 2832,
            "byteOffset": 52104,
            "target": 34962
        },
        {
            "buffer": 0,
            "byteLength": 1320,
            "byteOffset": 54936,
            "target": 34963
        },
        {
            "buffer": 0,
            "byteLength": 4248,
            "byteOffset": 56256,
            "target": 34962
        },
        {
            "buffer": 0,
            "byteLength": 4248,
            "byteOffset": 60504,
            "target": 34962
        },
        {
            "buffer": 0,
            "byteLength": 5664,
            "byteOffset": 64752,
            "target": 34962
        },
        {
            "buffer": 0,
            "byteLength": 2832,
            "byteOffset": 70416,
            "target": 34962
        },
        {
            "buffer": 0,
            "byteLength": 2352,
            "byteOffset": 73248,
            "target": 34963
        },
        {
            "buffer": 0,
            "byteLength": 7464,
            "byteOffset": 75600,
            "target": 34962
        },
        {
            "buffer": 0,
            "byteLength": 7464,
            "byteOffset": 83064,
            "target": 34962
        },
        {
            "buffer": 0,
            "byteLength": 9952,
            "byteOffset": 90528,
            "target": 34962
        },
        {
            "buffer": 0,
            "byteLength": 4976,
            "byteOffset": 100480,
            "target": 34962
        }
    ],
    "scenes": [
        {
            "name": "Root Scene",
            "nodes": [
                0
            ]
        }
    ],
    "accessors": [
        {
            "componentType": 5123,
            "type": "SCALAR",
            "count": 660,
            "bufferView": 0,
            "byteOffset": 0
        },
        {
            "componentType": 5126,
            "type": "VEC3",
            "count": 354,
            "bufferView": 1,
            "byteOffset": 0,
            "min": [
                -0.09375,
                -0.1875,
                -0.1875
            ],
            "max": [
                0.09375,
                0.1875,
                0.1875
            ]
        },
        {
            "componentType": 5126,
            "type": "VEC3",
            "count": 354,
            "bufferView": 2,
            "byteOffset": 0
        },
        {
            "componentType": 5126,
            "type": "VEC4",
            "count": 354,
            "bufferView": 3,
            "byteOffset": 0
        },
        {
            "componentType": 5126,
            "type": "VEC2",
            "count": 354,
            "bufferView": 4,
            "byteOffset": 0
        },
        {
            "componentType": 5123,
            "type": "SCALAR",
            "count": 660,
            "bufferView": 5,
            "byteOffset": 0
        },
        {
            "componentType": 5126,
            "type": "VEC3",
            "count": 354,
            "bufferView": 6,
            "byteOffset": 0,
            "min": [
                -0.09375,
                -0.1875,
                -0.1875
            ],
            "max": [
                0.09375,
                0.1875,
                0.1875
            ]
        },
        {
            "componentType": 5126,
            "type": "VEC3",
            "count": 354,
            "bufferView": 7,
            "byteOffset": 0
        },
        {
            "componentType": 5126,
            "type": "VEC4",
            "count": 354,
            "bufferView": 8,
            "byteOffset": 0
        },
        {
            "componentType": 5126,
            "type": "VEC2",
            "count": 354,
            "bufferView": 9,
            "byteOffset": 0
        },
        {
            "componentType": 5123,
            "type": "SCALAR",
            "count": 660,
            "bufferView": 10,
            "byteOffset": 0
        },
        {
            "componentType": 5126,
            "type": "VEC3",
            "count": 354,
            "bufferView": 11,
            "byteOffset": 0,
            "min": [
                -0.09375,
                -0.1875,
                -0.1875
            ],
            "max": [
                0.09375,
                0.1875,
                0.1875
            ]
        },
        {
            "componentType": 5126,
            "type": "VEC3",
            "count": 354,
            "bufferView": 12,
            "byteOffset": 0
        },
        {
            "componentType": 5126,
            "type": "VEC4",
            "count": 354,
            "bufferView": 13,
            "byteOffset": 0
        },
        {
            "componentType": 5126,
            "type": "VEC2",
            "count": 354,
            "bufferView": 14,
            "byteOffset": 0
        },
        {
            "componentType": 5123,
            "type": "SCALAR",
            "count": 660,
            "bufferView": 15,
            "byteOffset": 0
        },
        {
            "componentType": 5126,
            "type": "VEC3",
            "count": 354,
            "bufferView": 16,
            "byteOffset": 0,
            "min": [
                -0.09375,
                -0.1875,
                -0.1875
            ],
            "max": [
                0.09375,
                0.1875,
                0.1875
            ]
        },
        {
            "componentType": 5126,
            "type": "VEC3",
            "count": 354,
            "bufferView": 17,
            "byteOffset": 0
        },
        {
            "componentType": 5126,
            "type": "VEC4",
            "count": 354,
            "bufferView": 18,
            "byteOffset": 0
        },
        {
            "componentType": 5126,
            "type": "VEC2",
            "count": 354,
            "bufferView": 19,
            "byteOffset": 0
        },
        {
            "componentType": 5123,
            "type": "SCALAR",
            "count": 1176,
            "bufferView": 20,
            "byteOffset": 0
        },
        {
            "componentType": 5126,
            "type": "VEC3",
            "count": 622,
            "bufferView": 21,
            "byteOffset": 0,
            "min": [
                -0.21875,
                0.0,
                -0.312499940395355
            ],
            "max": [
                0.21875,
                0.59375,
                0.312500029802322
            ]
        },
        {
            "componentType": 5126,
            "type": "VEC3",
            "count": 622,
            "bufferView": 22,
            "byteOffset": 0
        },
        {
            "componentType": 5126,
            "type": "VEC4",
            "count": 622,
            "bufferView": 23,
            "byteOffset": 0
        },
        {
            "componentType": 5126,
            "type": "VEC2",
            "count": 622,
            "bufferView": 24,
            "byteOffset": 0
        }
    ],
    "images": [
        {
            "name": "colormap.png",
            "uri": "colormap.png"
        }
    ],
    "samplers": [
        {}
    ],
    "textures": [
        {
            "name": "DiffuseColor_Texture",
            "sampler": 0,
            "source": 0
        }
    ],
    "materials": [
        {
            "name": "colormap",
            "alphaMode": "OPAQUE",
            "doubleSided": false,
            "extras": {
                "fromFBX": {
                    "shadingModel": "Lambert",
                    "isTruePBR": false
                }
            },
            "pbrMetallicRoughness": {
                "baseColorTexture": {
                    "index": 0,
                    "texCoord": 0
                },
                "baseColorFactor": [
                    1.0,
                    1.0,
                    1.0,
                    1.0
                ],
                "metallicFactor": 0.200000002980232,
                "roughnessFactor": 0.800000011920929
            }
        }
    ],
    "meshes": [
        {
            "name": "wheel-bl",
            "primitives": [
                {
                    "material": 0,
                    "mode": 4,
                    "attributes": {
                        "NORMAL": 2,
                        "POSITION": 1,
                        "TANGENT": 3,
                        "TEXCOORD_0": 4
                    },
                    "indices": 0
                }
            ]
        },
        {
            "name": "wheel-fr",
            "primitives": [
                {
                    "material": 0,
                    "mode": 4,
                    "attributes": {
                        "NORMAL": 7,
                        "POSITION": 6,
                        "TANGENT": 8,
                        "TEXCOORD_0": 9
                    },
                    "indices": 5
                }
            ]
        },
        {
            "name": "wheel-fl",
            "primitives": [
                {
                    "material": 0,
                    "mode": 4,
                    "attributes": {
                        "NORMAL": 12,
                        "POSITION": 11,
                        "TANGENT": 13,
                        "TEXCOORD_0": 14
                    },
                    "indices": 10
                }
            ]
        },
        {
            "name": "wheel-br",
            "primitives": [
                {
                    "material": 0,
                    "mode": 4,
                    "attributes": {
                        "NORMAL": 17,
                        "POSITION": 16,
                        "TANGENT": 18,
                        "TEXCOORD_0": 19
                    },
                    "indices": 15
                }
            ]
        },
        {
            "name": "body",
            "primitives": [
                {
                    "material": 0,
                    "mode": 4,
                    "attributes": {
                        "NORMAL": 22,
                        "POSITION": 21,
                        "TANGENT": 23,
                        "TEXCOORD_0": 24
                    },
                    "indices": 20
                }
            ]
        }
    ],
    "nodes": [
        {
            "name": "RootNode",
            "translation": [
                0.0,
                0.0,
                0.0
            ],
            "rotation": [
                0.0,
                0.0,
                0.0,
                1.0
            ],
            "scale": [
                1.0,
                1.0,
                1.0
            ],
            "children": [
                1
            ]
        },
        {
            "name": "vehicle-monster-truck",
            "translation": [
                0.0,
                0.0,
                0.0
            ],
            "rotation": [
                0.0,
                0.0,
                0.0,
                1.0
            ],
            "scale": [
                1.0,
                1.0,
                1.0
            ],
            "children": [
                2,
                3,
                4,
                5,
                6
            ]
        },
        {
            "name": "wheel-bl",
            "translation": [
                -0.21875,
                0.1875,
                0.25
            ],
            "rotation": [
                0.0,
                0.0,
                0.0,
                1.0
            ],
            "scale": [
                1.0,
                1.0,
                1.0
            ],
            "mesh": 0
        },
        {
            "name": "wheel-fr",
            "translation": [
                0.21875,
                0.1875,
                -0.25
            ],
            "rotation": [
                0.0,
                0.0,
                0.0,
                1.0
            ],
            "scale": [
                1.0,
                1.0,
                1.0
            ],
            "mesh": 1
        },
        {
            "name": "wheel-fl",
            "translation": [
                -0.21875,
                0.1875,
                -0.25
            ],
            "rotation": [
                0.0,
                0.0,
                0.0,
                1.0
            ],
            "scale": [
                1.0,
                1.0,
                1.0
            ],
            "mesh": 2
        },
        {
            "name": "wheel-br",
            "translation": [
                0.21875,
                0.1875,
                0.25
            ],
            "rotation": [
                0.0,
                0.0,
                0.0,
                1.0
            ],
            "scale": [
                1.0,
                1.0,
                1.0
            ],
            "mesh": 3
        },
        {
            "name": "body",
            "translation": [
                1.44382282161564e-15,
                0.15625,
                1.08286707915404e-14
            ],
            "rotation": [
                0.0,
                0.0,
                0.0,
                1.0
            ],
            "scale": [
                1.0,
                1.0,
                1.0
            ],
            "mesh": 4
        }
    ]
}