{
    "asset": {
        "generator": "FBX2glTF v0.13.1",
        "version": "2.0"
    },
    "scene": 0,
    "buffers": [
        {
            "byteLength": 14532,
            "uri": "buffer.bin"
        }
    ],
    "bufferViews": [
        {
            "buffer": 0,
            "byteLength": 768,
            "byteOffset": 0,
            "target": 34963
        },
        {
            "buffer": 0,
            "byteLength": 2304,
            "byteOffset": 768,
            "target": 34962
        },
        {
            "buffer": 0,
            "byteLength": 2304,
            "byteOffset": 3072,
            "target": 34962
        },
        {
            "buffer": 0,
            "byteLength": 1536,
            "byteOffset": 5376,
            "target": 34962
        },
        {
            "buffer": 0,
            "byteLength": 900,
            "byteOffset": 6912,
            "target": 34963
        },
        {
            "buffer": 0,
            "byteLength": 2520,
            "byteOffset": 7812,
            "target": 34962
        },
        {
            "buffer": 0,
            "byteLength": 2520,
            "byteOffset": 10332,
            "target": 34962
        },
        {
            "buffer": 0,
            "byteLength": 1680,
            "byteOffset": 12852,
            "target": 34962
        }
    ],
    "scenes": [
        {
            "name": "Root Scene",
            "nodes": [
                0
            ]
        }
    ],
    "accessors": [
        {
            "componentType": 5123,
            "type": "SCALAR",
            "count": 384,
            "bufferView": 0,
            "byteOffset": 0
        },
        {
            "componentType": 5126,
            "type": "VEC3",
            "count": 192,
            "bufferView": 1,
            "byteOffset": 0,
            "min": [
                -0.0999999940395355,
                0.0,
                0.0
            ],
            "max": [
                0.0,
                0.0345027297735214,
                0.00699999975040555
            ]
        },
        {
            "componentType": 5126,
            "type": "VEC3",
            "count": 192,
            "bufferView": 2,
            "byteOffset": 0
        },
        {
            "componentType": 5126,
            "type": "VEC2",
            "count": 192,
            "bufferView": 3,
            "byteOffset": 0
        },
        {
            "componentType": 5123,
            "type": "SCALAR",
            "count": 450,
            "bufferView": 4,
            "byteOffset": 0
        },
        {
            "componentType": 5126,
            "type": "VEC3",
            "count": 210,
            "bufferView": 5,
            "byteOffset": 0,
            "min": [
                0.0,
                -0.00400000018998981,
                -0.00129499996546656
            ],
            "max": [
                0.0299999993294477,
                0.0282922405749559,
                0.00129499996546656
            ]
        },
        {
            "componentType": 5126,
            "type": "VEC3",
            "count": 210,
            "bufferView": 6,
            "byteOffset": 0
        },
        {
            "componentType": 5126,
            "type": "VEC2",
            "count": 210,
            "bufferView": 7,
            "byteOffset": 0
        }
    ],
    "samplers": [
        {}
    ],
    "materials": [
        {
            "name": "natureKit-wood",
            "alphaMode": "OPAQUE",
            "doubleSided": false,
            "extras": {
                "fromFBX": {
                    "shadingModel": "Phong",
                    "isTruePBR": false
                }
            },
            "pbrMetallicRoughness": {
                "baseColorFactor": [
                    1.0,
                    0.682353019714355,
                    0.435294091701508,
                    1.0
                ],
                "metallicFactor": 0.400000005960464,
                "roughnessFactor": 1.0
            }
        }
    ],
    "meshes": [
        {
            "name": "fence_gate",
            "primitives": [
                {
                    "material": 0,
                    "mode": 4,
                    "attributes": {
                        "NORMAL": 2,
                        "POSITION": 1,
                        "TEXCOORD_0": 3
                    },
                    "indices": 0
                }
            ]
        },
        {
            "name": "gate",
            "primitives": [
                {
                    "material": 0,
                    "mode": 4,
                    "attributes": {
                        "NORMAL": 6,
                        "POSITION": 5,
                        "TEXCOORD_0": 7
                    },
                    "indices": 4
                }
            ]
        }
    ],
    "nodes": [
        {
            "name": "RootNode",
            "translation": [
                0.0,
                0.0,
                0.0
            ],
            "rotation": [
                0.0,
                0.0,
                0.0,
                1.0
            ],
            "scale": [
                1.0,
                1.0,
                1.0
            ],
            "children": [
                1
            ]
        },
        {
            "name": "fence_gate",
            "translation": [
                34.0,
                0.0,
                0.0
            ],
            "rotation": [
                0.0,
                0.0,
                0.0,
                1.0
            ],
            "scale": [
                100.0,
                100.0,
                100.0
            ],
            "children": [
                2
            ],
            "mesh": 0
        },
        {
            "name": "gate",
            "translation": [
                -0.0649999976158142,
                0.00621049199253321,
                0.00349999987520278
            ],
            "rotation": [
                0.0,
                0.0,
                0.0,
                1.0
            ],
            "scale": [
                1.0,
                1.0,
                1.0
            ],
            "mesh": 1
        }
    ]
}