{
    "asset": {
        "generator": "FBX2glTF v0.13.1",
        "version": "2.0"
    },
    "scene": 0,
    "buffers": [
        {
            "byteLength": 11208,
            "uri": "buffer.bin"
        }
    ],
    "bufferViews": [
        {
            "buffer": 0,
            "byteLength": 936,
            "byteOffset": 0,
            "target": 34963
        },
        {
            "buffer": 0,
            "byteLength": 3120,
            "byteOffset": 936,
            "target": 34962
        },
        {
            "buffer": 0,
            "byteLength": 3120,
            "byteOffset": 4056,
            "target": 34962
        },
        {
            "buffer": 0,
            "byteLength": 2080,
            "byteOffset": 7176,
            "target": 34962
        },
        {
            "buffer": 0,
            "byteLength": 288,
            "byteOffset": 9256,
            "target": 34963
        },
        {
            "buffer": 0,
            "byteLength": 624,
            "byteOffset": 9544,
            "target": 34962
        },
        {
            "buffer": 0,
            "byteLength": 624,
            "byteOffset": 10168,
            "target": 34962
        },
        {
            "buffer": 0,
            "byteLength": 416,
            "byteOffset": 10792,
            "target": 34962
        }
    ],
    "scenes": [
        {
            "name": "Root Scene",
            "nodes": [
                0
            ]
        }
    ],
    "accessors": [
        {
            "componentType": 5123,
            "type": "SCALAR",
            "count": 468,
            "bufferView": 0,
            "byteOffset": 0
        },
        {
            "componentType": 5126,
            "type": "VEC3",
            "count": 260,
            "bufferView": 1,
            "byteOffset": 0,
            "min": [
                -0.0599999986588955,
                0.0,
                -0.0599999986588955
            ],
            "max": [
                0.0999999940395355,
                0.0129999993368983,
                0.0999999940395355
            ]
        },
        {
            "componentType": 5126,
            "type": "VEC3",
            "count": 260,
            "bufferView": 2,
            "byteOffset": 0
        },
        {
            "componentType": 5126,
            "type": "VEC2",
            "count": 260,
            "bufferView": 3,
            "byteOffset": 0
        },
        {
            "componentType": 5123,
            "type": "SCALAR",
            "count": 144,
            "bufferView": 4,
            "byteOffset": 0
        },
        {
            "componentType": 5126,
            "type": "VEC3",
            "count": 52,
            "bufferView": 5,
            "byteOffset": 0,
            "min": [
                -0.0599999986588955,
                0.00999999977648258,
                -0.0599999986588955
            ],
            "max": [
                0.0999999940395355,
                0.00999999977648258,
                0.0999999940395355
            ]
        },
        {
            "componentType": 5126,
            "type": "VEC3",
            "count": 52,
            "bufferView": 6,
            "byteOffset": 0
        },
        {
            "componentType": 5126,
            "type": "VEC2",
            "count": 52,
            "bufferView": 7,
            "byteOffset": 0
        }
    ],
    "samplers": [
        {}
    ],
    "materials": [
        {
            "name": "metalDark",
            "alphaMode": "OPAQUE",
            "doubleSided": false,
            "extras": {
                "fromFBX": {
                    "shadingModel": "Phong",
                    "isTruePBR": false
                }
            },
            "pbrMetallicRoughness": {
                "baseColorFactor": [
                    0.675062298774719,
                    0.710021913051605,
                    0.77358490228653,
                    1.0
                ],
                "metallicFactor": 0.400000005960464,
                "roughnessFactor": 1.0
            }
        },
        {
            "name": "metal",
            "alphaMode": "OPAQUE",
            "doubleSided": false,
            "extras": {
                "fromFBX": {
                    "shadingModel": "Phong",
                    "isTruePBR": false
                }
            },
            "pbrMetallicRoughness": {
                "baseColorFactor": [
                    0.843137323856354,
                    0.870588183403015,
                    0.909803926944733,
                    1.0
                ],
                "metallicFactor": 0.400000005960464,
                "roughnessFactor": 1.0
            }
        }
    ],
    "meshes": [
        {
            "name": "monorail_trackCornerLarge",
            "primitives": [
                {
                    "material": 0,
                    "mode": 4,
                    "attributes": {
                        "NORMAL": 2,
                        "POSITION": 1,
                        "TEXCOORD_0": 3
                    },
                    "indices": 0
                },
                {
                    "material": 1,
                    "mode": 4,
                    "attributes": {
                        "NORMAL": 6,
                        "POSITION": 5,
                        "TEXCOORD_0": 7
                    },
                    "indices": 4
                }
            ]
        }
    ],
    "nodes": [
        {
            "name": "RootNode",
            "translation": [
                0.0,
                0.0,
                0.0
            ],
            "rotation": [
                0.0,
                0.0,
                0.0,
                1.0
            ],
            "scale": [
                1.0,
                1.0,
                1.0
            ],
            "children": [
                1
            ]
        },
        {
            "name": "monorail_trackCornerLarge",
            "translation": [
                -2.0,
                0.0,
                -1.5
            ],
            "rotation": [
                0.0,
                0.0,
                0.0,
                1.0
            ],
            "scale": [
                10.0,
                10.0,
                10.0
            ],
            "mesh": 0
        }
    ]
}