{
    "asset": {
        "generator": "FBX2glTF v0.13.1",
        "version": "2.0"
    },
    "scene": 0,
    "buffers": [
        {
            "byteLength": 88152,
            "uri": "buffer.bin"
        }
    ],
    "bufferViews": [
        {
            "buffer": 0,
            "byteLength": 3480,
            "byteOffset": 0,
            "target": 34963
        },
        {
            "buffer": 0,
            "byteLength": 11016,
            "byteOffset": 3480,
            "target": 34962
        },
        {
            "buffer": 0,
            "byteLength": 11016,
            "byteOffset": 14496,
            "target": 34962
        },
        {
            "buffer": 0,
            "byteLength": 14688,
            "byteOffset": 25512,
            "target": 34962
        },
        {
            "buffer": 0,
            "byteLength": 7344,
            "byteOffset": 40200,
            "target": 34962
        },
        {
            "buffer": 0,
            "byteLength": 960,
            "byteOffset": 47544,
            "target": 34963
        },
        {
            "buffer": 0,
            "byteLength": 3144,
            "byteOffset": 48504,
            "target": 34962
        },
        {
            "buffer": 0,
            "byteLength": 3144,
            "byteOffset": 51648,
            "target": 34962
        },
        {
            "buffer": 0,
            "byteLength": 4192,
            "byteOffset": 54792,
            "target": 34962
        },
        {
            "buffer": 0,
            "byteLength": 2096,
            "byteOffset": 58984,
            "target": 34962
        },
        {
            "buffer": 0,
            "byteLength": 960,
            "byteOffset": 61080,
            "target": 34963
        },
        {
            "buffer": 0,
            "byteLength": 3144,
            "byteOffset": 62040,
            "target": 34962
        },
        {
            "buffer": 0,
            "byteLength": 3144,
            "byteOffset": 65184,
            "target": 34962
        },
        {
            "buffer": 0,
            "byteLength": 4192,
            "byteOffset": 68328,
            "target": 34962
        },
        {
            "buffer": 0,
            "byteLength": 2096,
            "byteOffset": 72520,
            "target": 34962
        },
        {
            "buffer": 0,
            "byteLength": 960,
            "byteOffset": 74616,
            "target": 34963
        },
        {
            "buffer": 0,
            "byteLength": 3144,
            "byteOffset": 75576,
            "target": 34962
        },
        {
            "buffer": 0,
            "byteLength": 3144,
            "byteOffset": 78720,
            "target": 34962
        },
        {
            "buffer": 0,
            "byteLength": 4192,
            "byteOffset": 81864,
            "target": 34962
        },
        {
            "buffer": 0,
            "byteLength": 2096,
            "byteOffset": 86056,
            "target": 34962
        }
    ],
    "scenes": [
        {
            "name": "Root Scene",
            "nodes": [
                0
            ]
        }
    ],
    "accessors": [
        {
            "componentType": 5123,
            "type": "SCALAR",
            "count": 1740,
            "bufferView": 0,
            "byteOffset": 0
        },
        {
            "componentType": 5126,
            "type": "VEC3",
            "count": 918,
            "bufferView": 1,
            "byteOffset": 0,
            "min": [
                -1.95860123634338,
                0.0,
                -5.27435970306396
            ],
            "max": [
                1.95860123634338,
                3.38031363487244,
                5.27435970306396
            ]
        },
        {
            "componentType": 5126,
            "type": "VEC3",
            "count": 918,
            "bufferView": 2,
            "byteOffset": 0
        },
        {
            "componentType": 5126,
            "type": "VEC4",
            "count": 918,
            "bufferView": 3,
            "byteOffset": 0
        },
        {
            "componentType": 5126,
            "type": "VEC2",
            "count": 918,
            "bufferView": 4,
            "byteOffset": 0
        },
        {
            "componentType": 5123,
            "type": "SCALAR",
            "count": 480,
            "bufferView": 5,
            "byteOffset": 0
        },
        {
            "componentType": 5126,
            "type": "VEC3",
            "count": 262,
            "bufferView": 6,
            "byteOffset": 0,
            "min": [
                -1.37999999523163,
                0.0,
                -0.689999997615814
            ],
            "max": [
                1.37999999523163,
                1.10399997234344,
                0.689999997615814
            ]
        },
        {
            "componentType": 5126,
            "type": "VEC3",
            "count": 262,
            "bufferView": 7,
            "byteOffset": 0
        },
        {
            "componentType": 5126,
            "type": "VEC4",
            "count": 262,
            "bufferView": 8,
            "byteOffset": 0
        },
        {
            "componentType": 5126,
            "type": "VEC2",
            "count": 262,
            "bufferView": 9,
            "byteOffset": 0
        },
        {
            "componentType": 5123,
            "type": "SCALAR",
            "count": 480,
            "bufferView": 10,
            "byteOffset": 0
        },
        {
            "componentType": 5126,
            "type": "VEC3",
            "count": 262,
            "bufferView": 11,
            "byteOffset": 0,
            "min": [
                -1.37999999523163,
                0.0,
                -0.689999997615814
            ],
            "max": [
                1.37999999523163,
                1.10399997234344,
                0.689999997615814
            ]
        },
        {
            "componentType": 5126,
            "type": "VEC3",
            "count": 262,
            "bufferView": 12,
            "byteOffset": 0
        },
        {
            "componentType": 5126,
            "type": "VEC4",
            "count": 262,
            "bufferView": 13,
            "byteOffset": 0
        },
        {
            "componentType": 5126,
            "type": "VEC2",
            "count": 262,
            "bufferView": 14,
            "byteOffset": 0
        },
        {
            "componentType": 5123,
            "type": "SCALAR",
            "count": 480,
            "bufferView": 15,
            "byteOffset": 0
        },
        {
            "componentType": 5126,
            "type": "VEC3",
            "count": 262,
            "bufferView": 16,
            "byteOffset": 0,
            "min": [
                -1.37999999523163,
                0.0,
                -0.689999997615814
            ],
            "max": [
                1.37999999523163,
                1.10399997234344,
                0.689999997615814
            ]
        },
        {
            "componentType": 5126,
            "type": "VEC3",
            "count": 262,
            "bufferView": 17,
            "byteOffset": 0
        },
        {
            "componentType": 5126,
            "type": "VEC4",
            "count": 262,
            "bufferView": 18,
            "byteOffset": 0
        },
        {
            "componentType": 5126,
            "type": "VEC2",
            "count": 262,
            "bufferView": 19,
            "byteOffset": 0
        }
    ],
    "images": [
        {
            "name": "colormap.png",
            "uri": "colormap.png"
        }
    ],
    "samplers": [
        {}
    ],
    "textures": [
        {
            "name": "DiffuseColor_Texture",
            "sampler": 0,
            "source": 0
        }
    ],
    "materials": [
        {
            "name": "colormap",
            "alphaMode": "OPAQUE",
            "doubleSided": false,
            "extras": {
                "fromFBX": {
                    "shadingModel": "Lambert",
                    "isTruePBR": false
                }
            },
            "pbrMetallicRoughness": {
                "baseColorTexture": {
                    "index": 0,
                    "texCoord": 0
                },
                "baseColorFactor": [
                    1.0,
                    1.0,
                    1.0,
                    1.0
                ],
                "metallicFactor": 0.200000002980232,
                "roughnessFactor": 0.800000011920929
            }
        }
    ],
    "meshes": [
        {
            "name": "ship-cargo-a",
            "primitives": [
                {
                    "material": 0,
                    "mode": 4,
                    "attributes": {
                        "NORMAL": 2,
                        "POSITION": 1,
                        "TANGENT": 3,
                        "TEXCOORD_0": 4
                    },
                    "indices": 0
                }
            ]
        },
        {
            "name": "cargo-c",
            "primitives": [
                {
                    "material": 0,
                    "mode": 4,
                    "attributes": {
                        "NORMAL": 7,
                        "POSITION": 6,
                        "TANGENT": 8,
                        "TEXCOORD_0": 9
                    },
                    "indices": 5
                }
            ]
        },
        {
            "name": "cargo-b",
            "primitives": [
                {
                    "material": 0,
                    "mode": 4,
                    "attributes": {
                        "NORMAL": 12,
                        "POSITION": 11,
                        "TANGENT": 13,
                        "TEXCOORD_0": 14
                    },
                    "indices": 10
                }
            ]
        },
        {
            "name": "cargo-a",
            "primitives": [
                {
                    "material": 0,
                    "mode": 4,
                    "attributes": {
                        "NORMAL": 17,
                        "POSITION": 16,
                        "TANGENT": 18,
                        "TEXCOORD_0": 19
                    },
                    "indices": 15
                }
            ]
        }
    ],
    "nodes": [
        {
            "name": "RootNode",
            "translation": [
                0.0,
                0.0,
                0.0
            ],
            "rotation": [
                0.0,
                0.0,
                0.0,
                1.0
            ],
            "scale": [
                1.0,
                1.0,
                1.0
            ],
            "children": [
                1
            ]
        },
        {
            "name": "ship-cargo-a",
            "translation": [
                0.0,
                0.0,
                0.0
            ],
            "rotation": [
                0.0,
                0.0,
                0.0,
                1.0
            ],
            "scale": [
                1.0,
                1.0,
                1.0
            ],
            "children": [
                2,
                3,
                4
            ],
            "mesh": 0
        },
        {
            "name": "cargo-c",
            "translation": [
                0.00349999987520278,
                1.10399997234344,
                -3.67735981941223
            ],
            "rotation": [
                0.0,
                0.0,
                0.0,
                1.0
            ],
            "scale": [
                1.0,
                1.0,
                1.0
            ],
            "mesh": 1
        },
        {
            "name": "cargo-b",
            "translation": [
                0.00349999987520278,
                1.10399997234344,
                -1.79736006259918
            ],
            "rotation": [
                0.0,
                0.0,
                0.0,
                1.0
            ],
            "scale": [
                1.0,
                1.0,
                1.0
            ],
            "mesh": 2
        },
        {
            "name": "cargo-a",
            "translation": [
                0.00349999987520278,
                1.10399997234344,
                0.0826399996876717
            ],
            "rotation": [
                0.0,
                0.0,
                0.0,
                1.0
            ],
            "scale": [
                1.0,
                1.0,
                1.0
            ],
            "mesh": 3
        }
    ]
}