{
    "asset": {
        "generator": "FBX2glTF v0.13.1",
        "version": "2.0"
    },
    "scene": 0,
    "buffers": [
        {
            "byteLength": 10608,
            "uri": "buffer.bin"
        }
    ],
    "bufferViews": [
        {
            "buffer": 0,
            "byteLength": 576,
            "byteOffset": 0,
            "target": 34963
        },
        {
            "buffer": 0,
            "byteLength": 1152,
            "byteOffset": 576,
            "target": 34962
        },
        {
            "buffer": 0,
            "byteLength": 1152,
            "byteOffset": 1728,
            "target": 34962
        },
        {
            "buffer": 0,
            "byteLength": 1344,
            "byteOffset": 2880,
            "target": 34963
        },
        {
            "buffer": 0,
            "byteLength": 2028,
            "byteOffset": 4224,
            "target": 34962
        },
        {
            "buffer": 0,
            "byteLength": 2028,
            "byteOffset": 6252,
            "target": 34962
        },
        {
            "buffer": 0,
            "byteLength": 384,
            "byteOffset": 8280,
            "target": 34963
        },
        {
            "buffer": 0,
            "byteLength": 492,
            "byteOffset": 8664,
            "target": 34962
        },
        {
            "buffer": 0,
            "byteLength": 492,
            "byteOffset": 9156,
            "target": 34962
        },
        {
            "buffer": 0,
            "byteLength": 192,
            "byteOffset": 9648,
            "target": 34963
        },
        {
            "buffer": 0,
            "byteLength": 384,
            "byteOffset": 9840,
            "target": 34962
        },
        {
            "buffer": 0,
            "byteLength": 384,
            "byteOffset": 10224,
            "target": 34962
        }
    ],
    "scenes": [
        {
            "name": "Root Scene",
            "nodes": [
                0
            ]
        }
    ],
    "accessors": [
        {
            "componentType": 5123,
            "type": "SCALAR",
            "count": 288,
            "bufferView": 0,
            "byteOffset": 0
        },
        {
            "componentType": 5126,
            "type": "VEC3",
            "count": 96,
            "bufferView": 1,
            "byteOffset": 0,
            "min": [
                -0.60086190700531,
                -0.246636137366295,
                -0.705732583999634
            ],
            "max": [
                0.60086190700531,
                0.222513303160667,
                0.923174738883972
            ]
        },
        {
            "componentType": 5126,
            "type": "VEC3",
            "count": 96,
            "bufferView": 2,
            "byteOffset": 0
        },
        {
            "componentType": 5123,
            "type": "SCALAR",
            "count": 672,
            "bufferView": 3,
            "byteOffset": 0
        },
        {
            "componentType": 5126,
            "type": "VEC3",
            "count": 169,
            "bufferView": 4,
            "byteOffset": 0,
            "min": [
                -0.639974355697632,
                -0.224842578172684,
                -0.750620543956757
            ],
            "max": [
                0.639974355697632,
                0.404916405677795,
                0.971198499202728
            ]
        },
        {
            "componentType": 5126,
            "type": "VEC3",
            "count": 169,
            "bufferView": 5,
            "byteOffset": 0
        },
        {
            "componentType": 5123,
            "type": "SCALAR",
            "count": 192,
            "bufferView": 6,
            "byteOffset": 0
        },
        {
            "componentType": 5126,
            "type": "VEC3",
            "count": 41,
            "bufferView": 7,
            "byteOffset": 0,
            "min": [
                -0.430352687835693,
                -0.224232688546181,
                -0.549577593803406
            ],
            "max": [
                0.430352687835693,
                0.00512473890557885,
                0.571241915225983
            ]
        },
        {
            "componentType": 5126,
            "type": "VEC3",
            "count": 41,
            "bufferView": 8,
            "byteOffset": 0
        },
        {
            "componentType": 5123,
            "type": "SCALAR",
            "count": 96,
            "bufferView": 9,
            "byteOffset": 0
        },
        {
            "componentType": 5126,
            "type": "VEC3",
            "count": 32,
            "bufferView": 10,
            "byteOffset": 0,
            "min": [
                -0.487416684627533,
                -0.137678384780884,
                -0.648510932922363
            ],
            "max": [
                0.487416684627533,
                0.144243344664574,
                0.590853273868561
            ]
        },
        {
            "componentType": 5126,
            "type": "VEC3",
            "count": 32,
            "bufferView": 11,
            "byteOffset": 0
        }
    ],
    "samplers": [
        {}
    ],
    "materials": [
        {
            "name": "Green 2",
            "alphaMode": "OPAQUE",
            "doubleSided": false,
            "extras": {
                "fromFBX": {
                    "shadingModel": "Phong",
                    "isTruePBR": false
                }
            },
            "pbrMetallicRoughness": {
                "baseColorFactor": [
                    0.0489968471229076,
                    0.0641758665442467,
                    0.0264838226139545,
                    1.0
                ],
                "metallicFactor": 0.400000005960464,
                "roughnessFactor": 0.415087103843689
            }
        },
        {
            "name": "Green 1",
            "alphaMode": "OPAQUE",
            "doubleSided": false,
            "extras": {
                "fromFBX": {
                    "shadingModel": "Phong",
                    "isTruePBR": false
                }
            },
            "pbrMetallicRoughness": {
                "baseColorFactor": [
                    0.101950168609619,
                    0.134615555405617,
                    0.0518426187336445,
                    1.0
                ],
                "metallicFactor": 0.400000005960464,
                "roughnessFactor": 0.415087103843689
            }
        },
        {
            "name": "Black",
            "alphaMode": "OPAQUE",
            "doubleSided": false,
            "extras": {
                "fromFBX": {
                    "shadingModel": "Phong",
                    "isTruePBR": false
                }
            },
            "pbrMetallicRoughness": {
                "baseColorFactor": [
                    0.00641855364665389,
                    0.00641855364665389,
                    0.00641855364665389,
                    1.0
                ],
                "metallicFactor": 0.400000005960464,
                "roughnessFactor": 0.415087103843689
            }
        },
        {
            "name": "Brown 2",
            "alphaMode": "OPAQUE",
            "doubleSided": false,
            "extras": {
                "fromFBX": {
                    "shadingModel": "Phong",
                    "isTruePBR": false
                }
            },
            "pbrMetallicRoughness": {
                "baseColorFactor": [
                    0.0593708641827106,
                    0.00641855364665389,
                    0.00351315410807729,
                    1.0
                ],
                "metallicFactor": 0.400000005960464,
                "roughnessFactor": 0.415087103843689
            }
        }
    ],
    "meshes": [
        {
            "name": "fantasyCap",
            "primitives": [
                {
                    "material": 0,
                    "mode": 4,
                    "attributes": {
                        "NORMAL": 2,
                        "POSITION": 1
                    },
                    "indices": 0
                },
                {
                    "material": 1,
                    "mode": 4,
                    "attributes": {
                        "NORMAL": 5,
                        "POSITION": 4
                    },
                    "indices": 3
                },
                {
                    "material": 2,
                    "mode": 4,
                    "attributes": {
                        "NORMAL": 8,
                        "POSITION": 7
                    },
                    "indices": 6
                },
                {
                    "material": 3,
                    "mode": 4,
                    "attributes": {
                        "NORMAL": 11,
                        "POSITION": 10
                    },
                    "indices": 9
                }
            ]
        }
    ],
    "nodes": [
        {
            "name": "RootNode",
            "translation": [
                0.0,
                0.0,
                0.0
            ],
            "rotation": [
                0.0,
                0.0,
                0.0,
                1.0
            ],
            "scale": [
                1.0,
                1.0,
                1.0
            ],
            "children": [
                1
            ]
        },
        {
            "name": "fantasyCap",
            "translation": [
                0.0,
                0.0,
                0.0
            ],
            "rotation": [
                0.0,
                0.0,
                0.0,
                1.0
            ],
            "scale": [
                1.0,
                1.0,
                1.0
            ],
            "mesh": 0
        }
    ]
}