{
    "asset": {
        "generator": "FBX2glTF v0.13.1",
        "version": "2.0"
    },
    "scene": 0,
    "buffers": [
        {
            "byteLength": 13100,
            "uri": "buffer.bin"
        }
    ],
    "bufferViews": [
        {
            "buffer": 0,
            "byteLength": 960,
            "byteOffset": 0,
            "target": 34963
        },
        {
            "buffer": 0,
            "byteLength": 3408,
            "byteOffset": 960,
            "target": 34962
        },
        {
            "buffer": 0,
            "byteLength": 3408,
            "byteOffset": 4368,
            "target": 34962
        },
        {
            "buffer": 0,
            "byteLength": 2272,
            "byteOffset": 7776,
            "target": 34962
        },
        {
            "buffer": 0,
            "byteLength": 330,
            "byteOffset": 10048,
            "target": 34963
        },
        {
            "buffer": 0,
            "byteLength": 1020,
            "byteOffset": 10380,
            "target": 34962
        },
        {
            "buffer": 0,
            "byteLength": 1020,
            "byteOffset": 11400,
            "target": 34962
        },
        {
            "buffer": 0,
            "byteLength": 680,
            "byteOffset": 12420,
            "target": 34962
        }
    ],
    "scenes": [
        {
            "name": "Root Scene",
            "nodes": [
                0
            ]
        }
    ],
    "accessors": [
        {
            "componentType": 5123,
            "type": "SCALAR",
            "count": 480,
            "bufferView": 0,
            "byteOffset": 0
        },
        {
            "componentType": 5126,
            "type": "VEC3",
            "count": 284,
            "bufferView": 1,
            "byteOffset": 0,
            "min": [
                -0.1223478987813,
                0.166104391217232,
                -0.130979999899864
            ],
            "max": [
                0.1223478987813,
                0.499735981225967,
                0.130979999899864
            ]
        },
        {
            "componentType": 5126,
            "type": "VEC3",
            "count": 284,
            "bufferView": 2,
            "byteOffset": 0
        },
        {
            "componentType": 5126,
            "type": "VEC2",
            "count": 284,
            "bufferView": 3,
            "byteOffset": 0
        },
        {
            "componentType": 5123,
            "type": "SCALAR",
            "count": 165,
            "bufferView": 4,
            "byteOffset": 0
        },
        {
            "componentType": 5126,
            "type": "VEC3",
            "count": 85,
            "bufferView": 5,
            "byteOffset": 0,
            "min": [
                -0.0171541403979063,
                0.0,
                -0.0377646908164024
            ],
            "max": [
                0.0349858589470387,
                0.39139997959137,
                0.025280000641942
            ]
        },
        {
            "componentType": 5126,
            "type": "VEC3",
            "count": 85,
            "bufferView": 6,
            "byteOffset": 0
        },
        {
            "componentType": 5126,
            "type": "VEC2",
            "count": 85,
            "bufferView": 7,
            "byteOffset": 0
        }
    ],
    "samplers": [
        {}
    ],
    "materials": [
        {
            "name": "natureKit-leaves",
            "alphaMode": "OPAQUE",
            "doubleSided": false,
            "extras": {
                "fromFBX": {
                    "shadingModel": "Phong",
                    "isTruePBR": false
                }
            },
            "pbrMetallicRoughness": {
                "baseColorFactor": [
                    0.337254911661148,
                    0.627451002597809,
                    0.698039174079895,
                    1.0
                ],
                "metallicFactor": 0.400000005960464,
                "roughnessFactor": 1.0
            }
        },
        {
            "name": "natureKit-wood",
            "alphaMode": "OPAQUE",
            "doubleSided": false,
            "extras": {
                "fromFBX": {
                    "shadingModel": "Phong",
                    "isTruePBR": false
                }
            },
            "pbrMetallicRoughness": {
                "baseColorFactor": [
                    1.0,
                    0.682353019714355,
                    0.435294091701508,
                    1.0
                ],
                "metallicFactor": 0.400000005960464,
                "roughnessFactor": 1.0
            }
        }
    ],
    "meshes": [
        {
            "name": "tree_plateau_dark",
            "primitives": [
                {
                    "material": 0,
                    "mode": 4,
                    "attributes": {
                        "NORMAL": 2,
                        "POSITION": 1,
                        "TEXCOORD_0": 3
                    },
                    "indices": 0
                },
                {
                    "material": 1,
                    "mode": 4,
                    "attributes": {
                        "NORMAL": 6,
                        "POSITION": 5,
                        "TEXCOORD_0": 7
                    },
                    "indices": 4
                }
            ]
        }
    ],
    "nodes": [
        {
            "name": "RootNode",
            "translation": [
                0.0,
                0.0,
                0.0
            ],
            "rotation": [
                0.0,
                0.0,
                0.0,
                1.0
            ],
            "scale": [
                1.0,
                1.0,
                1.0
            ],
            "children": [
                1
            ]
        },
        {
            "name": "tree_plateau_dark",
            "translation": [
                100.777099609375,
                1.60296484632932e-30,
                -30.9802474975586
            ],
            "rotation": [
                0.0,
                0.0,
                0.0,
                1.0
            ],
            "scale": [
                25.0,
                25.0,
                25.0
            ],
            "mesh": 0
        }
    ]
}