{
    "asset": {
        "generator": "FBX2glTF v0.13.1",
        "version": "2.0"
    },
    "scene": 0,
    "buffers": [
        {
            "byteLength": 5156,
            "uri": "buffer.bin"
        }
    ],
    "bufferViews": [
        {
            "buffer": 0,
            "byteLength": 426,
            "byteOffset": 0,
            "target": 34963
        },
        {
            "buffer": 0,
            "byteLength": 1620,
            "byteOffset": 428,
            "target": 34962
        },
        {
            "buffer": 0,
            "byteLength": 1620,
            "byteOffset": 2048,
            "target": 34962
        },
        {
            "buffer": 0,
            "byteLength": 1080,
            "byteOffset": 3668,
            "target": 34962
        },
        {
            "buffer": 0,
            "byteLength": 54,
            "byteOffset": 4748,
            "target": 34963
        },
        {
            "buffer": 0,
            "byteLength": 132,
            "byteOffset": 4804,
            "target": 34962
        },
        {
            "buffer": 0,
            "byteLength": 132,
            "byteOffset": 4936,
            "target": 34962
        },
        {
            "buffer": 0,
            "byteLength": 88,
            "byteOffset": 5068,
            "target": 34962
        }
    ],
    "scenes": [
        {
            "name": "Root Scene",
            "nodes": [
                0
            ]
        }
    ],
    "accessors": [
        {
            "componentType": 5123,
            "type": "SCALAR",
            "count": 213,
            "bufferView": 0,
            "byteOffset": 0
        },
        {
            "componentType": 5126,
            "type": "VEC3",
            "count": 135,
            "bufferView": 1,
            "byteOffset": 0,
            "min": [
                -0.108773097395897,
                0.0,
                -0.14072360098362
            ],
            "max": [
                0.108773097395897,
                0.0719999969005585,
                0.14072360098362
            ]
        },
        {
            "componentType": 5126,
            "type": "VEC3",
            "count": 135,
            "bufferView": 2,
            "byteOffset": 0
        },
        {
            "componentType": 5126,
            "type": "VEC2",
            "count": 135,
            "bufferView": 3,
            "byteOffset": 0
        },
        {
            "componentType": 5123,
            "type": "SCALAR",
            "count": 27,
            "bufferView": 4,
            "byteOffset": 0
        },
        {
            "componentType": 5126,
            "type": "VEC3",
            "count": 11,
            "bufferView": 5,
            "byteOffset": 0,
            "min": [
                -0.075053445994854,
                0.0719999969005585,
                -0.0915082320570946
            ],
            "max": [
                0.075053445994854,
                0.0719999969005585,
                0.0970992669463158
            ]
        },
        {
            "componentType": 5126,
            "type": "VEC3",
            "count": 11,
            "bufferView": 6,
            "byteOffset": 0
        },
        {
            "componentType": 5126,
            "type": "VEC2",
            "count": 11,
            "bufferView": 7,
            "byteOffset": 0
        }
    ],
    "samplers": [
        {}
    ],
    "materials": [
        {
            "name": "natureKit-wood",
            "alphaMode": "OPAQUE",
            "doubleSided": false,
            "extras": {
                "fromFBX": {
                    "shadingModel": "Phong",
                    "isTruePBR": false
                }
            },
            "pbrMetallicRoughness": {
                "baseColorFactor": [
                    1.0,
                    0.682353019714355,
                    0.435294091701508,
                    1.0
                ],
                "metallicFactor": 0.400000005960464,
                "roughnessFactor": 1.0
            }
        },
        {
            "name": "natureKit-leavesGreen",
            "alphaMode": "OPAQUE",
            "doubleSided": false,
            "extras": {
                "fromFBX": {
                    "shadingModel": "Phong",
                    "isTruePBR": false
                }
            },
            "pbrMetallicRoughness": {
                "baseColorFactor": [
                    0.352941185235977,
                    0.768627524375916,
                    0.713725507259369,
                    1.0
                ],
                "metallicFactor": 0.400000005960464,
                "roughnessFactor": 1.0
            }
        }
    ],
    "meshes": [
        {
            "name": "rock_large1",
            "primitives": [
                {
                    "material": 0,
                    "mode": 4,
                    "attributes": {
                        "NORMAL": 2,
                        "POSITION": 1,
                        "TEXCOORD_0": 3
                    },
                    "indices": 0
                },
                {
                    "material": 1,
                    "mode": 4,
                    "attributes": {
                        "NORMAL": 6,
                        "POSITION": 5,
                        "TEXCOORD_0": 7
                    },
                    "indices": 4
                }
            ]
        }
    ],
    "nodes": [
        {
            "name": "RootNode",
            "translation": [
                0.0,
                0.0,
                0.0
            ],
            "rotation": [
                0.0,
                0.0,
                0.0,
                1.0
            ],
            "scale": [
                1.0,
                1.0,
                1.0
            ],
            "children": [
                1
            ]
        },
        {
            "name": "rock_large1",
            "translation": [
                -19.4051494598389,
                0.0,
                29.077299118042
            ],
            "rotation": [
                0.0,
                0.0,
                0.0,
                1.0
            ],
            "scale": [
                36.0800018310547,
                36.0800018310547,
                36.0800018310547
            ],
            "mesh": 0
        }
    ]
}