{
    "asset": {
        "generator": "FBX2glTF v0.13.1",
        "version": "2.0"
    },
    "scene": 0,
    "buffers": [
        {
            "byteLength": 5540,
            "uri": "buffer.bin"
        }
    ],
    "bufferViews": [
        {
            "buffer": 0,
            "byteLength": 402,
            "byteOffset": 0,
            "target": 34963
        },
        {
            "buffer": 0,
            "byteLength": 1500,
            "byteOffset": 404,
            "target": 34962
        },
        {
            "buffer": 0,
            "byteLength": 1500,
            "byteOffset": 1904,
            "target": 34962
        },
        {
            "buffer": 0,
            "byteLength": 1000,
            "byteOffset": 3404,
            "target": 34962
        },
        {
            "buffer": 0,
            "byteLength": 54,
            "byteOffset": 4404,
            "target": 34963
        },
        {
            "buffer": 0,
            "byteLength": 132,
            "byteOffset": 4460,
            "target": 34962
        },
        {
            "buffer": 0,
            "byteLength": 132,
            "byteOffset": 4592,
            "target": 34962
        },
        {
            "buffer": 0,
            "byteLength": 88,
            "byteOffset": 4724,
            "target": 34962
        },
        {
            "buffer": 0,
            "byteLength": 54,
            "byteOffset": 4812,
            "target": 34963
        },
        {
            "buffer": 0,
            "byteLength": 252,
            "byteOffset": 4868,
            "target": 34962
        },
        {
            "buffer": 0,
            "byteLength": 252,
            "byteOffset": 5120,
            "target": 34962
        },
        {
            "buffer": 0,
            "byteLength": 168,
            "byteOffset": 5372,
            "target": 34962
        }
    ],
    "scenes": [
        {
            "name": "Root Scene",
            "nodes": [
                0
            ]
        }
    ],
    "accessors": [
        {
            "componentType": 5123,
            "type": "SCALAR",
            "count": 201,
            "bufferView": 0,
            "byteOffset": 0
        },
        {
            "componentType": 5126,
            "type": "VEC3",
            "count": 125,
            "bufferView": 1,
            "byteOffset": 0,
            "min": [
                -0.10625209659338,
                0.0,
                -0.14072360098362
            ],
            "max": [
                0.10625209659338,
                0.119249999523163,
                0.14072360098362
            ]
        },
        {
            "componentType": 5126,
            "type": "VEC3",
            "count": 125,
            "bufferView": 2,
            "byteOffset": 0
        },
        {
            "componentType": 5126,
            "type": "VEC2",
            "count": 125,
            "bufferView": 3,
            "byteOffset": 0
        },
        {
            "componentType": 5123,
            "type": "SCALAR",
            "count": 27,
            "bufferView": 4,
            "byteOffset": 0
        },
        {
            "componentType": 5126,
            "type": "VEC3",
            "count": 11,
            "bufferView": 5,
            "byteOffset": 0,
            "min": [
                -0.0725324898958206,
                0.119249999523163,
                -0.0970992669463158
            ],
            "max": [
                0.0775744095444679,
                0.119249999523163,
                0.0970992669463158
            ]
        },
        {
            "componentType": 5126,
            "type": "VEC3",
            "count": 11,
            "bufferView": 6,
            "byteOffset": 0
        },
        {
            "componentType": 5126,
            "type": "VEC2",
            "count": 11,
            "bufferView": 7,
            "byteOffset": 0
        },
        {
            "componentType": 5123,
            "type": "SCALAR",
            "count": 27,
            "bufferView": 8,
            "byteOffset": 0
        },
        {
            "componentType": 5126,
            "type": "VEC3",
            "count": 21,
            "bufferView": 9,
            "byteOffset": 0,
            "min": [
                -0.10625209659338,
                0.0472499877214432,
                -0.14072360098362
            ],
            "max": [
                0.104075402021408,
                0.0472499877214432,
                0.14072360098362
            ]
        },
        {
            "componentType": 5126,
            "type": "VEC3",
            "count": 21,
            "bufferView": 10,
            "byteOffset": 0
        },
        {
            "componentType": 5126,
            "type": "VEC2",
            "count": 21,
            "bufferView": 11,
            "byteOffset": 0
        }
    ],
    "samplers": [
        {}
    ],
    "materials": [
        {
            "name": "natureKit-wood",
            "alphaMode": "OPAQUE",
            "doubleSided": false,
            "extras": {
                "fromFBX": {
                    "shadingModel": "Phong",
                    "isTruePBR": false
                }
            },
            "pbrMetallicRoughness": {
                "baseColorFactor": [
                    1.0,
                    0.682353019714355,
                    0.435294091701508,
                    1.0
                ],
                "metallicFactor": 0.400000005960464,
                "roughnessFactor": 1.0
            }
        },
        {
            "name": "natureKit-leavesGreen",
            "alphaMode": "OPAQUE",
            "doubleSided": false,
            "extras": {
                "fromFBX": {
                    "shadingModel": "Phong",
                    "isTruePBR": false
                }
            },
            "pbrMetallicRoughness": {
                "baseColorFactor": [
                    0.352941185235977,
                    0.768627524375916,
                    0.713725507259369,
                    1.0
                ],
                "metallicFactor": 0.400000005960464,
                "roughnessFactor": 1.0
            }
        },
        {
            "name": "natureKit-_defaultMat",
            "alphaMode": "OPAQUE",
            "doubleSided": false,
            "extras": {
                "fromFBX": {
                    "shadingModel": "Phong",
                    "isTruePBR": false
                }
            },
            "pbrMetallicRoughness": {
                "baseColorFactor": [
                    1.0,
                    1.0,
                    1.0,
                    1.0
                ],
                "metallicFactor": 0.400000005960464,
                "roughnessFactor": 1.0
            }
        }
    ],
    "meshes": [
        {
            "name": "rock_large2",
            "primitives": [
                {
                    "material": 0,
                    "mode": 4,
                    "attributes": {
                        "NORMAL": 2,
                        "POSITION": 1,
                        "TEXCOORD_0": 3
                    },
                    "indices": 0
                },
                {
                    "material": 1,
                    "mode": 4,
                    "attributes": {
                        "NORMAL": 6,
                        "POSITION": 5,
                        "TEXCOORD_0": 7
                    },
                    "indices": 4
                },
                {
                    "material": 2,
                    "mode": 4,
                    "attributes": {
                        "NORMAL": 10,
                        "POSITION": 9,
                        "TEXCOORD_0": 11
                    },
                    "indices": 8
                }
            ]
        }
    ],
    "nodes": [
        {
            "name": "RootNode",
            "translation": [
                0.0,
                0.0,
                0.0
            ],
            "rotation": [
                0.0,
                0.0,
                0.0,
                1.0
            ],
            "scale": [
                1.0,
                1.0,
                1.0
            ],
            "children": [
                1
            ]
        },
        {
            "name": "rock_large2",
            "translation": [
                -7.20893907546997,
                0.0,
                29.077299118042
            ],
            "rotation": [
                0.0,
                0.0,
                0.0,
                1.0
            ],
            "scale": [
                36.0800018310547,
                36.0800018310547,
                36.0800018310547
            ],
            "mesh": 0
        }
    ]
}