{
    "asset": {
        "generator": "FBX2glTF v0.13.1",
        "version": "2.0"
    },
    "scene": 0,
    "buffers": [
        {
            "byteLength": 7608,
            "uri": "buffer.bin"
        }
    ],
    "bufferViews": [
        {
            "buffer": 0,
            "byteLength": 48,
            "byteOffset": 0,
            "target": 34963
        },
        {
            "buffer": 0,
            "byteLength": 192,
            "byteOffset": 48,
            "target": 34962
        },
        {
            "buffer": 0,
            "byteLength": 192,
            "byteOffset": 240,
            "target": 34962
        },
        {
            "buffer": 0,
            "byteLength": 256,
            "byteOffset": 432,
            "target": 34962
        },
        {
            "buffer": 0,
            "byteLength": 128,
            "byteOffset": 688,
            "target": 34962
        },
        {
            "buffer": 0,
            "byteLength": 456,
            "byteOffset": 816,
            "target": 34963
        },
        {
            "buffer": 0,
            "byteLength": 1584,
            "byteOffset": 1272,
            "target": 34962
        },
        {
            "buffer": 0,
            "byteLength": 1584,
            "byteOffset": 2856,
            "target": 34962
        },
        {
            "buffer": 0,
            "byteLength": 2112,
            "byteOffset": 4440,
            "target": 34962
        },
        {
            "buffer": 0,
            "byteLength": 1056,
            "byteOffset": 6552,
            "target": 34962
        }
    ],
    "scenes": [
        {
            "name": "Root Scene",
            "nodes": [
                0
            ]
        }
    ],
    "accessors": [
        {
            "componentType": 5123,
            "type": "SCALAR",
            "count": 24,
            "bufferView": 0,
            "byteOffset": 0
        },
        {
            "componentType": 5126,
            "type": "VEC3",
            "count": 16,
            "bufferView": 1,
            "byteOffset": 0,
            "min": [
                -0.0250000301748514,
                -0.949999988079071,
                -0.574999988079071
            ],
            "max": [
                0.0249999780207872,
                -0.0499999523162842,
                -0.525000035762787
            ]
        },
        {
            "componentType": 5126,
            "type": "VEC3",
            "count": 16,
            "bufferView": 2,
            "byteOffset": 0
        },
        {
            "componentType": 5126,
            "type": "VEC4",
            "count": 16,
            "bufferView": 3,
            "byteOffset": 0
        },
        {
            "componentType": 5126,
            "type": "VEC2",
            "count": 16,
            "bufferView": 4,
            "byteOffset": 0
        },
        {
            "componentType": 5123,
            "type": "SCALAR",
            "count": 228,
            "bufferView": 5,
            "byteOffset": 0
        },
        {
            "componentType": 5126,
            "type": "VEC3",
            "count": 132,
            "bufferView": 6,
            "byteOffset": 0,
            "min": [
                -0.0500000081956387,
                -0.349999994039536,
                -0.600000023841858
            ],
            "max": [
                0.0500000417232513,
                0.0499999970197678,
                0.0
            ]
        },
        {
            "componentType": 5126,
            "type": "VEC3",
            "count": 132,
            "bufferView": 7,
            "byteOffset": 0
        },
        {
            "componentType": 5126,
            "type": "VEC4",
            "count": 132,
            "bufferView": 8,
            "byteOffset": 0
        },
        {
            "componentType": 5126,
            "type": "VEC2",
            "count": 132,
            "bufferView": 9,
            "byteOffset": 0
        }
    ],
    "images": [
        {
            "name": "planks.png",
            "uri": "planks.png"
        },
        {
            "name": "details.png",
            "uri": "details.png"
        }
    ],
    "samplers": [
        {}
    ],
    "textures": [
        {
            "name": "DiffuseColor_Texture",
            "sampler": 0,
            "source": 0
        },
        {
            "name": "DiffuseColor_Texture_1",
            "sampler": 0,
            "source": 1
        }
    ],
    "materials": [
        {
            "name": "planks",
            "alphaMode": "BLEND",
            "doubleSided": false,
            "extras": {
                "fromFBX": {
                    "shadingModel": "Lambert",
                    "isTruePBR": false
                }
            },
            "pbrMetallicRoughness": {
                "baseColorTexture": {
                    "index": 0,
                    "texCoord": 0
                },
                "baseColorFactor": [
                    1.0,
                    1.0,
                    1.0,
                    1.0
                ],
                "metallicFactor": 0.200000002980232,
                "roughnessFactor": 0.800000011920929
            }
        },
        {
            "name": "details",
            "alphaMode": "OPAQUE",
            "doubleSided": false,
            "extras": {
                "fromFBX": {
                    "shadingModel": "Lambert",
                    "isTruePBR": false
                }
            },
            "pbrMetallicRoughness": {
                "baseColorTexture": {
                    "index": 1,
                    "texCoord": 0
                },
                "baseColorFactor": [
                    1.0,
                    1.0,
                    1.0,
                    1.0
                ],
                "metallicFactor": 0.200000002980232,
                "roughnessFactor": 0.800000011920929
            }
        }
    ],
    "meshes": [
        {
            "name": "pulley",
            "primitives": [
                {
                    "material": 1,
                    "mode": 4,
                    "attributes": {
                        "NORMAL": 2,
                        "POSITION": 1,
                        "TANGENT": 3,
                        "TEXCOORD_0": 4
                    },
                    "indices": 0
                },
                {
                    "material": 0,
                    "mode": 4,
                    "attributes": {
                        "NORMAL": 7,
                        "POSITION": 6,
                        "TANGENT": 8,
                        "TEXCOORD_0": 9
                    },
                    "indices": 5
                }
            ]
        }
    ],
    "nodes": [
        {
            "name": "RootNode",
            "translation": [
                0.0,
                0.0,
                0.0
            ],
            "rotation": [
                0.0,
                0.0,
                0.0,
                1.0
            ],
            "scale": [
                1.0,
                1.0,
                1.0
            ],
            "children": [
                1
            ]
        },
        {
            "name": "pulley",
            "translation": [
                0.0,
                0.0,
                0.0
            ],
            "rotation": [
                0.0,
                0.0,
                0.0,
                1.0
            ],
            "scale": [
                1.0,
                1.0,
                1.0
            ],
            "mesh": 0
        }
    ]
}