{
    "asset": {
        "generator": "FBX2glTF v0.13.1",
        "version": "2.0"
    },
    "scene": 0,
    "buffers": [
        {
            "byteLength": 129572,
            "uri": "buffer.bin"
        }
    ],
    "bufferViews": [
        {
            "buffer": 0,
            "byteLength": 6594,
            "byteOffset": 0,
            "target": 34963
        },
        {
            "buffer": 0,
            "byteLength": 19440,
            "byteOffset": 6596,
            "target": 34962
        },
        {
            "buffer": 0,
            "byteLength": 19440,
            "byteOffset": 26036,
            "target": 34962
        },
        {
            "buffer": 0,
            "byteLength": 25920,
            "byteOffset": 45476,
            "target": 34962
        },
        {
            "buffer": 0,
            "byteLength": 12960,
            "byteOffset": 71396,
            "target": 34962
        },
        {
            "buffer": 0,
            "byteLength": 528,
            "byteOffset": 84356,
            "target": 34963
        },
        {
            "buffer": 0,
            "byteLength": 1776,
            "byteOffset": 84884,
            "target": 34962
        },
        {
            "buffer": 0,
            "byteLength": 1776,
            "byteOffset": 86660,
            "target": 34962
        },
        {
            "buffer": 0,
            "byteLength": 2368,
            "byteOffset": 88436,
            "target": 34962
        },
        {
            "buffer": 0,
            "byteLength": 1184,
            "byteOffset": 90804,
            "target": 34962
        },
        {
            "buffer": 0,
            "byteLength": 1080,
            "byteOffset": 91988,
            "target": 34963
        },
        {
            "buffer": 0,
            "byteLength": 2520,
            "byteOffset": 93068,
            "target": 34962
        },
        {
            "buffer": 0,
            "byteLength": 2520,
            "byteOffset": 95588,
            "target": 34962
        },
        {
            "buffer": 0,
            "byteLength": 3360,
            "byteOffset": 98108,
            "target": 34962
        },
        {
            "buffer": 0,
            "byteLength": 1680,
            "byteOffset": 101468,
            "target": 34962
        },
        {
            "buffer": 0,
            "byteLength": 1080,
            "byteOffset": 103148,
            "target": 34963
        },
        {
            "buffer": 0,
            "byteLength": 2520,
            "byteOffset": 104228,
            "target": 34962
        },
        {
            "buffer": 0,
            "byteLength": 2520,
            "byteOffset": 106748,
            "target": 34962
        },
        {
            "buffer": 0,
            "byteLength": 3360,
            "byteOffset": 109268,
            "target": 34962
        },
        {
            "buffer": 0,
            "byteLength": 1680,
            "byteOffset": 112628,
            "target": 34962
        },
        {
            "buffer": 0,
            "byteLength": 528,
            "byteOffset": 114308,
            "target": 34963
        },
        {
            "buffer": 0,
            "byteLength": 1776,
            "byteOffset": 114836,
            "target": 34962
        },
        {
            "buffer": 0,
            "byteLength": 1776,
            "byteOffset": 116612,
            "target": 34962
        },
        {
            "buffer": 0,
            "byteLength": 2368,
            "byteOffset": 118388,
            "target": 34962
        },
        {
            "buffer": 0,
            "byteLength": 1184,
            "byteOffset": 120756,
            "target": 34962
        },
        {
            "buffer": 0,
            "byteLength": 528,
            "byteOffset": 121940,
            "target": 34963
        },
        {
            "buffer": 0,
            "byteLength": 1776,
            "byteOffset": 122468,
            "target": 34962
        },
        {
            "buffer": 0,
            "byteLength": 1776,
            "byteOffset": 124244,
            "target": 34962
        },
        {
            "buffer": 0,
            "byteLength": 2368,
            "byteOffset": 126020,
            "target": 34962
        },
        {
            "buffer": 0,
            "byteLength": 1184,
            "byteOffset": 128388,
            "target": 34962
        }
    ],
    "scenes": [
        {
            "name": "Root Scene",
            "nodes": [
                0
            ]
        }
    ],
    "accessors": [
        {
            "componentType": 5123,
            "type": "SCALAR",
            "count": 3297,
            "bufferView": 0,
            "byteOffset": 0
        },
        {
            "componentType": 5126,
            "type": "VEC3",
            "count": 1620,
            "bufferView": 1,
            "byteOffset": 0,
            "min": [
                -2.40000009536743,
                0.0,
                -5.29999971389771
            ],
            "max": [
                2.40000009536743,
                9.96352005004883,
                5.29999971389771
            ]
        },
        {
            "componentType": 5126,
            "type": "VEC3",
            "count": 1620,
            "bufferView": 2,
            "byteOffset": 0
        },
        {
            "componentType": 5126,
            "type": "VEC4",
            "count": 1620,
            "bufferView": 3,
            "byteOffset": 0
        },
        {
            "componentType": 5126,
            "type": "VEC2",
            "count": 1620,
            "bufferView": 4,
            "byteOffset": 0
        },
        {
            "componentType": 5123,
            "type": "SCALAR",
            "count": 264,
            "bufferView": 5,
            "byteOffset": 0
        },
        {
            "componentType": 5126,
            "type": "VEC3",
            "count": 148,
            "bufferView": 6,
            "byteOffset": 0,
            "min": [
                -0.17545048892498,
                0.0,
                -1.17888998985291
            ],
            "max": [
                0.17545048892498,
                0.962024986743927,
                0.17545048892498
            ]
        },
        {
            "componentType": 5126,
            "type": "VEC3",
            "count": 148,
            "bufferView": 7,
            "byteOffset": 0
        },
        {
            "componentType": 5126,
            "type": "VEC4",
            "count": 148,
            "bufferView": 8,
            "byteOffset": 0
        },
        {
            "componentType": 5126,
            "type": "VEC2",
            "count": 148,
            "bufferView": 9,
            "byteOffset": 0
        },
        {
            "componentType": 5123,
            "type": "SCALAR",
            "count": 540,
            "bufferView": 10,
            "byteOffset": 0
        },
        {
            "componentType": 5126,
            "type": "VEC3",
            "count": 210,
            "bufferView": 11,
            "byteOffset": 0,
            "min": [
                -2.20000004768372,
                0.0,
                -0.09999980032444
            ],
            "max": [
                2.20000004768372,
                3.625,
                0.862499535083771
            ]
        },
        {
            "componentType": 5126,
            "type": "VEC3",
            "count": 210,
            "bufferView": 12,
            "byteOffset": 0
        },
        {
            "componentType": 5126,
            "type": "VEC4",
            "count": 210,
            "bufferView": 13,
            "byteOffset": 0
        },
        {
            "componentType": 5126,
            "type": "VEC2",
            "count": 210,
            "bufferView": 14,
            "byteOffset": 0
        },
        {
            "componentType": 5123,
            "type": "SCALAR",
            "count": 540,
            "bufferView": 15,
            "byteOffset": 0
        },
        {
            "componentType": 5126,
            "type": "VEC3",
            "count": 210,
            "bufferView": 16,
            "byteOffset": 0,
            "min": [
                -2.20000004768372,
                0.0,
                -0.09999980032444
            ],
            "max": [
                2.20000004768372,
                4.72499990463257,
                1.07499992847443
            ]
        },
        {
            "componentType": 5126,
            "type": "VEC3",
            "count": 210,
            "bufferView": 17,
            "byteOffset": 0
        },
        {
            "componentType": 5126,
            "type": "VEC4",
            "count": 210,
            "bufferView": 18,
            "byteOffset": 0
        },
        {
            "componentType": 5126,
            "type": "VEC2",
            "count": 210,
            "bufferView": 19,
            "byteOffset": 0
        },
        {
            "componentType": 5123,
            "type": "SCALAR",
            "count": 264,
            "bufferView": 20,
            "byteOffset": 0
        },
        {
            "componentType": 5126,
            "type": "VEC3",
            "count": 148,
            "bufferView": 21,
            "byteOffset": 0,
            "min": [
                -0.17545048892498,
                0.0,
                -1.17888998985291
            ],
            "max": [
                0.17545048892498,
                0.962024986743927,
                0.17545048892498
            ]
        },
        {
            "componentType": 5126,
            "type": "VEC3",
            "count": 148,
            "bufferView": 22,
            "byteOffset": 0
        },
        {
            "componentType": 5126,
            "type": "VEC4",
            "count": 148,
            "bufferView": 23,
            "byteOffset": 0
        },
        {
            "componentType": 5126,
            "type": "VEC2",
            "count": 148,
            "bufferView": 24,
            "byteOffset": 0
        },
        {
            "componentType": 5123,
            "type": "SCALAR",
            "count": 264,
            "bufferView": 25,
            "byteOffset": 0
        },
        {
            "componentType": 5126,
            "type": "VEC3",
            "count": 148,
            "bufferView": 26,
            "byteOffset": 0,
            "min": [
                -0.17545048892498,
                0.0,
                -1.17888998985291
            ],
            "max": [
                0.17545048892498,
                0.962024986743927,
                0.17545048892498
            ]
        },
        {
            "componentType": 5126,
            "type": "VEC3",
            "count": 148,
            "bufferView": 27,
            "byteOffset": 0
        },
        {
            "componentType": 5126,
            "type": "VEC4",
            "count": 148,
            "bufferView": 28,
            "byteOffset": 0
        },
        {
            "componentType": 5126,
            "type": "VEC2",
            "count": 148,
            "bufferView": 29,
            "byteOffset": 0
        }
    ],
    "images": [
        {
            "name": "colormap.png",
            "uri": "colormap.png"
        }
    ],
    "samplers": [
        {}
    ],
    "textures": [
        {
            "name": "DiffuseColor_Texture",
            "sampler": 0,
            "source": 0
        }
    ],
    "materials": [
        {
            "name": "colormap",
            "alphaMode": "OPAQUE",
            "doubleSided": false,
            "extras": {
                "fromFBX": {
                    "shadingModel": "Lambert",
                    "isTruePBR": false
                }
            },
            "pbrMetallicRoughness": {
                "baseColorTexture": {
                    "index": 0,
                    "texCoord": 0
                },
                "baseColorFactor": [
                    1.0,
                    1.0,
                    1.0,
                    1.0
                ],
                "metallicFactor": 0.200000002980232,
                "roughnessFactor": 0.800000011920929
            }
        }
    ],
    "meshes": [
        {
            "name": "ship-small",
            "primitives": [
                {
                    "material": 0,
                    "mode": 4,
                    "attributes": {
                        "NORMAL": 2,
                        "POSITION": 1,
                        "TANGENT": 3,
                        "TEXCOORD_0": 4
                    },
                    "indices": 0
                }
            ]
        },
        {
            "name": "flag-a",
            "primitives": [
                {
                    "material": 0,
                    "mode": 4,
                    "attributes": {
                        "NORMAL": 7,
                        "POSITION": 6,
                        "TANGENT": 8,
                        "TEXCOORD_0": 9
                    },
                    "indices": 5
                }
            ]
        },
        {
            "name": "sail-b",
            "primitives": [
                {
                    "material": 0,
                    "mode": 4,
                    "attributes": {
                        "NORMAL": 12,
                        "POSITION": 11,
                        "TANGENT": 13,
                        "TEXCOORD_0": 14
                    },
                    "indices": 10
                }
            ]
        },
        {
            "name": "sail-a",
            "primitives": [
                {
                    "material": 0,
                    "mode": 4,
                    "attributes": {
                        "NORMAL": 17,
                        "POSITION": 16,
                        "TANGENT": 18,
                        "TEXCOORD_0": 19
                    },
                    "indices": 15
                }
            ]
        },
        {
            "name": "flag-c",
            "primitives": [
                {
                    "material": 0,
                    "mode": 4,
                    "attributes": {
                        "NORMAL": 22,
                        "POSITION": 21,
                        "TANGENT": 23,
                        "TEXCOORD_0": 24
                    },
                    "indices": 20
                }
            ]
        },
        {
            "name": "flag-b",
            "primitives": [
                {
                    "material": 0,
                    "mode": 4,
                    "attributes": {
                        "NORMAL": 27,
                        "POSITION": 26,
                        "TANGENT": 28,
                        "TEXCOORD_0": 29
                    },
                    "indices": 25
                }
            ]
        }
    ],
    "nodes": [
        {
            "name": "RootNode",
            "translation": [
                0.0,
                0.0,
                0.0
            ],
            "rotation": [
                0.0,
                0.0,
                0.0,
                1.0
            ],
            "scale": [
                1.0,
                1.0,
                1.0
            ],
            "children": [
                1
            ]
        },
        {
            "name": "ship-small",
            "translation": [
                0.0,
                0.0,
                0.0
            ],
            "rotation": [
                0.0,
                0.0,
                0.0,
                1.0
            ],
            "scale": [
                1.0,
                1.0,
                1.0
            ],
            "children": [
                2,
                3,
                4,
                5,
                6
            ],
            "mesh": 0
        },
        {
            "name": "flag-a",
            "translation": [
                1.37163170700464e-14,
                5.48097515106201,
                2.96532249450684
            ],
            "rotation": [
                0.0,
                0.0,
                0.0,
                1.0
            ],
            "scale": [
                1.0,
                1.0,
                1.0
            ],
            "mesh": 1
        },
        {
            "name": "sail-b",
            "translation": [
                -6.49720222081437e-15,
                4.54745626449585,
                -4.0072660446167
            ],
            "rotation": [
                0.0,
                0.0,
                0.0,
                1.0
            ],
            "scale": [
                1.0,
                1.0,
                1.0
            ],
            "mesh": 2
        },
        {
            "name": "sail-a",
            "translation": [
                -7.21911410807822e-16,
                3.13851976394653,
                0.666627466678619
            ],
            "rotation": [
                0.0,
                0.0,
                0.0,
                1.0
            ],
            "scale": [
                1.0,
                1.0,
                1.0
            ],
            "mesh": 3
        },
        {
            "name": "flag-c",
            "translation": [
                -9.3848480758039e-15,
                8.23797416687012,
                -4.0072660446167
            ],
            "rotation": [
                0.0,
                0.0,
                0.0,
                1.0
            ],
            "scale": [
                1.0,
                1.0,
                1.0
            ],
            "mesh": 4
        },
        {
            "name": "flag-b",
            "translation": [
                -1.22724943543099e-14,
                8.83797550201416,
                0.680233895778656
            ],
            "rotation": [
                0.0,
                0.0,
                0.0,
                1.0
            ],
            "scale": [
                1.0,
                1.0,
                1.0
            ],
            "mesh": 5
        }
    ]
}