{
    "asset": {
        "generator": "FBX2glTF v0.13.1",
        "version": "2.0"
    },
    "scene": 0,
    "buffers": [
        {
            "byteLength": 20040,
            "uri": "buffer.bin"
        }
    ],
    "bufferViews": [
        {
            "buffer": 0,
            "byteLength": 40,
            "byteOffset": 0
        },
        {
            "buffer": 0,
            "byteLength": 160,
            "byteOffset": 40
        },
        {
            "buffer": 0,
            "byteLength": 124,
            "byteOffset": 200
        },
        {
            "buffer": 0,
            "byteLength": 496,
            "byteOffset": 324
        },
        {
            "buffer": 0,
            "byteLength": 244,
            "byteOffset": 820
        },
        {
            "buffer": 0,
            "byteLength": 976,
            "byteOffset": 1064
        },
        {
            "buffer": 0,
            "byteLength": 552,
            "byteOffset": 2040,
            "target": 34963
        },
        {
            "buffer": 0,
            "byteLength": 1824,
            "byteOffset": 2592,
            "target": 34962
        },
        {
            "buffer": 0,
            "byteLength": 1824,
            "byteOffset": 4416,
            "target": 34962
        },
        {
            "buffer": 0,
            "byteLength": 2432,
            "byteOffset": 6240,
            "target": 34962
        },
        {
            "buffer": 0,
            "byteLength": 1216,
            "byteOffset": 8672,
            "target": 34962
        },
        {
            "buffer": 0,
            "byteLength": 840,
            "byteOffset": 9888,
            "target": 34963
        },
        {
            "buffer": 0,
            "byteLength": 2328,
            "byteOffset": 10728,
            "target": 34962
        },
        {
            "buffer": 0,
            "byteLength": 2328,
            "byteOffset": 13056,
            "target": 34962
        },
        {
            "buffer": 0,
            "byteLength": 3104,
            "byteOffset": 15384,
            "target": 34962
        },
        {
            "buffer": 0,
            "byteLength": 1552,
            "byteOffset": 18488,
            "target": 34962
        }
    ],
    "scenes": [
        {
            "name": "Root Scene",
            "nodes": [
                0
            ]
        }
    ],
    "accessors": [
        {
            "componentType": 5126,
            "type": "SCALAR",
            "count": 10,
            "bufferView": 0,
            "byteOffset": 0,
            "min": [
                0.0
            ],
            "max": [
                0.300000011920929
            ]
        },
        {
            "componentType": 5126,
            "type": "VEC4",
            "count": 10,
            "bufferView": 1,
            "byteOffset": 0
        },
        {
            "componentType": 5126,
            "type": "SCALAR",
            "count": 31,
            "bufferView": 2,
            "byteOffset": 0,
            "min": [
                0.0
            ],
            "max": [
                1.0
            ]
        },
        {
            "componentType": 5126,
            "type": "VEC4",
            "count": 31,
            "bufferView": 3,
            "byteOffset": 0
        },
        {
            "componentType": 5126,
            "type": "SCALAR",
            "count": 61,
            "bufferView": 4,
            "byteOffset": 0,
            "min": [
                0.0
            ],
            "max": [
                2.0
            ]
        },
        {
            "componentType": 5126,
            "type": "VEC4",
            "count": 61,
            "bufferView": 5,
            "byteOffset": 0
        },
        {
            "componentType": 5123,
            "type": "SCALAR",
            "count": 276,
            "bufferView": 6,
            "byteOffset": 0
        },
        {
            "componentType": 5126,
            "type": "VEC3",
            "count": 152,
            "bufferView": 7,
            "byteOffset": 0,
            "min": [
                -0.25,
                0.0,
                -0.25
            ],
            "max": [
                0.25,
                0.199999988079071,
                0.25
            ]
        },
        {
            "componentType": 5126,
            "type": "VEC3",
            "count": 152,
            "bufferView": 8,
            "byteOffset": 0
        },
        {
            "componentType": 5126,
            "type": "VEC4",
            "count": 152,
            "bufferView": 9,
            "byteOffset": 0
        },
        {
            "componentType": 5126,
            "type": "VEC2",
            "count": 152,
            "bufferView": 10,
            "byteOffset": 0
        },
        {
            "componentType": 5123,
            "type": "SCALAR",
            "count": 420,
            "bufferView": 11,
            "byteOffset": 0
        },
        {
            "componentType": 5126,
            "type": "VEC3",
            "count": 194,
            "bufferView": 12,
            "byteOffset": 0,
            "min": [
                -0.25,
                -0.0499999970197678,
                -0.0499999970197678
            ],
            "max": [
                0.25,
                0.25,
                0.449999988079071
            ]
        },
        {
            "componentType": 5126,
            "type": "VEC3",
            "count": 194,
            "bufferView": 13,
            "byteOffset": 0
        },
        {
            "componentType": 5126,
            "type": "VEC4",
            "count": 194,
            "bufferView": 14,
            "byteOffset": 0
        },
        {
            "componentType": 5126,
            "type": "VEC2",
            "count": 194,
            "bufferView": 15,
            "byteOffset": 0
        }
    ],
    "images": [
        {
            "name": "colormap.png",
            "uri": "colormap.png"
        }
    ],
    "samplers": [
        {}
    ],
    "textures": [
        {
            "name": "DiffuseColor_Texture",
            "sampler": 0,
            "source": 0
        }
    ],
    "materials": [
        {
            "name": "colormap",
            "alphaMode": "OPAQUE",
            "doubleSided": false,
            "extras": {
                "fromFBX": {
                    "shadingModel": "Lambert",
                    "isTruePBR": false
                }
            },
            "pbrMetallicRoughness": {
                "baseColorTexture": {
                    "index": 0,
                    "texCoord": 0
                },
                "baseColorFactor": [
                    1.0,
                    1.0,
                    1.0,
                    1.0
                ],
                "metallicFactor": 0.200000002980232,
                "roughnessFactor": 0.800000011920929
            }
        }
    ],
    "meshes": [
        {
            "name": "chest",
            "primitives": [
                {
                    "material": 0,
                    "mode": 4,
                    "attributes": {
                        "NORMAL": 8,
                        "POSITION": 7,
                        "TANGENT": 9,
                        "TEXCOORD_0": 10
                    },
                    "indices": 6
                }
            ]
        },
        {
            "name": "lid",
            "primitives": [
                {
                    "material": 0,
                    "mode": 4,
                    "attributes": {
                        "NORMAL": 13,
                        "POSITION": 12,
                        "TANGENT": 14,
                        "TEXCOORD_0": 15
                    },
                    "indices": 11
                }
            ]
        }
    ],
    "animations": [
        {
            "name": "open",
            "channels": [
                {
                    "sampler": 0,
                    "target": {
                        "node": 2,
                        "path": "rotation"
                    }
                }
            ],
            "samplers": [
                {
                    "input": 0,
                    "interpolation": "LINEAR",
                    "output": 1
                }
            ]
        },
        {
            "name": "close",
            "channels": [
                {
                    "sampler": 0,
                    "target": {
                        "node": 2,
                        "path": "rotation"
                    }
                }
            ],
            "samplers": [
                {
                    "input": 2,
                    "interpolation": "LINEAR",
                    "output": 3
                }
            ]
        },
        {
            "name": "open-close",
            "channels": [
                {
                    "sampler": 0,
                    "target": {
                        "node": 2,
                        "path": "rotation"
                    }
                }
            ],
            "samplers": [
                {
                    "input": 4,
                    "interpolation": "LINEAR",
                    "output": 5
                }
            ]
        }
    ],
    "nodes": [
        {
            "name": "RootNode",
            "translation": [
                0.0,
                0.0,
                0.0
            ],
            "rotation": [
                0.0,
                0.0,
                0.0,
                1.0
            ],
            "scale": [
                1.0,
                1.0,
                1.0
            ],
            "children": [
                1
            ]
        },
        {
            "name": "chest",
            "translation": [
                0.0,
                0.0,
                0.0
            ],
            "rotation": [
                0.0,
                0.0,
                0.0,
                1.0
            ],
            "scale": [
                1.0,
                1.0,
                1.0
            ],
            "children": [
                2
            ],
            "mesh": 0
        },
        {
            "name": "lid",
            "translation": [
                -3.72529829206769e-09,
                0.199999988079071,
                -0.199999988079071
            ],
            "rotation": [
                0.0,
                0.0,
                0.0,
                1.0
            ],
            "scale": [
                1.0,
                1.0,
                1.0
            ],
            "mesh": 1
        }
    ]
}