{
    "asset": {
        "generator": "FBX2glTF v0.13.1",
        "version": "2.0"
    },
    "scene": 0,
    "buffers": [
        {
            "byteLength": 27048,
            "uri": "buffer.bin"
        }
    ],
    "bufferViews": [
        {
            "buffer": 0,
            "byteLength": 264,
            "byteOffset": 0,
            "target": 34963
        },
        {
            "buffer": 0,
            "byteLength": 864,
            "byteOffset": 264,
            "target": 34962
        },
        {
            "buffer": 0,
            "byteLength": 864,
            "byteOffset": 1128,
            "target": 34962
        },
        {
            "buffer": 0,
            "byteLength": 576,
            "byteOffset": 1992,
            "target": 34962
        },
        {
            "buffer": 0,
            "byteLength": 228,
            "byteOffset": 2568,
            "target": 34963
        },
        {
            "buffer": 0,
            "byteLength": 624,
            "byteOffset": 2796,
            "target": 34962
        },
        {
            "buffer": 0,
            "byteLength": 624,
            "byteOffset": 3420,
            "target": 34962
        },
        {
            "buffer": 0,
            "byteLength": 416,
            "byteOffset": 4044,
            "target": 34962
        },
        {
            "buffer": 0,
            "byteLength": 228,
            "byteOffset": 4460,
            "target": 34963
        },
        {
            "buffer": 0,
            "byteLength": 624,
            "byteOffset": 4688,
            "target": 34962
        },
        {
            "buffer": 0,
            "byteLength": 624,
            "byteOffset": 5312,
            "target": 34962
        },
        {
            "buffer": 0,
            "byteLength": 416,
            "byteOffset": 5936,
            "target": 34962
        },
        {
            "buffer": 0,
            "byteLength": 360,
            "byteOffset": 6352,
            "target": 34963
        },
        {
            "buffer": 0,
            "byteLength": 912,
            "byteOffset": 6712,
            "target": 34962
        },
        {
            "buffer": 0,
            "byteLength": 912,
            "byteOffset": 7624,
            "target": 34962
        },
        {
            "buffer": 0,
            "byteLength": 608,
            "byteOffset": 8536,
            "target": 34962
        },
        {
            "buffer": 0,
            "byteLength": 372,
            "byteOffset": 9144,
            "target": 34963
        },
        {
            "buffer": 0,
            "byteLength": 1104,
            "byteOffset": 9516,
            "target": 34962
        },
        {
            "buffer": 0,
            "byteLength": 1104,
            "byteOffset": 10620,
            "target": 34962
        },
        {
            "buffer": 0,
            "byteLength": 736,
            "byteOffset": 11724,
            "target": 34962
        },
        {
            "buffer": 0,
            "byteLength": 372,
            "byteOffset": 12460,
            "target": 34963
        },
        {
            "buffer": 0,
            "byteLength": 1104,
            "byteOffset": 12832,
            "target": 34962
        },
        {
            "buffer": 0,
            "byteLength": 1104,
            "byteOffset": 13936,
            "target": 34962
        },
        {
            "buffer": 0,
            "byteLength": 736,
            "byteOffset": 15040,
            "target": 34962
        },
        {
            "buffer": 0,
            "byteLength": 132,
            "byteOffset": 15776,
            "target": 34963
        },
        {
            "buffer": 0,
            "byteLength": 288,
            "byteOffset": 15908,
            "target": 34962
        },
        {
            "buffer": 0,
            "byteLength": 288,
            "byteOffset": 16196,
            "target": 34962
        },
        {
            "buffer": 0,
            "byteLength": 192,
            "byteOffset": 16484,
            "target": 34962
        },
        {
            "buffer": 0,
            "byteLength": 804,
            "byteOffset": 16676,
            "target": 34963
        },
        {
            "buffer": 0,
            "byteLength": 2520,
            "byteOffset": 17480,
            "target": 34962
        },
        {
            "buffer": 0,
            "byteLength": 2520,
            "byteOffset": 20000,
            "target": 34962
        },
        {
            "buffer": 0,
            "byteLength": 1680,
            "byteOffset": 22520,
            "target": 34962
        },
        {
            "buffer": 0,
            "byteLength": 144,
            "byteOffset": 24200,
            "target": 34963
        },
        {
            "buffer": 0,
            "byteLength": 480,
            "byteOffset": 24344,
            "target": 34962
        },
        {
            "buffer": 0,
            "byteLength": 480,
            "byteOffset": 24824,
            "target": 34962
        },
        {
            "buffer": 0,
            "byteLength": 320,
            "byteOffset": 25304,
            "target": 34962
        },
        {
            "buffer": 0,
            "byteLength": 144,
            "byteOffset": 25624,
            "target": 34963
        },
        {
            "buffer": 0,
            "byteLength": 480,
            "byteOffset": 25768,
            "target": 34962
        },
        {
            "buffer": 0,
            "byteLength": 480,
            "byteOffset": 26248,
            "target": 34962
        },
        {
            "buffer": 0,
            "byteLength": 320,
            "byteOffset": 26728,
            "target": 34962
        }
    ],
    "scenes": [
        {
            "name": "Root Scene",
            "nodes": [
                0
            ]
        }
    ],
    "accessors": [
        {
            "componentType": 5123,
            "type": "SCALAR",
            "count": 132,
            "bufferView": 0,
            "byteOffset": 0
        },
        {
            "componentType": 5126,
            "type": "VEC3",
            "count": 72,
            "bufferView": 1,
            "byteOffset": 0,
            "min": [
                -0.0430000014603138,
                0.00582418590784073,
                0.0149999996647239
            ],
            "max": [
                0.0,
                0.0390000008046627,
                0.044999998062849
            ]
        },
        {
            "componentType": 5126,
            "type": "VEC3",
            "count": 72,
            "bufferView": 2,
            "byteOffset": 0
        },
        {
            "componentType": 5126,
            "type": "VEC2",
            "count": 72,
            "bufferView": 3,
            "byteOffset": 0
        },
        {
            "componentType": 5123,
            "type": "SCALAR",
            "count": 114,
            "bufferView": 4,
            "byteOffset": 0
        },
        {
            "componentType": 5126,
            "type": "VEC3",
            "count": 52,
            "bufferView": 5,
            "byteOffset": 0,
            "min": [
                -0.0376311577856541,
                0.0,
                0.0
            ],
            "max": [
                0.0,
                0.0125612793490291,
                0.0249999985098839
            ]
        },
        {
            "componentType": 5126,
            "type": "VEC3",
            "count": 52,
            "bufferView": 6,
            "byteOffset": 0
        },
        {
            "componentType": 5126,
            "type": "VEC2",
            "count": 52,
            "bufferView": 7,
            "byteOffset": 0
        },
        {
            "componentType": 5123,
            "type": "SCALAR",
            "count": 114,
            "bufferView": 8,
            "byteOffset": 0
        },
        {
            "componentType": 5126,
            "type": "VEC3",
            "count": 52,
            "bufferView": 9,
            "byteOffset": 0,
            "min": [
                -0.0376311577856541,
                0.0,
                0.0
            ],
            "max": [
                0.0,
                0.0125612793490291,
                0.0249999985098839
            ]
        },
        {
            "componentType": 5126,
            "type": "VEC3",
            "count": 52,
            "bufferView": 10,
            "byteOffset": 0
        },
        {
            "componentType": 5126,
            "type": "VEC2",
            "count": 52,
            "bufferView": 11,
            "byteOffset": 0
        },
        {
            "componentType": 5123,
            "type": "SCALAR",
            "count": 180,
            "bufferView": 12,
            "byteOffset": 0
        },
        {
            "componentType": 5126,
            "type": "VEC3",
            "count": 76,
            "bufferView": 13,
            "byteOffset": 0,
            "min": [
                -0.0430000014603138,
                0.0390000008046627,
                0.0149999996647239
            ],
            "max": [
                0.0,
                0.0499999970197678,
                0.044999998062849
            ]
        },
        {
            "componentType": 5126,
            "type": "VEC3",
            "count": 76,
            "bufferView": 14,
            "byteOffset": 0
        },
        {
            "componentType": 5126,
            "type": "VEC2",
            "count": 76,
            "bufferView": 15,
            "byteOffset": 0
        },
        {
            "componentType": 5123,
            "type": "SCALAR",
            "count": 186,
            "bufferView": 16,
            "byteOffset": 0
        },
        {
            "componentType": 5126,
            "type": "VEC3",
            "count": 92,
            "bufferView": 17,
            "byteOffset": 0,
            "min": [
                -0.0376311577856541,
                0.0,
                -0.0020000000949949
            ],
            "max": [
                0.0,
                0.0125612793490291,
                0.0249999985098839
            ]
        },
        {
            "componentType": 5126,
            "type": "VEC3",
            "count": 92,
            "bufferView": 18,
            "byteOffset": 0
        },
        {
            "componentType": 5126,
            "type": "VEC2",
            "count": 92,
            "bufferView": 19,
            "byteOffset": 0
        },
        {
            "componentType": 5123,
            "type": "SCALAR",
            "count": 186,
            "bufferView": 20,
            "byteOffset": 0
        },
        {
            "componentType": 5126,
            "type": "VEC3",
            "count": 92,
            "bufferView": 21,
            "byteOffset": 0,
            "min": [
                -0.0376311577856541,
                0.0,
                -0.0020000000949949
            ],
            "max": [
                0.0,
                0.0125612793490291,
                0.0249999985098839
            ]
        },
        {
            "componentType": 5126,
            "type": "VEC3",
            "count": 92,
            "bufferView": 22,
            "byteOffset": 0
        },
        {
            "componentType": 5126,
            "type": "VEC2",
            "count": 92,
            "bufferView": 23,
            "byteOffset": 0
        },
        {
            "componentType": 5123,
            "type": "SCALAR",
            "count": 66,
            "bufferView": 24,
            "byteOffset": 0
        },
        {
            "componentType": 5126,
            "type": "VEC3",
            "count": 24,
            "bufferView": 25,
            "byteOffset": 0,
            "min": [
                -0.0234999991953373,
                0.0399999991059303,
                0.0311418194323778
            ],
            "max": [
                -0.0195000004023314,
                0.0399999991059303,
                0.0351418219506741
            ]
        },
        {
            "componentType": 5126,
            "type": "VEC3",
            "count": 24,
            "bufferView": 26,
            "byteOffset": 0
        },
        {
            "componentType": 5126,
            "type": "VEC2",
            "count": 24,
            "bufferView": 27,
            "byteOffset": 0
        },
        {
            "componentType": 5123,
            "type": "SCALAR",
            "count": 402,
            "bufferView": 28,
            "byteOffset": 0
        },
        {
            "componentType": 5126,
            "type": "VEC3",
            "count": 210,
            "bufferView": 29,
            "byteOffset": 0,
            "min": [
                -0.0259999986737967,
                0.0459999963641167,
                0.0296080205589533
            ],
            "max": [
                -0.017000000923872,
                0.0529999993741512,
                0.0416080169379711
            ]
        },
        {
            "componentType": 5126,
            "type": "VEC3",
            "count": 210,
            "bufferView": 30,
            "byteOffset": 0
        },
        {
            "componentType": 5126,
            "type": "VEC2",
            "count": 210,
            "bufferView": 31,
            "byteOffset": 0
        },
        {
            "componentType": 5123,
            "type": "SCALAR",
            "count": 72,
            "bufferView": 32,
            "byteOffset": 0
        },
        {
            "componentType": 5126,
            "type": "VEC3",
            "count": 40,
            "bufferView": 33,
            "byteOffset": 0,
            "min": [
                -0.0248155798763037,
                0.00528063904494047,
                -0.0020000000949949
            ],
            "max": [
                -0.0128155797719955,
                0.00728063844144344,
                7.21911357868263e-17
            ]
        },
        {
            "componentType": 5126,
            "type": "VEC3",
            "count": 40,
            "bufferView": 34,
            "byteOffset": 0
        },
        {
            "componentType": 5126,
            "type": "VEC2",
            "count": 40,
            "bufferView": 35,
            "byteOffset": 0
        },
        {
            "componentType": 5123,
            "type": "SCALAR",
            "count": 72,
            "bufferView": 36,
            "byteOffset": 0
        },
        {
            "componentType": 5126,
            "type": "VEC3",
            "count": 40,
            "bufferView": 37,
            "byteOffset": 0,
            "min": [
                -0.0248155798763037,
                0.00528063904494047,
                -0.0020000000949949
            ],
            "max": [
                -0.0128155797719955,
                0.00728063844144344,
                7.21911357868263e-17
            ]
        },
        {
            "componentType": 5126,
            "type": "VEC3",
            "count": 40,
            "bufferView": 38,
            "byteOffset": 0
        },
        {
            "componentType": 5126,
            "type": "VEC2",
            "count": 40,
            "bufferView": 39,
            "byteOffset": 0
        }
    ],
    "samplers": [
        {}
    ],
    "materials": [
        {
            "name": "wood",
            "alphaMode": "OPAQUE",
            "doubleSided": false,
            "extras": {
                "fromFBX": {
                    "shadingModel": "Phong",
                    "isTruePBR": false
                }
            },
            "pbrMetallicRoughness": {
                "baseColorFactor": [
                    0.896226406097412,
                    0.601571202278137,
                    0.39315590262413,
                    1.0
                ],
                "metallicFactor": 0.400000005960464,
                "roughnessFactor": 1.0
            }
        },
        {
            "name": "carpetWhite",
            "alphaMode": "OPAQUE",
            "doubleSided": false,
            "extras": {
                "fromFBX": {
                    "shadingModel": "Phong",
                    "isTruePBR": false
                }
            },
            "pbrMetallicRoughness": {
                "baseColorFactor": [
                    0.972549021244049,
                    1.0,
                    1.0,
                    1.0
                ],
                "metallicFactor": 0.400000005960464,
                "roughnessFactor": 1.0
            }
        },
        {
            "name": "metalDark",
            "alphaMode": "OPAQUE",
            "doubleSided": false,
            "extras": {
                "fromFBX": {
                    "shadingModel": "Phong",
                    "isTruePBR": false
                }
            },
            "pbrMetallicRoughness": {
                "baseColorFactor": [
                    0.305882394313812,
                    0.388235300779343,
                    0.388235300779343,
                    1.0
                ],
                "metallicFactor": 0.400000005960464,
                "roughnessFactor": 1.0
            }
        },
        {
            "name": "metalLight",
            "alphaMode": "OPAQUE",
            "doubleSided": false,
            "extras": {
                "fromFBX": {
                    "shadingModel": "Phong",
                    "isTruePBR": false
                }
            },
            "pbrMetallicRoughness": {
                "baseColorFactor": [
                    0.937254905700684,
                    0.980392217636108,
                    0.956862688064575,
                    1.0
                ],
                "metallicFactor": 0.400000005960464,
                "roughnessFactor": 1.0
            }
        }
    ],
    "meshes": [
        {
            "name": "bathroomCabinetDrawer",
            "primitives": [
                {
                    "material": 0,
                    "mode": 4,
                    "attributes": {
                        "NORMAL": 2,
                        "POSITION": 1,
                        "TEXCOORD_0": 3
                    },
                    "indices": 0
                },
                {
                    "material": 1,
                    "mode": 4,
                    "attributes": {
                        "NORMAL": 14,
                        "POSITION": 13,
                        "TEXCOORD_0": 15
                    },
                    "indices": 12
                },
                {
                    "material": 2,
                    "mode": 4,
                    "attributes": {
                        "NORMAL": 26,
                        "POSITION": 25,
                        "TEXCOORD_0": 27
                    },
                    "indices": 24
                },
                {
                    "material": 3,
                    "mode": 4,
                    "attributes": {
                        "NORMAL": 30,
                        "POSITION": 29,
                        "TEXCOORD_0": 31
                    },
                    "indices": 28
                }
            ]
        },
        {
            "name": "drawerBottom",
            "primitives": [
                {
                    "material": 0,
                    "mode": 4,
                    "attributes": {
                        "NORMAL": 6,
                        "POSITION": 5,
                        "TEXCOORD_0": 7
                    },
                    "indices": 4
                },
                {
                    "material": 1,
                    "mode": 4,
                    "attributes": {
                        "NORMAL": 18,
                        "POSITION": 17,
                        "TEXCOORD_0": 19
                    },
                    "indices": 16
                },
                {
                    "material": 3,
                    "mode": 4,
                    "attributes": {
                        "NORMAL": 34,
                        "POSITION": 33,
                        "TEXCOORD_0": 35
                    },
                    "indices": 32
                }
            ]
        },
        {
            "name": "drawerTop",
            "primitives": [
                {
                    "material": 0,
                    "mode": 4,
                    "attributes": {
                        "NORMAL": 10,
                        "POSITION": 9,
                        "TEXCOORD_0": 11
                    },
                    "indices": 8
                },
                {
                    "material": 1,
                    "mode": 4,
                    "attributes": {
                        "NORMAL": 22,
                        "POSITION": 21,
                        "TEXCOORD_0": 23
                    },
                    "indices": 20
                },
                {
                    "material": 3,
                    "mode": 4,
                    "attributes": {
                        "NORMAL": 38,
                        "POSITION": 37,
                        "TEXCOORD_0": 39
                    },
                    "indices": 36
                }
            ]
        }
    ],
    "nodes": [
        {
            "name": "RootNode",
            "translation": [
                0.0,
                0.0,
                0.0
            ],
            "rotation": [
                0.0,
                0.0,
                0.0,
                1.0
            ],
            "scale": [
                1.0,
                1.0,
                1.0
            ],
            "children": [
                1
            ]
        },
        {
            "name": "bathroomCabinetDrawer",
            "translation": [
                0.0,
                0.0,
                0.0
            ],
            "rotation": [
                0.0,
                0.0,
                0.0,
                1.0
            ],
            "scale": [
                100.0,
                100.0,
                100.0
            ],
            "children": [
                2,
                3
            ],
            "mesh": 0
        },
        {
            "name": "drawerBottom",
            "translation": [
                -0.00268441787920892,
                0.00850860495120287,
                0.0149999996647239
            ],
            "rotation": [
                0.0,
                0.0,
                0.0,
                1.0
            ],
            "scale": [
                1.0,
                1.0,
                1.0
            ],
            "mesh": 1
        },
        {
            "name": "drawerTop",
            "translation": [
                -0.00268441787920892,
                0.0237543005496264,
                0.0149999996647239
            ],
            "rotation": [
                0.0,
                0.0,
                0.0,
                1.0
            ],
            "scale": [
                1.0,
                1.0,
                1.0
            ],
            "mesh": 2
        }
    ]
}