{
    "asset": {
        "generator": "FBX2glTF v0.13.1",
        "version": "2.0"
    },
    "scene": 0,
    "buffers": [
        {
            "byteLength": 34020,
            "uri": "buffer.bin"
        }
    ],
    "bufferViews": [
        {
            "buffer": 0,
            "byteLength": 1740,
            "byteOffset": 0,
            "target": 34963
        },
        {
            "buffer": 0,
            "byteLength": 5352,
            "byteOffset": 1740,
            "target": 34962
        },
        {
            "buffer": 0,
            "byteLength": 5352,
            "byteOffset": 7092,
            "target": 34962
        },
        {
            "buffer": 0,
            "byteLength": 7136,
            "byteOffset": 12444,
            "target": 34962
        },
        {
            "buffer": 0,
            "byteLength": 3568,
            "byteOffset": 19580,
            "target": 34962
        },
        {
            "buffer": 0,
            "byteLength": 360,
            "byteOffset": 23148,
            "target": 34963
        },
        {
            "buffer": 0,
            "byteLength": 960,
            "byteOffset": 23508,
            "target": 34962
        },
        {
            "buffer": 0,
            "byteLength": 960,
            "byteOffset": 24468,
            "target": 34962
        },
        {
            "buffer": 0,
            "byteLength": 1280,
            "byteOffset": 25428,
            "target": 34962
        },
        {
            "buffer": 0,
            "byteLength": 640,
            "byteOffset": 26708,
            "target": 34962
        },
        {
            "buffer": 0,
            "byteLength": 360,
            "byteOffset": 27348,
            "target": 34963
        },
        {
            "buffer": 0,
            "byteLength": 960,
            "byteOffset": 27708,
            "target": 34962
        },
        {
            "buffer": 0,
            "byteLength": 960,
            "byteOffset": 28668,
            "target": 34962
        },
        {
            "buffer": 0,
            "byteLength": 1280,
            "byteOffset": 29628,
            "target": 34962
        },
        {
            "buffer": 0,
            "byteLength": 640,
            "byteOffset": 30908,
            "target": 34962
        },
        {
            "buffer": 0,
            "byteLength": 168,
            "byteOffset": 31548,
            "target": 34963
        },
        {
            "buffer": 0,
            "byteLength": 576,
            "byteOffset": 31716,
            "target": 34962
        },
        {
            "buffer": 0,
            "byteLength": 576,
            "byteOffset": 32292,
            "target": 34962
        },
        {
            "buffer": 0,
            "byteLength": 768,
            "byteOffset": 32868,
            "target": 34962
        },
        {
            "buffer": 0,
            "byteLength": 384,
            "byteOffset": 33636,
            "target": 34962
        }
    ],
    "scenes": [
        {
            "name": "Root Scene",
            "nodes": [
                0
            ]
        }
    ],
    "accessors": [
        {
            "componentType": 5123,
            "type": "SCALAR",
            "count": 870,
            "bufferView": 0,
            "byteOffset": 0
        },
        {
            "componentType": 5126,
            "type": "VEC3",
            "count": 446,
            "bufferView": 1,
            "byteOffset": 0,
            "min": [
                -0.5,
                0.0,
                -0.349999994039536
            ],
            "max": [
                0.5,
                0.5,
                0.349999994039536
            ]
        },
        {
            "componentType": 5126,
            "type": "VEC3",
            "count": 446,
            "bufferView": 2,
            "byteOffset": 0
        },
        {
            "componentType": 5126,
            "type": "VEC4",
            "count": 446,
            "bufferView": 3,
            "byteOffset": 0
        },
        {
            "componentType": 5126,
            "type": "VEC2",
            "count": 446,
            "bufferView": 4,
            "byteOffset": 0
        },
        {
            "componentType": 5123,
            "type": "SCALAR",
            "count": 180,
            "bufferView": 5,
            "byteOffset": 0
        },
        {
            "componentType": 5126,
            "type": "VEC3",
            "count": 80,
            "bufferView": 6,
            "byteOffset": 0,
            "min": [
                -0.063000001013279,
                0.0,
                -0.063000001013279
            ],
            "max": [
                0.063000001013279,
                0.0504000000655651,
                0.063000001013279
            ]
        },
        {
            "componentType": 5126,
            "type": "VEC3",
            "count": 80,
            "bufferView": 7,
            "byteOffset": 0
        },
        {
            "componentType": 5126,
            "type": "VEC4",
            "count": 80,
            "bufferView": 8,
            "byteOffset": 0
        },
        {
            "componentType": 5126,
            "type": "VEC2",
            "count": 80,
            "bufferView": 9,
            "byteOffset": 0
        },
        {
            "componentType": 5123,
            "type": "SCALAR",
            "count": 180,
            "bufferView": 10,
            "byteOffset": 0
        },
        {
            "componentType": 5126,
            "type": "VEC3",
            "count": 80,
            "bufferView": 11,
            "byteOffset": 0,
            "min": [
                -0.063000001013279,
                0.0,
                -0.063000001013279
            ],
            "max": [
                0.063000001013279,
                0.0504000000655651,
                0.063000001013279
            ]
        },
        {
            "componentType": 5126,
            "type": "VEC3",
            "count": 80,
            "bufferView": 12,
            "byteOffset": 0
        },
        {
            "componentType": 5126,
            "type": "VEC4",
            "count": 80,
            "bufferView": 13,
            "byteOffset": 0
        },
        {
            "componentType": 5126,
            "type": "VEC2",
            "count": 80,
            "bufferView": 14,
            "byteOffset": 0
        },
        {
            "componentType": 5123,
            "type": "SCALAR",
            "count": 84,
            "bufferView": 15,
            "byteOffset": 0
        },
        {
            "componentType": 5126,
            "type": "VEC3",
            "count": 48,
            "bufferView": 16,
            "byteOffset": 0,
            "min": [
                -0.0366000011563301,
                0.0,
                -0.0366000011563301
            ],
            "max": [
                0.0366000011563301,
                0.0252000000327826,
                0.0366000011563301
            ]
        },
        {
            "componentType": 5126,
            "type": "VEC3",
            "count": 48,
            "bufferView": 17,
            "byteOffset": 0
        },
        {
            "componentType": 5126,
            "type": "VEC4",
            "count": 48,
            "bufferView": 18,
            "byteOffset": 0
        },
        {
            "componentType": 5126,
            "type": "VEC2",
            "count": 48,
            "bufferView": 19,
            "byteOffset": 0
        }
    ],
    "images": [
        {
            "name": "colormap.png",
            "uri": "colormap.png"
        }
    ],
    "samplers": [
        {}
    ],
    "textures": [
        {
            "name": "DiffuseColor_Texture",
            "sampler": 0,
            "source": 0
        }
    ],
    "materials": [
        {
            "name": "colormap",
            "alphaMode": "OPAQUE",
            "doubleSided": false,
            "extras": {
                "fromFBX": {
                    "shadingModel": "Lambert",
                    "isTruePBR": false
                }
            },
            "pbrMetallicRoughness": {
                "baseColorTexture": {
                    "index": 0,
                    "texCoord": 0
                },
                "baseColorFactor": [
                    1.0,
                    1.0,
                    1.0,
                    1.0
                ],
                "metallicFactor": 0.200000002980232,
                "roughnessFactor": 0.800000011920929
            }
        }
    ],
    "meshes": [
        {
            "name": "air-hockey",
            "primitives": [
                {
                    "material": 0,
                    "mode": 4,
                    "attributes": {
                        "NORMAL": 2,
                        "POSITION": 1,
                        "TANGENT": 3,
                        "TEXCOORD_0": 4
                    },
                    "indices": 0
                }
            ]
        },
        {
            "name": "player-a",
            "primitives": [
                {
                    "material": 0,
                    "mode": 4,
                    "attributes": {
                        "NORMAL": 7,
                        "POSITION": 6,
                        "TANGENT": 8,
                        "TEXCOORD_0": 9
                    },
                    "indices": 5
                }
            ]
        },
        {
            "name": "player-b",
            "primitives": [
                {
                    "material": 0,
                    "mode": 4,
                    "attributes": {
                        "NORMAL": 12,
                        "POSITION": 11,
                        "TANGENT": 13,
                        "TEXCOORD_0": 14
                    },
                    "indices": 10
                }
            ]
        },
        {
            "name": "puck",
            "primitives": [
                {
                    "material": 0,
                    "mode": 4,
                    "attributes": {
                        "NORMAL": 17,
                        "POSITION": 16,
                        "TANGENT": 18,
                        "TEXCOORD_0": 19
                    },
                    "indices": 15
                }
            ]
        }
    ],
    "nodes": [
        {
            "name": "RootNode",
            "translation": [
                0.0,
                0.0,
                0.0
            ],
            "rotation": [
                0.0,
                0.0,
                0.0,
                1.0
            ],
            "scale": [
                1.0,
                1.0,
                1.0
            ],
            "children": [
                1
            ]
        },
        {
            "name": "air-hockey",
            "translation": [
                0.0,
                0.0,
                0.0
            ],
            "rotation": [
                0.0,
                0.0,
                0.0,
                1.0
            ],
            "scale": [
                1.0,
                1.0,
                1.0
            ],
            "children": [
                2,
                3,
                4
            ],
            "mesh": 0
        },
        {
            "name": "player-a",
            "translation": [
                0.236999988555908,
                0.25,
                -1.08286703680239e-15
            ],
            "rotation": [
                0.0,
                0.0,
                0.0,
                1.0
            ],
            "scale": [
                1.0,
                1.0,
                1.0
            ],
            "mesh": 1
        },
        {
            "name": "player-b",
            "translation": [
                -0.236999988555908,
                0.25,
                -1.08286703680239e-15
            ],
            "rotation": [
                0.0,
                0.0,
                0.0,
                1.0
            ],
            "scale": [
                1.0,
                1.0,
                1.0
            ],
            "mesh": 2
        },
        {
            "name": "puck",
            "translation": [
                0.0,
                0.25,
                -7.21911410807822e-16
            ],
            "rotation": [
                0.0,
                0.0,
                0.0,
                1.0
            ],
            "scale": [
                1.0,
                1.0,
                1.0
            ],
            "mesh": 3
        }
    ]
}