{
    "asset": {
        "generator": "FBX2glTF v0.13.1",
        "version": "2.0"
    },
    "scene": 0,
    "buffers": [
        {
            "byteLength": 20616,
            "uri": "buffer.bin"
        }
    ],
    "bufferViews": [
        {
            "buffer": 0,
            "byteLength": 1188,
            "byteOffset": 0,
            "target": 34963
        },
        {
            "buffer": 0,
            "byteLength": 3456,
            "byteOffset": 1188,
            "target": 34962
        },
        {
            "buffer": 0,
            "byteLength": 3456,
            "byteOffset": 4644,
            "target": 34962
        },
        {
            "buffer": 0,
            "byteLength": 2304,
            "byteOffset": 8100,
            "target": 34962
        },
        {
            "buffer": 0,
            "byteLength": 276,
            "byteOffset": 10404,
            "target": 34963
        },
        {
            "buffer": 0,
            "byteLength": 576,
            "byteOffset": 10680,
            "target": 34962
        },
        {
            "buffer": 0,
            "byteLength": 576,
            "byteOffset": 11256,
            "target": 34962
        },
        {
            "buffer": 0,
            "byteLength": 384,
            "byteOffset": 11832,
            "target": 34962
        },
        {
            "buffer": 0,
            "byteLength": 720,
            "byteOffset": 12216,
            "target": 34963
        },
        {
            "buffer": 0,
            "byteLength": 2880,
            "byteOffset": 12936,
            "target": 34962
        },
        {
            "buffer": 0,
            "byteLength": 2880,
            "byteOffset": 15816,
            "target": 34962
        },
        {
            "buffer": 0,
            "byteLength": 1920,
            "byteOffset": 18696,
            "target": 34962
        }
    ],
    "scenes": [
        {
            "name": "Root Scene",
            "nodes": [
                0
            ]
        }
    ],
    "accessors": [
        {
            "componentType": 5123,
            "type": "SCALAR",
            "count": 594,
            "bufferView": 0,
            "byteOffset": 0
        },
        {
            "componentType": 5126,
            "type": "VEC3",
            "count": 288,
            "bufferView": 1,
            "byteOffset": 0,
            "min": [
                -0.0379352383315563,
                0.0,
                -0.0371628664433956
            ],
            "max": [
                0.0471588186919689,
                0.0299999993294477,
                0.0429854020476341
            ]
        },
        {
            "componentType": 5126,
            "type": "VEC3",
            "count": 288,
            "bufferView": 2,
            "byteOffset": 0
        },
        {
            "componentType": 5126,
            "type": "VEC2",
            "count": 288,
            "bufferView": 3,
            "byteOffset": 0
        },
        {
            "componentType": 5123,
            "type": "SCALAR",
            "count": 138,
            "bufferView": 4,
            "byteOffset": 0
        },
        {
            "componentType": 5126,
            "type": "VEC3",
            "count": 48,
            "bufferView": 5,
            "byteOffset": 0,
            "min": [
                -0.0297873578965664,
                0.0077461926266551,
                -0.0312984809279442
            ],
            "max": [
                0.0374835804104805,
                0.0299999993294477,
                0.0351253375411034
            ]
        },
        {
            "componentType": 5126,
            "type": "VEC3",
            "count": 48,
            "bufferView": 6,
            "byteOffset": 0
        },
        {
            "componentType": 5126,
            "type": "VEC2",
            "count": 48,
            "bufferView": 7,
            "byteOffset": 0
        },
        {
            "componentType": 5123,
            "type": "SCALAR",
            "count": 360,
            "bufferView": 8,
            "byteOffset": 0
        },
        {
            "componentType": 5126,
            "type": "VEC3",
            "count": 240,
            "bufferView": 9,
            "byteOffset": 0,
            "min": [
                -0.0272027384489775,
                0.000992391258478165,
                -0.0280861891806126
            ],
            "max": [
                0.0453160889446735,
                0.0337499976158142,
                0.026016877964139
            ]
        },
        {
            "componentType": 5126,
            "type": "VEC3",
            "count": 240,
            "bufferView": 10,
            "byteOffset": 0
        },
        {
            "componentType": 5126,
            "type": "VEC2",
            "count": 240,
            "bufferView": 11,
            "byteOffset": 0
        }
    ],
    "samplers": [
        {}
    ],
    "materials": [
        {
            "name": "rockTrack",
            "alphaMode": "OPAQUE",
            "doubleSided": false,
            "extras": {
                "fromFBX": {
                    "shadingModel": "Phong",
                    "isTruePBR": false
                }
            },
            "pbrMetallicRoughness": {
                "baseColorFactor": [
                    0.981132090091705,
                    0.58096832036972,
                    0.44891420006752,
                    1.0
                ],
                "metallicFactor": 0.400000005960464,
                "roughnessFactor": 1.0
            }
        },
        {
            "name": "rock",
            "alphaMode": "OPAQUE",
            "doubleSided": false,
            "extras": {
                "fromFBX": {
                    "shadingModel": "Phong",
                    "isTruePBR": false
                }
            },
            "pbrMetallicRoughness": {
                "baseColorFactor": [
                    0.909803926944733,
                    0.517647087574005,
                    0.388235300779343,
                    1.0
                ],
                "metallicFactor": 0.400000005960464,
                "roughnessFactor": 1.0
            }
        },
        {
            "name": "crystal",
            "alphaMode": "OPAQUE",
            "doubleSided": false,
            "extras": {
                "fromFBX": {
                    "shadingModel": "Phong",
                    "isTruePBR": false
                }
            },
            "pbrMetallicRoughness": {
                "baseColorFactor": [
                    0.186231806874275,
                    0.877358496189117,
                    0.593436181545258,
                    1.0
                ],
                "metallicFactor": 0.400000005960464,
                "roughnessFactor": 1.0
            }
        }
    ],
    "meshes": [
        {
            "name": "rock_crystals",
            "primitives": [
                {
                    "material": 0,
                    "mode": 4,
                    "attributes": {
                        "NORMAL": 2,
                        "POSITION": 1,
                        "TEXCOORD_0": 3
                    },
                    "indices": 0
                },
                {
                    "material": 1,
                    "mode": 4,
                    "attributes": {
                        "NORMAL": 6,
                        "POSITION": 5,
                        "TEXCOORD_0": 7
                    },
                    "indices": 4
                },
                {
                    "material": 2,
                    "mode": 4,
                    "attributes": {
                        "NORMAL": 10,
                        "POSITION": 9,
                        "TEXCOORD_0": 11
                    },
                    "indices": 8
                }
            ]
        }
    ],
    "nodes": [
        {
            "name": "RootNode",
            "translation": [
                0.0,
                0.0,
                0.0
            ],
            "rotation": [
                0.0,
                0.0,
                0.0,
                1.0
            ],
            "scale": [
                1.0,
                1.0,
                1.0
            ],
            "children": [
                1
            ]
        },
        {
            "name": "rock_crystals",
            "translation": [
                -2.0,
                0.0,
                -1.5
            ],
            "rotation": [
                0.0,
                0.0,
                0.0,
                1.0
            ],
            "scale": [
                10.0,
                10.0,
                10.0
            ],
            "mesh": 0
        }
    ]
}