{
    "asset": {
        "generator": "FBX2glTF v0.13.1",
        "version": "2.0"
    },
    "scene": 0,
    "buffers": [
        {
            "byteLength": 36196,
            "uri": "buffer.bin"
        }
    ],
    "bufferViews": [
        {
            "buffer": 0,
            "byteLength": 180,
            "byteOffset": 0,
            "target": 34963
        },
        {
            "buffer": 0,
            "byteLength": 624,
            "byteOffset": 180,
            "target": 34962
        },
        {
            "buffer": 0,
            "byteLength": 624,
            "byteOffset": 804,
            "target": 34962
        },
        {
            "buffer": 0,
            "byteLength": 416,
            "byteOffset": 1428,
            "target": 34962
        },
        {
            "buffer": 0,
            "byteLength": 384,
            "byteOffset": 1844,
            "target": 34963
        },
        {
            "buffer": 0,
            "byteLength": 1224,
            "byteOffset": 2228,
            "target": 34962
        },
        {
            "buffer": 0,
            "byteLength": 1224,
            "byteOffset": 3452,
            "target": 34962
        },
        {
            "buffer": 0,
            "byteLength": 816,
            "byteOffset": 4676,
            "target": 34962
        },
        {
            "buffer": 0,
            "byteLength": 2256,
            "byteOffset": 5492,
            "target": 34963
        },
        {
            "buffer": 0,
            "byteLength": 7272,
            "byteOffset": 7748,
            "target": 34962
        },
        {
            "buffer": 0,
            "byteLength": 7272,
            "byteOffset": 15020,
            "target": 34962
        },
        {
            "buffer": 0,
            "byteLength": 4848,
            "byteOffset": 22292,
            "target": 34962
        },
        {
            "buffer": 0,
            "byteLength": 228,
            "byteOffset": 27140,
            "target": 34963
        },
        {
            "buffer": 0,
            "byteLength": 816,
            "byteOffset": 27368,
            "target": 34962
        },
        {
            "buffer": 0,
            "byteLength": 816,
            "byteOffset": 28184,
            "target": 34962
        },
        {
            "buffer": 0,
            "byteLength": 544,
            "byteOffset": 29000,
            "target": 34962
        },
        {
            "buffer": 0,
            "byteLength": 828,
            "byteOffset": 29544,
            "target": 34963
        },
        {
            "buffer": 0,
            "byteLength": 2184,
            "byteOffset": 30372,
            "target": 34962
        },
        {
            "buffer": 0,
            "byteLength": 2184,
            "byteOffset": 32556,
            "target": 34962
        },
        {
            "buffer": 0,
            "byteLength": 1456,
            "byteOffset": 34740,
            "target": 34962
        }
    ],
    "scenes": [
        {
            "name": "Root Scene",
            "nodes": [
                0
            ]
        }
    ],
    "accessors": [
        {
            "componentType": 5123,
            "type": "SCALAR",
            "count": 90,
            "bufferView": 0,
            "byteOffset": 0
        },
        {
            "componentType": 5126,
            "type": "VEC3",
            "count": 52,
            "bufferView": 1,
            "byteOffset": 0,
            "min": [
                -0.00600000005215406,
                0.0,
                -0.000999999814666808
            ],
            "max": [
                0.000999999814666808,
                0.00600000005215406,
                0.00391292525455356
            ]
        },
        {
            "componentType": 5126,
            "type": "VEC3",
            "count": 52,
            "bufferView": 2,
            "byteOffset": 0
        },
        {
            "componentType": 5126,
            "type": "VEC2",
            "count": 52,
            "bufferView": 3,
            "byteOffset": 0
        },
        {
            "componentType": 5123,
            "type": "SCALAR",
            "count": 192,
            "bufferView": 4,
            "byteOffset": 0
        },
        {
            "componentType": 5126,
            "type": "VEC3",
            "count": 102,
            "bufferView": 5,
            "byteOffset": 0,
            "min": [
                -0.0149999996647239,
                -0.0199999995529652,
                -0.0430966354906559
            ],
            "max": [
                0.0,
                0.00999999977648258,
                0.044999998062849
            ]
        },
        {
            "componentType": 5126,
            "type": "VEC3",
            "count": 102,
            "bufferView": 6,
            "byteOffset": 0
        },
        {
            "componentType": 5126,
            "type": "VEC2",
            "count": 102,
            "bufferView": 7,
            "byteOffset": 0
        },
        {
            "componentType": 5123,
            "type": "SCALAR",
            "count": 1128,
            "bufferView": 8,
            "byteOffset": 0
        },
        {
            "componentType": 5126,
            "type": "VEC3",
            "count": 606,
            "bufferView": 9,
            "byteOffset": 0,
            "min": [
                -0.017000000923872,
                0.0,
                -0.0190966390073299
            ],
            "max": [
                0.0020000000949949,
                0.0659999847412109,
                0.0899999961256981
            ]
        },
        {
            "componentType": 5126,
            "type": "VEC3",
            "count": 606,
            "bufferView": 10,
            "byteOffset": 0
        },
        {
            "componentType": 5126,
            "type": "VEC2",
            "count": 606,
            "bufferView": 11,
            "byteOffset": 0
        },
        {
            "componentType": 5123,
            "type": "SCALAR",
            "count": 114,
            "bufferView": 12,
            "byteOffset": 0
        },
        {
            "componentType": 5126,
            "type": "VEC3",
            "count": 68,
            "bufferView": 13,
            "byteOffset": 0,
            "min": [
                -0.0160000007599592,
                -0.0209999978542328,
                0.0439999997615814
            ],
            "max": [
                0.000999999814666808,
                0.0379999987781048,
                0.0659999847412109
            ]
        },
        {
            "componentType": 5126,
            "type": "VEC3",
            "count": 68,
            "bufferView": 14,
            "byteOffset": 0
        },
        {
            "componentType": 5126,
            "type": "VEC2",
            "count": 68,
            "bufferView": 15,
            "byteOffset": 0
        },
        {
            "componentType": 5123,
            "type": "SCALAR",
            "count": 414,
            "bufferView": 16,
            "byteOffset": 0
        },
        {
            "componentType": 5126,
            "type": "VEC3",
            "count": 182,
            "bufferView": 17,
            "byteOffset": 0,
            "min": [
                -0.0149999996647239,
                0.0,
                -0.00509664276614785
            ],
            "max": [
                1.44382298043432e-16,
                0.0580000020563602,
                0.0899999961256981
            ]
        },
        {
            "componentType": 5126,
            "type": "VEC3",
            "count": 182,
            "bufferView": 18,
            "byteOffset": 0
        },
        {
            "componentType": 5126,
            "type": "VEC2",
            "count": 182,
            "bufferView": 19,
            "byteOffset": 0
        }
    ],
    "samplers": [
        {}
    ],
    "materials": [
        {
            "name": "dark",
            "alphaMode": "OPAQUE",
            "doubleSided": false,
            "extras": {
                "fromFBX": {
                    "shadingModel": "Phong",
                    "isTruePBR": false
                }
            },
            "pbrMetallicRoughness": {
                "baseColorFactor": [
                    0.26666671037674,
                    0.26666671037674,
                    0.26666671037674,
                    1.0
                ],
                "metallicFactor": 0.400000005960464,
                "roughnessFactor": 1.0
            }
        },
        {
            "name": "gold",
            "alphaMode": "OPAQUE",
            "doubleSided": false,
            "extras": {
                "fromFBX": {
                    "shadingModel": "Phong",
                    "isTruePBR": false
                }
            },
            "pbrMetallicRoughness": {
                "baseColorFactor": [
                    0.976470589637756,
                    0.705882370471954,
                    0.0235294103622437,
                    1.0
                ],
                "metallicFactor": 0.400000005960464,
                "roughnessFactor": 1.0
            }
        }
    ],
    "meshes": [
        {
            "name": "Group",
            "primitives": [
                {
                    "material": 0,
                    "mode": 4,
                    "attributes": {
                        "NORMAL": 2,
                        "POSITION": 1,
                        "TEXCOORD_0": 3
                    },
                    "indices": 0
                }
            ]
        },
        {
            "name": "Group",
            "primitives": [
                {
                    "material": 0,
                    "mode": 4,
                    "attributes": {
                        "NORMAL": 6,
                        "POSITION": 5,
                        "TEXCOORD_0": 7
                    },
                    "indices": 4
                }
            ]
        },
        {
            "name": "Group",
            "primitives": [
                {
                    "material": 0,
                    "mode": 4,
                    "attributes": {
                        "NORMAL": 10,
                        "POSITION": 9,
                        "TEXCOORD_0": 11
                    },
                    "indices": 8
                },
                {
                    "material": 1,
                    "mode": 4,
                    "attributes": {
                        "NORMAL": 18,
                        "POSITION": 17,
                        "TEXCOORD_0": 19
                    },
                    "indices": 16
                }
            ]
        },
        {
            "name": "Group",
            "primitives": [
                {
                    "material": 1,
                    "mode": 4,
                    "attributes": {
                        "NORMAL": 14,
                        "POSITION": 13,
                        "TEXCOORD_0": 15
                    },
                    "indices": 12
                }
            ]
        }
    ],
    "nodes": [
        {
            "name": "RootNode",
            "translation": [
                0.0,
                0.0,
                0.0
            ],
            "rotation": [
                0.0,
                0.0,
                0.0,
                1.0
            ],
            "scale": [
                1.0,
                1.0,
                1.0
            ],
            "children": [
                1
            ]
        },
        {
            "name": "uziLongGold",
            "translation": [
                0.0,
                0.0,
                0.0
            ],
            "rotation": [
                0.0,
                0.0,
                0.0,
                1.0
            ],
            "scale": [
                63.7999992370605,
                63.7999992370605,
                63.7999992370605
            ],
            "children": [
                2,
                3,
                4,
                5
            ]
        },
        {
            "name": "Group",
            "translation": [
                0.000149999992572702,
                0.00467999977990985,
                -0.00144289887975901
            ],
            "rotation": [
                0.0,
                0.0,
                0.0,
                1.0
            ],
            "scale": [
                0.0599999986588955,
                0.0599999986588955,
                0.0599999986588955
            ],
            "mesh": 0
        },
        {
            "name": "Group",
            "translation": [
                0.000450000021373853,
                0.00126000004820526,
                -0.00227710092440248
            ],
            "rotation": [
                0.0,
                0.0,
                0.0,
                1.0
            ],
            "scale": [
                0.0599999986588955,
                0.0599999986588955,
                0.0599999986588955
            ],
            "mesh": 3
        },
        {
            "name": "Group",
            "translation": [
                0.000450000021373853,
                0.00353999994695187,
                0.000722899218089879
            ],
            "rotation": [
                0.0,
                0.0,
                0.0,
                1.0
            ],
            "scale": [
                0.0599999986588955,
                0.0599999986588955,
                0.0599999986588955
            ],
            "mesh": 1
        },
        {
            "name": "Group",
            "translation": [
                0.000450000021373853,
                0.00126000004820526,
                -0.00227710092440248
            ],
            "rotation": [
                0.0,
                0.0,
                0.0,
                1.0
            ],
            "scale": [
                0.0599999986588955,
                0.0599999986588955,
                0.0599999986588955
            ],
            "mesh": 2
        }
    ]
}