{
    "asset": {
        "generator": "FBX2glTF v0.13.1",
        "version": "2.0"
    },
    "scene": 0,
    "buffers": [
        {
            "byteLength": 98160,
            "uri": "buffer.bin"
        }
    ],
    "bufferViews": [
        {
            "buffer": 0,
            "byteLength": 4224,
            "byteOffset": 0,
            "target": 34963
        },
        {
            "buffer": 0,
            "byteLength": 12216,
            "byteOffset": 4224,
            "target": 34962
        },
        {
            "buffer": 0,
            "byteLength": 12216,
            "byteOffset": 16440,
            "target": 34962
        },
        {
            "buffer": 0,
            "byteLength": 16288,
            "byteOffset": 28656,
            "target": 34962
        },
        {
            "buffer": 0,
            "byteLength": 8144,
            "byteOffset": 44944,
            "target": 34962
        },
        {
            "buffer": 0,
            "byteLength": 1896,
            "byteOffset": 53088,
            "target": 34963
        },
        {
            "buffer": 0,
            "byteLength": 5160,
            "byteOffset": 54984,
            "target": 34962
        },
        {
            "buffer": 0,
            "byteLength": 5160,
            "byteOffset": 60144,
            "target": 34962
        },
        {
            "buffer": 0,
            "byteLength": 6880,
            "byteOffset": 65304,
            "target": 34962
        },
        {
            "buffer": 0,
            "byteLength": 3440,
            "byteOffset": 72184,
            "target": 34962
        },
        {
            "buffer": 0,
            "byteLength": 1896,
            "byteOffset": 75624,
            "target": 34963
        },
        {
            "buffer": 0,
            "byteLength": 5160,
            "byteOffset": 77520,
            "target": 34962
        },
        {
            "buffer": 0,
            "byteLength": 5160,
            "byteOffset": 82680,
            "target": 34962
        },
        {
            "buffer": 0,
            "byteLength": 6880,
            "byteOffset": 87840,
            "target": 34962
        },
        {
            "buffer": 0,
            "byteLength": 3440,
            "byteOffset": 94720,
            "target": 34962
        }
    ],
    "scenes": [
        {
            "name": "Root Scene",
            "nodes": [
                0
            ]
        }
    ],
    "accessors": [
        {
            "componentType": 5123,
            "type": "SCALAR",
            "count": 2112,
            "bufferView": 0,
            "byteOffset": 0
        },
        {
            "componentType": 5126,
            "type": "VEC3",
            "count": 1018,
            "bufferView": 1,
            "byteOffset": 0,
            "min": [
                -0.549999952316284,
                0.159499362111092,
                -1.35000014305115
            ],
            "max": [
                0.549999952316284,
                1.68279826641083,
                1.35000002384186
            ]
        },
        {
            "componentType": 5126,
            "type": "VEC3",
            "count": 1018,
            "bufferView": 2,
            "byteOffset": 0
        },
        {
            "componentType": 5126,
            "type": "VEC4",
            "count": 1018,
            "bufferView": 3,
            "byteOffset": 0
        },
        {
            "componentType": 5126,
            "type": "VEC2",
            "count": 1018,
            "bufferView": 4,
            "byteOffset": 0
        },
        {
            "componentType": 5123,
            "type": "SCALAR",
            "count": 948,
            "bufferView": 5,
            "byteOffset": 0
        },
        {
            "componentType": 5126,
            "type": "VEC3",
            "count": 430,
            "bufferView": 6,
            "byteOffset": 0,
            "min": [
                -0.491499692201614,
                -0.359499365091324,
                -0.380595803260803
            ],
            "max": [
                0.491499960422516,
                0.0,
                0.380595803260803
            ]
        },
        {
            "componentType": 5126,
            "type": "VEC3",
            "count": 430,
            "bufferView": 7,
            "byteOffset": 0
        },
        {
            "componentType": 5126,
            "type": "VEC4",
            "count": 430,
            "bufferView": 8,
            "byteOffset": 0
        },
        {
            "componentType": 5126,
            "type": "VEC2",
            "count": 430,
            "bufferView": 9,
            "byteOffset": 0
        },
        {
            "componentType": 5123,
            "type": "SCALAR",
            "count": 948,
            "bufferView": 10,
            "byteOffset": 0
        },
        {
            "componentType": 5126,
            "type": "VEC3",
            "count": 430,
            "bufferView": 11,
            "byteOffset": 0,
            "min": [
                -0.491499692201614,
                -0.359499365091324,
                -0.380595803260803
            ],
            "max": [
                0.491499960422516,
                0.0,
                0.380595803260803
            ]
        },
        {
            "componentType": 5126,
            "type": "VEC3",
            "count": 430,
            "bufferView": 12,
            "byteOffset": 0
        },
        {
            "componentType": 5126,
            "type": "VEC4",
            "count": 430,
            "bufferView": 13,
            "byteOffset": 0
        },
        {
            "componentType": 5126,
            "type": "VEC2",
            "count": 430,
            "bufferView": 14,
            "byteOffset": 0
        }
    ],
    "images": [
        {
            "name": "colormap.png",
            "uri": "colormap.png"
        }
    ],
    "samplers": [
        {}
    ],
    "textures": [
        {
            "name": "DiffuseColor_Texture",
            "sampler": 0,
            "source": 0
        }
    ],
    "materials": [
        {
            "name": "colormap",
            "alphaMode": "OPAQUE",
            "doubleSided": false,
            "extras": {
                "fromFBX": {
                    "shadingModel": "Lambert",
                    "isTruePBR": false
                }
            },
            "pbrMetallicRoughness": {
                "baseColorTexture": {
                    "index": 0,
                    "texCoord": 0
                },
                "baseColorFactor": [
                    1.0,
                    1.0,
                    1.0,
                    1.0
                ],
                "metallicFactor": 0.200000002980232,
                "roughnessFactor": 0.800000011920929
            }
        }
    ],
    "meshes": [
        {
            "name": "train-electric-city-c",
            "primitives": [
                {
                    "material": 0,
                    "mode": 4,
                    "attributes": {
                        "NORMAL": 2,
                        "POSITION": 1,
                        "TANGENT": 3,
                        "TEXCOORD_0": 4
                    },
                    "indices": 0
                }
            ]
        },
        {
            "name": "wheels-back",
            "primitives": [
                {
                    "material": 0,
                    "mode": 4,
                    "attributes": {
                        "NORMAL": 7,
                        "POSITION": 6,
                        "TANGENT": 8,
                        "TEXCOORD_0": 9
                    },
                    "indices": 5
                }
            ]
        },
        {
            "name": "wheels-front",
            "primitives": [
                {
                    "material": 0,
                    "mode": 4,
                    "attributes": {
                        "NORMAL": 12,
                        "POSITION": 11,
                        "TANGENT": 13,
                        "TEXCOORD_0": 14
                    },
                    "indices": 10
                }
            ]
        }
    ],
    "nodes": [
        {
            "name": "RootNode",
            "translation": [
                0.0,
                0.0,
                0.0
            ],
            "rotation": [
                0.0,
                0.0,
                0.0,
                1.0
            ],
            "scale": [
                1.0,
                1.0,
                1.0
            ],
            "children": [
                1
            ]
        },
        {
            "name": "train-electric-city-c",
            "translation": [
                0.0,
                0.0,
                0.0
            ],
            "rotation": [
                0.0,
                0.0,
                0.0,
                1.0
            ],
            "scale": [
                1.0,
                1.0,
                1.0
            ],
            "children": [
                2,
                3
            ],
            "mesh": 0
        },
        {
            "name": "wheels-back",
            "translation": [
                -4.1582094213212e-13,
                0.359499365091324,
                -0.600000023841858
            ],
            "rotation": [
                0.0,
                0.0,
                0.0,
                1.0
            ],
            "scale": [
                1.0,
                1.0,
                1.0
            ],
            "mesh": 1
        },
        {
            "name": "wheels-front",
            "translation": [
                -4.17264801270273e-13,
                0.359499365091324,
                0.600000023841858
            ],
            "rotation": [
                0.0,
                0.0,
                0.0,
                1.0
            ],
            "scale": [
                1.0,
                1.0,
                1.0
            ],
            "mesh": 2
        }
    ]
}