{
    "asset": {
        "generator": "FBX2glTF v0.13.1",
        "version": "2.0"
    },
    "scene": 0,
    "buffers": [
        {
            "byteLength": 11412,
            "uri": "buffer.bin"
        }
    ],
    "bufferViews": [
        {
            "buffer": 0,
            "byteLength": 124,
            "byteOffset": 0
        },
        {
            "buffer": 0,
            "byteLength": 372,
            "byteOffset": 124
        },
        {
            "buffer": 0,
            "byteLength": 372,
            "byteOffset": 496
        },
        {
            "buffer": 0,
            "byteLength": 124,
            "byteOffset": 868
        },
        {
            "buffer": 0,
            "byteLength": 372,
            "byteOffset": 992
        },
        {
            "buffer": 0,
            "byteLength": 372,
            "byteOffset": 1364
        },
        {
            "buffer": 0,
            "byteLength": 244,
            "byteOffset": 1736
        },
        {
            "buffer": 0,
            "byteLength": 732,
            "byteOffset": 1980
        },
        {
            "buffer": 0,
            "byteLength": 732,
            "byteOffset": 2712
        },
        {
            "buffer": 0,
            "byteLength": 288,
            "byteOffset": 3444,
            "target": 34963
        },
        {
            "buffer": 0,
            "byteLength": 924,
            "byteOffset": 3732,
            "target": 34962
        },
        {
            "buffer": 0,
            "byteLength": 924,
            "byteOffset": 4656,
            "target": 34962
        },
        {
            "buffer": 0,
            "byteLength": 1232,
            "byteOffset": 5580,
            "target": 34962
        },
        {
            "buffer": 0,
            "byteLength": 616,
            "byteOffset": 6812,
            "target": 34962
        },
        {
            "buffer": 0,
            "byteLength": 288,
            "byteOffset": 7428,
            "target": 34963
        },
        {
            "buffer": 0,
            "byteLength": 924,
            "byteOffset": 7716,
            "target": 34962
        },
        {
            "buffer": 0,
            "byteLength": 924,
            "byteOffset": 8640,
            "target": 34962
        },
        {
            "buffer": 0,
            "byteLength": 1232,
            "byteOffset": 9564,
            "target": 34962
        },
        {
            "buffer": 0,
            "byteLength": 616,
            "byteOffset": 10796,
            "target": 34962
        }
    ],
    "scenes": [
        {
            "name": "Root Scene",
            "nodes": [
                0
            ]
        }
    ],
    "accessors": [
        {
            "componentType": 5126,
            "type": "SCALAR",
            "count": 31,
            "bufferView": 0,
            "byteOffset": 0,
            "min": [
                0.0
            ],
            "max": [
                1.0
            ]
        },
        {
            "componentType": 5126,
            "type": "VEC3",
            "count": 31,
            "bufferView": 1,
            "byteOffset": 0
        },
        {
            "componentType": 5126,
            "type": "VEC3",
            "count": 31,
            "bufferView": 2,
            "byteOffset": 0
        },
        {
            "componentType": 5126,
            "type": "SCALAR",
            "count": 31,
            "bufferView": 3,
            "byteOffset": 0,
            "min": [
                0.0
            ],
            "max": [
                1.0
            ]
        },
        {
            "componentType": 5126,
            "type": "VEC3",
            "count": 31,
            "bufferView": 4,
            "byteOffset": 0
        },
        {
            "componentType": 5126,
            "type": "VEC3",
            "count": 31,
            "bufferView": 5,
            "byteOffset": 0
        },
        {
            "componentType": 5126,
            "type": "SCALAR",
            "count": 61,
            "bufferView": 6,
            "byteOffset": 0,
            "min": [
                0.0
            ],
            "max": [
                2.0
            ]
        },
        {
            "componentType": 5126,
            "type": "VEC3",
            "count": 61,
            "bufferView": 7,
            "byteOffset": 0
        },
        {
            "componentType": 5126,
            "type": "VEC3",
            "count": 61,
            "bufferView": 8,
            "byteOffset": 0
        },
        {
            "componentType": 5123,
            "type": "SCALAR",
            "count": 144,
            "bufferView": 9,
            "byteOffset": 0
        },
        {
            "componentType": 5126,
            "type": "VEC3",
            "count": 77,
            "bufferView": 10,
            "byteOffset": 0,
            "min": [
                -0.124999977648258,
                0.0,
                -9.68575477600098e-08
            ],
            "max": [
                0.0499999970197678,
                0.799999952316284,
                0.550000011920929
            ]
        },
        {
            "componentType": 5126,
            "type": "VEC3",
            "count": 77,
            "bufferView": 11,
            "byteOffset": 0
        },
        {
            "componentType": 5126,
            "type": "VEC4",
            "count": 77,
            "bufferView": 12,
            "byteOffset": 0
        },
        {
            "componentType": 5126,
            "type": "VEC2",
            "count": 77,
            "bufferView": 13,
            "byteOffset": 0
        },
        {
            "componentType": 5123,
            "type": "SCALAR",
            "count": 144,
            "bufferView": 14,
            "byteOffset": 0
        },
        {
            "componentType": 5126,
            "type": "VEC3",
            "count": 77,
            "bufferView": 15,
            "byteOffset": 0,
            "min": [
                -0.124999977648258,
                -9.02389263509778e-17,
                -0.550000011920929
            ],
            "max": [
                0.0499999970197678,
                0.799999952316284,
                9.68575477600098e-08
            ]
        },
        {
            "componentType": 5126,
            "type": "VEC3",
            "count": 77,
            "bufferView": 16,
            "byteOffset": 0
        },
        {
            "componentType": 5126,
            "type": "VEC4",
            "count": 77,
            "bufferView": 17,
            "byteOffset": 0
        },
        {
            "componentType": 5126,
            "type": "VEC2",
            "count": 77,
            "bufferView": 18,
            "byteOffset": 0
        }
    ],
    "images": [
        {
            "name": "colormap.png",
            "uri": "colormap.png"
        }
    ],
    "samplers": [
        {}
    ],
    "textures": [
        {
            "name": "DiffuseColor_Texture",
            "sampler": 0,
            "source": 0
        }
    ],
    "materials": [
        {
            "name": "colormap",
            "alphaMode": "OPAQUE",
            "doubleSided": false,
            "extras": {
                "fromFBX": {
                    "shadingModel": "Lambert",
                    "isTruePBR": false
                }
            },
            "pbrMetallicRoughness": {
                "baseColorTexture": {
                    "index": 0,
                    "texCoord": 0
                },
                "baseColorFactor": [
                    1.0,
                    1.0,
                    1.0,
                    1.0
                ],
                "metallicFactor": 0.200000002980232,
                "roughnessFactor": 0.800000011920929
            }
        }
    ],
    "meshes": [
        {
            "name": "door-right",
            "primitives": [
                {
                    "material": 0,
                    "mode": 4,
                    "attributes": {
                        "NORMAL": 11,
                        "POSITION": 10,
                        "TANGENT": 12,
                        "TEXCOORD_0": 13
                    },
                    "indices": 9
                }
            ]
        },
        {
            "name": "door-left",
            "primitives": [
                {
                    "material": 0,
                    "mode": 4,
                    "attributes": {
                        "NORMAL": 16,
                        "POSITION": 15,
                        "TANGENT": 17,
                        "TEXCOORD_0": 18
                    },
                    "indices": 14
                }
            ]
        }
    ],
    "animations": [
        {
            "name": "open",
            "channels": [
                {
                    "sampler": 0,
                    "target": {
                        "node": 2,
                        "path": "translation"
                    }
                },
                {
                    "sampler": 1,
                    "target": {
                        "node": 3,
                        "path": "translation"
                    }
                }
            ],
            "samplers": [
                {
                    "input": 0,
                    "interpolation": "LINEAR",
                    "output": 1
                },
                {
                    "input": 0,
                    "interpolation": "LINEAR",
                    "output": 2
                }
            ]
        },
        {
            "name": "close",
            "channels": [
                {
                    "sampler": 0,
                    "target": {
                        "node": 2,
                        "path": "translation"
                    }
                },
                {
                    "sampler": 1,
                    "target": {
                        "node": 3,
                        "path": "translation"
                    }
                }
            ],
            "samplers": [
                {
                    "input": 3,
                    "interpolation": "LINEAR",
                    "output": 4
                },
                {
                    "input": 3,
                    "interpolation": "LINEAR",
                    "output": 5
                }
            ]
        },
        {
            "name": "open-and-close",
            "channels": [
                {
                    "sampler": 0,
                    "target": {
                        "node": 2,
                        "path": "translation"
                    }
                },
                {
                    "sampler": 1,
                    "target": {
                        "node": 3,
                        "path": "translation"
                    }
                }
            ],
            "samplers": [
                {
                    "input": 6,
                    "interpolation": "LINEAR",
                    "output": 7
                },
                {
                    "input": 6,
                    "interpolation": "LINEAR",
                    "output": 8
                }
            ]
        }
    ],
    "nodes": [
        {
            "name": "RootNode",
            "translation": [
                0.0,
                0.0,
                0.0
            ],
            "rotation": [
                0.0,
                0.0,
                0.0,
                1.0
            ],
            "scale": [
                1.0,
                1.0,
                1.0
            ],
            "children": [
                1
            ]
        },
        {
            "name": "door-sliding-double-round",
            "translation": [
                0.0,
                0.0,
                0.0
            ],
            "rotation": [
                0.0,
                0.0,
                0.0,
                1.0
            ],
            "scale": [
                1.0,
                1.0,
                1.0
            ],
            "children": [
                2,
                3
            ]
        },
        {
            "name": "door-right",
            "translation": [
                0.0,
                0.0,
                0.0
            ],
            "rotation": [
                0.0,
                0.0,
                0.0,
                1.0
            ],
            "scale": [
                1.0,
                1.0,
                1.0
            ],
            "mesh": 0
        },
        {
            "name": "door-left",
            "translation": [
                0.0,
                0.0,
                0.0
            ],
            "rotation": [
                0.0,
                0.0,
                0.0,
                1.0
            ],
            "scale": [
                1.0,
                1.0,
                1.0
            ],
            "mesh": 1
        }
    ]
}