{
    "asset": {
        "generator": "FBX2glTF v0.13.1",
        "version": "2.0"
    },
    "scene": 0,
    "buffers": [
        {
            "byteLength": 86556,
            "uri": "buffer.bin"
        }
    ],
    "bufferViews": [
        {
            "buffer": 0,
            "byteLength": 3084,
            "byteOffset": 0,
            "target": 34963
        },
        {
            "buffer": 0,
            "byteLength": 9600,
            "byteOffset": 3084,
            "target": 34962
        },
        {
            "buffer": 0,
            "byteLength": 9600,
            "byteOffset": 12684,
            "target": 34962
        },
        {
            "buffer": 0,
            "byteLength": 12800,
            "byteOffset": 22284,
            "target": 34962
        },
        {
            "buffer": 0,
            "byteLength": 6400,
            "byteOffset": 35084,
            "target": 34962
        },
        {
            "buffer": 0,
            "byteLength": 1896,
            "byteOffset": 41484,
            "target": 34963
        },
        {
            "buffer": 0,
            "byteLength": 5160,
            "byteOffset": 43380,
            "target": 34962
        },
        {
            "buffer": 0,
            "byteLength": 5160,
            "byteOffset": 48540,
            "target": 34962
        },
        {
            "buffer": 0,
            "byteLength": 6880,
            "byteOffset": 53700,
            "target": 34962
        },
        {
            "buffer": 0,
            "byteLength": 3440,
            "byteOffset": 60580,
            "target": 34962
        },
        {
            "buffer": 0,
            "byteLength": 1896,
            "byteOffset": 64020,
            "target": 34963
        },
        {
            "buffer": 0,
            "byteLength": 5160,
            "byteOffset": 65916,
            "target": 34962
        },
        {
            "buffer": 0,
            "byteLength": 5160,
            "byteOffset": 71076,
            "target": 34962
        },
        {
            "buffer": 0,
            "byteLength": 6880,
            "byteOffset": 76236,
            "target": 34962
        },
        {
            "buffer": 0,
            "byteLength": 3440,
            "byteOffset": 83116,
            "target": 34962
        }
    ],
    "scenes": [
        {
            "name": "Root Scene",
            "nodes": [
                0
            ]
        }
    ],
    "accessors": [
        {
            "componentType": 5123,
            "type": "SCALAR",
            "count": 1542,
            "bufferView": 0,
            "byteOffset": 0
        },
        {
            "componentType": 5126,
            "type": "VEC3",
            "count": 800,
            "bufferView": 1,
            "byteOffset": 0,
            "min": [
                -0.692999958992004,
                0.159499362111092,
                -1.35000002384186
            ],
            "max": [
                0.692999958992004,
                1.75249934196472,
                1.35000002384186
            ]
        },
        {
            "componentType": 5126,
            "type": "VEC3",
            "count": 800,
            "bufferView": 2,
            "byteOffset": 0
        },
        {
            "componentType": 5126,
            "type": "VEC4",
            "count": 800,
            "bufferView": 3,
            "byteOffset": 0
        },
        {
            "componentType": 5126,
            "type": "VEC2",
            "count": 800,
            "bufferView": 4,
            "byteOffset": 0
        },
        {
            "componentType": 5123,
            "type": "SCALAR",
            "count": 948,
            "bufferView": 5,
            "byteOffset": 0
        },
        {
            "componentType": 5126,
            "type": "VEC3",
            "count": 430,
            "bufferView": 6,
            "byteOffset": 0,
            "min": [
                -0.491499960422516,
                -0.359499365091324,
                -0.380595803260803
            ],
            "max": [
                0.491499960422516,
                0.0,
                0.380595773458481
            ]
        },
        {
            "componentType": 5126,
            "type": "VEC3",
            "count": 430,
            "bufferView": 7,
            "byteOffset": 0
        },
        {
            "componentType": 5126,
            "type": "VEC4",
            "count": 430,
            "bufferView": 8,
            "byteOffset": 0
        },
        {
            "componentType": 5126,
            "type": "VEC2",
            "count": 430,
            "bufferView": 9,
            "byteOffset": 0
        },
        {
            "componentType": 5123,
            "type": "SCALAR",
            "count": 948,
            "bufferView": 10,
            "byteOffset": 0
        },
        {
            "componentType": 5126,
            "type": "VEC3",
            "count": 430,
            "bufferView": 11,
            "byteOffset": 0,
            "min": [
                -0.491499960422516,
                -0.359499365091324,
                -0.380595803260803
            ],
            "max": [
                0.491499960422516,
                0.0,
                0.380595773458481
            ]
        },
        {
            "componentType": 5126,
            "type": "VEC3",
            "count": 430,
            "bufferView": 12,
            "byteOffset": 0
        },
        {
            "componentType": 5126,
            "type": "VEC4",
            "count": 430,
            "bufferView": 13,
            "byteOffset": 0
        },
        {
            "componentType": 5126,
            "type": "VEC2",
            "count": 430,
            "bufferView": 14,
            "byteOffset": 0
        }
    ],
    "images": [
        {
            "name": "colormap.png",
            "uri": "colormap.png"
        }
    ],
    "samplers": [
        {}
    ],
    "textures": [
        {
            "name": "DiffuseColor_Texture",
            "sampler": 0,
            "source": 0
        }
    ],
    "materials": [
        {
            "name": "colormap",
            "alphaMode": "OPAQUE",
            "doubleSided": false,
            "extras": {
                "fromFBX": {
                    "shadingModel": "Lambert",
                    "isTruePBR": false
                }
            },
            "pbrMetallicRoughness": {
                "baseColorTexture": {
                    "index": 0,
                    "texCoord": 0
                },
                "baseColorFactor": [
                    1.0,
                    1.0,
                    1.0,
                    1.0
                ],
                "metallicFactor": 0.200000002980232,
                "roughnessFactor": 0.800000011920929
            }
        }
    ],
    "meshes": [
        {
            "name": "train-carriage-tank-large",
            "primitives": [
                {
                    "material": 0,
                    "mode": 4,
                    "attributes": {
                        "NORMAL": 2,
                        "POSITION": 1,
                        "TANGENT": 3,
                        "TEXCOORD_0": 4
                    },
                    "indices": 0
                }
            ]
        },
        {
            "name": "wheels-front",
            "primitives": [
                {
                    "material": 0,
                    "mode": 4,
                    "attributes": {
                        "NORMAL": 7,
                        "POSITION": 6,
                        "TANGENT": 8,
                        "TEXCOORD_0": 9
                    },
                    "indices": 5
                }
            ]
        },
        {
            "name": "wheels-back",
            "primitives": [
                {
                    "material": 0,
                    "mode": 4,
                    "attributes": {
                        "NORMAL": 12,
                        "POSITION": 11,
                        "TANGENT": 13,
                        "TEXCOORD_0": 14
                    },
                    "indices": 10
                }
            ]
        }
    ],
    "nodes": [
        {
            "name": "RootNode",
            "translation": [
                0.0,
                0.0,
                0.0
            ],
            "rotation": [
                0.0,
                0.0,
                0.0,
                1.0
            ],
            "scale": [
                1.0,
                1.0,
                1.0
            ],
            "children": [
                1
            ]
        },
        {
            "name": "train-carriage-tank-large",
            "translation": [
                0.0,
                0.0,
                0.0
            ],
            "rotation": [
                0.0,
                0.0,
                0.0,
                1.0
            ],
            "scale": [
                1.0,
                1.0,
                1.0
            ],
            "children": [
                2,
                3
            ],
            "mesh": 0
        },
        {
            "name": "wheels-front",
            "translation": [
                2.16573407360479e-15,
                0.359499365091324,
                0.600000023841858
            ],
            "rotation": [
                0.0,
                0.0,
                0.0,
                1.0
            ],
            "scale": [
                1.0,
                1.0,
                1.0
            ],
            "mesh": 1
        },
        {
            "name": "wheels-back",
            "translation": [
                2.16573407360479e-15,
                0.359499365091324,
                -0.600000023841858
            ],
            "rotation": [
                0.0,
                0.0,
                0.0,
                1.0
            ],
            "scale": [
                1.0,
                1.0,
                1.0
            ],
            "mesh": 2
        }
    ]
}