{
    "asset": {
        "generator": "FBX2glTF v0.13.1",
        "version": "2.0"
    },
    "scene": 0,
    "buffers": [
        {
            "byteLength": 23464,
            "uri": "buffer.bin"
        }
    ],
    "bufferViews": [
        {
            "buffer": 0,
            "byteLength": 1662,
            "byteOffset": 0,
            "target": 34963
        },
        {
            "buffer": 0,
            "byteLength": 4524,
            "byteOffset": 1664,
            "target": 34962
        },
        {
            "buffer": 0,
            "byteLength": 4524,
            "byteOffset": 6188,
            "target": 34962
        },
        {
            "buffer": 0,
            "byteLength": 3016,
            "byteOffset": 10712,
            "target": 34962
        },
        {
            "buffer": 0,
            "byteLength": 564,
            "byteOffset": 13728,
            "target": 34963
        },
        {
            "buffer": 0,
            "byteLength": 2232,
            "byteOffset": 14292,
            "target": 34962
        },
        {
            "buffer": 0,
            "byteLength": 2232,
            "byteOffset": 16524,
            "target": 34962
        },
        {
            "buffer": 0,
            "byteLength": 1488,
            "byteOffset": 18756,
            "target": 34962
        },
        {
            "buffer": 0,
            "byteLength": 276,
            "byteOffset": 20244,
            "target": 34963
        },
        {
            "buffer": 0,
            "byteLength": 1104,
            "byteOffset": 20520,
            "target": 34962
        },
        {
            "buffer": 0,
            "byteLength": 1104,
            "byteOffset": 21624,
            "target": 34962
        },
        {
            "buffer": 0,
            "byteLength": 736,
            "byteOffset": 22728,
            "target": 34962
        }
    ],
    "scenes": [
        {
            "name": "Root Scene",
            "nodes": [
                0
            ]
        }
    ],
    "accessors": [
        {
            "componentType": 5123,
            "type": "SCALAR",
            "count": 831,
            "bufferView": 0,
            "byteOffset": 0
        },
        {
            "componentType": 5126,
            "type": "VEC3",
            "count": 377,
            "bufferView": 1,
            "byteOffset": 0,
            "min": [
                -0.0918347239494324,
                0.0,
                0.0
            ],
            "max": [
                -0.00816526170819998,
                0.0519999973475933,
                0.199999988079071
            ]
        },
        {
            "componentType": 5126,
            "type": "VEC3",
            "count": 377,
            "bufferView": 2,
            "byteOffset": 0
        },
        {
            "componentType": 5126,
            "type": "VEC2",
            "count": 377,
            "bufferView": 3,
            "byteOffset": 0
        },
        {
            "componentType": 5123,
            "type": "SCALAR",
            "count": 282,
            "bufferView": 4,
            "byteOffset": 0
        },
        {
            "componentType": 5126,
            "type": "VEC3",
            "count": 186,
            "bufferView": 5,
            "byteOffset": 0,
            "min": [
                -0.0999999940395355,
                0.0,
                0.0
            ],
            "max": [
                0.0,
                0.0499999970197678,
                0.199999988079071
            ]
        },
        {
            "componentType": 5126,
            "type": "VEC3",
            "count": 186,
            "bufferView": 6,
            "byteOffset": 0
        },
        {
            "componentType": 5126,
            "type": "VEC2",
            "count": 186,
            "bufferView": 7,
            "byteOffset": 0
        },
        {
            "componentType": 5123,
            "type": "SCALAR",
            "count": 138,
            "bufferView": 8,
            "byteOffset": 0
        },
        {
            "componentType": 5126,
            "type": "VEC3",
            "count": 92,
            "bufferView": 9,
            "byteOffset": 0,
            "min": [
                -0.0845135077834129,
                0.000999999814666808,
                0.0
            ],
            "max": [
                -0.0154864890500903,
                0.0509999990463257,
                0.199999988079071
            ]
        },
        {
            "componentType": 5126,
            "type": "VEC3",
            "count": 92,
            "bufferView": 10,
            "byteOffset": 0
        },
        {
            "componentType": 5126,
            "type": "VEC2",
            "count": 92,
            "bufferView": 11,
            "byteOffset": 0
        }
    ],
    "samplers": [
        {}
    ],
    "materials": [
        {
            "name": "grey",
            "alphaMode": "OPAQUE",
            "doubleSided": false,
            "extras": {
                "fromFBX": {
                    "shadingModel": "Phong",
                    "isTruePBR": false
                }
            },
            "pbrMetallicRoughness": {
                "baseColorFactor": [
                    0.945097982883453,
                    0.949019610881805,
                    0.964705884456635,
                    1.0
                ],
                "metallicFactor": 0.400000005960464,
                "roughnessFactor": 1.0
            }
        },
        {
            "name": "grass",
            "alphaMode": "OPAQUE",
            "doubleSided": false,
            "extras": {
                "fromFBX": {
                    "shadingModel": "Phong",
                    "isTruePBR": false
                }
            },
            "pbrMetallicRoughness": {
                "baseColorFactor": [
                    0.301960796117783,
                    0.56078428030014,
                    0.431372612714767,
                    1.0
                ],
                "metallicFactor": 0.400000005960464,
                "roughnessFactor": 1.0
            }
        },
        {
            "name": "road",
            "alphaMode": "OPAQUE",
            "doubleSided": false,
            "extras": {
                "fromFBX": {
                    "shadingModel": "Phong",
                    "isTruePBR": false
                }
            },
            "pbrMetallicRoughness": {
                "baseColorFactor": [
                    0.26666671037674,
                    0.26666671037674,
                    0.26666671037674,
                    1.0
                ],
                "metallicFactor": 0.400000005960464,
                "roughnessFactor": 1.0
            }
        }
    ],
    "meshes": [
        {
            "name": "roadRampLongCurved",
            "primitives": [
                {
                    "material": 0,
                    "mode": 4,
                    "attributes": {
                        "NORMAL": 2,
                        "POSITION": 1,
                        "TEXCOORD_0": 3
                    },
                    "indices": 0
                },
                {
                    "material": 1,
                    "mode": 4,
                    "attributes": {
                        "NORMAL": 6,
                        "POSITION": 5,
                        "TEXCOORD_0": 7
                    },
                    "indices": 4
                },
                {
                    "material": 2,
                    "mode": 4,
                    "attributes": {
                        "NORMAL": 10,
                        "POSITION": 9,
                        "TEXCOORD_0": 11
                    },
                    "indices": 8
                }
            ]
        }
    ],
    "nodes": [
        {
            "name": "RootNode",
            "translation": [
                0.0,
                0.0,
                0.0
            ],
            "rotation": [
                0.0,
                0.0,
                0.0,
                1.0
            ],
            "scale": [
                1.0,
                1.0,
                1.0
            ],
            "children": [
                1
            ]
        },
        {
            "name": "roadRampLongCurved",
            "translation": [
                3.5,
                -0.0999999865889549,
                6.5
            ],
            "rotation": [
                0.0,
                0.0,
                0.0,
                1.0
            ],
            "scale": [
                100.0,
                100.0,
                100.0
            ],
            "mesh": 0
        }
    ]
}