{
    "asset": {
        "generator": "FBX2glTF v0.13.1",
        "version": "2.0"
    },
    "scene": 0,
    "buffers": [
        {
            "byteLength": 22404,
            "uri": "buffer.bin"
        }
    ],
    "bufferViews": [
        {
            "buffer": 0,
            "byteLength": 204,
            "byteOffset": 0,
            "target": 34963
        },
        {
            "buffer": 0,
            "byteLength": 624,
            "byteOffset": 204,
            "target": 34962
        },
        {
            "buffer": 0,
            "byteLength": 624,
            "byteOffset": 828,
            "target": 34962
        },
        {
            "buffer": 0,
            "byteLength": 416,
            "byteOffset": 1452,
            "target": 34962
        },
        {
            "buffer": 0,
            "byteLength": 372,
            "byteOffset": 1868,
            "target": 34963
        },
        {
            "buffer": 0,
            "byteLength": 1104,
            "byteOffset": 2240,
            "target": 34962
        },
        {
            "buffer": 0,
            "byteLength": 1104,
            "byteOffset": 3344,
            "target": 34962
        },
        {
            "buffer": 0,
            "byteLength": 736,
            "byteOffset": 4448,
            "target": 34962
        },
        {
            "buffer": 0,
            "byteLength": 72,
            "byteOffset": 5184,
            "target": 34963
        },
        {
            "buffer": 0,
            "byteLength": 288,
            "byteOffset": 5256,
            "target": 34962
        },
        {
            "buffer": 0,
            "byteLength": 288,
            "byteOffset": 5544,
            "target": 34962
        },
        {
            "buffer": 0,
            "byteLength": 192,
            "byteOffset": 5832,
            "target": 34962
        },
        {
            "buffer": 0,
            "byteLength": 12,
            "byteOffset": 6024,
            "target": 34963
        },
        {
            "buffer": 0,
            "byteLength": 72,
            "byteOffset": 6036,
            "target": 34962
        },
        {
            "buffer": 0,
            "byteLength": 72,
            "byteOffset": 6108,
            "target": 34962
        },
        {
            "buffer": 0,
            "byteLength": 48,
            "byteOffset": 6180,
            "target": 34962
        },
        {
            "buffer": 0,
            "byteLength": 1776,
            "byteOffset": 6228,
            "target": 34963
        },
        {
            "buffer": 0,
            "byteLength": 5400,
            "byteOffset": 8004,
            "target": 34962
        },
        {
            "buffer": 0,
            "byteLength": 5400,
            "byteOffset": 13404,
            "target": 34962
        },
        {
            "buffer": 0,
            "byteLength": 3600,
            "byteOffset": 18804,
            "target": 34962
        }
    ],
    "scenes": [
        {
            "name": "Root Scene",
            "nodes": [
                0
            ]
        }
    ],
    "accessors": [
        {
            "componentType": 5123,
            "type": "SCALAR",
            "count": 102,
            "bufferView": 0,
            "byteOffset": 0
        },
        {
            "componentType": 5126,
            "type": "VEC3",
            "count": 52,
            "bufferView": 1,
            "byteOffset": 0,
            "min": [
                -0.0249999985098839,
                0.0,
                -0.0199999995529652
            ],
            "max": [
                0.0249999985098839,
                0.0274999998509884,
                0.0199999995529652
            ]
        },
        {
            "componentType": 5126,
            "type": "VEC3",
            "count": 52,
            "bufferView": 2,
            "byteOffset": 0
        },
        {
            "componentType": 5126,
            "type": "VEC2",
            "count": 52,
            "bufferView": 3,
            "byteOffset": 0
        },
        {
            "componentType": 5123,
            "type": "SCALAR",
            "count": 186,
            "bufferView": 4,
            "byteOffset": 0
        },
        {
            "componentType": 5126,
            "type": "VEC3",
            "count": 92,
            "bufferView": 5,
            "byteOffset": 0,
            "min": [
                -0.0249999985098839,
                0.0149999996647239,
                -0.0199999995529652
            ],
            "max": [
                0.0249999985098839,
                0.0399999991059303,
                0.0199999995529652
            ]
        },
        {
            "componentType": 5126,
            "type": "VEC3",
            "count": 92,
            "bufferView": 6,
            "byteOffset": 0
        },
        {
            "componentType": 5126,
            "type": "VEC2",
            "count": 92,
            "bufferView": 7,
            "byteOffset": 0
        },
        {
            "componentType": 5123,
            "type": "SCALAR",
            "count": 36,
            "bufferView": 8,
            "byteOffset": 0
        },
        {
            "componentType": 5126,
            "type": "VEC3",
            "count": 24,
            "bufferView": 9,
            "byteOffset": 0,
            "min": [
                -0.0249999985098839,
                0.0249999985098839,
                -0.0199999995529652
            ],
            "max": [
                0.0249999985098839,
                0.0350000001490116,
                0.0199999995529652
            ]
        },
        {
            "componentType": 5126,
            "type": "VEC3",
            "count": 24,
            "bufferView": 10,
            "byteOffset": 0
        },
        {
            "componentType": 5126,
            "type": "VEC2",
            "count": 24,
            "bufferView": 11,
            "byteOffset": 0
        },
        {
            "componentType": 5123,
            "type": "SCALAR",
            "count": 6,
            "bufferView": 12,
            "byteOffset": 0
        },
        {
            "componentType": 5126,
            "type": "VEC3",
            "count": 6,
            "bufferView": 13,
            "byteOffset": 0,
            "min": [
                -0.0199999995529652,
                0.00499999988824129,
                -0.0149999996647239
            ],
            "max": [
                0.0199999995529652,
                0.00499999988824129,
                0.0149999996647239
            ]
        },
        {
            "componentType": 5126,
            "type": "VEC3",
            "count": 6,
            "bufferView": 14,
            "byteOffset": 0
        },
        {
            "componentType": 5126,
            "type": "VEC2",
            "count": 6,
            "bufferView": 15,
            "byteOffset": 0
        },
        {
            "componentType": 5123,
            "type": "SCALAR",
            "count": 888,
            "bufferView": 16,
            "byteOffset": 0
        },
        {
            "componentType": 5126,
            "type": "VEC3",
            "count": 450,
            "bufferView": 17,
            "byteOffset": 0,
            "min": [
                -0.0700000002980232,
                0.0,
                0.0
            ],
            "max": [
                0.0,
                0.0350000001490116,
                0.0350000001490116
            ]
        },
        {
            "componentType": 5126,
            "type": "VEC3",
            "count": 450,
            "bufferView": 18,
            "byteOffset": 0
        },
        {
            "componentType": 5126,
            "type": "VEC2",
            "count": 450,
            "bufferView": 19,
            "byteOffset": 0
        }
    ],
    "samplers": [
        {}
    ],
    "materials": [
        {
            "name": "metalDark",
            "alphaMode": "OPAQUE",
            "doubleSided": false,
            "extras": {
                "fromFBX": {
                    "shadingModel": "Phong",
                    "isTruePBR": false
                }
            },
            "pbrMetallicRoughness": {
                "baseColorFactor": [
                    0.675062298774719,
                    0.710021913051605,
                    0.77358490228653,
                    1.0
                ],
                "metallicFactor": 0.400000005960464,
                "roughnessFactor": 1.0
            }
        },
        {
            "name": "metalRed",
            "alphaMode": "OPAQUE",
            "doubleSided": false,
            "extras": {
                "fromFBX": {
                    "shadingModel": "Phong",
                    "isTruePBR": false
                }
            },
            "pbrMetallicRoughness": {
                "baseColorFactor": [
                    1.0,
                    0.62852418422699,
                    0.202830195426941,
                    1.0
                ],
                "metallicFactor": 0.400000005960464,
                "roughnessFactor": 1.0
            }
        },
        {
            "name": "metal",
            "alphaMode": "OPAQUE",
            "doubleSided": false,
            "extras": {
                "fromFBX": {
                    "shadingModel": "Phong",
                    "isTruePBR": false
                }
            },
            "pbrMetallicRoughness": {
                "baseColorFactor": [
                    0.843137323856354,
                    0.870588183403015,
                    0.909803926944733,
                    1.0
                ],
                "metallicFactor": 0.400000005960464,
                "roughnessFactor": 1.0
            }
        },
        {
            "name": "_defaultMat",
            "alphaMode": "OPAQUE",
            "doubleSided": false,
            "extras": {
                "fromFBX": {
                    "shadingModel": "Phong",
                    "isTruePBR": false
                }
            },
            "pbrMetallicRoughness": {
                "baseColorFactor": [
                    1.0,
                    1.0,
                    1.0,
                    1.0
                ],
                "metallicFactor": 0.400000005960464,
                "roughnessFactor": 1.0
            }
        },
        {
            "name": "dark",
            "alphaMode": "OPAQUE",
            "doubleSided": false,
            "extras": {
                "fromFBX": {
                    "shadingModel": "Phong",
                    "isTruePBR": false
                }
            },
            "pbrMetallicRoughness": {
                "baseColorFactor": [
                    0.274509787559509,
                    0.298039197921753,
                    0.341176509857178,
                    1.0
                ],
                "metallicFactor": 0.400000005960464,
                "roughnessFactor": 1.0
            }
        }
    ],
    "meshes": [
        {
            "name": "machine_generator",
            "primitives": [
                {
                    "material": 0,
                    "mode": 4,
                    "attributes": {
                        "NORMAL": 2,
                        "POSITION": 1,
                        "TEXCOORD_0": 3
                    },
                    "indices": 0
                },
                {
                    "material": 1,
                    "mode": 4,
                    "attributes": {
                        "NORMAL": 6,
                        "POSITION": 5,
                        "TEXCOORD_0": 7
                    },
                    "indices": 4
                },
                {
                    "material": 2,
                    "mode": 4,
                    "attributes": {
                        "NORMAL": 10,
                        "POSITION": 9,
                        "TEXCOORD_0": 11
                    },
                    "indices": 8
                },
                {
                    "material": 3,
                    "mode": 4,
                    "attributes": {
                        "NORMAL": 14,
                        "POSITION": 13,
                        "TEXCOORD_0": 15
                    },
                    "indices": 12
                }
            ]
        },
        {
            "name": "cable",
            "primitives": [
                {
                    "material": 4,
                    "mode": 4,
                    "attributes": {
                        "NORMAL": 18,
                        "POSITION": 17,
                        "TEXCOORD_0": 19
                    },
                    "indices": 16
                }
            ]
        }
    ],
    "nodes": [
        {
            "name": "RootNode",
            "translation": [
                0.0,
                0.0,
                0.0
            ],
            "rotation": [
                0.0,
                0.0,
                0.0,
                1.0
            ],
            "scale": [
                1.0,
                1.0,
                1.0
            ],
            "children": [
                1
            ]
        },
        {
            "name": "machine_generator",
            "translation": [
                -2.0,
                0.0,
                -1.5
            ],
            "rotation": [
                0.0,
                0.0,
                0.0,
                1.0
            ],
            "scale": [
                10.0,
                10.0,
                10.0
            ],
            "children": [
                2
            ],
            "mesh": 0
        },
        {
            "name": "cable",
            "translation": [
                0.0399999991059303,
                0.0,
                -0.00249999994412065
            ],
            "rotation": [
                0.0,
                0.0,
                0.0,
                1.0
            ],
            "scale": [
                1.0,
                1.0,
                1.0
            ],
            "mesh": 1
        }
    ]
}