{
    "asset": {
        "generator": "FBX2glTF v0.13.1",
        "version": "2.0"
    },
    "scene": 0,
    "buffers": [
        {
            "byteLength": 6856,
            "uri": "buffer.bin"
        }
    ],
    "bufferViews": [
        {
            "buffer": 0,
            "byteLength": 816,
            "byteOffset": 0,
            "target": 34963
        },
        {
            "buffer": 0,
            "byteLength": 2160,
            "byteOffset": 816,
            "target": 34962
        },
        {
            "buffer": 0,
            "byteLength": 2160,
            "byteOffset": 2976,
            "target": 34962
        },
        {
            "buffer": 0,
            "byteLength": 1440,
            "byteOffset": 5136,
            "target": 34962
        },
        {
            "buffer": 0,
            "byteLength": 24,
            "byteOffset": 6576,
            "target": 34963
        },
        {
            "buffer": 0,
            "byteLength": 96,
            "byteOffset": 6600,
            "target": 34962
        },
        {
            "buffer": 0,
            "byteLength": 96,
            "byteOffset": 6696,
            "target": 34962
        },
        {
            "buffer": 0,
            "byteLength": 64,
            "byteOffset": 6792,
            "target": 34962
        }
    ],
    "scenes": [
        {
            "name": "Root Scene",
            "nodes": [
                0
            ]
        }
    ],
    "accessors": [
        {
            "componentType": 5123,
            "type": "SCALAR",
            "count": 408,
            "bufferView": 0,
            "byteOffset": 0
        },
        {
            "componentType": 5126,
            "type": "VEC3",
            "count": 180,
            "bufferView": 1,
            "byteOffset": 0,
            "min": [
                0.00609960779547691,
                -3.60955678934132e-17,
                -0.00999999977648258
            ],
            "max": [
                0.0460996106266975,
                0.0229999981820583,
                0.0299999993294477
            ]
        },
        {
            "componentType": 5126,
            "type": "VEC3",
            "count": 180,
            "bufferView": 2,
            "byteOffset": 0
        },
        {
            "componentType": 5126,
            "type": "VEC2",
            "count": 180,
            "bufferView": 3,
            "byteOffset": 0
        },
        {
            "componentType": 5123,
            "type": "SCALAR",
            "count": 12,
            "bufferView": 4,
            "byteOffset": 0
        },
        {
            "componentType": 5126,
            "type": "VEC3",
            "count": 8,
            "bufferView": 5,
            "byteOffset": 0,
            "min": [
                0.0100996103137732,
                0.0229999981820583,
                -0.00600000005215406
            ],
            "max": [
                0.0420996099710464,
                0.0229999981820583,
                0.0259999986737967
            ]
        },
        {
            "componentType": 5126,
            "type": "VEC3",
            "count": 8,
            "bufferView": 6,
            "byteOffset": 0
        },
        {
            "componentType": 5126,
            "type": "VEC2",
            "count": 8,
            "bufferView": 7,
            "byteOffset": 0
        }
    ],
    "samplers": [
        {}
    ],
    "materials": [
        {
            "name": "metal",
            "alphaMode": "OPAQUE",
            "doubleSided": false,
            "extras": {
                "fromFBX": {
                    "shadingModel": "Phong",
                    "isTruePBR": false
                }
            },
            "pbrMetallicRoughness": {
                "baseColorFactor": [
                    0.740610480308533,
                    0.822866678237915,
                    0.839622616767883,
                    1.0
                ],
                "metallicFactor": 0.400000005960464,
                "roughnessFactor": 1.0
            }
        },
        {
            "name": "glass",
            "alphaMode": "OPAQUE",
            "doubleSided": false,
            "extras": {
                "fromFBX": {
                    "shadingModel": "Phong",
                    "isTruePBR": false
                }
            },
            "pbrMetallicRoughness": {
                "baseColorFactor": [
                    0.698039174079895,
                    0.82745099067688,
                    0.768627524375916,
                    1.0
                ],
                "metallicFactor": 0.400000005960464,
                "roughnessFactor": 1.0
            }
        }
    ],
    "meshes": [
        {
            "name": "tableCoffeeGlassSquare",
            "primitives": [
                {
                    "material": 0,
                    "mode": 4,
                    "attributes": {
                        "NORMAL": 2,
                        "POSITION": 1,
                        "TEXCOORD_0": 3
                    },
                    "indices": 0
                },
                {
                    "material": 1,
                    "mode": 4,
                    "attributes": {
                        "NORMAL": 6,
                        "POSITION": 5,
                        "TEXCOORD_0": 7
                    },
                    "indices": 4
                }
            ]
        }
    ],
    "nodes": [
        {
            "name": "RootNode",
            "translation": [
                0.0,
                0.0,
                0.0
            ],
            "rotation": [
                0.0,
                0.0,
                0.0,
                1.0
            ],
            "scale": [
                1.0,
                1.0,
                1.0
            ],
            "children": [
                1
            ]
        },
        {
            "name": "tableCoffeeGlassSquare",
            "translation": [
                0.0,
                0.0,
                0.0
            ],
            "rotation": [
                0.0,
                0.0,
                0.0,
                1.0
            ],
            "scale": [
                100.0,
                100.0,
                100.0
            ],
            "mesh": 0
        }
    ]
}