{
    "asset": {
        "generator": "FBX2glTF v0.13.1",
        "version": "2.0"
    },
    "scene": 0,
    "buffers": [
        {
            "byteLength": 16908,
            "uri": "buffer.bin"
        }
    ],
    "bufferViews": [
        {
            "buffer": 0,
            "byteLength": 1632,
            "byteOffset": 0,
            "target": 34963
        },
        {
            "buffer": 0,
            "byteLength": 3528,
            "byteOffset": 1632,
            "target": 34962
        },
        {
            "buffer": 0,
            "byteLength": 3528,
            "byteOffset": 5160,
            "target": 34962
        },
        {
            "buffer": 0,
            "byteLength": 4704,
            "byteOffset": 8688,
            "target": 34962
        },
        {
            "buffer": 0,
            "byteLength": 2352,
            "byteOffset": 13392,
            "target": 34962
        },
        {
            "buffer": 0,
            "byteLength": 108,
            "byteOffset": 15744,
            "target": 34963
        },
        {
            "buffer": 0,
            "byteLength": 264,
            "byteOffset": 15852,
            "target": 34962
        },
        {
            "buffer": 0,
            "byteLength": 264,
            "byteOffset": 16116,
            "target": 34962
        },
        {
            "buffer": 0,
            "byteLength": 352,
            "byteOffset": 16380,
            "target": 34962
        },
        {
            "buffer": 0,
            "byteLength": 176,
            "byteOffset": 16732,
            "target": 34962
        }
    ],
    "scenes": [
        {
            "name": "Root Scene",
            "nodes": [
                0
            ]
        }
    ],
    "accessors": [
        {
            "componentType": 5123,
            "type": "SCALAR",
            "count": 816,
            "bufferView": 0,
            "byteOffset": 0
        },
        {
            "componentType": 5126,
            "type": "VEC3",
            "count": 294,
            "bufferView": 1,
            "byteOffset": 0,
            "min": [
                -0.0999999940395355,
                0.0,
                -1.0
            ],
            "max": [
                0.0999999940395355,
                2.40000009536743,
                1.0
            ]
        },
        {
            "componentType": 5126,
            "type": "VEC3",
            "count": 294,
            "bufferView": 2,
            "byteOffset": 0
        },
        {
            "componentType": 5126,
            "type": "VEC4",
            "count": 294,
            "bufferView": 3,
            "byteOffset": 0
        },
        {
            "componentType": 5126,
            "type": "VEC2",
            "count": 294,
            "bufferView": 4,
            "byteOffset": 0
        },
        {
            "componentType": 5123,
            "type": "SCALAR",
            "count": 54,
            "bufferView": 5,
            "byteOffset": 0
        },
        {
            "componentType": 5126,
            "type": "VEC3",
            "count": 22,
            "bufferView": 6,
            "byteOffset": 0,
            "min": [
                -1.44382288514312e-14,
                0.0,
                -0.349999994039536
            ],
            "max": [
                1.44382288514312e-14,
                0.998040914535522,
                0.349999994039536
            ]
        },
        {
            "componentType": 5126,
            "type": "VEC3",
            "count": 22,
            "bufferView": 7,
            "byteOffset": 0
        },
        {
            "componentType": 5126,
            "type": "VEC4",
            "count": 22,
            "bufferView": 8,
            "byteOffset": 0
        },
        {
            "componentType": 5126,
            "type": "VEC2",
            "count": 22,
            "bufferView": 9,
            "byteOffset": 0
        }
    ],
    "images": [
        {
            "name": "colormap.png",
            "uri": "colormap.png"
        }
    ],
    "samplers": [
        {}
    ],
    "textures": [
        {
            "name": "DiffuseColor_Texture",
            "sampler": 0,
            "source": 0
        }
    ],
    "materials": [
        {
            "name": "colormap",
            "alphaMode": "OPAQUE",
            "doubleSided": false,
            "extras": {
                "fromFBX": {
                    "shadingModel": "Lambert",
                    "isTruePBR": false
                }
            },
            "pbrMetallicRoughness": {
                "baseColorTexture": {
                    "index": 0,
                    "texCoord": 0
                },
                "baseColorFactor": [
                    1.0,
                    1.0,
                    1.0,
                    1.0
                ],
                "metallicFactor": 0.200000002980232,
                "roughnessFactor": 0.800000011920929
            }
        },
        {
            "name": "glass",
            "alphaMode": "OPAQUE",
            "doubleSided": false,
            "extras": {
                "fromFBX": {
                    "shadingModel": "Lambert",
                    "isTruePBR": false
                }
            },
            "emissiveFactor": [
                0.488608062267303,
                0.501756489276886,
                0.566037774085999
            ],
            "pbrMetallicRoughness": {
                "baseColorFactor": [
                    0.882075488567352,
                    0.93214625120163,
                    1.0,
                    1.0
                ],
                "metallicFactor": 0.200000002980232,
                "roughnessFactor": 0.800000011920929
            }
        }
    ],
    "meshes": [
        {
            "name": "wall-window-round-detailed",
            "primitives": [
                {
                    "material": 0,
                    "mode": 4,
                    "attributes": {
                        "NORMAL": 2,
                        "POSITION": 1,
                        "TANGENT": 3,
                        "TEXCOORD_0": 4
                    },
                    "indices": 0
                }
            ]
        },
        {
            "name": "(%ignore)",
            "primitives": [
                {
                    "material": 1,
                    "mode": 4,
                    "attributes": {
                        "NORMAL": 7,
                        "POSITION": 6,
                        "TANGENT": 8,
                        "TEXCOORD_0": 9
                    },
                    "indices": 5
                }
            ]
        }
    ],
    "nodes": [
        {
            "name": "RootNode",
            "translation": [
                0.0,
                0.0,
                0.0
            ],
            "rotation": [
                0.0,
                0.0,
                0.0,
                1.0
            ],
            "scale": [
                1.0,
                1.0,
                1.0
            ],
            "children": [
                1
            ]
        },
        {
            "name": "wall-window-round-detailed",
            "translation": [
                0.0,
                0.0,
                0.0
            ],
            "rotation": [
                0.0,
                0.0,
                0.0,
                1.0
            ],
            "scale": [
                1.0,
                1.0,
                1.0
            ],
            "children": [
                2
            ],
            "mesh": 0
        },
        {
            "name": "(%ignore)",
            "translation": [
                -9.52923043208084e-14,
                0.799999952316284,
                5.77529128646258e-15
            ],
            "rotation": [
                0.0,
                0.0,
                0.0,
                1.0
            ],
            "scale": [
                1.0,
                1.0,
                1.0
            ],
            "mesh": 1
        }
    ]
}