{
    "asset": {
        "generator": "FBX2glTF v0.13.1",
        "version": "2.0"
    },
    "scene": 0,
    "buffers": [
        {
            "byteLength": 22996,
            "uri": "buffer.bin"
        }
    ],
    "bufferViews": [
        {
            "buffer": 0,
            "byteLength": 244,
            "byteOffset": 0
        },
        {
            "buffer": 0,
            "byteLength": 976,
            "byteOffset": 244
        },
        {
            "buffer": 0,
            "byteLength": 1062,
            "byteOffset": 1220,
            "target": 34963
        },
        {
            "buffer": 0,
            "byteLength": 3396,
            "byteOffset": 2284,
            "target": 34962
        },
        {
            "buffer": 0,
            "byteLength": 3396,
            "byteOffset": 5680,
            "target": 34962
        },
        {
            "buffer": 0,
            "byteLength": 4528,
            "byteOffset": 9076,
            "target": 34962
        },
        {
            "buffer": 0,
            "byteLength": 2264,
            "byteOffset": 13604,
            "target": 34962
        },
        {
            "buffer": 0,
            "byteLength": 600,
            "byteOffset": 15868,
            "target": 34963
        },
        {
            "buffer": 0,
            "byteLength": 1632,
            "byteOffset": 16468,
            "target": 34962
        },
        {
            "buffer": 0,
            "byteLength": 1632,
            "byteOffset": 18100,
            "target": 34962
        },
        {
            "buffer": 0,
            "byteLength": 2176,
            "byteOffset": 19732,
            "target": 34962
        },
        {
            "buffer": 0,
            "byteLength": 1088,
            "byteOffset": 21908,
            "target": 34962
        }
    ],
    "scenes": [
        {
            "name": "Root Scene",
            "nodes": [
                0
            ]
        }
    ],
    "accessors": [
        {
            "componentType": 5126,
            "type": "SCALAR",
            "count": 61,
            "bufferView": 0,
            "byteOffset": 0,
            "min": [
                0.0
            ],
            "max": [
                2.0
            ]
        },
        {
            "componentType": 5126,
            "type": "VEC4",
            "count": 61,
            "bufferView": 1,
            "byteOffset": 0
        },
        {
            "componentType": 5123,
            "type": "SCALAR",
            "count": 531,
            "bufferView": 2,
            "byteOffset": 0
        },
        {
            "componentType": 5126,
            "type": "VEC3",
            "count": 283,
            "bufferView": 3,
            "byteOffset": 0,
            "min": [
                -0.199999988079071,
                0.0,
                -0.162499994039536
            ],
            "max": [
                0.199999988079071,
                0.724999964237213,
                0.233332321047783
            ]
        },
        {
            "componentType": 5126,
            "type": "VEC3",
            "count": 283,
            "bufferView": 4,
            "byteOffset": 0
        },
        {
            "componentType": 5126,
            "type": "VEC4",
            "count": 283,
            "bufferView": 5,
            "byteOffset": 0
        },
        {
            "componentType": 5126,
            "type": "VEC2",
            "count": 283,
            "bufferView": 6,
            "byteOffset": 0
        },
        {
            "componentType": 5123,
            "type": "SCALAR",
            "count": 300,
            "bufferView": 7,
            "byteOffset": 0
        },
        {
            "componentType": 5126,
            "type": "VEC3",
            "count": 136,
            "bufferView": 8,
            "byteOffset": 0,
            "min": [
                -0.150000005960464,
                0.0,
                -0.0249999985098839
            ],
            "max": [
                0.150000005960464,
                0.199999988079071,
                0.0250000469386578
            ]
        },
        {
            "componentType": 5126,
            "type": "VEC3",
            "count": 136,
            "bufferView": 9,
            "byteOffset": 0
        },
        {
            "componentType": 5126,
            "type": "VEC4",
            "count": 136,
            "bufferView": 10,
            "byteOffset": 0
        },
        {
            "componentType": 5126,
            "type": "VEC2",
            "count": 136,
            "bufferView": 11,
            "byteOffset": 0
        }
    ],
    "images": [
        {
            "name": "colormap.png",
            "uri": "colormap.png"
        }
    ],
    "samplers": [
        {}
    ],
    "textures": [
        {
            "name": "DiffuseColor_Texture",
            "sampler": 0,
            "source": 0
        }
    ],
    "materials": [
        {
            "name": "colormap",
            "alphaMode": "OPAQUE",
            "doubleSided": false,
            "extras": {
                "fromFBX": {
                    "shadingModel": "Lambert",
                    "isTruePBR": false
                }
            },
            "pbrMetallicRoughness": {
                "baseColorTexture": {
                    "index": 0,
                    "texCoord": 0
                },
                "baseColorFactor": [
                    1.0,
                    1.0,
                    1.0,
                    1.0
                ],
                "metallicFactor": 0.200000002980232,
                "roughnessFactor": 0.800000011920929
            }
        }
    ],
    "meshes": [
        {
            "name": "ticket-machine",
            "primitives": [
                {
                    "material": 0,
                    "mode": 4,
                    "attributes": {
                        "NORMAL": 4,
                        "POSITION": 3,
                        "TANGENT": 5,
                        "TEXCOORD_0": 6
                    },
                    "indices": 2
                }
            ]
        },
        {
            "name": "rotate-y",
            "primitives": [
                {
                    "material": 0,
                    "mode": 4,
                    "attributes": {
                        "NORMAL": 9,
                        "POSITION": 8,
                        "TANGENT": 10,
                        "TEXCOORD_0": 11
                    },
                    "indices": 7
                }
            ]
        }
    ],
    "animations": [
        {
            "name": "animation",
            "channels": [
                {
                    "sampler": 0,
                    "target": {
                        "node": 2,
                        "path": "rotation"
                    }
                }
            ],
            "samplers": [
                {
                    "input": 0,
                    "interpolation": "LINEAR",
                    "output": 1
                }
            ]
        }
    ],
    "nodes": [
        {
            "name": "RootNode",
            "translation": [
                0.0,
                0.0,
                0.0
            ],
            "rotation": [
                0.0,
                0.0,
                0.0,
                1.0
            ],
            "scale": [
                1.0,
                1.0,
                1.0
            ],
            "children": [
                1
            ]
        },
        {
            "name": "ticket-machine",
            "translation": [
                0.0,
                0.0,
                0.0
            ],
            "rotation": [
                0.0,
                0.0,
                0.0,
                1.0
            ],
            "scale": [
                1.0,
                1.0,
                1.0
            ],
            "children": [
                2
            ],
            "mesh": 0
        },
        {
            "name": "rotate-y",
            "translation": [
                1.44382282161564e-15,
                0.724999964237213,
                0.0124999992549419
            ],
            "rotation": [
                0.0,
                0.0,
                0.0,
                1.0
            ],
            "scale": [
                1.0,
                1.0,
                1.0
            ],
            "mesh": 1
        }
    ]
}