{
    "asset": {
        "generator": "FBX2glTF v0.13.1",
        "version": "2.0"
    },
    "scene": 0,
    "buffers": [
        {
            "byteLength": 39252,
            "uri": "buffer.bin"
        }
    ],
    "bufferViews": [
        {
            "buffer": 0,
            "byteLength": 2556,
            "byteOffset": 0,
            "target": 34963
        },
        {
            "buffer": 0,
            "byteLength": 8100,
            "byteOffset": 2556,
            "target": 34962
        },
        {
            "buffer": 0,
            "byteLength": 8100,
            "byteOffset": 10656,
            "target": 34962
        },
        {
            "buffer": 0,
            "byteLength": 10800,
            "byteOffset": 18756,
            "target": 34962
        },
        {
            "buffer": 0,
            "byteLength": 5400,
            "byteOffset": 29556,
            "target": 34962
        },
        {
            "buffer": 0,
            "byteLength": 360,
            "byteOffset": 34956,
            "target": 34963
        },
        {
            "buffer": 0,
            "byteLength": 984,
            "byteOffset": 35316,
            "target": 34962
        },
        {
            "buffer": 0,
            "byteLength": 984,
            "byteOffset": 36300,
            "target": 34962
        },
        {
            "buffer": 0,
            "byteLength": 1312,
            "byteOffset": 37284,
            "target": 34962
        },
        {
            "buffer": 0,
            "byteLength": 656,
            "byteOffset": 38596,
            "target": 34962
        }
    ],
    "scenes": [
        {
            "name": "Root Scene",
            "nodes": [
                0
            ]
        }
    ],
    "accessors": [
        {
            "componentType": 5123,
            "type": "SCALAR",
            "count": 1278,
            "bufferView": 0,
            "byteOffset": 0
        },
        {
            "componentType": 5126,
            "type": "VEC3",
            "count": 675,
            "bufferView": 1,
            "byteOffset": 0,
            "min": [
                -0.0824999958276749,
                -0.15384504199028,
                -0.453942507505417
            ],
            "max": [
                0.0824999958276749,
                0.185949996113777,
                0.453942477703094
            ]
        },
        {
            "componentType": 5126,
            "type": "VEC3",
            "count": 675,
            "bufferView": 2,
            "byteOffset": 0
        },
        {
            "componentType": 5126,
            "type": "VEC4",
            "count": 675,
            "bufferView": 3,
            "byteOffset": 0
        },
        {
            "componentType": 5126,
            "type": "VEC2",
            "count": 675,
            "bufferView": 4,
            "byteOffset": 0
        },
        {
            "componentType": 5123,
            "type": "SCALAR",
            "count": 180,
            "bufferView": 5,
            "byteOffset": 0
        },
        {
            "componentType": 5126,
            "type": "VEC3",
            "count": 82,
            "bufferView": 6,
            "byteOffset": 0,
            "min": [
                -0.0299999993294477,
                -0.150000020861626,
                -0.0750000029802322
            ],
            "max": [
                0.0299999993294477,
                1.49011611938477e-08,
                0.0750000029802322
            ]
        },
        {
            "componentType": 5126,
            "type": "VEC3",
            "count": 82,
            "bufferView": 7,
            "byteOffset": 0
        },
        {
            "componentType": 5126,
            "type": "VEC4",
            "count": 82,
            "bufferView": 8,
            "byteOffset": 0
        },
        {
            "componentType": 5126,
            "type": "VEC2",
            "count": 82,
            "bufferView": 9,
            "byteOffset": 0
        }
    ],
    "images": [
        {
            "name": "colormap.png",
            "uri": "colormap.png"
        }
    ],
    "samplers": [
        {}
    ],
    "textures": [
        {
            "name": "DiffuseColor_Texture",
            "sampler": 0,
            "source": 0
        }
    ],
    "materials": [
        {
            "name": "colormap",
            "alphaMode": "OPAQUE",
            "doubleSided": false,
            "extras": {
                "fromFBX": {
                    "shadingModel": "Lambert",
                    "isTruePBR": false
                }
            },
            "pbrMetallicRoughness": {
                "baseColorTexture": {
                    "index": 0,
                    "texCoord": 0
                },
                "baseColorFactor": [
                    1.0,
                    1.0,
                    1.0,
                    1.0
                ],
                "metallicFactor": 0.200000002980232,
                "roughnessFactor": 0.800000011920929
            }
        }
    ],
    "meshes": [
        {
            "name": "blaster-d",
            "primitives": [
                {
                    "material": 0,
                    "mode": 4,
                    "attributes": {
                        "NORMAL": 2,
                        "POSITION": 1,
                        "TANGENT": 3,
                        "TEXCOORD_0": 4
                    },
                    "indices": 0
                }
            ]
        },
        {
            "name": "magazine",
            "primitives": [
                {
                    "material": 0,
                    "mode": 4,
                    "attributes": {
                        "NORMAL": 7,
                        "POSITION": 6,
                        "TANGENT": 8,
                        "TEXCOORD_0": 9
                    },
                    "indices": 5
                }
            ]
        }
    ],
    "nodes": [
        {
            "name": "RootNode",
            "translation": [
                0.0,
                0.0,
                0.0
            ],
            "rotation": [
                0.0,
                0.0,
                0.0,
                1.0
            ],
            "scale": [
                1.0,
                1.0,
                1.0
            ],
            "children": [
                1
            ]
        },
        {
            "name": "blaster-d",
            "translation": [
                0.0,
                0.0,
                0.0
            ],
            "rotation": [
                0.0,
                0.0,
                0.0,
                1.0
            ],
            "scale": [
                1.0,
                1.0,
                1.0
            ],
            "children": [
                2
            ],
            "mesh": 0
        },
        {
            "name": "magazine",
            "translation": [
                0.0,
                -0.0359500013291836,
                -0.0710574984550476
            ],
            "rotation": [
                0.0,
                0.0,
                0.0,
                1.0
            ],
            "scale": [
                1.0,
                1.0,
                1.0
            ],
            "mesh": 1
        }
    ]
}