{
    "asset": {
        "generator": "FBX2glTF v0.13.1",
        "version": "2.0"
    },
    "scene": 0,
    "buffers": [
        {
            "byteLength": 57444,
            "uri": "buffer.bin"
        }
    ],
    "bufferViews": [
        {
            "buffer": 0,
            "byteLength": 1602,
            "byteOffset": 0,
            "target": 34963
        },
        {
            "buffer": 0,
            "byteLength": 6576,
            "byteOffset": 1604,
            "target": 34962
        },
        {
            "buffer": 0,
            "byteLength": 6576,
            "byteOffset": 8180,
            "target": 34962
        },
        {
            "buffer": 0,
            "byteLength": 4384,
            "byteOffset": 14756,
            "target": 34962
        },
        {
            "buffer": 0,
            "byteLength": 30,
            "byteOffset": 19140,
            "target": 34963
        },
        {
            "buffer": 0,
            "byteLength": 84,
            "byteOffset": 19172,
            "target": 34962
        },
        {
            "buffer": 0,
            "byteLength": 84,
            "byteOffset": 19256,
            "target": 34962
        },
        {
            "buffer": 0,
            "byteLength": 56,
            "byteOffset": 19340,
            "target": 34962
        },
        {
            "buffer": 0,
            "byteLength": 144,
            "byteOffset": 19396,
            "target": 34963
        },
        {
            "buffer": 0,
            "byteLength": 576,
            "byteOffset": 19540,
            "target": 34962
        },
        {
            "buffer": 0,
            "byteLength": 576,
            "byteOffset": 20116,
            "target": 34962
        },
        {
            "buffer": 0,
            "byteLength": 384,
            "byteOffset": 20692,
            "target": 34962
        },
        {
            "buffer": 0,
            "byteLength": 144,
            "byteOffset": 21076,
            "target": 34963
        },
        {
            "buffer": 0,
            "byteLength": 576,
            "byteOffset": 21220,
            "target": 34962
        },
        {
            "buffer": 0,
            "byteLength": 576,
            "byteOffset": 21796,
            "target": 34962
        },
        {
            "buffer": 0,
            "byteLength": 384,
            "byteOffset": 22372,
            "target": 34962
        },
        {
            "buffer": 0,
            "byteLength": 3840,
            "byteOffset": 22756,
            "target": 34963
        },
        {
            "buffer": 0,
            "byteLength": 11568,
            "byteOffset": 26596,
            "target": 34962
        },
        {
            "buffer": 0,
            "byteLength": 11568,
            "byteOffset": 38164,
            "target": 34962
        },
        {
            "buffer": 0,
            "byteLength": 7712,
            "byteOffset": 49732,
            "target": 34962
        }
    ],
    "scenes": [
        {
            "name": "Root Scene",
            "nodes": [
                0
            ]
        }
    ],
    "accessors": [
        {
            "componentType": 5123,
            "type": "SCALAR",
            "count": 801,
            "bufferView": 0,
            "byteOffset": 0
        },
        {
            "componentType": 5126,
            "type": "VEC3",
            "count": 548,
            "bufferView": 1,
            "byteOffset": 0,
            "min": [
                -0.0561791993677616,
                0.0,
                0.0
            ],
            "max": [
                0.0,
                0.109403289854527,
                0.0561791993677616
            ]
        },
        {
            "componentType": 5126,
            "type": "VEC3",
            "count": 548,
            "bufferView": 2,
            "byteOffset": 0
        },
        {
            "componentType": 5126,
            "type": "VEC2",
            "count": 548,
            "bufferView": 3,
            "byteOffset": 0
        },
        {
            "componentType": 5123,
            "type": "SCALAR",
            "count": 15,
            "bufferView": 4,
            "byteOffset": 0
        },
        {
            "componentType": 5126,
            "type": "VEC3",
            "count": 7,
            "bufferView": 5,
            "byteOffset": 0,
            "min": [
                -0.0414631962776184,
                0.00790019892156124,
                0.0355888493359089
            ],
            "max": [
                -0.0355888493359089,
                0.00790019892156124,
                0.0414631962776184
            ]
        },
        {
            "componentType": 5126,
            "type": "VEC3",
            "count": 7,
            "bufferView": 6,
            "byteOffset": 0
        },
        {
            "componentType": 5126,
            "type": "VEC2",
            "count": 7,
            "bufferView": 7,
            "byteOffset": 0
        },
        {
            "componentType": 5123,
            "type": "SCALAR",
            "count": 72,
            "bufferView": 8,
            "byteOffset": 0
        },
        {
            "componentType": 5126,
            "type": "VEC3",
            "count": 48,
            "bufferView": 9,
            "byteOffset": 0,
            "min": [
                -0.0156752392649651,
                0.0,
                -0.037843368947506
            ],
            "max": [
                0.0,
                0.0936029329895973,
                0.0
            ]
        },
        {
            "componentType": 5126,
            "type": "VEC3",
            "count": 48,
            "bufferView": 10,
            "byteOffset": 0
        },
        {
            "componentType": 5126,
            "type": "VEC2",
            "count": 48,
            "bufferView": 11,
            "byteOffset": 0
        },
        {
            "componentType": 5123,
            "type": "SCALAR",
            "count": 72,
            "bufferView": 12,
            "byteOffset": 0
        },
        {
            "componentType": 5126,
            "type": "VEC3",
            "count": 48,
            "bufferView": 13,
            "byteOffset": 0,
            "min": [
                0.0,
                0.0,
                0.0
            ],
            "max": [
                0.037843368947506,
                0.0936029329895973,
                0.0156752392649651
            ]
        },
        {
            "componentType": 5126,
            "type": "VEC3",
            "count": 48,
            "bufferView": 14,
            "byteOffset": 0
        },
        {
            "componentType": 5126,
            "type": "VEC2",
            "count": 48,
            "bufferView": 15,
            "byteOffset": 0
        },
        {
            "componentType": 5123,
            "type": "SCALAR",
            "count": 1920,
            "bufferView": 16,
            "byteOffset": 0
        },
        {
            "componentType": 5126,
            "type": "VEC3",
            "count": 964,
            "bufferView": 17,
            "byteOffset": 0,
            "min": [
                -0.00995645206421614,
                0.0,
                -0.00843565817922354
            ],
            "max": [
                0.00995645206421614,
                0.049109049141407,
                0.00843565817922354
            ]
        },
        {
            "componentType": 5126,
            "type": "VEC3",
            "count": 964,
            "bufferView": 18,
            "byteOffset": 0
        },
        {
            "componentType": 5126,
            "type": "VEC2",
            "count": 964,
            "bufferView": 19,
            "byteOffset": 0
        }
    ],
    "samplers": [
        {}
    ],
    "materials": [
        {
            "name": "_defaultMat",
            "alphaMode": "OPAQUE",
            "doubleSided": false,
            "extras": {
                "fromFBX": {
                    "shadingModel": "Phong",
                    "isTruePBR": false
                }
            },
            "pbrMetallicRoughness": {
                "baseColorFactor": [
                    1.0,
                    1.0,
                    1.0,
                    1.0
                ],
                "metallicFactor": 0.400000005960464,
                "roughnessFactor": 1.0
            }
        },
        {
            "name": "metalDark",
            "alphaMode": "OPAQUE",
            "doubleSided": false,
            "extras": {
                "fromFBX": {
                    "shadingModel": "Phong",
                    "isTruePBR": false
                }
            },
            "pbrMetallicRoughness": {
                "baseColorFactor": [
                    0.305882394313812,
                    0.388235300779343,
                    0.388235300779343,
                    1.0
                ],
                "metallicFactor": 0.400000005960464,
                "roughnessFactor": 1.0
            }
        },
        {
            "name": "glass",
            "alphaMode": "OPAQUE",
            "doubleSided": false,
            "extras": {
                "fromFBX": {
                    "shadingModel": "Phong",
                    "isTruePBR": false
                }
            },
            "pbrMetallicRoughness": {
                "baseColorFactor": [
                    0.698039174079895,
                    0.82745099067688,
                    0.768627524375916,
                    1.0
                ],
                "metallicFactor": 0.400000005960464,
                "roughnessFactor": 1.0
            }
        },
        {
            "name": "carpetWhite",
            "alphaMode": "OPAQUE",
            "doubleSided": false,
            "extras": {
                "fromFBX": {
                    "shadingModel": "Phong",
                    "isTruePBR": false
                }
            },
            "pbrMetallicRoughness": {
                "baseColorFactor": [
                    0.972549021244049,
                    1.0,
                    1.0,
                    1.0
                ],
                "metallicFactor": 0.400000005960464,
                "roughnessFactor": 1.0
            }
        }
    ],
    "meshes": [
        {
            "name": "showerRound",
            "primitives": [
                {
                    "material": 0,
                    "mode": 4,
                    "attributes": {
                        "NORMAL": 2,
                        "POSITION": 1,
                        "TEXCOORD_0": 3
                    },
                    "indices": 0
                },
                {
                    "material": 1,
                    "mode": 4,
                    "attributes": {
                        "NORMAL": 6,
                        "POSITION": 5,
                        "TEXCOORD_0": 7
                    },
                    "indices": 4
                }
            ]
        },
        {
            "name": "doorLeft",
            "primitives": [
                {
                    "material": 2,
                    "mode": 4,
                    "attributes": {
                        "NORMAL": 10,
                        "POSITION": 9,
                        "TEXCOORD_0": 11
                    },
                    "indices": 8
                }
            ]
        },
        {
            "name": "doorRight",
            "primitives": [
                {
                    "material": 2,
                    "mode": 4,
                    "attributes": {
                        "NORMAL": 14,
                        "POSITION": 13,
                        "TEXCOORD_0": 15
                    },
                    "indices": 12
                }
            ]
        },
        {
            "name": "faucet",
            "primitives": [
                {
                    "material": 3,
                    "mode": 4,
                    "attributes": {
                        "NORMAL": 18,
                        "POSITION": 17,
                        "TEXCOORD_0": 19
                    },
                    "indices": 16
                }
            ]
        }
    ],
    "nodes": [
        {
            "name": "RootNode",
            "translation": [
                0.0,
                0.0,
                0.0
            ],
            "rotation": [
                0.0,
                0.0,
                0.0,
                1.0
            ],
            "scale": [
                1.0,
                1.0,
                1.0
            ],
            "children": [
                1
            ]
        },
        {
            "name": "showerRound",
            "translation": [
                0.0,
                0.0,
                0.0
            ],
            "rotation": [
                0.0,
                0.0,
                0.0,
                1.0
            ],
            "scale": [
                100.0,
                100.0,
                100.0
            ],
            "children": [
                2,
                3,
                4
            ],
            "mesh": 0
        },
        {
            "name": "doorLeft",
            "translation": [
                7.21911357868263e-17,
                0.0122891999781132,
                0.053518608212471
            ],
            "rotation": [
                0.0,
                0.0,
                0.0,
                1.0
            ],
            "scale": [
                1.0,
                1.0,
                1.0
            ],
            "mesh": 1
        },
        {
            "name": "doorRight",
            "translation": [
                -0.053518608212471,
                0.0122891999781132,
                7.21911357868263e-17
            ],
            "rotation": [
                0.0,
                0.0,
                0.0,
                1.0
            ],
            "scale": [
                1.0,
                1.0,
                1.0
            ],
            "mesh": 2
        },
        {
            "name": "faucet",
            "translation": [
                -0.0280434880405664,
                0.0437026880681515,
                0.0448924489319324
            ],
            "rotation": [
                -0.0,
                0.70710676908493,
                0.0,
                0.70710676908493
            ],
            "scale": [
                1.0,
                1.0,
                1.0
            ],
            "mesh": 3
        }
    ]
}