{
    "asset": {
        "generator": "FBX2glTF v0.13.1",
        "version": "2.0"
    },
    "scene": 0,
    "buffers": [
        {
            "byteLength": 32340,
            "uri": "buffer.bin"
        }
    ],
    "bufferViews": [
        {
            "buffer": 0,
            "byteLength": 1044,
            "byteOffset": 0,
            "target": 34963
        },
        {
            "buffer": 0,
            "byteLength": 3672,
            "byteOffset": 1044,
            "target": 34962
        },
        {
            "buffer": 0,
            "byteLength": 3672,
            "byteOffset": 4716,
            "target": 34962
        },
        {
            "buffer": 0,
            "byteLength": 2448,
            "byteOffset": 8388,
            "target": 34962
        },
        {
            "buffer": 0,
            "byteLength": 576,
            "byteOffset": 10836,
            "target": 34963
        },
        {
            "buffer": 0,
            "byteLength": 1800,
            "byteOffset": 11412,
            "target": 34962
        },
        {
            "buffer": 0,
            "byteLength": 1800,
            "byteOffset": 13212,
            "target": 34962
        },
        {
            "buffer": 0,
            "byteLength": 1200,
            "byteOffset": 15012,
            "target": 34962
        },
        {
            "buffer": 0,
            "byteLength": 576,
            "byteOffset": 16212,
            "target": 34963
        },
        {
            "buffer": 0,
            "byteLength": 1800,
            "byteOffset": 16788,
            "target": 34962
        },
        {
            "buffer": 0,
            "byteLength": 1800,
            "byteOffset": 18588,
            "target": 34962
        },
        {
            "buffer": 0,
            "byteLength": 1200,
            "byteOffset": 20388,
            "target": 34962
        },
        {
            "buffer": 0,
            "byteLength": 576,
            "byteOffset": 21588,
            "target": 34963
        },
        {
            "buffer": 0,
            "byteLength": 1800,
            "byteOffset": 22164,
            "target": 34962
        },
        {
            "buffer": 0,
            "byteLength": 1800,
            "byteOffset": 23964,
            "target": 34962
        },
        {
            "buffer": 0,
            "byteLength": 1200,
            "byteOffset": 25764,
            "target": 34962
        },
        {
            "buffer": 0,
            "byteLength": 576,
            "byteOffset": 26964,
            "target": 34963
        },
        {
            "buffer": 0,
            "byteLength": 1800,
            "byteOffset": 27540,
            "target": 34962
        },
        {
            "buffer": 0,
            "byteLength": 1800,
            "byteOffset": 29340,
            "target": 34962
        },
        {
            "buffer": 0,
            "byteLength": 1200,
            "byteOffset": 31140,
            "target": 34962
        }
    ],
    "scenes": [
        {
            "name": "Root Scene",
            "nodes": [
                0
            ]
        }
    ],
    "accessors": [
        {
            "componentType": 5123,
            "type": "SCALAR",
            "count": 522,
            "bufferView": 0,
            "byteOffset": 0
        },
        {
            "componentType": 5126,
            "type": "VEC3",
            "count": 306,
            "bufferView": 1,
            "byteOffset": 0,
            "min": [
                -0.182343497872353,
                0.00913317035883665,
                0.0
            ],
            "max": [
                0.0,
                0.13395319879055,
                0.0789999961853027
            ]
        },
        {
            "componentType": 5126,
            "type": "VEC3",
            "count": 306,
            "bufferView": 2,
            "byteOffset": 0
        },
        {
            "componentType": 5126,
            "type": "VEC2",
            "count": 306,
            "bufferView": 3,
            "byteOffset": 0
        },
        {
            "componentType": 5123,
            "type": "SCALAR",
            "count": 288,
            "bufferView": 4,
            "byteOffset": 0
        },
        {
            "componentType": 5126,
            "type": "VEC3",
            "count": 150,
            "bufferView": 5,
            "byteOffset": 0,
            "min": [
                -0.180343493819237,
                0.0,
                0.0
            ],
            "max": [
                0.0,
                0.13090880215168,
                0.00600000005215406
            ]
        },
        {
            "componentType": 5126,
            "type": "VEC3",
            "count": 150,
            "bufferView": 6,
            "byteOffset": 0
        },
        {
            "componentType": 5126,
            "type": "VEC2",
            "count": 150,
            "bufferView": 7,
            "byteOffset": 0
        },
        {
            "componentType": 5123,
            "type": "SCALAR",
            "count": 288,
            "bufferView": 8,
            "byteOffset": 0
        },
        {
            "componentType": 5126,
            "type": "VEC3",
            "count": 150,
            "bufferView": 9,
            "byteOffset": 0,
            "min": [
                -0.180343493819237,
                0.0,
                0.0
            ],
            "max": [
                0.0,
                0.13090880215168,
                0.00600000005215406
            ]
        },
        {
            "componentType": 5126,
            "type": "VEC3",
            "count": 150,
            "bufferView": 10,
            "byteOffset": 0
        },
        {
            "componentType": 5126,
            "type": "VEC2",
            "count": 150,
            "bufferView": 11,
            "byteOffset": 0
        },
        {
            "componentType": 5123,
            "type": "SCALAR",
            "count": 288,
            "bufferView": 12,
            "byteOffset": 0
        },
        {
            "componentType": 5126,
            "type": "VEC3",
            "count": 150,
            "bufferView": 13,
            "byteOffset": 0,
            "min": [
                -0.180343493819237,
                0.0,
                0.0
            ],
            "max": [
                0.0,
                0.13090880215168,
                0.00600000005215406
            ]
        },
        {
            "componentType": 5126,
            "type": "VEC3",
            "count": 150,
            "bufferView": 14,
            "byteOffset": 0
        },
        {
            "componentType": 5126,
            "type": "VEC2",
            "count": 150,
            "bufferView": 15,
            "byteOffset": 0
        },
        {
            "componentType": 5123,
            "type": "SCALAR",
            "count": 288,
            "bufferView": 16,
            "byteOffset": 0
        },
        {
            "componentType": 5126,
            "type": "VEC3",
            "count": 150,
            "bufferView": 17,
            "byteOffset": 0,
            "min": [
                -0.180343493819237,
                0.0,
                0.0
            ],
            "max": [
                0.0,
                0.13090880215168,
                0.00600000005215406
            ]
        },
        {
            "componentType": 5126,
            "type": "VEC3",
            "count": 150,
            "bufferView": 18,
            "byteOffset": 0
        },
        {
            "componentType": 5126,
            "type": "VEC2",
            "count": 150,
            "bufferView": 19,
            "byteOffset": 0
        }
    ],
    "samplers": [
        {}
    ],
    "materials": [
        {
            "name": "woodDark",
            "alphaMode": "OPAQUE",
            "doubleSided": false,
            "extras": {
                "fromFBX": {
                    "shadingModel": "Phong",
                    "isTruePBR": false
                }
            },
            "pbrMetallicRoughness": {
                "baseColorFactor": [
                    0.677999973297119,
                    0.455947697162628,
                    0.299030601978302,
                    1.0
                ],
                "metallicFactor": 0.400000005960464,
                "roughnessFactor": 1.0
            }
        },
        {
            "name": "metal",
            "alphaMode": "OPAQUE",
            "doubleSided": false,
            "extras": {
                "fromFBX": {
                    "shadingModel": "Phong",
                    "isTruePBR": false
                }
            },
            "pbrMetallicRoughness": {
                "baseColorFactor": [
                    0.740610480308533,
                    0.822866678237915,
                    0.839622616767883,
                    1.0
                ],
                "metallicFactor": 0.400000005960464,
                "roughnessFactor": 1.0
            }
        },
        {
            "name": "wood",
            "alphaMode": "OPAQUE",
            "doubleSided": false,
            "extras": {
                "fromFBX": {
                    "shadingModel": "Phong",
                    "isTruePBR": false
                }
            },
            "pbrMetallicRoughness": {
                "baseColorFactor": [
                    0.896226406097412,
                    0.601571202278137,
                    0.39315590262413,
                    1.0
                ],
                "metallicFactor": 0.400000005960464,
                "roughnessFactor": 1.0
            }
        }
    ],
    "meshes": [
        {
            "name": "stairsOpen",
            "primitives": [
                {
                    "material": 0,
                    "mode": 4,
                    "attributes": {
                        "NORMAL": 2,
                        "POSITION": 1,
                        "TEXCOORD_0": 3
                    },
                    "indices": 0
                }
            ]
        },
        {
            "name": "Group",
            "primitives": [
                {
                    "material": 1,
                    "mode": 4,
                    "attributes": {
                        "NORMAL": 6,
                        "POSITION": 5,
                        "TEXCOORD_0": 7
                    },
                    "indices": 4
                },
                {
                    "material": 2,
                    "mode": 4,
                    "attributes": {
                        "NORMAL": 14,
                        "POSITION": 13,
                        "TEXCOORD_0": 15
                    },
                    "indices": 12
                }
            ]
        },
        {
            "name": "Group",
            "primitives": [
                {
                    "material": 1,
                    "mode": 4,
                    "attributes": {
                        "NORMAL": 10,
                        "POSITION": 9,
                        "TEXCOORD_0": 11
                    },
                    "indices": 8
                },
                {
                    "material": 2,
                    "mode": 4,
                    "attributes": {
                        "NORMAL": 18,
                        "POSITION": 17,
                        "TEXCOORD_0": 19
                    },
                    "indices": 16
                }
            ]
        }
    ],
    "nodes": [
        {
            "name": "RootNode",
            "translation": [
                0.0,
                0.0,
                0.0
            ],
            "rotation": [
                0.0,
                0.0,
                0.0,
                1.0
            ],
            "scale": [
                1.0,
                1.0,
                1.0
            ],
            "children": [
                1
            ]
        },
        {
            "name": "stairsOpen",
            "translation": [
                0.0,
                0.0,
                0.0
            ],
            "rotation": [
                0.0,
                0.0,
                0.0,
                1.0
            ],
            "scale": [
                100.0,
                100.0,
                100.0
            ],
            "children": [
                2,
                3
            ],
            "mesh": 0
        },
        {
            "name": "Group",
            "translation": [
                -0.0020000000949949,
                6.31401122893813e-16,
                0.0649999976158142
            ],
            "rotation": [
                0.0,
                0.0,
                0.0,
                1.0
            ],
            "scale": [
                1.0,
                1.0,
                1.0
            ],
            "mesh": 1
        },
        {
            "name": "Group",
            "translation": [
                -0.0020000000949949,
                8.66293735321034e-16,
                0.00800000037997961
            ],
            "rotation": [
                0.0,
                0.0,
                0.0,
                1.0
            ],
            "scale": [
                1.0,
                1.0,
                1.0
            ],
            "mesh": 2
        }
    ]
}