{
    "asset": {
        "generator": "FBX2glTF v0.13.1",
        "version": "2.0"
    },
    "scene": 0,
    "buffers": [
        {
            "byteLength": 27972,
            "uri": "buffer.bin"
        }
    ],
    "bufferViews": [
        {
            "buffer": 0,
            "byteLength": 124,
            "byteOffset": 0
        },
        {
            "buffer": 0,
            "byteLength": 496,
            "byteOffset": 124
        },
        {
            "buffer": 0,
            "byteLength": 496,
            "byteOffset": 620
        },
        {
            "buffer": 0,
            "byteLength": 124,
            "byteOffset": 1116
        },
        {
            "buffer": 0,
            "byteLength": 496,
            "byteOffset": 1240
        },
        {
            "buffer": 0,
            "byteLength": 496,
            "byteOffset": 1736
        },
        {
            "buffer": 0,
            "byteLength": 244,
            "byteOffset": 2232
        },
        {
            "buffer": 0,
            "byteLength": 976,
            "byteOffset": 2476
        },
        {
            "buffer": 0,
            "byteLength": 976,
            "byteOffset": 3452
        },
        {
            "buffer": 0,
            "byteLength": 144,
            "byteOffset": 4428,
            "target": 34963
        },
        {
            "buffer": 0,
            "byteLength": 432,
            "byteOffset": 4572,
            "target": 34962
        },
        {
            "buffer": 0,
            "byteLength": 432,
            "byteOffset": 5004,
            "target": 34962
        },
        {
            "buffer": 0,
            "byteLength": 576,
            "byteOffset": 5436,
            "target": 34962
        },
        {
            "buffer": 0,
            "byteLength": 288,
            "byteOffset": 6012,
            "target": 34962
        },
        {
            "buffer": 0,
            "byteLength": 216,
            "byteOffset": 6300,
            "target": 34963
        },
        {
            "buffer": 0,
            "byteLength": 672,
            "byteOffset": 6516,
            "target": 34962
        },
        {
            "buffer": 0,
            "byteLength": 672,
            "byteOffset": 7188,
            "target": 34962
        },
        {
            "buffer": 0,
            "byteLength": 896,
            "byteOffset": 7860,
            "target": 34962
        },
        {
            "buffer": 0,
            "byteLength": 448,
            "byteOffset": 8756,
            "target": 34962
        },
        {
            "buffer": 0,
            "byteLength": 744,
            "byteOffset": 9204,
            "target": 34963
        },
        {
            "buffer": 0,
            "byteLength": 2160,
            "byteOffset": 9948,
            "target": 34962
        },
        {
            "buffer": 0,
            "byteLength": 2160,
            "byteOffset": 12108,
            "target": 34962
        },
        {
            "buffer": 0,
            "byteLength": 2880,
            "byteOffset": 14268,
            "target": 34962
        },
        {
            "buffer": 0,
            "byteLength": 1440,
            "byteOffset": 17148,
            "target": 34962
        },
        {
            "buffer": 0,
            "byteLength": 744,
            "byteOffset": 18588,
            "target": 34963
        },
        {
            "buffer": 0,
            "byteLength": 2160,
            "byteOffset": 19332,
            "target": 34962
        },
        {
            "buffer": 0,
            "byteLength": 2160,
            "byteOffset": 21492,
            "target": 34962
        },
        {
            "buffer": 0,
            "byteLength": 2880,
            "byteOffset": 23652,
            "target": 34962
        },
        {
            "buffer": 0,
            "byteLength": 1440,
            "byteOffset": 26532,
            "target": 34962
        }
    ],
    "scenes": [
        {
            "name": "Root Scene",
            "nodes": [
                0
            ]
        }
    ],
    "accessors": [
        {
            "componentType": 5126,
            "type": "SCALAR",
            "count": 31,
            "bufferView": 0,
            "byteOffset": 0,
            "min": [
                0.0
            ],
            "max": [
                1.0
            ]
        },
        {
            "componentType": 5126,
            "type": "VEC4",
            "count": 31,
            "bufferView": 1,
            "byteOffset": 0
        },
        {
            "componentType": 5126,
            "type": "VEC4",
            "count": 31,
            "bufferView": 2,
            "byteOffset": 0
        },
        {
            "componentType": 5126,
            "type": "SCALAR",
            "count": 31,
            "bufferView": 3,
            "byteOffset": 0,
            "min": [
                0.0
            ],
            "max": [
                1.0
            ]
        },
        {
            "componentType": 5126,
            "type": "VEC4",
            "count": 31,
            "bufferView": 4,
            "byteOffset": 0
        },
        {
            "componentType": 5126,
            "type": "VEC4",
            "count": 31,
            "bufferView": 5,
            "byteOffset": 0
        },
        {
            "componentType": 5126,
            "type": "SCALAR",
            "count": 61,
            "bufferView": 6,
            "byteOffset": 0,
            "min": [
                0.0
            ],
            "max": [
                2.0
            ]
        },
        {
            "componentType": 5126,
            "type": "VEC4",
            "count": 61,
            "bufferView": 7,
            "byteOffset": 0
        },
        {
            "componentType": 5126,
            "type": "VEC4",
            "count": 61,
            "bufferView": 8,
            "byteOffset": 0
        },
        {
            "componentType": 5123,
            "type": "SCALAR",
            "count": 72,
            "bufferView": 9,
            "byteOffset": 0
        },
        {
            "componentType": 5126,
            "type": "VEC3",
            "count": 36,
            "bufferView": 10,
            "byteOffset": 0,
            "min": [
                -0.5,
                0.0,
                -0.300000011920929
            ],
            "max": [
                0.5,
                0.199999988079071,
                0.300000011920929
            ]
        },
        {
            "componentType": 5126,
            "type": "VEC3",
            "count": 36,
            "bufferView": 11,
            "byteOffset": 0
        },
        {
            "componentType": 5126,
            "type": "VEC4",
            "count": 36,
            "bufferView": 12,
            "byteOffset": 0
        },
        {
            "componentType": 5126,
            "type": "VEC2",
            "count": 36,
            "bufferView": 13,
            "byteOffset": 0
        },
        {
            "componentType": 5123,
            "type": "SCALAR",
            "count": 108,
            "bufferView": 14,
            "byteOffset": 0
        },
        {
            "componentType": 5126,
            "type": "VEC3",
            "count": 56,
            "bufferView": 15,
            "byteOffset": 0,
            "min": [
                -1.0,
                0.0,
                0.199999988079071
            ],
            "max": [
                0.0,
                1.0,
                0.799999952316284
            ]
        },
        {
            "componentType": 5126,
            "type": "VEC3",
            "count": 56,
            "bufferView": 16,
            "byteOffset": 0
        },
        {
            "componentType": 5126,
            "type": "VEC4",
            "count": 56,
            "bufferView": 17,
            "byteOffset": 0
        },
        {
            "componentType": 5126,
            "type": "VEC2",
            "count": 56,
            "bufferView": 18,
            "byteOffset": 0
        },
        {
            "componentType": 5123,
            "type": "SCALAR",
            "count": 372,
            "bufferView": 19,
            "byteOffset": 0
        },
        {
            "componentType": 5126,
            "type": "VEC3",
            "count": 180,
            "bufferView": 20,
            "byteOffset": 0,
            "min": [
                -0.399999976158142,
                -1.59634833130085e-10,
                -0.0999999940395355
            ],
            "max": [
                0.0249999035149813,
                0.899999976158142,
                0.0999999940395355
            ]
        },
        {
            "componentType": 5126,
            "type": "VEC3",
            "count": 180,
            "bufferView": 21,
            "byteOffset": 0
        },
        {
            "componentType": 5126,
            "type": "VEC4",
            "count": 180,
            "bufferView": 22,
            "byteOffset": 0
        },
        {
            "componentType": 5126,
            "type": "VEC2",
            "count": 180,
            "bufferView": 23,
            "byteOffset": 0
        },
        {
            "componentType": 5123,
            "type": "SCALAR",
            "count": 372,
            "bufferView": 24,
            "byteOffset": 0
        },
        {
            "componentType": 5126,
            "type": "VEC3",
            "count": 180,
            "bufferView": 25,
            "byteOffset": 0,
            "min": [
                -0.0249999035149813,
                -1.59634833130085e-10,
                -0.0999999940395355
            ],
            "max": [
                0.399999976158142,
                0.899999976158142,
                0.0999999940395355
            ]
        },
        {
            "componentType": 5126,
            "type": "VEC3",
            "count": 180,
            "bufferView": 26,
            "byteOffset": 0
        },
        {
            "componentType": 5126,
            "type": "VEC4",
            "count": 180,
            "bufferView": 27,
            "byteOffset": 0
        },
        {
            "componentType": 5126,
            "type": "VEC2",
            "count": 180,
            "bufferView": 28,
            "byteOffset": 0
        }
    ],
    "images": [
        {
            "name": "colormap.png",
            "uri": "colormap.png"
        }
    ],
    "samplers": [
        {}
    ],
    "textures": [
        {
            "name": "DiffuseColor_Texture",
            "sampler": 0,
            "source": 0
        }
    ],
    "materials": [
        {
            "name": "colormap",
            "alphaMode": "OPAQUE",
            "doubleSided": false,
            "extras": {
                "fromFBX": {
                    "shadingModel": "Lambert",
                    "isTruePBR": false
                }
            },
            "pbrMetallicRoughness": {
                "baseColorTexture": {
                    "index": 0,
                    "texCoord": 0
                },
                "baseColorFactor": [
                    1.0,
                    1.0,
                    1.0,
                    1.0
                ],
                "metallicFactor": 0.200000002980232,
                "roughnessFactor": 0.800000011920929
            }
        }
    ],
    "meshes": [
        {
            "name": "wall-door-rotate",
            "primitives": [
                {
                    "material": 0,
                    "mode": 4,
                    "attributes": {
                        "NORMAL": 11,
                        "POSITION": 10,
                        "TANGENT": 12,
                        "TEXCOORD_0": 13
                    },
                    "indices": 9
                }
            ]
        },
        {
            "name": "Group",
            "primitives": [
                {
                    "material": 0,
                    "mode": 4,
                    "attributes": {
                        "NORMAL": 16,
                        "POSITION": 15,
                        "TANGENT": 17,
                        "TEXCOORD_0": 18
                    },
                    "indices": 14
                }
            ]
        },
        {
            "name": "door-right",
            "primitives": [
                {
                    "material": 0,
                    "mode": 4,
                    "attributes": {
                        "NORMAL": 21,
                        "POSITION": 20,
                        "TANGENT": 22,
                        "TEXCOORD_0": 23
                    },
                    "indices": 19
                }
            ]
        },
        {
            "name": "door-left",
            "primitives": [
                {
                    "material": 0,
                    "mode": 4,
                    "attributes": {
                        "NORMAL": 26,
                        "POSITION": 25,
                        "TANGENT": 27,
                        "TEXCOORD_0": 28
                    },
                    "indices": 24
                }
            ]
        }
    ],
    "animations": [
        {
            "name": "open",
            "channels": [
                {
                    "sampler": 0,
                    "target": {
                        "node": 3,
                        "path": "rotation"
                    }
                },
                {
                    "sampler": 1,
                    "target": {
                        "node": 4,
                        "path": "rotation"
                    }
                }
            ],
            "samplers": [
                {
                    "input": 0,
                    "interpolation": "LINEAR",
                    "output": 1
                },
                {
                    "input": 0,
                    "interpolation": "LINEAR",
                    "output": 2
                }
            ]
        },
        {
            "name": "close",
            "channels": [
                {
                    "sampler": 0,
                    "target": {
                        "node": 3,
                        "path": "rotation"
                    }
                },
                {
                    "sampler": 1,
                    "target": {
                        "node": 4,
                        "path": "rotation"
                    }
                }
            ],
            "samplers": [
                {
                    "input": 3,
                    "interpolation": "LINEAR",
                    "output": 4
                },
                {
                    "input": 3,
                    "interpolation": "LINEAR",
                    "output": 5
                }
            ]
        },
        {
            "name": "open-and-close",
            "channels": [
                {
                    "sampler": 0,
                    "target": {
                        "node": 3,
                        "path": "rotation"
                    }
                },
                {
                    "sampler": 1,
                    "target": {
                        "node": 4,
                        "path": "rotation"
                    }
                }
            ],
            "samplers": [
                {
                    "input": 6,
                    "interpolation": "LINEAR",
                    "output": 7
                },
                {
                    "input": 6,
                    "interpolation": "LINEAR",
                    "output": 8
                }
            ]
        }
    ],
    "nodes": [
        {
            "name": "RootNode",
            "translation": [
                0.0,
                0.0,
                0.0
            ],
            "rotation": [
                0.0,
                0.0,
                0.0,
                1.0
            ],
            "scale": [
                1.0,
                1.0,
                1.0
            ],
            "children": [
                1
            ]
        },
        {
            "name": "wall-door-rotate",
            "translation": [
                0.0,
                0.0,
                0.0
            ],
            "rotation": [
                0.0,
                0.0,
                0.0,
                1.0
            ],
            "scale": [
                1.0,
                1.0,
                1.0
            ],
            "children": [
                2,
                3,
                4
            ],
            "mesh": 0
        },
        {
            "name": "Group",
            "translation": [
                0.5,
                0.0,
                -0.5
            ],
            "rotation": [
                0.0,
                0.0,
                0.0,
                1.0
            ],
            "scale": [
                1.0,
                1.0,
                1.0
            ],
            "mesh": 1
        },
        {
            "name": "door-right",
            "translation": [
                0.399999976158142,
                7.64978802525462e-10,
                0.0999999940395355
            ],
            "rotation": [
                0.0,
                0.0,
                0.0,
                1.0
            ],
            "scale": [
                1.0,
                1.0,
                1.0
            ],
            "mesh": 2
        },
        {
            "name": "door-left",
            "translation": [
                -0.399999976158142,
                7.64978802525462e-10,
                0.0999999940395355
            ],
            "rotation": [
                0.0,
                0.0,
                0.0,
                1.0
            ],
            "scale": [
                1.0,
                1.0,
                1.0
            ],
            "mesh": 3
        }
    ]
}