{
    "asset": {
        "generator": "FBX2glTF v0.13.1",
        "version": "2.0"
    },
    "scene": 0,
    "buffers": [
        {
            "byteLength": 52212,
            "uri": "buffer.bin"
        }
    ],
    "bufferViews": [
        {
            "buffer": 0,
            "byteLength": 372,
            "byteOffset": 0,
            "target": 34963
        },
        {
            "buffer": 0,
            "byteLength": 1104,
            "byteOffset": 372,
            "target": 34962
        },
        {
            "buffer": 0,
            "byteLength": 1104,
            "byteOffset": 1476,
            "target": 34962
        },
        {
            "buffer": 0,
            "byteLength": 736,
            "byteOffset": 2580,
            "target": 34962
        },
        {
            "buffer": 0,
            "byteLength": 852,
            "byteOffset": 3316,
            "target": 34963
        },
        {
            "buffer": 0,
            "byteLength": 1920,
            "byteOffset": 4168,
            "target": 34962
        },
        {
            "buffer": 0,
            "byteLength": 1920,
            "byteOffset": 6088,
            "target": 34962
        },
        {
            "buffer": 0,
            "byteLength": 1280,
            "byteOffset": 8008,
            "target": 34962
        },
        {
            "buffer": 0,
            "byteLength": 468,
            "byteOffset": 9288,
            "target": 34963
        },
        {
            "buffer": 0,
            "byteLength": 1536,
            "byteOffset": 9756,
            "target": 34962
        },
        {
            "buffer": 0,
            "byteLength": 1536,
            "byteOffset": 11292,
            "target": 34962
        },
        {
            "buffer": 0,
            "byteLength": 1024,
            "byteOffset": 12828,
            "target": 34962
        },
        {
            "buffer": 0,
            "byteLength": 120,
            "byteOffset": 13852,
            "target": 34963
        },
        {
            "buffer": 0,
            "byteLength": 480,
            "byteOffset": 13972,
            "target": 34962
        },
        {
            "buffer": 0,
            "byteLength": 480,
            "byteOffset": 14452,
            "target": 34962
        },
        {
            "buffer": 0,
            "byteLength": 320,
            "byteOffset": 14932,
            "target": 34962
        },
        {
            "buffer": 0,
            "byteLength": 156,
            "byteOffset": 15252,
            "target": 34963
        },
        {
            "buffer": 0,
            "byteLength": 504,
            "byteOffset": 15408,
            "target": 34962
        },
        {
            "buffer": 0,
            "byteLength": 504,
            "byteOffset": 15912,
            "target": 34962
        },
        {
            "buffer": 0,
            "byteLength": 336,
            "byteOffset": 16416,
            "target": 34962
        },
        {
            "buffer": 0,
            "byteLength": 960,
            "byteOffset": 16752,
            "target": 34963
        },
        {
            "buffer": 0,
            "byteLength": 2352,
            "byteOffset": 17712,
            "target": 34962
        },
        {
            "buffer": 0,
            "byteLength": 2352,
            "byteOffset": 20064,
            "target": 34962
        },
        {
            "buffer": 0,
            "byteLength": 1568,
            "byteOffset": 22416,
            "target": 34962
        },
        {
            "buffer": 0,
            "byteLength": 1824,
            "byteOffset": 23984,
            "target": 34963
        },
        {
            "buffer": 0,
            "byteLength": 6096,
            "byteOffset": 25808,
            "target": 34962
        },
        {
            "buffer": 0,
            "byteLength": 6096,
            "byteOffset": 31904,
            "target": 34962
        },
        {
            "buffer": 0,
            "byteLength": 4064,
            "byteOffset": 38000,
            "target": 34962
        },
        {
            "buffer": 0,
            "byteLength": 960,
            "byteOffset": 42064,
            "target": 34963
        },
        {
            "buffer": 0,
            "byteLength": 3216,
            "byteOffset": 43024,
            "target": 34962
        },
        {
            "buffer": 0,
            "byteLength": 3216,
            "byteOffset": 46240,
            "target": 34962
        },
        {
            "buffer": 0,
            "byteLength": 2144,
            "byteOffset": 49456,
            "target": 34962
        },
        {
            "buffer": 0,
            "byteLength": 36,
            "byteOffset": 51600,
            "target": 34963
        },
        {
            "buffer": 0,
            "byteLength": 216,
            "byteOffset": 51636,
            "target": 34962
        },
        {
            "buffer": 0,
            "byteLength": 216,
            "byteOffset": 51852,
            "target": 34962
        },
        {
            "buffer": 0,
            "byteLength": 144,
            "byteOffset": 52068,
            "target": 34962
        }
    ],
    "scenes": [
        {
            "name": "Root Scene",
            "nodes": [
                0
            ]
        }
    ],
    "accessors": [
        {
            "componentType": 5123,
            "type": "SCALAR",
            "count": 186,
            "bufferView": 0,
            "byteOffset": 0
        },
        {
            "componentType": 5126,
            "type": "VEC3",
            "count": 92,
            "bufferView": 1,
            "byteOffset": 0,
            "min": [
                -0.0139999995008111,
                0.00699999975040555,
                0.00499999988824129
            ],
            "max": [
                -0.000999999814666808,
                0.0379999987781048,
                0.0299033485352993
            ]
        },
        {
            "componentType": 5126,
            "type": "VEC3",
            "count": 92,
            "bufferView": 2,
            "byteOffset": 0
        },
        {
            "componentType": 5126,
            "type": "VEC2",
            "count": 92,
            "bufferView": 3,
            "byteOffset": 0
        },
        {
            "componentType": 5123,
            "type": "SCALAR",
            "count": 426,
            "bufferView": 4,
            "byteOffset": 0
        },
        {
            "componentType": 5126,
            "type": "VEC3",
            "count": 160,
            "bufferView": 5,
            "byteOffset": 0,
            "min": [
                -0.0160000007599592,
                0.0379999987781048,
                -0.0430000014603138
            ],
            "max": [
                0.000999999814666808,
                0.056999996304512,
                0.00400000018998981
            ]
        },
        {
            "componentType": 5126,
            "type": "VEC3",
            "count": 160,
            "bufferView": 6,
            "byteOffset": 0
        },
        {
            "componentType": 5126,
            "type": "VEC2",
            "count": 160,
            "bufferView": 7,
            "byteOffset": 0
        },
        {
            "componentType": 5123,
            "type": "SCALAR",
            "count": 234,
            "bufferView": 8,
            "byteOffset": 0
        },
        {
            "componentType": 5126,
            "type": "VEC3",
            "count": 128,
            "bufferView": 9,
            "byteOffset": 0,
            "min": [
                -0.0149999996647239,
                0.00499999988824129,
                -0.0430000014603138
            ],
            "max": [
                7.21911357868263e-17,
                0.0689999982714653,
                0.105999998748302
            ]
        },
        {
            "componentType": 5126,
            "type": "VEC3",
            "count": 128,
            "bufferView": 10,
            "byteOffset": 0
        },
        {
            "componentType": 5126,
            "type": "VEC2",
            "count": 128,
            "bufferView": 11,
            "byteOffset": 0
        },
        {
            "componentType": 5123,
            "type": "SCALAR",
            "count": 60,
            "bufferView": 12,
            "byteOffset": 0
        },
        {
            "componentType": 5126,
            "type": "VEC3",
            "count": 40,
            "bufferView": 13,
            "byteOffset": 0,
            "min": [
                -0.0139999995008111,
                0.00790673960000277,
                0.00600000005215406
            ],
            "max": [
                -0.000999999814666808,
                0.0379999987781048,
                0.0289033595472574
            ]
        },
        {
            "componentType": 5126,
            "type": "VEC3",
            "count": 40,
            "bufferView": 14,
            "byteOffset": 0
        },
        {
            "componentType": 5126,
            "type": "VEC2",
            "count": 40,
            "bufferView": 15,
            "byteOffset": 0
        },
        {
            "componentType": 5123,
            "type": "SCALAR",
            "count": 78,
            "bufferView": 16,
            "byteOffset": 0
        },
        {
            "componentType": 5126,
            "type": "VEC3",
            "count": 42,
            "bufferView": 17,
            "byteOffset": 0,
            "min": [
                -0.0179999992251396,
                0.0469999983906746,
                -0.0259999986737967
            ],
            "max": [
                0.00300000002607703,
                0.0590000003576279,
                0.00400000018998981
            ]
        },
        {
            "componentType": 5126,
            "type": "VEC3",
            "count": 42,
            "bufferView": 18,
            "byteOffset": 0
        },
        {
            "componentType": 5126,
            "type": "VEC2",
            "count": 42,
            "bufferView": 19,
            "byteOffset": 0
        },
        {
            "componentType": 5123,
            "type": "SCALAR",
            "count": 480,
            "bufferView": 20,
            "byteOffset": 0
        },
        {
            "componentType": 5126,
            "type": "VEC3",
            "count": 196,
            "bufferView": 21,
            "byteOffset": 0,
            "min": [
                -0.0149999996647239,
                0.0259999986737967,
                -0.0430000014603138
            ],
            "max": [
                7.21911357868263e-17,
                0.0740000009536743,
                0.0659999847412109
            ]
        },
        {
            "componentType": 5126,
            "type": "VEC3",
            "count": 196,
            "bufferView": 22,
            "byteOffset": 0
        },
        {
            "componentType": 5126,
            "type": "VEC2",
            "count": 196,
            "bufferView": 23,
            "byteOffset": 0
        },
        {
            "componentType": 5123,
            "type": "SCALAR",
            "count": 912,
            "bufferView": 24,
            "byteOffset": 0
        },
        {
            "componentType": 5126,
            "type": "VEC3",
            "count": 508,
            "bufferView": 25,
            "byteOffset": 0,
            "min": [
                -0.0148799996823072,
                0.0401199981570244,
                -0.0419999957084656
            ],
            "max": [
                -0.000119999996968545,
                0.0559999980032444,
                0.00899999961256981
            ]
        },
        {
            "componentType": 5126,
            "type": "VEC3",
            "count": 508,
            "bufferView": 26,
            "byteOffset": 0
        },
        {
            "componentType": 5126,
            "type": "VEC2",
            "count": 508,
            "bufferView": 27,
            "byteOffset": 0
        },
        {
            "componentType": 5123,
            "type": "SCALAR",
            "count": 480,
            "bufferView": 28,
            "byteOffset": 0
        },
        {
            "componentType": 5126,
            "type": "VEC3",
            "count": 268,
            "bufferView": 29,
            "byteOffset": 0,
            "min": [
                -0.0117499995976686,
                0.0259999986737967,
                -0.0499999970197678
            ],
            "max": [
                -0.00324999983422458,
                0.0540000014007092,
                0.0475454516708851
            ]
        },
        {
            "componentType": 5126,
            "type": "VEC3",
            "count": 268,
            "bufferView": 30,
            "byteOffset": 0
        },
        {
            "componentType": 5126,
            "type": "VEC2",
            "count": 268,
            "bufferView": 31,
            "byteOffset": 0
        },
        {
            "componentType": 5123,
            "type": "SCALAR",
            "count": 18,
            "bufferView": 32,
            "byteOffset": 0
        },
        {
            "componentType": 5126,
            "type": "VEC3",
            "count": 18,
            "bufferView": 33,
            "byteOffset": 0,
            "min": [
                -0.0139999995008111,
                0.0379999987781048,
                0.0020000000949949
            ],
            "max": [
                -0.000999999814666808,
                0.0559999980032444,
                0.0649999976158142
            ]
        },
        {
            "componentType": 5126,
            "type": "VEC3",
            "count": 18,
            "bufferView": 34,
            "byteOffset": 0
        },
        {
            "componentType": 5126,
            "type": "VEC2",
            "count": 18,
            "bufferView": 35,
            "byteOffset": 0
        }
    ],
    "samplers": [
        {}
    ],
    "materials": [
        {
            "name": "dark",
            "alphaMode": "OPAQUE",
            "doubleSided": false,
            "extras": {
                "fromFBX": {
                    "shadingModel": "Phong",
                    "isTruePBR": false
                }
            },
            "pbrMetallicRoughness": {
                "baseColorFactor": [
                    0.26666671037674,
                    0.26666671037674,
                    0.26666671037674,
                    1.0
                ],
                "metallicFactor": 0.400000005960464,
                "roughnessFactor": 1.0
            }
        },
        {
            "name": "greyDark",
            "alphaMode": "OPAQUE",
            "doubleSided": false,
            "extras": {
                "fromFBX": {
                    "shadingModel": "Phong",
                    "isTruePBR": false
                }
            },
            "pbrMetallicRoughness": {
                "baseColorFactor": [
                    0.25882351398468,
                    0.325490206480026,
                    0.376470595598221,
                    1.0
                ],
                "metallicFactor": 0.400000005960464,
                "roughnessFactor": 1.0
            }
        },
        {
            "name": "grey",
            "alphaMode": "OPAQUE",
            "doubleSided": false,
            "extras": {
                "fromFBX": {
                    "shadingModel": "Phong",
                    "isTruePBR": false
                }
            },
            "pbrMetallicRoughness": {
                "baseColorFactor": [
                    0.364705890417099,
                    0.454901993274689,
                    0.529411792755127,
                    1.0
                ],
                "metallicFactor": 0.400000005960464,
                "roughnessFactor": 1.0
            }
        },
        {
            "name": "_defaultMat",
            "alphaMode": "OPAQUE",
            "doubleSided": false,
            "extras": {
                "fromFBX": {
                    "shadingModel": "Phong",
                    "isTruePBR": false
                }
            },
            "pbrMetallicRoughness": {
                "baseColorFactor": [
                    1.0,
                    1.0,
                    1.0,
                    1.0
                ],
                "metallicFactor": 0.400000005960464,
                "roughnessFactor": 1.0
            }
        }
    ],
    "meshes": [
        {
            "name": "Group",
            "primitives": [
                {
                    "material": 0,
                    "mode": 4,
                    "attributes": {
                        "NORMAL": 2,
                        "POSITION": 1,
                        "TEXCOORD_0": 3
                    },
                    "indices": 0
                },
                {
                    "material": 1,
                    "mode": 4,
                    "attributes": {
                        "NORMAL": 14,
                        "POSITION": 13,
                        "TEXCOORD_0": 15
                    },
                    "indices": 12
                }
            ]
        },
        {
            "name": "Group",
            "primitives": [
                {
                    "material": 0,
                    "mode": 4,
                    "attributes": {
                        "NORMAL": 6,
                        "POSITION": 5,
                        "TEXCOORD_0": 7
                    },
                    "indices": 4
                },
                {
                    "material": 1,
                    "mode": 4,
                    "attributes": {
                        "NORMAL": 18,
                        "POSITION": 17,
                        "TEXCOORD_0": 19
                    },
                    "indices": 16
                },
                {
                    "material": 2,
                    "mode": 4,
                    "attributes": {
                        "NORMAL": 26,
                        "POSITION": 25,
                        "TEXCOORD_0": 27
                    },
                    "indices": 24
                }
            ]
        },
        {
            "name": "Group",
            "primitives": [
                {
                    "material": 0,
                    "mode": 4,
                    "attributes": {
                        "NORMAL": 10,
                        "POSITION": 9,
                        "TEXCOORD_0": 11
                    },
                    "indices": 8
                },
                {
                    "material": 1,
                    "mode": 4,
                    "attributes": {
                        "NORMAL": 22,
                        "POSITION": 21,
                        "TEXCOORD_0": 23
                    },
                    "indices": 20
                },
                {
                    "material": 2,
                    "mode": 4,
                    "attributes": {
                        "NORMAL": 30,
                        "POSITION": 29,
                        "TEXCOORD_0": 31
                    },
                    "indices": 28
                },
                {
                    "material": 3,
                    "mode": 4,
                    "attributes": {
                        "NORMAL": 34,
                        "POSITION": 33,
                        "TEXCOORD_0": 35
                    },
                    "indices": 32
                }
            ]
        }
    ],
    "nodes": [
        {
            "name": "RootNode",
            "translation": [
                0.0,
                0.0,
                0.0
            ],
            "rotation": [
                0.0,
                0.0,
                0.0,
                1.0
            ],
            "scale": [
                1.0,
                1.0,
                1.0
            ],
            "children": [
                1
            ]
        },
        {
            "name": "machinegunLauncher",
            "translation": [
                0.0,
                0.0,
                0.0
            ],
            "rotation": [
                0.0,
                0.0,
                0.0,
                1.0
            ],
            "scale": [
                3.82800006866455,
                3.82800006866455,
                3.82800006866455
            ],
            "children": [
                2,
                3,
                4
            ]
        },
        {
            "name": "Group",
            "translation": [
                0.00749999983236194,
                -0.00499999988824129,
                -0.0279999990016222
            ],
            "rotation": [
                0.0,
                0.0,
                0.0,
                1.0
            ],
            "scale": [
                1.0,
                1.0,
                1.0
            ],
            "mesh": 0
        },
        {
            "name": "Group",
            "translation": [
                0.00749999983236194,
                0.0739851966500282,
                -0.0689999982714653
            ],
            "rotation": [
                1.0,
                -6.12323426292584e-17,
                -6.12323426292584e-17,
                -4.56807009753535e-13
            ],
            "scale": [
                1.0,
                1.0,
                1.0
            ],
            "mesh": 1
        },
        {
            "name": "Group",
            "translation": [
                0.00749999983236194,
                -0.00499999988824129,
                -0.0279999990016222
            ],
            "rotation": [
                0.0,
                0.0,
                0.0,
                1.0
            ],
            "scale": [
                1.0,
                1.0,
                1.0
            ],
            "mesh": 2
        }
    ]
}