{
    "asset": {
        "generator": "FBX2glTF v0.13.1",
        "version": "2.0"
    },
    "scene": 0,
    "buffers": [
        {
            "byteLength": 7824,
            "uri": "buffer.bin"
        }
    ],
    "bufferViews": [
        {
            "buffer": 0,
            "byteLength": 96,
            "byteOffset": 0,
            "target": 34963
        },
        {
            "buffer": 0,
            "byteLength": 336,
            "byteOffset": 96,
            "target": 34962
        },
        {
            "buffer": 0,
            "byteLength": 336,
            "byteOffset": 432,
            "target": 34962
        },
        {
            "buffer": 0,
            "byteLength": 448,
            "byteOffset": 768,
            "target": 34962
        },
        {
            "buffer": 0,
            "byteLength": 224,
            "byteOffset": 1216,
            "target": 34962
        },
        {
            "buffer": 0,
            "byteLength": 72,
            "byteOffset": 1440,
            "target": 34963
        },
        {
            "buffer": 0,
            "byteLength": 192,
            "byteOffset": 1512,
            "target": 34962
        },
        {
            "buffer": 0,
            "byteLength": 192,
            "byteOffset": 1704,
            "target": 34962
        },
        {
            "buffer": 0,
            "byteLength": 256,
            "byteOffset": 1896,
            "target": 34962
        },
        {
            "buffer": 0,
            "byteLength": 128,
            "byteOffset": 2152,
            "target": 34962
        },
        {
            "buffer": 0,
            "byteLength": 72,
            "byteOffset": 2280,
            "target": 34963
        },
        {
            "buffer": 0,
            "byteLength": 240,
            "byteOffset": 2352,
            "target": 34962
        },
        {
            "buffer": 0,
            "byteLength": 240,
            "byteOffset": 2592,
            "target": 34962
        },
        {
            "buffer": 0,
            "byteLength": 320,
            "byteOffset": 2832,
            "target": 34962
        },
        {
            "buffer": 0,
            "byteLength": 160,
            "byteOffset": 3152,
            "target": 34962
        },
        {
            "buffer": 0,
            "byteLength": 288,
            "byteOffset": 3312,
            "target": 34963
        },
        {
            "buffer": 0,
            "byteLength": 1056,
            "byteOffset": 3600,
            "target": 34962
        },
        {
            "buffer": 0,
            "byteLength": 1056,
            "byteOffset": 4656,
            "target": 34962
        },
        {
            "buffer": 0,
            "byteLength": 1408,
            "byteOffset": 5712,
            "target": 34962
        },
        {
            "buffer": 0,
            "byteLength": 704,
            "byteOffset": 7120,
            "target": 34962
        }
    ],
    "scenes": [
        {
            "name": "Root Scene",
            "nodes": [
                0
            ]
        }
    ],
    "accessors": [
        {
            "componentType": 5123,
            "type": "SCALAR",
            "count": 48,
            "bufferView": 0,
            "byteOffset": 0
        },
        {
            "componentType": 5126,
            "type": "VEC3",
            "count": 28,
            "bufferView": 1,
            "byteOffset": 0,
            "min": [
                -0.5,
                0.0999999940395355,
                -0.5
            ],
            "max": [
                0.5,
                1.0,
                0.5
            ]
        },
        {
            "componentType": 5126,
            "type": "VEC3",
            "count": 28,
            "bufferView": 2,
            "byteOffset": 0
        },
        {
            "componentType": 5126,
            "type": "VEC4",
            "count": 28,
            "bufferView": 3,
            "byteOffset": 0
        },
        {
            "componentType": 5126,
            "type": "VEC2",
            "count": 28,
            "bufferView": 4,
            "byteOffset": 0
        },
        {
            "componentType": 5123,
            "type": "SCALAR",
            "count": 36,
            "bufferView": 5,
            "byteOffset": 0
        },
        {
            "componentType": 5126,
            "type": "VEC3",
            "count": 16,
            "bufferView": 6,
            "byteOffset": 0,
            "min": [
                -0.5,
                0.0,
                -0.5
            ],
            "max": [
                0.5,
                0.0,
                0.5
            ]
        },
        {
            "componentType": 5126,
            "type": "VEC3",
            "count": 16,
            "bufferView": 7,
            "byteOffset": 0
        },
        {
            "componentType": 5126,
            "type": "VEC4",
            "count": 16,
            "bufferView": 8,
            "byteOffset": 0
        },
        {
            "componentType": 5126,
            "type": "VEC2",
            "count": 16,
            "bufferView": 9,
            "byteOffset": 0
        },
        {
            "componentType": 5123,
            "type": "SCALAR",
            "count": 36,
            "bufferView": 10,
            "byteOffset": 0
        },
        {
            "componentType": 5126,
            "type": "VEC3",
            "count": 20,
            "bufferView": 11,
            "byteOffset": 0,
            "min": [
                -0.399999976158142,
                0.0,
                -0.5
            ],
            "max": [
                0.399999976158142,
                0.87639319896698,
                0.5
            ]
        },
        {
            "componentType": 5126,
            "type": "VEC3",
            "count": 20,
            "bufferView": 12,
            "byteOffset": 0
        },
        {
            "componentType": 5126,
            "type": "VEC4",
            "count": 20,
            "bufferView": 13,
            "byteOffset": 0
        },
        {
            "componentType": 5126,
            "type": "VEC2",
            "count": 20,
            "bufferView": 14,
            "byteOffset": 0
        },
        {
            "componentType": 5123,
            "type": "SCALAR",
            "count": 144,
            "bufferView": 15,
            "byteOffset": 0
        },
        {
            "componentType": 5126,
            "type": "VEC3",
            "count": 88,
            "bufferView": 16,
            "byteOffset": 0,
            "min": [
                -0.5,
                0.0,
                -0.5
            ],
            "max": [
                0.5,
                1.0,
                0.5
            ]
        },
        {
            "componentType": 5126,
            "type": "VEC3",
            "count": 88,
            "bufferView": 17,
            "byteOffset": 0
        },
        {
            "componentType": 5126,
            "type": "VEC4",
            "count": 88,
            "bufferView": 18,
            "byteOffset": 0
        },
        {
            "componentType": 5126,
            "type": "VEC2",
            "count": 88,
            "bufferView": 19,
            "byteOffset": 0
        }
    ],
    "images": [
        {
            "name": "planks.png",
            "uri": "planks.png"
        },
        {
            "name": "roof.png",
            "uri": "roof.png"
        },
        {
            "name": "cobblestoneAlternative.png",
            "uri": "cobblestoneAlternative.png"
        },
        {
            "name": "cobblestone.png",
            "uri": "cobblestone.png"
        }
    ],
    "samplers": [
        {}
    ],
    "textures": [
        {
            "name": "DiffuseColor_Texture",
            "sampler": 0,
            "source": 0
        },
        {
            "name": "DiffuseColor_Texture_1",
            "sampler": 0,
            "source": 1
        },
        {
            "name": "DiffuseColor_Texture_2",
            "sampler": 0,
            "source": 2
        },
        {
            "name": "DiffuseColor_Texture_3",
            "sampler": 0,
            "source": 3
        }
    ],
    "materials": [
        {
            "name": "planks",
            "alphaMode": "BLEND",
            "doubleSided": false,
            "extras": {
                "fromFBX": {
                    "shadingModel": "Lambert",
                    "isTruePBR": false
                }
            },
            "pbrMetallicRoughness": {
                "baseColorTexture": {
                    "index": 0,
                    "texCoord": 0
                },
                "baseColorFactor": [
                    1.0,
                    1.0,
                    1.0,
                    1.0
                ],
                "metallicFactor": 0.200000002980232,
                "roughnessFactor": 0.800000011920929
            }
        },
        {
            "name": "roof",
            "alphaMode": "OPAQUE",
            "doubleSided": false,
            "extras": {
                "fromFBX": {
                    "shadingModel": "Lambert",
                    "isTruePBR": false
                }
            },
            "pbrMetallicRoughness": {
                "baseColorTexture": {
                    "index": 1,
                    "texCoord": 0
                },
                "baseColorFactor": [
                    1.0,
                    1.0,
                    1.0,
                    1.0
                ],
                "metallicFactor": 0.200000002980232,
                "roughnessFactor": 0.800000011920929
            }
        },
        {
            "name": "bricks",
            "alphaMode": "OPAQUE",
            "doubleSided": false,
            "extras": {
                "fromFBX": {
                    "shadingModel": "Lambert",
                    "isTruePBR": false
                }
            },
            "pbrMetallicRoughness": {
                "baseColorTexture": {
                    "index": 2,
                    "texCoord": 0
                },
                "baseColorFactor": [
                    1.0,
                    1.0,
                    1.0,
                    1.0
                ],
                "metallicFactor": 0.200000002980232,
                "roughnessFactor": 0.800000011920929
            }
        },
        {
            "name": "stones",
            "alphaMode": "OPAQUE",
            "doubleSided": false,
            "extras": {
                "fromFBX": {
                    "shadingModel": "Lambert",
                    "isTruePBR": false
                }
            },
            "pbrMetallicRoughness": {
                "baseColorTexture": {
                    "index": 3,
                    "texCoord": 0
                },
                "baseColorFactor": [
                    1.0,
                    1.0,
                    1.0,
                    1.0
                ],
                "metallicFactor": 0.200000002980232,
                "roughnessFactor": 0.800000011920929
            }
        }
    ],
    "meshes": [
        {
            "name": "roof",
            "primitives": [
                {
                    "material": 1,
                    "mode": 4,
                    "attributes": {
                        "NORMAL": 2,
                        "POSITION": 1,
                        "TANGENT": 3,
                        "TEXCOORD_0": 4
                    },
                    "indices": 0
                },
                {
                    "material": 2,
                    "mode": 4,
                    "attributes": {
                        "NORMAL": 7,
                        "POSITION": 6,
                        "TANGENT": 8,
                        "TEXCOORD_0": 9
                    },
                    "indices": 5
                },
                {
                    "material": 3,
                    "mode": 4,
                    "attributes": {
                        "NORMAL": 12,
                        "POSITION": 11,
                        "TANGENT": 13,
                        "TEXCOORD_0": 14
                    },
                    "indices": 10
                },
                {
                    "material": 0,
                    "mode": 4,
                    "attributes": {
                        "NORMAL": 17,
                        "POSITION": 16,
                        "TANGENT": 18,
                        "TEXCOORD_0": 19
                    },
                    "indices": 15
                }
            ]
        }
    ],
    "nodes": [
        {
            "name": "RootNode",
            "translation": [
                0.0,
                0.0,
                0.0
            ],
            "rotation": [
                0.0,
                0.0,
                0.0,
                1.0
            ],
            "scale": [
                1.0,
                1.0,
                1.0
            ],
            "children": [
                1
            ]
        },
        {
            "name": "roof",
            "translation": [
                0.0,
                0.0,
                0.0
            ],
            "rotation": [
                0.0,
                0.0,
                0.0,
                1.0
            ],
            "scale": [
                1.0,
                1.0,
                1.0
            ],
            "mesh": 0
        }
    ]
}