{
    "asset": {
        "generator": "FBX2glTF v0.13.1",
        "version": "2.0"
    },
    "scene": 0,
    "buffers": [
        {
            "byteLength": 24048,
            "uri": "buffer.bin"
        }
    ],
    "bufferViews": [
        {
            "buffer": 0,
            "byteLength": 528,
            "byteOffset": 0,
            "target": 34963
        },
        {
            "buffer": 0,
            "byteLength": 1872,
            "byteOffset": 528,
            "target": 34962
        },
        {
            "buffer": 0,
            "byteLength": 1872,
            "byteOffset": 2400,
            "target": 34962
        },
        {
            "buffer": 0,
            "byteLength": 2496,
            "byteOffset": 4272,
            "target": 34962
        },
        {
            "buffer": 0,
            "byteLength": 1248,
            "byteOffset": 6768,
            "target": 34962
        },
        {
            "buffer": 0,
            "byteLength": 528,
            "byteOffset": 8016,
            "target": 34963
        },
        {
            "buffer": 0,
            "byteLength": 1872,
            "byteOffset": 8544,
            "target": 34962
        },
        {
            "buffer": 0,
            "byteLength": 1872,
            "byteOffset": 10416,
            "target": 34962
        },
        {
            "buffer": 0,
            "byteLength": 2496,
            "byteOffset": 12288,
            "target": 34962
        },
        {
            "buffer": 0,
            "byteLength": 1248,
            "byteOffset": 14784,
            "target": 34962
        },
        {
            "buffer": 0,
            "byteLength": 528,
            "byteOffset": 16032,
            "target": 34963
        },
        {
            "buffer": 0,
            "byteLength": 1872,
            "byteOffset": 16560,
            "target": 34962
        },
        {
            "buffer": 0,
            "byteLength": 1872,
            "byteOffset": 18432,
            "target": 34962
        },
        {
            "buffer": 0,
            "byteLength": 2496,
            "byteOffset": 20304,
            "target": 34962
        },
        {
            "buffer": 0,
            "byteLength": 1248,
            "byteOffset": 22800,
            "target": 34962
        }
    ],
    "scenes": [
        {
            "name": "Root Scene",
            "nodes": [
                0
            ]
        }
    ],
    "accessors": [
        {
            "componentType": 5123,
            "type": "SCALAR",
            "count": 264,
            "bufferView": 0,
            "byteOffset": 0
        },
        {
            "componentType": 5126,
            "type": "VEC3",
            "count": 156,
            "bufferView": 1,
            "byteOffset": 0,
            "min": [
                -0.158376961946487,
                0.0,
                -0.158376961946487
            ],
            "max": [
                0.158376961946487,
                0.13704851269722,
                0.158376961946487
            ]
        },
        {
            "componentType": 5126,
            "type": "VEC3",
            "count": 156,
            "bufferView": 2,
            "byteOffset": 0
        },
        {
            "componentType": 5126,
            "type": "VEC4",
            "count": 156,
            "bufferView": 3,
            "byteOffset": 0
        },
        {
            "componentType": 5126,
            "type": "VEC2",
            "count": 156,
            "bufferView": 4,
            "byteOffset": 0
        },
        {
            "componentType": 5123,
            "type": "SCALAR",
            "count": 264,
            "bufferView": 5,
            "byteOffset": 0
        },
        {
            "componentType": 5126,
            "type": "VEC3",
            "count": 156,
            "bufferView": 6,
            "byteOffset": 0,
            "min": [
                -0.169331699609756,
                0.0,
                -0.169331699609756
            ],
            "max": [
                0.169331699609756,
                0.13704851269722,
                0.169331699609756
            ]
        },
        {
            "componentType": 5126,
            "type": "VEC3",
            "count": 156,
            "bufferView": 7,
            "byteOffset": 0
        },
        {
            "componentType": 5126,
            "type": "VEC4",
            "count": 156,
            "bufferView": 8,
            "byteOffset": 0
        },
        {
            "componentType": 5126,
            "type": "VEC2",
            "count": 156,
            "bufferView": 9,
            "byteOffset": 0
        },
        {
            "componentType": 5123,
            "type": "SCALAR",
            "count": 264,
            "bufferView": 10,
            "byteOffset": 0
        },
        {
            "componentType": 5126,
            "type": "VEC3",
            "count": 156,
            "bufferView": 11,
            "byteOffset": 0,
            "min": [
                -0.189009219408035,
                0.0,
                -0.189009219408035
            ],
            "max": [
                0.189009219408035,
                0.13704851269722,
                0.189009219408035
            ]
        },
        {
            "componentType": 5126,
            "type": "VEC3",
            "count": 156,
            "bufferView": 12,
            "byteOffset": 0
        },
        {
            "componentType": 5126,
            "type": "VEC4",
            "count": 156,
            "bufferView": 13,
            "byteOffset": 0
        },
        {
            "componentType": 5126,
            "type": "VEC2",
            "count": 156,
            "bufferView": 14,
            "byteOffset": 0
        }
    ],
    "images": [
        {
            "name": "colormap.png",
            "uri": "colormap.png"
        }
    ],
    "samplers": [
        {}
    ],
    "textures": [
        {
            "name": "DiffuseColor_Texture",
            "sampler": 0,
            "source": 0
        }
    ],
    "materials": [
        {
            "name": "colormap",
            "alphaMode": "OPAQUE",
            "doubleSided": false,
            "extras": {
                "fromFBX": {
                    "shadingModel": "Lambert",
                    "isTruePBR": false
                }
            },
            "pbrMetallicRoughness": {
                "baseColorTexture": {
                    "index": 0,
                    "texCoord": 0
                },
                "baseColorFactor": [
                    1.0,
                    1.0,
                    1.0,
                    1.0
                ],
                "metallicFactor": 0.200000002980232,
                "roughnessFactor": 0.800000011920929
            }
        }
    ],
    "meshes": [
        {
            "name": "Group",
            "primitives": [
                {
                    "material": 0,
                    "mode": 4,
                    "attributes": {
                        "NORMAL": 2,
                        "POSITION": 1,
                        "TANGENT": 3,
                        "TEXCOORD_0": 4
                    },
                    "indices": 0
                }
            ]
        },
        {
            "name": "Group_1",
            "primitives": [
                {
                    "material": 0,
                    "mode": 4,
                    "attributes": {
                        "NORMAL": 7,
                        "POSITION": 6,
                        "TANGENT": 8,
                        "TEXCOORD_0": 9
                    },
                    "indices": 5
                }
            ]
        },
        {
            "name": "Group_2",
            "primitives": [
                {
                    "material": 0,
                    "mode": 4,
                    "attributes": {
                        "NORMAL": 12,
                        "POSITION": 11,
                        "TANGENT": 13,
                        "TEXCOORD_0": 14
                    },
                    "indices": 10
                }
            ]
        }
    ],
    "nodes": [
        {
            "name": "RootNode",
            "translation": [
                0.0,
                0.0,
                0.0
            ],
            "rotation": [
                0.0,
                0.0,
                0.0,
                1.0
            ],
            "scale": [
                1.0,
                1.0,
                1.0
            ],
            "children": [
                1
            ]
        },
        {
            "name": "flowers",
            "translation": [
                0.0,
                0.0,
                0.0
            ],
            "rotation": [
                0.0,
                0.0,
                0.0,
                1.0
            ],
            "scale": [
                1.0,
                1.0,
                1.0
            ],
            "children": [
                2,
                3,
                4
            ]
        },
        {
            "name": "Group",
            "translation": [
                -0.220241948962212,
                0.0,
                -0.101750038564205
            ],
            "rotation": [
                0.0,
                0.0,
                0.0,
                1.0
            ],
            "scale": [
                1.0,
                1.0,
                1.0
            ],
            "mesh": 0
        },
        {
            "name": "Group_1",
            "translation": [
                0.0906313583254814,
                0.0,
                0.214423611760139
            ],
            "rotation": [
                0.0,
                0.0,
                0.0,
                1.0
            ],
            "scale": [
                1.0,
                1.0,
                1.0
            ],
            "mesh": 1
        },
        {
            "name": "Group_2",
            "translation": [
                0.209009110927582,
                0.0,
                -0.212887421250343
            ],
            "rotation": [
                0.0,
                0.0,
                0.0,
                1.0
            ],
            "scale": [
                1.0,
                1.0,
                1.0
            ],
            "mesh": 2
        }
    ]
}