{
    "asset": {
        "generator": "FBX2glTF v0.13.1",
        "version": "2.0"
    },
    "scene": 0,
    "buffers": [
        {
            "byteLength": 69556,
            "uri": "buffer.bin"
        }
    ],
    "bufferViews": [
        {
            "buffer": 0,
            "byteLength": 6198,
            "byteOffset": 0,
            "target": 34963
        },
        {
            "buffer": 0,
            "byteLength": 17052,
            "byteOffset": 6200,
            "target": 34962
        },
        {
            "buffer": 0,
            "byteLength": 17052,
            "byteOffset": 23252,
            "target": 34962
        },
        {
            "buffer": 0,
            "byteLength": 11368,
            "byteOffset": 40304,
            "target": 34962
        },
        {
            "buffer": 0,
            "byteLength": 1440,
            "byteOffset": 51672,
            "target": 34963
        },
        {
            "buffer": 0,
            "byteLength": 5760,
            "byteOffset": 53112,
            "target": 34962
        },
        {
            "buffer": 0,
            "byteLength": 5760,
            "byteOffset": 58872,
            "target": 34962
        },
        {
            "buffer": 0,
            "byteLength": 3840,
            "byteOffset": 64632,
            "target": 34962
        },
        {
            "buffer": 0,
            "byteLength": 90,
            "byteOffset": 68472,
            "target": 34963
        },
        {
            "buffer": 0,
            "byteLength": 372,
            "byteOffset": 68564,
            "target": 34962
        },
        {
            "buffer": 0,
            "byteLength": 372,
            "byteOffset": 68936,
            "target": 34962
        },
        {
            "buffer": 0,
            "byteLength": 248,
            "byteOffset": 69308,
            "target": 34962
        }
    ],
    "scenes": [
        {
            "name": "Root Scene",
            "nodes": [
                0
            ]
        }
    ],
    "accessors": [
        {
            "componentType": 5123,
            "type": "SCALAR",
            "count": 3099,
            "bufferView": 0,
            "byteOffset": 0
        },
        {
            "componentType": 5126,
            "type": "VEC3",
            "count": 1421,
            "bufferView": 1,
            "byteOffset": 0,
            "min": [
                -0.00999999977648258,
                0.0,
                -0.00999999977648258
            ],
            "max": [
                0.00999999977648258,
                0.0379999987781048,
                0.00999999977648258
            ]
        },
        {
            "componentType": 5126,
            "type": "VEC3",
            "count": 1421,
            "bufferView": 2,
            "byteOffset": 0
        },
        {
            "componentType": 5126,
            "type": "VEC2",
            "count": 1421,
            "bufferView": 3,
            "byteOffset": 0
        },
        {
            "componentType": 5123,
            "type": "SCALAR",
            "count": 720,
            "bufferView": 4,
            "byteOffset": 0
        },
        {
            "componentType": 5126,
            "type": "VEC3",
            "count": 480,
            "bufferView": 5,
            "byteOffset": 0,
            "min": [
                -0.00723034283146262,
                0.00699999975040555,
                -0.00723034283146262
            ],
            "max": [
                0.00723034283146262,
                0.0320000015199184,
                0.00723034283146262
            ]
        },
        {
            "componentType": 5126,
            "type": "VEC3",
            "count": 480,
            "bufferView": 6,
            "byteOffset": 0
        },
        {
            "componentType": 5126,
            "type": "VEC2",
            "count": 480,
            "bufferView": 7,
            "byteOffset": 0
        },
        {
            "componentType": 5123,
            "type": "SCALAR",
            "count": 45,
            "bufferView": 8,
            "byteOffset": 0
        },
        {
            "componentType": 5126,
            "type": "VEC3",
            "count": 31,
            "bufferView": 9,
            "byteOffset": 0,
            "min": [
                -0.00133333296980709,
                0.0379999987781048,
                -0.00649999966844916
            ],
            "max": [
                0.00133333296980709,
                0.0919999927282333,
                0.00649999966844916
            ]
        },
        {
            "componentType": 5126,
            "type": "VEC3",
            "count": 31,
            "bufferView": 10,
            "byteOffset": 0
        },
        {
            "componentType": 5126,
            "type": "VEC2",
            "count": 31,
            "bufferView": 11,
            "byteOffset": 0
        }
    ],
    "samplers": [
        {}
    ],
    "materials": [
        {
            "name": "greyDark",
            "alphaMode": "OPAQUE",
            "doubleSided": false,
            "extras": {
                "fromFBX": {
                    "shadingModel": "Phong",
                    "isTruePBR": false
                }
            },
            "pbrMetallicRoughness": {
                "baseColorFactor": [
                    0.25882351398468,
                    0.325490206480026,
                    0.376470595598221,
                    1.0
                ],
                "metallicFactor": 0.400000005960464,
                "roughnessFactor": 1.0
            }
        },
        {
            "name": "dark",
            "alphaMode": "OPAQUE",
            "doubleSided": false,
            "extras": {
                "fromFBX": {
                    "shadingModel": "Phong",
                    "isTruePBR": false
                }
            },
            "pbrMetallicRoughness": {
                "baseColorFactor": [
                    0.26666671037674,
                    0.26666671037674,
                    0.26666671037674,
                    1.0
                ],
                "metallicFactor": 0.400000005960464,
                "roughnessFactor": 1.0
            }
        },
        {
            "name": "greyLight",
            "alphaMode": "OPAQUE",
            "doubleSided": false,
            "extras": {
                "fromFBX": {
                    "shadingModel": "Phong",
                    "isTruePBR": false
                }
            },
            "pbrMetallicRoughness": {
                "baseColorFactor": [
                    0.843137323856354,
                    0.870588183403015,
                    0.890196084976196,
                    1.0
                ],
                "metallicFactor": 0.400000005960464,
                "roughnessFactor": 1.0
            }
        }
    ],
    "meshes": [
        {
            "name": "knife_sharp",
            "primitives": [
                {
                    "material": 0,
                    "mode": 4,
                    "attributes": {
                        "NORMAL": 2,
                        "POSITION": 1,
                        "TEXCOORD_0": 3
                    },
                    "indices": 0
                },
                {
                    "material": 1,
                    "mode": 4,
                    "attributes": {
                        "NORMAL": 6,
                        "POSITION": 5,
                        "TEXCOORD_0": 7
                    },
                    "indices": 4
                },
                {
                    "material": 2,
                    "mode": 4,
                    "attributes": {
                        "NORMAL": 10,
                        "POSITION": 9,
                        "TEXCOORD_0": 11
                    },
                    "indices": 8
                }
            ]
        }
    ],
    "nodes": [
        {
            "name": "RootNode",
            "translation": [
                0.0,
                0.0,
                0.0
            ],
            "rotation": [
                0.0,
                0.0,
                0.0,
                1.0
            ],
            "scale": [
                1.0,
                1.0,
                1.0
            ],
            "children": [
                1
            ]
        },
        {
            "name": "knife_sharp",
            "translation": [
                0.0,
                0.0,
                0.0
            ],
            "rotation": [
                0.0,
                0.0,
                0.0,
                1.0
            ],
            "scale": [
                2.87100005149841,
                3.82800006866455,
                3.82800006866455
            ],
            "mesh": 0
        }
    ]
}