{
    "asset": {
        "generator": "FBX2glTF v0.13.1",
        "version": "2.0"
    },
    "scene": 0,
    "buffers": [
        {
            "byteLength": 123996,
            "uri": "buffer.bin"
        }
    ],
    "bufferViews": [
        {
            "buffer": 0,
            "byteLength": 6036,
            "byteOffset": 0,
            "target": 34963
        },
        {
            "buffer": 0,
            "byteLength": 18156,
            "byteOffset": 6036,
            "target": 34962
        },
        {
            "buffer": 0,
            "byteLength": 18156,
            "byteOffset": 24192,
            "target": 34962
        },
        {
            "buffer": 0,
            "byteLength": 24208,
            "byteOffset": 42348,
            "target": 34962
        },
        {
            "buffer": 0,
            "byteLength": 12104,
            "byteOffset": 66556,
            "target": 34962
        },
        {
            "buffer": 0,
            "byteLength": 1896,
            "byteOffset": 78660,
            "target": 34963
        },
        {
            "buffer": 0,
            "byteLength": 5160,
            "byteOffset": 80556,
            "target": 34962
        },
        {
            "buffer": 0,
            "byteLength": 5160,
            "byteOffset": 85716,
            "target": 34962
        },
        {
            "buffer": 0,
            "byteLength": 6880,
            "byteOffset": 90876,
            "target": 34962
        },
        {
            "buffer": 0,
            "byteLength": 3440,
            "byteOffset": 97756,
            "target": 34962
        },
        {
            "buffer": 0,
            "byteLength": 516,
            "byteOffset": 101196,
            "target": 34963
        },
        {
            "buffer": 0,
            "byteLength": 1296,
            "byteOffset": 101712,
            "target": 34962
        },
        {
            "buffer": 0,
            "byteLength": 1296,
            "byteOffset": 103008,
            "target": 34962
        },
        {
            "buffer": 0,
            "byteLength": 1728,
            "byteOffset": 104304,
            "target": 34962
        },
        {
            "buffer": 0,
            "byteLength": 864,
            "byteOffset": 106032,
            "target": 34962
        },
        {
            "buffer": 0,
            "byteLength": 516,
            "byteOffset": 106896,
            "target": 34963
        },
        {
            "buffer": 0,
            "byteLength": 1296,
            "byteOffset": 107412,
            "target": 34962
        },
        {
            "buffer": 0,
            "byteLength": 1296,
            "byteOffset": 108708,
            "target": 34962
        },
        {
            "buffer": 0,
            "byteLength": 1728,
            "byteOffset": 110004,
            "target": 34962
        },
        {
            "buffer": 0,
            "byteLength": 864,
            "byteOffset": 111732,
            "target": 34962
        },
        {
            "buffer": 0,
            "byteLength": 516,
            "byteOffset": 112596,
            "target": 34963
        },
        {
            "buffer": 0,
            "byteLength": 1296,
            "byteOffset": 113112,
            "target": 34962
        },
        {
            "buffer": 0,
            "byteLength": 1296,
            "byteOffset": 114408,
            "target": 34962
        },
        {
            "buffer": 0,
            "byteLength": 1728,
            "byteOffset": 115704,
            "target": 34962
        },
        {
            "buffer": 0,
            "byteLength": 864,
            "byteOffset": 117432,
            "target": 34962
        },
        {
            "buffer": 0,
            "byteLength": 516,
            "byteOffset": 118296,
            "target": 34963
        },
        {
            "buffer": 0,
            "byteLength": 1296,
            "byteOffset": 118812,
            "target": 34962
        },
        {
            "buffer": 0,
            "byteLength": 1296,
            "byteOffset": 120108,
            "target": 34962
        },
        {
            "buffer": 0,
            "byteLength": 1728,
            "byteOffset": 121404,
            "target": 34962
        },
        {
            "buffer": 0,
            "byteLength": 864,
            "byteOffset": 123132,
            "target": 34962
        }
    ],
    "scenes": [
        {
            "name": "Root Scene",
            "nodes": [
                0
            ]
        }
    ],
    "accessors": [
        {
            "componentType": 5123,
            "type": "SCALAR",
            "count": 3018,
            "bufferView": 0,
            "byteOffset": 0
        },
        {
            "componentType": 5126,
            "type": "VEC3",
            "count": 1513,
            "bufferView": 1,
            "byteOffset": 0,
            "min": [
                -0.714666187763214,
                0.141872078180313,
                -1.29999995231628
            ],
            "max": [
                0.714666187763214,
                1.65949928760529,
                1.29999995231628
            ]
        },
        {
            "componentType": 5126,
            "type": "VEC3",
            "count": 1513,
            "bufferView": 2,
            "byteOffset": 0
        },
        {
            "componentType": 5126,
            "type": "VEC4",
            "count": 1513,
            "bufferView": 3,
            "byteOffset": 0
        },
        {
            "componentType": 5126,
            "type": "VEC2",
            "count": 1513,
            "bufferView": 4,
            "byteOffset": 0
        },
        {
            "componentType": 5123,
            "type": "SCALAR",
            "count": 948,
            "bufferView": 5,
            "byteOffset": 0
        },
        {
            "componentType": 5126,
            "type": "VEC3",
            "count": 430,
            "bufferView": 6,
            "byteOffset": 0,
            "min": [
                -0.491499960422516,
                -0.359499365091324,
                -0.380595803260803
            ],
            "max": [
                0.491499960422516,
                0.0,
                0.380595803260803
            ]
        },
        {
            "componentType": 5126,
            "type": "VEC3",
            "count": 430,
            "bufferView": 7,
            "byteOffset": 0
        },
        {
            "componentType": 5126,
            "type": "VEC4",
            "count": 430,
            "bufferView": 8,
            "byteOffset": 0
        },
        {
            "componentType": 5126,
            "type": "VEC2",
            "count": 430,
            "bufferView": 9,
            "byteOffset": 0
        },
        {
            "componentType": 5123,
            "type": "SCALAR",
            "count": 258,
            "bufferView": 10,
            "byteOffset": 0
        },
        {
            "componentType": 5126,
            "type": "VEC3",
            "count": 108,
            "bufferView": 11,
            "byteOffset": 0,
            "min": [
                -0.0814999938011169,
                -0.269624531269073,
                -0.283499985933304
            ],
            "max": [
                0.0814999938011169,
                0.269624531269073,
                0.283499985933304
            ]
        },
        {
            "componentType": 5126,
            "type": "VEC3",
            "count": 108,
            "bufferView": 12,
            "byteOffset": 0
        },
        {
            "componentType": 5126,
            "type": "VEC4",
            "count": 108,
            "bufferView": 13,
            "byteOffset": 0
        },
        {
            "componentType": 5126,
            "type": "VEC2",
            "count": 108,
            "bufferView": 14,
            "byteOffset": 0
        },
        {
            "componentType": 5123,
            "type": "SCALAR",
            "count": 258,
            "bufferView": 15,
            "byteOffset": 0
        },
        {
            "componentType": 5126,
            "type": "VEC3",
            "count": 108,
            "bufferView": 16,
            "byteOffset": 0,
            "min": [
                -0.0814999938011169,
                -0.269624531269073,
                -0.283499985933304
            ],
            "max": [
                0.0814999938011169,
                0.269624531269073,
                0.283499985933304
            ]
        },
        {
            "componentType": 5126,
            "type": "VEC3",
            "count": 108,
            "bufferView": 17,
            "byteOffset": 0
        },
        {
            "componentType": 5126,
            "type": "VEC4",
            "count": 108,
            "bufferView": 18,
            "byteOffset": 0
        },
        {
            "componentType": 5126,
            "type": "VEC2",
            "count": 108,
            "bufferView": 19,
            "byteOffset": 0
        },
        {
            "componentType": 5123,
            "type": "SCALAR",
            "count": 258,
            "bufferView": 20,
            "byteOffset": 0
        },
        {
            "componentType": 5126,
            "type": "VEC3",
            "count": 108,
            "bufferView": 21,
            "byteOffset": 0,
            "min": [
                -0.0814999938011169,
                -0.269624531269073,
                -0.283499985933304
            ],
            "max": [
                0.0814999938011169,
                0.269624531269073,
                0.283499985933304
            ]
        },
        {
            "componentType": 5126,
            "type": "VEC3",
            "count": 108,
            "bufferView": 22,
            "byteOffset": 0
        },
        {
            "componentType": 5126,
            "type": "VEC4",
            "count": 108,
            "bufferView": 23,
            "byteOffset": 0
        },
        {
            "componentType": 5126,
            "type": "VEC2",
            "count": 108,
            "bufferView": 24,
            "byteOffset": 0
        },
        {
            "componentType": 5123,
            "type": "SCALAR",
            "count": 258,
            "bufferView": 25,
            "byteOffset": 0
        },
        {
            "componentType": 5126,
            "type": "VEC3",
            "count": 108,
            "bufferView": 26,
            "byteOffset": 0,
            "min": [
                -0.0814999938011169,
                -0.269624531269073,
                -0.283499985933304
            ],
            "max": [
                0.0814999938011169,
                0.269624531269073,
                0.283499985933304
            ]
        },
        {
            "componentType": 5126,
            "type": "VEC3",
            "count": 108,
            "bufferView": 27,
            "byteOffset": 0
        },
        {
            "componentType": 5126,
            "type": "VEC4",
            "count": 108,
            "bufferView": 28,
            "byteOffset": 0
        },
        {
            "componentType": 5126,
            "type": "VEC2",
            "count": 108,
            "bufferView": 29,
            "byteOffset": 0
        }
    ],
    "images": [
        {
            "name": "colormap.png",
            "uri": "colormap.png"
        }
    ],
    "samplers": [
        {}
    ],
    "textures": [
        {
            "name": "DiffuseColor_Texture",
            "sampler": 0,
            "source": 0
        }
    ],
    "materials": [
        {
            "name": "colormap",
            "alphaMode": "OPAQUE",
            "doubleSided": false,
            "extras": {
                "fromFBX": {
                    "shadingModel": "Lambert",
                    "isTruePBR": false
                }
            },
            "pbrMetallicRoughness": {
                "baseColorTexture": {
                    "index": 0,
                    "texCoord": 0
                },
                "baseColorFactor": [
                    1.0,
                    1.0,
                    1.0,
                    1.0
                ],
                "metallicFactor": 0.200000002980232,
                "roughnessFactor": 0.800000011920929
            }
        }
    ],
    "meshes": [
        {
            "name": "train-locomotive-a",
            "primitives": [
                {
                    "material": 0,
                    "mode": 4,
                    "attributes": {
                        "NORMAL": 2,
                        "POSITION": 1,
                        "TANGENT": 3,
                        "TEXCOORD_0": 4
                    },
                    "indices": 0
                }
            ]
        },
        {
            "name": "wheels-front",
            "primitives": [
                {
                    "material": 0,
                    "mode": 4,
                    "attributes": {
                        "NORMAL": 7,
                        "POSITION": 6,
                        "TANGENT": 8,
                        "TEXCOORD_0": 9
                    },
                    "indices": 5
                }
            ]
        },
        {
            "name": "wheel",
            "primitives": [
                {
                    "material": 0,
                    "mode": 4,
                    "attributes": {
                        "NORMAL": 12,
                        "POSITION": 11,
                        "TANGENT": 13,
                        "TEXCOORD_0": 14
                    },
                    "indices": 10
                }
            ]
        },
        {
            "name": "wheel_1",
            "primitives": [
                {
                    "material": 0,
                    "mode": 4,
                    "attributes": {
                        "NORMAL": 17,
                        "POSITION": 16,
                        "TANGENT": 18,
                        "TEXCOORD_0": 19
                    },
                    "indices": 15
                }
            ]
        },
        {
            "name": "wheel_2",
            "primitives": [
                {
                    "material": 0,
                    "mode": 4,
                    "attributes": {
                        "NORMAL": 22,
                        "POSITION": 21,
                        "TANGENT": 23,
                        "TEXCOORD_0": 24
                    },
                    "indices": 20
                }
            ]
        },
        {
            "name": "wheel_3",
            "primitives": [
                {
                    "material": 0,
                    "mode": 4,
                    "attributes": {
                        "NORMAL": 27,
                        "POSITION": 26,
                        "TANGENT": 28,
                        "TEXCOORD_0": 29
                    },
                    "indices": 25
                }
            ]
        }
    ],
    "nodes": [
        {
            "name": "RootNode",
            "translation": [
                0.0,
                0.0,
                0.0
            ],
            "rotation": [
                0.0,
                0.0,
                0.0,
                1.0
            ],
            "scale": [
                1.0,
                1.0,
                1.0
            ],
            "children": [
                1
            ]
        },
        {
            "name": "train-locomotive-a",
            "translation": [
                0.0,
                0.0,
                0.0
            ],
            "rotation": [
                0.0,
                0.0,
                0.0,
                1.0
            ],
            "scale": [
                1.0,
                1.0,
                1.0
            ],
            "children": [
                2,
                3,
                4,
                5,
                6
            ],
            "mesh": 0
        },
        {
            "name": "wheels-front",
            "translation": [
                3.33523058346566e-13,
                0.359499365091324,
                0.600000023841858
            ],
            "rotation": [
                0.0,
                0.0,
                0.0,
                1.0
            ],
            "scale": [
                1.0,
                1.0,
                1.0
            ],
            "mesh": 1
        },
        {
            "name": "wheel",
            "translation": [
                -0.481499969959259,
                0.269624531269073,
                -0.0927978977560997
            ],
            "rotation": [
                0.0,
                0.0,
                0.0,
                1.0
            ],
            "scale": [
                1.0,
                1.0,
                1.0
            ],
            "mesh": 2
        },
        {
            "name": "wheel_1",
            "translation": [
                -0.481499969959259,
                0.269624531269073,
                -0.692797839641571
            ],
            "rotation": [
                0.0,
                0.0,
                0.0,
                1.0
            ],
            "scale": [
                1.0,
                1.0,
                1.0
            ],
            "mesh": 3
        },
        {
            "name": "wheel_2",
            "translation": [
                0.481499999761581,
                0.269624531269073,
                -0.0927978977560997
            ],
            "rotation": [
                0.0,
                0.0,
                0.0,
                1.0
            ],
            "scale": [
                1.0,
                1.0,
                1.0
            ],
            "mesh": 4
        },
        {
            "name": "wheel_3",
            "translation": [
                0.481499999761581,
                0.269624531269073,
                -0.692797839641571
            ],
            "rotation": [
                0.0,
                0.0,
                0.0,
                1.0
            ],
            "scale": [
                1.0,
                1.0,
                1.0
            ],
            "mesh": 5
        }
    ]
}