{
    "asset": {
        "generator": "FBX2glTF v0.13.1",
        "version": "2.0"
    },
    "scene": 0,
    "buffers": [
        {
            "byteLength": 30588,
            "uri": "buffer.bin"
        }
    ],
    "bufferViews": [
        {
            "buffer": 0,
            "byteLength": 588,
            "byteOffset": 0,
            "target": 34963
        },
        {
            "buffer": 0,
            "byteLength": 1896,
            "byteOffset": 588,
            "target": 34962
        },
        {
            "buffer": 0,
            "byteLength": 1896,
            "byteOffset": 2484,
            "target": 34962
        },
        {
            "buffer": 0,
            "byteLength": 2528,
            "byteOffset": 4380,
            "target": 34962
        },
        {
            "buffer": 0,
            "byteLength": 1264,
            "byteOffset": 6908,
            "target": 34962
        },
        {
            "buffer": 0,
            "byteLength": 792,
            "byteOffset": 8172,
            "target": 34963
        },
        {
            "buffer": 0,
            "byteLength": 2604,
            "byteOffset": 8964,
            "target": 34962
        },
        {
            "buffer": 0,
            "byteLength": 2604,
            "byteOffset": 11568,
            "target": 34962
        },
        {
            "buffer": 0,
            "byteLength": 3472,
            "byteOffset": 14172,
            "target": 34962
        },
        {
            "buffer": 0,
            "byteLength": 1736,
            "byteOffset": 17644,
            "target": 34962
        },
        {
            "buffer": 0,
            "byteLength": 792,
            "byteOffset": 19380,
            "target": 34963
        },
        {
            "buffer": 0,
            "byteLength": 2604,
            "byteOffset": 20172,
            "target": 34962
        },
        {
            "buffer": 0,
            "byteLength": 2604,
            "byteOffset": 22776,
            "target": 34962
        },
        {
            "buffer": 0,
            "byteLength": 3472,
            "byteOffset": 25380,
            "target": 34962
        },
        {
            "buffer": 0,
            "byteLength": 1736,
            "byteOffset": 28852,
            "target": 34962
        }
    ],
    "scenes": [
        {
            "name": "Root Scene",
            "nodes": [
                0
            ]
        }
    ],
    "accessors": [
        {
            "componentType": 5123,
            "type": "SCALAR",
            "count": 294,
            "bufferView": 0,
            "byteOffset": 0
        },
        {
            "componentType": 5126,
            "type": "VEC3",
            "count": 158,
            "bufferView": 1,
            "byteOffset": 0,
            "min": [
                -0.350000023841858,
                0.0,
                -0.300000011920929
            ],
            "max": [
                0.350000023841858,
                0.5,
                0.300000011920929
            ]
        },
        {
            "componentType": 5126,
            "type": "VEC3",
            "count": 158,
            "bufferView": 2,
            "byteOffset": 0
        },
        {
            "componentType": 5126,
            "type": "VEC4",
            "count": 158,
            "bufferView": 3,
            "byteOffset": 0
        },
        {
            "componentType": 5126,
            "type": "VEC2",
            "count": 158,
            "bufferView": 4,
            "byteOffset": 0
        },
        {
            "componentType": 5123,
            "type": "SCALAR",
            "count": 396,
            "bufferView": 5,
            "byteOffset": 0
        },
        {
            "componentType": 5126,
            "type": "VEC3",
            "count": 217,
            "bufferView": 6,
            "byteOffset": 0,
            "min": [
                -0.290712982416153,
                0.0,
                -0.166486322879791
            ],
            "max": [
                0.290712982416153,
                0.333572328090668,
                0.166486322879791
            ]
        },
        {
            "componentType": 5126,
            "type": "VEC3",
            "count": 217,
            "bufferView": 7,
            "byteOffset": 0
        },
        {
            "componentType": 5126,
            "type": "VEC4",
            "count": 217,
            "bufferView": 8,
            "byteOffset": 0
        },
        {
            "componentType": 5126,
            "type": "VEC2",
            "count": 217,
            "bufferView": 9,
            "byteOffset": 0
        },
        {
            "componentType": 5123,
            "type": "SCALAR",
            "count": 396,
            "bufferView": 10,
            "byteOffset": 0
        },
        {
            "componentType": 5126,
            "type": "VEC3",
            "count": 217,
            "bufferView": 11,
            "byteOffset": 0,
            "min": [
                -0.290712982416153,
                0.0,
                -0.166486322879791
            ],
            "max": [
                0.290712982416153,
                0.333572328090668,
                0.166486322879791
            ]
        },
        {
            "componentType": 5126,
            "type": "VEC3",
            "count": 217,
            "bufferView": 12,
            "byteOffset": 0
        },
        {
            "componentType": 5126,
            "type": "VEC4",
            "count": 217,
            "bufferView": 13,
            "byteOffset": 0
        },
        {
            "componentType": 5126,
            "type": "VEC2",
            "count": 217,
            "bufferView": 14,
            "byteOffset": 0
        }
    ],
    "images": [
        {
            "name": "colormap.png",
            "uri": "colormap.png"
        }
    ],
    "samplers": [
        {}
    ],
    "textures": [
        {
            "name": "DiffuseColor_Texture",
            "sampler": 0,
            "source": 0
        }
    ],
    "materials": [
        {
            "name": "colormap",
            "alphaMode": "OPAQUE",
            "doubleSided": false,
            "extras": {
                "fromFBX": {
                    "shadingModel": "Lambert",
                    "isTruePBR": false
                }
            },
            "pbrMetallicRoughness": {
                "baseColorTexture": {
                    "index": 0,
                    "texCoord": 0
                },
                "baseColorFactor": [
                    1.0,
                    1.0,
                    1.0,
                    1.0
                ],
                "metallicFactor": 0.200000002980232,
                "roughnessFactor": 0.800000011920929
            }
        }
    ],
    "meshes": [
        {
            "name": "display-bread",
            "primitives": [
                {
                    "material": 0,
                    "mode": 4,
                    "attributes": {
                        "NORMAL": 2,
                        "POSITION": 1,
                        "TANGENT": 3,
                        "TEXCOORD_0": 4
                    },
                    "indices": 0
                }
            ]
        },
        {
            "name": "bread",
            "primitives": [
                {
                    "material": 0,
                    "mode": 4,
                    "attributes": {
                        "NORMAL": 7,
                        "POSITION": 6,
                        "TANGENT": 8,
                        "TEXCOORD_0": 9
                    },
                    "indices": 5
                }
            ]
        },
        {
            "name": "bread_1",
            "primitives": [
                {
                    "material": 0,
                    "mode": 4,
                    "attributes": {
                        "NORMAL": 12,
                        "POSITION": 11,
                        "TANGENT": 13,
                        "TEXCOORD_0": 14
                    },
                    "indices": 10
                }
            ]
        }
    ],
    "nodes": [
        {
            "name": "RootNode",
            "translation": [
                0.0,
                0.0,
                0.0
            ],
            "rotation": [
                0.0,
                0.0,
                0.0,
                1.0
            ],
            "scale": [
                1.0,
                1.0,
                1.0
            ],
            "children": [
                1
            ]
        },
        {
            "name": "display-bread",
            "translation": [
                0.0,
                0.0,
                0.0
            ],
            "rotation": [
                0.0,
                0.0,
                0.0,
                1.0
            ],
            "scale": [
                1.0,
                1.0,
                1.0
            ],
            "children": [
                2,
                3
            ],
            "mesh": 0
        },
        {
            "name": "bread",
            "translation": [
                0.143657848238945,
                0.227249994874001,
                0.0272028390318155
            ],
            "rotation": [
                -0.0,
                -0.70710676908493,
                0.0,
                0.70710676908493
            ],
            "scale": [
                0.422399997711182,
                0.660000026226044,
                0.660000026226044
            ],
            "mesh": 1
        },
        {
            "name": "bread_1",
            "translation": [
                -0.143657848238945,
                0.227249994874001,
                0.0272028408944607
            ],
            "rotation": [
                -0.0,
                -0.70710676908493,
                0.0,
                0.70710676908493
            ],
            "scale": [
                0.422399997711182,
                0.660000026226044,
                0.660000026226044
            ],
            "mesh": 2
        }
    ]
}