{
    "asset": {
        "generator": "FBX2glTF v0.13.1",
        "version": "2.0"
    },
    "scene": 0,
    "buffers": [
        {
            "byteLength": 75576,
            "uri": "buffer.bin"
        }
    ],
    "bufferViews": [
        {
            "buffer": 0,
            "byteLength": 3864,
            "byteOffset": 0,
            "target": 34963
        },
        {
            "buffer": 0,
            "byteLength": 11280,
            "byteOffset": 3864,
            "target": 34962
        },
        {
            "buffer": 0,
            "byteLength": 11280,
            "byteOffset": 15144,
            "target": 34962
        },
        {
            "buffer": 0,
            "byteLength": 15040,
            "byteOffset": 26424,
            "target": 34962
        },
        {
            "buffer": 0,
            "byteLength": 7520,
            "byteOffset": 41464,
            "target": 34962
        },
        {
            "buffer": 0,
            "byteLength": 1152,
            "byteOffset": 48984,
            "target": 34963
        },
        {
            "buffer": 0,
            "byteLength": 3036,
            "byteOffset": 50136,
            "target": 34962
        },
        {
            "buffer": 0,
            "byteLength": 3036,
            "byteOffset": 53172,
            "target": 34962
        },
        {
            "buffer": 0,
            "byteLength": 4048,
            "byteOffset": 56208,
            "target": 34962
        },
        {
            "buffer": 0,
            "byteLength": 2024,
            "byteOffset": 60256,
            "target": 34962
        },
        {
            "buffer": 0,
            "byteLength": 1152,
            "byteOffset": 62280,
            "target": 34963
        },
        {
            "buffer": 0,
            "byteLength": 3036,
            "byteOffset": 63432,
            "target": 34962
        },
        {
            "buffer": 0,
            "byteLength": 3036,
            "byteOffset": 66468,
            "target": 34962
        },
        {
            "buffer": 0,
            "byteLength": 4048,
            "byteOffset": 69504,
            "target": 34962
        },
        {
            "buffer": 0,
            "byteLength": 2024,
            "byteOffset": 73552,
            "target": 34962
        }
    ],
    "scenes": [
        {
            "name": "Root Scene",
            "nodes": [
                0
            ]
        }
    ],
    "accessors": [
        {
            "componentType": 5123,
            "type": "SCALAR",
            "count": 1932,
            "bufferView": 0,
            "byteOffset": 0
        },
        {
            "componentType": 5126,
            "type": "VEC3",
            "count": 940,
            "bufferView": 1,
            "byteOffset": 0,
            "min": [
                -0.324999988079071,
                6.9935164116977e-16,
                -0.644999980926514
            ],
            "max": [
                0.324999988079071,
                0.860501408576965,
                0.745000004768372
            ]
        },
        {
            "componentType": 5126,
            "type": "VEC3",
            "count": 940,
            "bufferView": 2,
            "byteOffset": 0
        },
        {
            "componentType": 5126,
            "type": "VEC4",
            "count": 940,
            "bufferView": 3,
            "byteOffset": 0
        },
        {
            "componentType": 5126,
            "type": "VEC2",
            "count": 940,
            "bufferView": 4,
            "byteOffset": 0
        },
        {
            "componentType": 5123,
            "type": "SCALAR",
            "count": 576,
            "bufferView": 5,
            "byteOffset": 0
        },
        {
            "componentType": 5126,
            "type": "VEC3",
            "count": 253,
            "bufferView": 6,
            "byteOffset": 0,
            "min": [
                -0.121511988341808,
                0.0,
                0.0
            ],
            "max": [
                2.68220901489258e-07,
                0.467760175466537,
                0.467760175466537
            ]
        },
        {
            "componentType": 5126,
            "type": "VEC3",
            "count": 253,
            "bufferView": 7,
            "byteOffset": 0
        },
        {
            "componentType": 5126,
            "type": "VEC4",
            "count": 253,
            "bufferView": 8,
            "byteOffset": 0
        },
        {
            "componentType": 5126,
            "type": "VEC2",
            "count": 253,
            "bufferView": 9,
            "byteOffset": 0
        },
        {
            "componentType": 5123,
            "type": "SCALAR",
            "count": 576,
            "bufferView": 10,
            "byteOffset": 0
        },
        {
            "componentType": 5126,
            "type": "VEC3",
            "count": 253,
            "bufferView": 11,
            "byteOffset": 0,
            "min": [
                -0.121511988341808,
                0.0,
                0.0
            ],
            "max": [
                2.68220901489258e-07,
                0.467760175466537,
                0.467760175466537
            ]
        },
        {
            "componentType": 5126,
            "type": "VEC3",
            "count": 253,
            "bufferView": 12,
            "byteOffset": 0
        },
        {
            "componentType": 5126,
            "type": "VEC4",
            "count": 253,
            "bufferView": 13,
            "byteOffset": 0
        },
        {
            "componentType": 5126,
            "type": "VEC2",
            "count": 253,
            "bufferView": 14,
            "byteOffset": 0
        }
    ],
    "images": [
        {
            "name": "colormap.png",
            "uri": "colormap.png"
        }
    ],
    "samplers": [
        {}
    ],
    "textures": [
        {
            "name": "DiffuseColor_Texture",
            "sampler": 0,
            "source": 0
        }
    ],
    "materials": [
        {
            "name": "colormap",
            "alphaMode": "OPAQUE",
            "doubleSided": false,
            "extras": {
                "fromFBX": {
                    "shadingModel": "Lambert",
                    "isTruePBR": false
                }
            },
            "pbrMetallicRoughness": {
                "baseColorTexture": {
                    "index": 0,
                    "texCoord": 0
                },
                "baseColorFactor": [
                    1.0,
                    1.0,
                    1.0,
                    1.0
                ],
                "metallicFactor": 0.200000002980232,
                "roughnessFactor": 0.800000011920929
            }
        }
    ],
    "meshes": [
        {
            "name": "cart-high",
            "primitives": [
                {
                    "material": 0,
                    "mode": 4,
                    "attributes": {
                        "NORMAL": 2,
                        "POSITION": 1,
                        "TANGENT": 3,
                        "TEXCOORD_0": 4
                    },
                    "indices": 0
                }
            ]
        },
        {
            "name": "Group",
            "primitives": [
                {
                    "material": 0,
                    "mode": 4,
                    "attributes": {
                        "NORMAL": 7,
                        "POSITION": 6,
                        "TANGENT": 8,
                        "TEXCOORD_0": 9
                    },
                    "indices": 5
                }
            ]
        },
        {
            "name": "Group_1",
            "primitives": [
                {
                    "material": 0,
                    "mode": 4,
                    "attributes": {
                        "NORMAL": 12,
                        "POSITION": 11,
                        "TANGENT": 13,
                        "TEXCOORD_0": 14
                    },
                    "indices": 10
                }
            ]
        }
    ],
    "nodes": [
        {
            "name": "RootNode",
            "translation": [
                0.0,
                0.0,
                0.0
            ],
            "rotation": [
                0.0,
                0.0,
                0.0,
                1.0
            ],
            "scale": [
                1.0,
                1.0,
                1.0
            ],
            "children": [
                1
            ]
        },
        {
            "name": "cart-high",
            "translation": [
                0.0,
                0.0,
                0.0
            ],
            "rotation": [
                0.0,
                0.0,
                0.0,
                1.0
            ],
            "scale": [
                1.0,
                1.0,
                1.0
            ],
            "children": [
                2,
                3
            ],
            "mesh": 0
        },
        {
            "name": "Group",
            "translation": [
                -0.324999988079071,
                -1.12798657938722e-17,
                -0.0388801023364067
            ],
            "rotation": [
                0.0,
                0.0,
                0.0,
                1.0
            ],
            "scale": [
                1.0,
                1.0,
                1.0
            ],
            "mesh": 1
        },
        {
            "name": "Group_1",
            "translation": [
                0.44651198387146,
                -1.12798657938722e-17,
                -0.0388801023364067
            ],
            "rotation": [
                0.0,
                0.0,
                0.0,
                1.0
            ],
            "scale": [
                1.0,
                1.0,
                1.0
            ],
            "mesh": 2
        }
    ]
}