{
    "asset": {
        "generator": "FBX2glTF v0.13.1",
        "version": "2.0"
    },
    "scene": 0,
    "buffers": [
        {
            "byteLength": 41724,
            "uri": "buffer.bin"
        }
    ],
    "bufferViews": [
        {
            "buffer": 0,
            "byteLength": 180,
            "byteOffset": 0,
            "target": 34963
        },
        {
            "buffer": 0,
            "byteLength": 624,
            "byteOffset": 180,
            "target": 34962
        },
        {
            "buffer": 0,
            "byteLength": 624,
            "byteOffset": 804,
            "target": 34962
        },
        {
            "buffer": 0,
            "byteLength": 416,
            "byteOffset": 1428,
            "target": 34962
        },
        {
            "buffer": 0,
            "byteLength": 228,
            "byteOffset": 1844,
            "target": 34963
        },
        {
            "buffer": 0,
            "byteLength": 816,
            "byteOffset": 2072,
            "target": 34962
        },
        {
            "buffer": 0,
            "byteLength": 816,
            "byteOffset": 2888,
            "target": 34962
        },
        {
            "buffer": 0,
            "byteLength": 544,
            "byteOffset": 3704,
            "target": 34962
        },
        {
            "buffer": 0,
            "byteLength": 2064,
            "byteOffset": 4248,
            "target": 34963
        },
        {
            "buffer": 0,
            "byteLength": 6624,
            "byteOffset": 6312,
            "target": 34962
        },
        {
            "buffer": 0,
            "byteLength": 6624,
            "byteOffset": 12936,
            "target": 34962
        },
        {
            "buffer": 0,
            "byteLength": 4416,
            "byteOffset": 19560,
            "target": 34962
        },
        {
            "buffer": 0,
            "byteLength": 1152,
            "byteOffset": 23976,
            "target": 34963
        },
        {
            "buffer": 0,
            "byteLength": 3432,
            "byteOffset": 25128,
            "target": 34962
        },
        {
            "buffer": 0,
            "byteLength": 3432,
            "byteOffset": 28560,
            "target": 34962
        },
        {
            "buffer": 0,
            "byteLength": 2288,
            "byteOffset": 31992,
            "target": 34962
        },
        {
            "buffer": 0,
            "byteLength": 792,
            "byteOffset": 34280,
            "target": 34963
        },
        {
            "buffer": 0,
            "byteLength": 2184,
            "byteOffset": 35072,
            "target": 34962
        },
        {
            "buffer": 0,
            "byteLength": 2184,
            "byteOffset": 37256,
            "target": 34962
        },
        {
            "buffer": 0,
            "byteLength": 1456,
            "byteOffset": 39440,
            "target": 34962
        },
        {
            "buffer": 0,
            "byteLength": 60,
            "byteOffset": 40896,
            "target": 34963
        },
        {
            "buffer": 0,
            "byteLength": 288,
            "byteOffset": 40956,
            "target": 34962
        },
        {
            "buffer": 0,
            "byteLength": 288,
            "byteOffset": 41244,
            "target": 34962
        },
        {
            "buffer": 0,
            "byteLength": 192,
            "byteOffset": 41532,
            "target": 34962
        }
    ],
    "scenes": [
        {
            "name": "Root Scene",
            "nodes": [
                0
            ]
        }
    ],
    "accessors": [
        {
            "componentType": 5123,
            "type": "SCALAR",
            "count": 90,
            "bufferView": 0,
            "byteOffset": 0
        },
        {
            "componentType": 5126,
            "type": "VEC3",
            "count": 52,
            "bufferView": 1,
            "byteOffset": 0,
            "min": [
                -0.00600000005215406,
                0.0,
                -0.000999999814666808
            ],
            "max": [
                0.000999999814666808,
                0.00499999988824129,
                0.00391292525455356
            ]
        },
        {
            "componentType": 5126,
            "type": "VEC3",
            "count": 52,
            "bufferView": 2,
            "byteOffset": 0
        },
        {
            "componentType": 5126,
            "type": "VEC2",
            "count": 52,
            "bufferView": 3,
            "byteOffset": 0
        },
        {
            "componentType": 5123,
            "type": "SCALAR",
            "count": 114,
            "bufferView": 4,
            "byteOffset": 0
        },
        {
            "componentType": 5126,
            "type": "VEC3",
            "count": 68,
            "bufferView": 5,
            "byteOffset": 0,
            "min": [
                -0.0160000007599592,
                -0.0209999978542328,
                0.0439999997615814
            ],
            "max": [
                0.000999999814666808,
                0.0379999987781048,
                0.0659999847412109
            ]
        },
        {
            "componentType": 5126,
            "type": "VEC3",
            "count": 68,
            "bufferView": 6,
            "byteOffset": 0
        },
        {
            "componentType": 5126,
            "type": "VEC2",
            "count": 68,
            "bufferView": 7,
            "byteOffset": 0
        },
        {
            "componentType": 5123,
            "type": "SCALAR",
            "count": 1032,
            "bufferView": 8,
            "byteOffset": 0
        },
        {
            "componentType": 5126,
            "type": "VEC3",
            "count": 552,
            "bufferView": 9,
            "byteOffset": 0,
            "min": [
                -0.0149999996647239,
                0.0,
                0.00990335550159216
            ],
            "max": [
                7.21911357868263e-17,
                0.0659999847412109,
                0.0799999982118607
            ]
        },
        {
            "componentType": 5126,
            "type": "VEC3",
            "count": 552,
            "bufferView": 10,
            "byteOffset": 0
        },
        {
            "componentType": 5126,
            "type": "VEC2",
            "count": 552,
            "bufferView": 11,
            "byteOffset": 0
        },
        {
            "componentType": 5123,
            "type": "SCALAR",
            "count": 576,
            "bufferView": 12,
            "byteOffset": 0
        },
        {
            "componentType": 5126,
            "type": "VEC3",
            "count": 286,
            "bufferView": 13,
            "byteOffset": 0,
            "min": [
                -0.0139999995008111,
                9.0238928005339e-18,
                -0.00999999977648258
            ],
            "max": [
                0.0,
                0.0139999995008111,
                0.0399999991059303
            ]
        },
        {
            "componentType": 5126,
            "type": "VEC3",
            "count": 286,
            "bufferView": 14,
            "byteOffset": 0
        },
        {
            "componentType": 5126,
            "type": "VEC2",
            "count": 286,
            "bufferView": 15,
            "byteOffset": 0
        },
        {
            "componentType": 5123,
            "type": "SCALAR",
            "count": 396,
            "bufferView": 16,
            "byteOffset": 0
        },
        {
            "componentType": 5126,
            "type": "VEC3",
            "count": 182,
            "bufferView": 17,
            "byteOffset": 0,
            "min": [
                -0.0149999996647239,
                0.0,
                0.0199033580720425
            ],
            "max": [
                7.21911357868263e-17,
                0.0580000020563602,
                0.0799999982118607
            ]
        },
        {
            "componentType": 5126,
            "type": "VEC3",
            "count": 182,
            "bufferView": 18,
            "byteOffset": 0
        },
        {
            "componentType": 5126,
            "type": "VEC2",
            "count": 182,
            "bufferView": 19,
            "byteOffset": 0
        },
        {
            "componentType": 5123,
            "type": "SCALAR",
            "count": 30,
            "bufferView": 20,
            "byteOffset": 0
        },
        {
            "componentType": 5126,
            "type": "VEC3",
            "count": 24,
            "bufferView": 21,
            "byteOffset": 0,
            "min": [
                -0.0149999996647239,
                0.0379999987781048,
                0.044999998062849
            ],
            "max": [
                0.0,
                0.0379999987781048,
                0.0649999976158142
            ]
        },
        {
            "componentType": 5126,
            "type": "VEC3",
            "count": 24,
            "bufferView": 22,
            "byteOffset": 0
        },
        {
            "componentType": 5126,
            "type": "VEC2",
            "count": 24,
            "bufferView": 23,
            "byteOffset": 0
        }
    ],
    "samplers": [
        {}
    ],
    "materials": [
        {
            "name": "dark",
            "alphaMode": "OPAQUE",
            "doubleSided": false,
            "extras": {
                "fromFBX": {
                    "shadingModel": "Phong",
                    "isTruePBR": false
                }
            },
            "pbrMetallicRoughness": {
                "baseColorFactor": [
                    0.26666671037674,
                    0.26666671037674,
                    0.26666671037674,
                    1.0
                ],
                "metallicFactor": 0.400000005960464,
                "roughnessFactor": 1.0
            }
        },
        {
            "name": "greyDark",
            "alphaMode": "OPAQUE",
            "doubleSided": false,
            "extras": {
                "fromFBX": {
                    "shadingModel": "Phong",
                    "isTruePBR": false
                }
            },
            "pbrMetallicRoughness": {
                "baseColorFactor": [
                    0.25882351398468,
                    0.325490206480026,
                    0.376470595598221,
                    1.0
                ],
                "metallicFactor": 0.400000005960464,
                "roughnessFactor": 1.0
            }
        },
        {
            "name": "_defaultMat",
            "alphaMode": "OPAQUE",
            "doubleSided": false,
            "extras": {
                "fromFBX": {
                    "shadingModel": "Phong",
                    "isTruePBR": false
                }
            },
            "pbrMetallicRoughness": {
                "baseColorFactor": [
                    1.0,
                    1.0,
                    1.0,
                    1.0
                ],
                "metallicFactor": 0.400000005960464,
                "roughnessFactor": 1.0
            }
        }
    ],
    "meshes": [
        {
            "name": "Group",
            "primitives": [
                {
                    "material": 0,
                    "mode": 4,
                    "attributes": {
                        "NORMAL": 2,
                        "POSITION": 1,
                        "TEXCOORD_0": 3
                    },
                    "indices": 0
                }
            ]
        },
        {
            "name": "Group",
            "primitives": [
                {
                    "material": 0,
                    "mode": 4,
                    "attributes": {
                        "NORMAL": 6,
                        "POSITION": 5,
                        "TEXCOORD_0": 7
                    },
                    "indices": 4
                }
            ]
        },
        {
            "name": "Group",
            "primitives": [
                {
                    "material": 0,
                    "mode": 4,
                    "attributes": {
                        "NORMAL": 10,
                        "POSITION": 9,
                        "TEXCOORD_0": 11
                    },
                    "indices": 8
                },
                {
                    "material": 1,
                    "mode": 4,
                    "attributes": {
                        "NORMAL": 18,
                        "POSITION": 17,
                        "TEXCOORD_0": 19
                    },
                    "indices": 16
                },
                {
                    "material": 2,
                    "mode": 4,
                    "attributes": {
                        "NORMAL": 22,
                        "POSITION": 21,
                        "TEXCOORD_0": 23
                    },
                    "indices": 20
                }
            ]
        },
        {
            "name": "Group",
            "primitives": [
                {
                    "material": 0,
                    "mode": 4,
                    "attributes": {
                        "NORMAL": 14,
                        "POSITION": 13,
                        "TEXCOORD_0": 15
                    },
                    "indices": 12
                }
            ]
        }
    ],
    "nodes": [
        {
            "name": "RootNode",
            "translation": [
                0.0,
                0.0,
                0.0
            ],
            "rotation": [
                0.0,
                0.0,
                0.0,
                1.0
            ],
            "scale": [
                1.0,
                1.0,
                1.0
            ],
            "children": [
                1
            ]
        },
        {
            "name": "uziSilencer",
            "translation": [
                0.0,
                0.0,
                0.0
            ],
            "rotation": [
                0.0,
                0.0,
                0.0,
                1.0
            ],
            "scale": [
                63.7999992370605,
                63.7999992370605,
                63.7999992370605
            ],
            "children": [
                2,
                3,
                4,
                5
            ]
        },
        {
            "name": "Group",
            "translation": [
                0.000149999992572702,
                0.00467999977990985,
                0.000537100655492395
            ],
            "rotation": [
                0.0,
                0.0,
                0.0,
                1.0
            ],
            "scale": [
                0.0599999986588955,
                0.0599999986588955,
                0.0599999986588955
            ],
            "mesh": 0
        },
        {
            "name": "Group",
            "translation": [
                0.000450000021373853,
                0.00126000004820526,
                -0.00137710093986243
            ],
            "rotation": [
                0.0,
                0.0,
                0.0,
                1.0
            ],
            "scale": [
                0.0599999986588955,
                0.0599999986588955,
                0.0599999986588955
            ],
            "mesh": 1
        },
        {
            "name": "Group",
            "translation": [
                0.000450000021373853,
                0.00126000004820526,
                -0.00137710093986243
            ],
            "rotation": [
                0.0,
                0.0,
                0.0,
                1.0
            ],
            "scale": [
                0.0599999986588955,
                0.0599999986588955,
                0.0599999986588955
            ],
            "mesh": 2
        },
        {
            "name": "Group",
            "translation": [
                0.000419999996665865,
                0.0038699998985976,
                -0.0028228999581188
            ],
            "rotation": [
                0.0,
                0.0,
                0.0,
                1.0
            ],
            "scale": [
                0.0599999986588955,
                0.0599999986588955,
                0.0599999986588955
            ],
            "mesh": 3
        }
    ]
}