{
    "asset": {
        "generator": "FBX2glTF v0.13.1",
        "version": "2.0"
    },
    "scene": 0,
    "buffers": [
        {
            "byteLength": 7428,
            "uri": "buffer.bin"
        }
    ],
    "bufferViews": [
        {
            "buffer": 0,
            "byteLength": 28,
            "byteOffset": 0
        },
        {
            "buffer": 0,
            "byteLength": 84,
            "byteOffset": 28
        },
        {
            "buffer": 0,
            "byteLength": 28,
            "byteOffset": 112
        },
        {
            "buffer": 0,
            "byteLength": 84,
            "byteOffset": 140
        },
        {
            "buffer": 0,
            "byteLength": 64,
            "byteOffset": 224
        },
        {
            "buffer": 0,
            "byteLength": 192,
            "byteOffset": 288
        },
        {
            "buffer": 0,
            "byteLength": 384,
            "byteOffset": 480,
            "target": 34963
        },
        {
            "buffer": 0,
            "byteLength": 1128,
            "byteOffset": 864,
            "target": 34962
        },
        {
            "buffer": 0,
            "byteLength": 1128,
            "byteOffset": 1992,
            "target": 34962
        },
        {
            "buffer": 0,
            "byteLength": 1504,
            "byteOffset": 3120,
            "target": 34962
        },
        {
            "buffer": 0,
            "byteLength": 752,
            "byteOffset": 4624,
            "target": 34962
        },
        {
            "buffer": 0,
            "byteLength": 132,
            "byteOffset": 5376,
            "target": 34963
        },
        {
            "buffer": 0,
            "byteLength": 480,
            "byteOffset": 5508,
            "target": 34962
        },
        {
            "buffer": 0,
            "byteLength": 480,
            "byteOffset": 5988,
            "target": 34962
        },
        {
            "buffer": 0,
            "byteLength": 640,
            "byteOffset": 6468,
            "target": 34962
        },
        {
            "buffer": 0,
            "byteLength": 320,
            "byteOffset": 7108,
            "target": 34962
        }
    ],
    "scenes": [
        {
            "name": "Root Scene",
            "nodes": [
                0
            ]
        }
    ],
    "accessors": [
        {
            "componentType": 5126,
            "type": "SCALAR",
            "count": 7,
            "bufferView": 0,
            "byteOffset": 0,
            "min": [
                0.0
            ],
            "max": [
                0.200000002980232
            ]
        },
        {
            "componentType": 5126,
            "type": "VEC3",
            "count": 7,
            "bufferView": 1,
            "byteOffset": 0
        },
        {
            "componentType": 5126,
            "type": "SCALAR",
            "count": 7,
            "bufferView": 2,
            "byteOffset": 0,
            "min": [
                0.0
            ],
            "max": [
                0.200000002980232
            ]
        },
        {
            "componentType": 5126,
            "type": "VEC3",
            "count": 7,
            "bufferView": 3,
            "byteOffset": 0
        },
        {
            "componentType": 5126,
            "type": "SCALAR",
            "count": 16,
            "bufferView": 4,
            "byteOffset": 0,
            "min": [
                0.0
            ],
            "max": [
                0.5
            ]
        },
        {
            "componentType": 5126,
            "type": "VEC3",
            "count": 16,
            "bufferView": 5,
            "byteOffset": 0
        },
        {
            "componentType": 5123,
            "type": "SCALAR",
            "count": 192,
            "bufferView": 6,
            "byteOffset": 0
        },
        {
            "componentType": 5126,
            "type": "VEC3",
            "count": 94,
            "bufferView": 7,
            "byteOffset": 0,
            "min": [
                -0.5,
                0.0,
                -0.5
            ],
            "max": [
                0.5,
                0.0999999940395355,
                0.5
            ]
        },
        {
            "componentType": 5126,
            "type": "VEC3",
            "count": 94,
            "bufferView": 8,
            "byteOffset": 0
        },
        {
            "componentType": 5126,
            "type": "VEC4",
            "count": 94,
            "bufferView": 9,
            "byteOffset": 0
        },
        {
            "componentType": 5126,
            "type": "VEC2",
            "count": 94,
            "bufferView": 10,
            "byteOffset": 0
        },
        {
            "componentType": 5123,
            "type": "SCALAR",
            "count": 66,
            "bufferView": 11,
            "byteOffset": 0
        },
        {
            "componentType": 5126,
            "type": "VEC3",
            "count": 40,
            "bufferView": 12,
            "byteOffset": 0,
            "min": [
                -0.449999988079071,
                0.0999999940395355,
                -0.449999988079071
            ],
            "max": [
                0.449999988079071,
                0.150000005960464,
                0.449999988079071
            ]
        },
        {
            "componentType": 5126,
            "type": "VEC3",
            "count": 40,
            "bufferView": 13,
            "byteOffset": 0
        },
        {
            "componentType": 5126,
            "type": "VEC4",
            "count": 40,
            "bufferView": 14,
            "byteOffset": 0
        },
        {
            "componentType": 5126,
            "type": "VEC2",
            "count": 40,
            "bufferView": 15,
            "byteOffset": 0
        }
    ],
    "images": [
        {
            "name": "colormap.png",
            "uri": "colormap.png"
        }
    ],
    "samplers": [
        {}
    ],
    "textures": [
        {
            "name": "DiffuseColor_Texture",
            "sampler": 0,
            "source": 0
        }
    ],
    "materials": [
        {
            "name": "colormap",
            "alphaMode": "OPAQUE",
            "doubleSided": false,
            "extras": {
                "fromFBX": {
                    "shadingModel": "Lambert",
                    "isTruePBR": false
                }
            },
            "pbrMetallicRoughness": {
                "baseColorTexture": {
                    "index": 0,
                    "texCoord": 0
                },
                "baseColorFactor": [
                    1.0,
                    1.0,
                    1.0,
                    1.0
                ],
                "metallicFactor": 0.200000002980232,
                "roughnessFactor": 0.800000011920929
            }
        }
    ],
    "meshes": [
        {
            "name": "button-floor-square",
            "primitives": [
                {
                    "material": 0,
                    "mode": 4,
                    "attributes": {
                        "NORMAL": 8,
                        "POSITION": 7,
                        "TANGENT": 9,
                        "TEXCOORD_0": 10
                    },
                    "indices": 6
                }
            ]
        },
        {
            "name": "button",
            "primitives": [
                {
                    "material": 0,
                    "mode": 4,
                    "attributes": {
                        "NORMAL": 13,
                        "POSITION": 12,
                        "TANGENT": 14,
                        "TEXCOORD_0": 15
                    },
                    "indices": 11
                }
            ]
        }
    ],
    "animations": [
        {
            "name": "toggle-on",
            "channels": [
                {
                    "sampler": 0,
                    "target": {
                        "node": 2,
                        "path": "translation"
                    }
                }
            ],
            "samplers": [
                {
                    "input": 0,
                    "interpolation": "LINEAR",
                    "output": 1
                }
            ]
        },
        {
            "name": "toggle-off",
            "channels": [
                {
                    "sampler": 0,
                    "target": {
                        "node": 2,
                        "path": "translation"
                    }
                }
            ],
            "samplers": [
                {
                    "input": 2,
                    "interpolation": "LINEAR",
                    "output": 3
                }
            ]
        },
        {
            "name": "toggle",
            "channels": [
                {
                    "sampler": 0,
                    "target": {
                        "node": 2,
                        "path": "translation"
                    }
                }
            ],
            "samplers": [
                {
                    "input": 4,
                    "interpolation": "LINEAR",
                    "output": 5
                }
            ]
        }
    ],
    "nodes": [
        {
            "name": "RootNode",
            "translation": [
                0.0,
                0.0,
                0.0
            ],
            "rotation": [
                0.0,
                0.0,
                0.0,
                1.0
            ],
            "scale": [
                1.0,
                1.0,
                1.0
            ],
            "children": [
                1
            ]
        },
        {
            "name": "button-floor-square",
            "translation": [
                0.0,
                0.0,
                0.0
            ],
            "rotation": [
                0.0,
                0.0,
                0.0,
                1.0
            ],
            "scale": [
                1.0,
                1.0,
                1.0
            ],
            "children": [
                2
            ],
            "mesh": 0
        },
        {
            "name": "button",
            "translation": [
                0.0,
                0.0,
                0.0
            ],
            "rotation": [
                0.0,
                0.0,
                0.0,
                1.0
            ],
            "scale": [
                1.0,
                1.0,
                1.0
            ],
            "mesh": 1
        }
    ]
}