{
    "asset": {
        "generator": "FBX2glTF v0.13.1",
        "version": "2.0"
    },
    "scene": 0,
    "buffers": [
        {
            "byteLength": 51752,
            "uri": "buffer.bin"
        }
    ],
    "bufferViews": [
        {
            "buffer": 0,
            "byteLength": 124,
            "byteOffset": 0
        },
        {
            "buffer": 0,
            "byteLength": 496,
            "byteOffset": 124
        },
        {
            "buffer": 0,
            "byteLength": 2652,
            "byteOffset": 620,
            "target": 34963
        },
        {
            "buffer": 0,
            "byteLength": 9396,
            "byteOffset": 3272,
            "target": 34962
        },
        {
            "buffer": 0,
            "byteLength": 9396,
            "byteOffset": 12668,
            "target": 34962
        },
        {
            "buffer": 0,
            "byteLength": 12528,
            "byteOffset": 22064,
            "target": 34962
        },
        {
            "buffer": 0,
            "byteLength": 6264,
            "byteOffset": 34592,
            "target": 34962
        },
        {
            "buffer": 0,
            "byteLength": 912,
            "byteOffset": 40856,
            "target": 34963
        },
        {
            "buffer": 0,
            "byteLength": 2496,
            "byteOffset": 41768,
            "target": 34962
        },
        {
            "buffer": 0,
            "byteLength": 2496,
            "byteOffset": 44264,
            "target": 34962
        },
        {
            "buffer": 0,
            "byteLength": 3328,
            "byteOffset": 46760,
            "target": 34962
        },
        {
            "buffer": 0,
            "byteLength": 1664,
            "byteOffset": 50088,
            "target": 34962
        }
    ],
    "scenes": [
        {
            "name": "Root Scene",
            "nodes": [
                0
            ]
        }
    ],
    "accessors": [
        {
            "componentType": 5126,
            "type": "SCALAR",
            "count": 31,
            "bufferView": 0,
            "byteOffset": 0,
            "min": [
                0.0
            ],
            "max": [
                1.0
            ]
        },
        {
            "componentType": 5126,
            "type": "VEC4",
            "count": 31,
            "bufferView": 1,
            "byteOffset": 0
        },
        {
            "componentType": 5123,
            "type": "SCALAR",
            "count": 1326,
            "bufferView": 2,
            "byteOffset": 0
        },
        {
            "componentType": 5126,
            "type": "VEC3",
            "count": 783,
            "bufferView": 3,
            "byteOffset": 0,
            "min": [
                -0.5,
                0.0,
                -0.577350258827209
            ],
            "max": [
                0.5,
                0.519199967384338,
                0.577350258827209
            ]
        },
        {
            "componentType": 5126,
            "type": "VEC3",
            "count": 783,
            "bufferView": 4,
            "byteOffset": 0
        },
        {
            "componentType": 5126,
            "type": "VEC4",
            "count": 783,
            "bufferView": 5,
            "byteOffset": 0
        },
        {
            "componentType": 5126,
            "type": "VEC2",
            "count": 783,
            "bufferView": 6,
            "byteOffset": 0
        },
        {
            "componentType": 5123,
            "type": "SCALAR",
            "count": 456,
            "bufferView": 7,
            "byteOffset": 0
        },
        {
            "componentType": 5126,
            "type": "VEC3",
            "count": 208,
            "bufferView": 8,
            "byteOffset": 0,
            "min": [
                -0.153999999165535,
                -0.163367912173271,
                -0.0508200004696846
            ],
            "max": [
                0.153999999165535,
                0.163367912173271,
                0.0508200004696846
            ]
        },
        {
            "componentType": 5126,
            "type": "VEC3",
            "count": 208,
            "bufferView": 9,
            "byteOffset": 0
        },
        {
            "componentType": 5126,
            "type": "VEC4",
            "count": 208,
            "bufferView": 10,
            "byteOffset": 0
        },
        {
            "componentType": 5126,
            "type": "VEC2",
            "count": 208,
            "bufferView": 11,
            "byteOffset": 0
        }
    ],
    "images": [
        {
            "name": "colormap.png",
            "uri": "colormap.png"
        }
    ],
    "samplers": [
        {}
    ],
    "textures": [
        {
            "name": "DiffuseColor_Texture",
            "sampler": 0,
            "source": 0
        }
    ],
    "materials": [
        {
            "name": "colormap",
            "alphaMode": "OPAQUE",
            "doubleSided": false,
            "extras": {
                "fromFBX": {
                    "shadingModel": "Lambert",
                    "isTruePBR": false
                }
            },
            "pbrMetallicRoughness": {
                "baseColorTexture": {
                    "index": 0,
                    "texCoord": 0
                },
                "baseColorFactor": [
                    1.0,
                    1.0,
                    1.0,
                    1.0
                ],
                "metallicFactor": 0.200000002980232,
                "roughnessFactor": 0.800000011920929
            }
        }
    ],
    "meshes": [
        {
            "name": "building_watermill",
            "primitives": [
                {
                    "material": 0,
                    "mode": 4,
                    "attributes": {
                        "NORMAL": 4,
                        "POSITION": 3,
                        "TANGENT": 5,
                        "TEXCOORD_0": 6
                    },
                    "indices": 2
                }
            ]
        },
        {
            "name": "rotate_z",
            "primitives": [
                {
                    "material": 0,
                    "mode": 4,
                    "attributes": {
                        "NORMAL": 9,
                        "POSITION": 8,
                        "TANGENT": 10,
                        "TEXCOORD_0": 11
                    },
                    "indices": 7
                }
            ]
        }
    ],
    "animations": [
        {
            "name": "animation",
            "channels": [
                {
                    "sampler": 0,
                    "target": {
                        "node": 2,
                        "path": "rotation"
                    }
                }
            ],
            "samplers": [
                {
                    "input": 0,
                    "interpolation": "LINEAR",
                    "output": 1
                }
            ]
        }
    ],
    "nodes": [
        {
            "name": "RootNode",
            "translation": [
                0.0,
                0.0,
                0.0
            ],
            "rotation": [
                0.0,
                0.0,
                0.0,
                1.0
            ],
            "scale": [
                1.0,
                1.0,
                1.0
            ],
            "children": [
                1
            ]
        },
        {
            "name": "building_watermill",
            "translation": [
                0.0,
                0.0,
                0.0
            ],
            "rotation": [
                0.0,
                0.0,
                0.0,
                1.0
            ],
            "scale": [
                1.0,
                1.0,
                1.0
            ],
            "children": [
                2
            ],
            "mesh": 0
        },
        {
            "name": "rotate_z",
            "translation": [
                0.0473858639597893,
                0.26586788892746,
                -0.00082815473433584
            ],
            "rotation": [
                0.0,
                0.0,
                0.0,
                1.0
            ],
            "scale": [
                1.0,
                1.0,
                1.0
            ],
            "mesh": 1
        }
    ]
}