{
    "asset": {
        "generator": "FBX2glTF v0.13.1",
        "version": "2.0"
    },
    "scene": 0,
    "buffers": [
        {
            "byteLength": 7108,
            "uri": "buffer.bin"
        }
    ],
    "bufferViews": [
        {
            "buffer": 0,
            "byteLength": 654,
            "byteOffset": 0,
            "target": 34963
        },
        {
            "buffer": 0,
            "byteLength": 2052,
            "byteOffset": 656,
            "target": 34962
        },
        {
            "buffer": 0,
            "byteLength": 2052,
            "byteOffset": 2708,
            "target": 34962
        },
        {
            "buffer": 0,
            "byteLength": 1368,
            "byteOffset": 4760,
            "target": 34962
        },
        {
            "buffer": 0,
            "byteLength": 114,
            "byteOffset": 6128,
            "target": 34963
        },
        {
            "buffer": 0,
            "byteLength": 324,
            "byteOffset": 6244,
            "target": 34962
        },
        {
            "buffer": 0,
            "byteLength": 324,
            "byteOffset": 6568,
            "target": 34962
        },
        {
            "buffer": 0,
            "byteLength": 216,
            "byteOffset": 6892,
            "target": 34962
        }
    ],
    "scenes": [
        {
            "name": "Root Scene",
            "nodes": [
                0
            ]
        }
    ],
    "accessors": [
        {
            "componentType": 5123,
            "type": "SCALAR",
            "count": 327,
            "bufferView": 0,
            "byteOffset": 0
        },
        {
            "componentType": 5126,
            "type": "VEC3",
            "count": 171,
            "bufferView": 1,
            "byteOffset": 0,
            "min": [
                -0.149999991059303,
                0.0,
                -0.149999991059303
            ],
            "max": [
                0.149999991059303,
                0.063000001013279,
                0.149999991059303
            ]
        },
        {
            "componentType": 5126,
            "type": "VEC3",
            "count": 171,
            "bufferView": 2,
            "byteOffset": 0
        },
        {
            "componentType": 5126,
            "type": "VEC2",
            "count": 171,
            "bufferView": 3,
            "byteOffset": 0
        },
        {
            "componentType": 5123,
            "type": "SCALAR",
            "count": 57,
            "bufferView": 4,
            "byteOffset": 0
        },
        {
            "componentType": 5126,
            "type": "VEC3",
            "count": 27,
            "bufferView": 5,
            "byteOffset": 0,
            "min": [
                -0.13391900062561,
                0.0274999998509884,
                -0.149999991059303
            ],
            "max": [
                0.149999991059303,
                0.0599999986588955,
                0.149999991059303
            ]
        },
        {
            "componentType": 5126,
            "type": "VEC3",
            "count": 27,
            "bufferView": 6,
            "byteOffset": 0
        },
        {
            "componentType": 5126,
            "type": "VEC2",
            "count": 27,
            "bufferView": 7,
            "byteOffset": 0
        }
    ],
    "samplers": [
        {}
    ],
    "materials": [
        {
            "name": "pavement",
            "alphaMode": "OPAQUE",
            "doubleSided": false,
            "extras": {
                "fromFBX": {
                    "shadingModel": "Phong",
                    "isTruePBR": false
                }
            },
            "pbrMetallicRoughness": {
                "baseColorFactor": [
                    0.847058773040771,
                    0.82745099067688,
                    0.749019622802734,
                    1.0
                ],
                "metallicFactor": 0.400000005960464,
                "roughnessFactor": 1.0
            }
        },
        {
            "name": "asphalt",
            "alphaMode": "OPAQUE",
            "doubleSided": false,
            "extras": {
                "fromFBX": {
                    "shadingModel": "Phong",
                    "isTruePBR": false
                }
            },
            "pbrMetallicRoughness": {
                "baseColorFactor": [
                    0.411764711141586,
                    0.411764711141586,
                    0.411764711141586,
                    1.0
                ],
                "metallicFactor": 0.400000005960464,
                "roughnessFactor": 1.0
            }
        }
    ],
    "meshes": [
        {
            "name": "tile117",
            "primitives": [
                {
                    "material": 0,
                    "mode": 4,
                    "attributes": {
                        "NORMAL": 2,
                        "POSITION": 1,
                        "TEXCOORD_0": 3
                    },
                    "indices": 0
                },
                {
                    "material": 1,
                    "mode": 4,
                    "attributes": {
                        "NORMAL": 6,
                        "POSITION": 5,
                        "TEXCOORD_0": 7
                    },
                    "indices": 4
                }
            ]
        }
    ],
    "nodes": [
        {
            "name": "RootNode",
            "translation": [
                0.0,
                0.0,
                0.0
            ],
            "rotation": [
                0.0,
                0.0,
                0.0,
                1.0
            ],
            "scale": [
                1.0,
                1.0,
                1.0
            ],
            "children": [
                1
            ]
        },
        {
            "name": "tile117",
            "translation": [
                0.0,
                0.0,
                0.0
            ],
            "rotation": [
                0.0,
                0.0,
                0.0,
                1.0
            ],
            "scale": [
                3.33333301544189,
                3.33333301544189,
                3.33333301544189
            ],
            "mesh": 0
        }
    ]
}