{
    "asset": {
        "generator": "FBX2glTF v0.13.1",
        "version": "2.0"
    },
    "scene": 0,
    "buffers": [
        {
            "byteLength": 21168,
            "uri": "buffer.bin"
        }
    ],
    "bufferViews": [
        {
            "buffer": 0,
            "byteLength": 1740,
            "byteOffset": 0,
            "target": 34963
        },
        {
            "buffer": 0,
            "byteLength": 5160,
            "byteOffset": 1740,
            "target": 34962
        },
        {
            "buffer": 0,
            "byteLength": 5160,
            "byteOffset": 6900,
            "target": 34962
        },
        {
            "buffer": 0,
            "byteLength": 3440,
            "byteOffset": 12060,
            "target": 34962
        },
        {
            "buffer": 0,
            "byteLength": 486,
            "byteOffset": 15500,
            "target": 34963
        },
        {
            "buffer": 0,
            "byteLength": 1020,
            "byteOffset": 15988,
            "target": 34962
        },
        {
            "buffer": 0,
            "byteLength": 1020,
            "byteOffset": 17008,
            "target": 34962
        },
        {
            "buffer": 0,
            "byteLength": 680,
            "byteOffset": 18028,
            "target": 34962
        },
        {
            "buffer": 0,
            "byteLength": 378,
            "byteOffset": 18708,
            "target": 34963
        },
        {
            "buffer": 0,
            "byteLength": 780,
            "byteOffset": 19088,
            "target": 34962
        },
        {
            "buffer": 0,
            "byteLength": 780,
            "byteOffset": 19868,
            "target": 34962
        },
        {
            "buffer": 0,
            "byteLength": 520,
            "byteOffset": 20648,
            "target": 34962
        }
    ],
    "scenes": [
        {
            "name": "Root Scene",
            "nodes": [
                0
            ]
        }
    ],
    "accessors": [
        {
            "componentType": 5123,
            "type": "SCALAR",
            "count": 870,
            "bufferView": 0,
            "byteOffset": 0
        },
        {
            "componentType": 5126,
            "type": "VEC3",
            "count": 430,
            "bufferView": 1,
            "byteOffset": 0,
            "min": [
                -0.0999999940395355,
                0.0,
                0.0
            ],
            "max": [
                0.0,
                0.0249999985098839,
                0.0999999940395355
            ]
        },
        {
            "componentType": 5126,
            "type": "VEC3",
            "count": 430,
            "bufferView": 2,
            "byteOffset": 0
        },
        {
            "componentType": 5126,
            "type": "VEC2",
            "count": 430,
            "bufferView": 3,
            "byteOffset": 0
        },
        {
            "componentType": 5123,
            "type": "SCALAR",
            "count": 243,
            "bufferView": 4,
            "byteOffset": 0
        },
        {
            "componentType": 5126,
            "type": "VEC3",
            "count": 85,
            "bufferView": 5,
            "byteOffset": 0,
            "min": [
                -0.0999999940395355,
                0.0249999985098839,
                0.0
            ],
            "max": [
                0.0,
                0.0249999985098839,
                0.0999999940395355
            ]
        },
        {
            "componentType": 5126,
            "type": "VEC3",
            "count": 85,
            "bufferView": 6,
            "byteOffset": 0
        },
        {
            "componentType": 5126,
            "type": "VEC2",
            "count": 85,
            "bufferView": 7,
            "byteOffset": 0
        },
        {
            "componentType": 5123,
            "type": "SCALAR",
            "count": 189,
            "bufferView": 8,
            "byteOffset": 0
        },
        {
            "componentType": 5126,
            "type": "VEC3",
            "count": 65,
            "bufferView": 9,
            "byteOffset": 0,
            "min": [
                -0.0796487107872963,
                0.0199999995529652,
                9.45703899983249e-15
            ],
            "max": [
                -2.52669001723672e-16,
                0.0199999995529652,
                0.0749999955296516
            ]
        },
        {
            "componentType": 5126,
            "type": "VEC3",
            "count": 65,
            "bufferView": 10,
            "byteOffset": 0
        },
        {
            "componentType": 5126,
            "type": "VEC2",
            "count": 65,
            "bufferView": 11,
            "byteOffset": 0
        }
    ],
    "samplers": [
        {}
    ],
    "materials": [
        {
            "name": "natureKit-wood",
            "alphaMode": "OPAQUE",
            "doubleSided": false,
            "extras": {
                "fromFBX": {
                    "shadingModel": "Phong",
                    "isTruePBR": false
                }
            },
            "pbrMetallicRoughness": {
                "baseColorFactor": [
                    1.0,
                    0.682353019714355,
                    0.435294091701508,
                    1.0
                ],
                "metallicFactor": 0.400000005960464,
                "roughnessFactor": 1.0
            }
        },
        {
            "name": "natureKit-leavesGreen",
            "alphaMode": "OPAQUE",
            "doubleSided": false,
            "extras": {
                "fromFBX": {
                    "shadingModel": "Phong",
                    "isTruePBR": false
                }
            },
            "pbrMetallicRoughness": {
                "baseColorFactor": [
                    0.352941185235977,
                    0.768627524375916,
                    0.713725507259369,
                    1.0
                ],
                "metallicFactor": 0.400000005960464,
                "roughnessFactor": 1.0
            }
        },
        {
            "name": "natureKit-water",
            "alphaMode": "OPAQUE",
            "doubleSided": false,
            "extras": {
                "fromFBX": {
                    "shadingModel": "Phong",
                    "isTruePBR": false
                }
            },
            "pbrMetallicRoughness": {
                "baseColorFactor": [
                    0.691176474094391,
                    0.957887828350067,
                    1.0,
                    1.0
                ],
                "metallicFactor": 0.400000005960464,
                "roughnessFactor": 1.0
            }
        }
    ],
    "meshes": [
        {
            "name": "ground_dirtRiverCornerBank",
            "primitives": [
                {
                    "material": 0,
                    "mode": 4,
                    "attributes": {
                        "NORMAL": 2,
                        "POSITION": 1,
                        "TEXCOORD_0": 3
                    },
                    "indices": 0
                },
                {
                    "material": 1,
                    "mode": 4,
                    "attributes": {
                        "NORMAL": 6,
                        "POSITION": 5,
                        "TEXCOORD_0": 7
                    },
                    "indices": 4
                },
                {
                    "material": 2,
                    "mode": 4,
                    "attributes": {
                        "NORMAL": 10,
                        "POSITION": 9,
                        "TEXCOORD_0": 11
                    },
                    "indices": 8
                }
            ]
        }
    ],
    "nodes": [
        {
            "name": "RootNode",
            "translation": [
                0.0,
                0.0,
                0.0
            ],
            "rotation": [
                0.0,
                0.0,
                0.0,
                1.0
            ],
            "scale": [
                1.0,
                1.0,
                1.0
            ],
            "children": [
                1
            ]
        },
        {
            "name": "ground_dirtRiverCornerBank",
            "translation": [
                -14.0,
                4.96314085004211e-15,
                -24.0
            ],
            "rotation": [
                0.0,
                0.0,
                0.0,
                1.0
            ],
            "scale": [
                100.0,
                100.0,
                100.0
            ],
            "mesh": 0
        }
    ]
}