{
    "asset": {
        "generator": "FBX2glTF v0.13.1",
        "version": "2.0"
    },
    "scene": 0,
    "buffers": [
        {
            "byteLength": 31128,
            "uri": "buffer.bin"
        }
    ],
    "bufferViews": [
        {
            "buffer": 0,
            "byteLength": 1800,
            "byteOffset": 0,
            "target": 34963
        },
        {
            "buffer": 0,
            "byteLength": 4800,
            "byteOffset": 1800,
            "target": 34962
        },
        {
            "buffer": 0,
            "byteLength": 4800,
            "byteOffset": 6600,
            "target": 34962
        },
        {
            "buffer": 0,
            "byteLength": 3200,
            "byteOffset": 11400,
            "target": 34962
        },
        {
            "buffer": 0,
            "byteLength": 312,
            "byteOffset": 14600,
            "target": 34963
        },
        {
            "buffer": 0,
            "byteLength": 720,
            "byteOffset": 14912,
            "target": 34962
        },
        {
            "buffer": 0,
            "byteLength": 720,
            "byteOffset": 15632,
            "target": 34962
        },
        {
            "buffer": 0,
            "byteLength": 480,
            "byteOffset": 16352,
            "target": 34962
        },
        {
            "buffer": 0,
            "byteLength": 204,
            "byteOffset": 16832,
            "target": 34963
        },
        {
            "buffer": 0,
            "byteLength": 624,
            "byteOffset": 17036,
            "target": 34962
        },
        {
            "buffer": 0,
            "byteLength": 624,
            "byteOffset": 17660,
            "target": 34962
        },
        {
            "buffer": 0,
            "byteLength": 416,
            "byteOffset": 18284,
            "target": 34962
        },
        {
            "buffer": 0,
            "byteLength": 204,
            "byteOffset": 18700,
            "target": 34963
        },
        {
            "buffer": 0,
            "byteLength": 624,
            "byteOffset": 18904,
            "target": 34962
        },
        {
            "buffer": 0,
            "byteLength": 624,
            "byteOffset": 19528,
            "target": 34962
        },
        {
            "buffer": 0,
            "byteLength": 416,
            "byteOffset": 20152,
            "target": 34962
        },
        {
            "buffer": 0,
            "byteLength": 300,
            "byteOffset": 20568,
            "target": 34963
        },
        {
            "buffer": 0,
            "byteLength": 1152,
            "byteOffset": 20868,
            "target": 34962
        },
        {
            "buffer": 0,
            "byteLength": 1152,
            "byteOffset": 22020,
            "target": 34962
        },
        {
            "buffer": 0,
            "byteLength": 768,
            "byteOffset": 23172,
            "target": 34962
        },
        {
            "buffer": 0,
            "byteLength": 300,
            "byteOffset": 23940,
            "target": 34963
        },
        {
            "buffer": 0,
            "byteLength": 1152,
            "byteOffset": 24240,
            "target": 34962
        },
        {
            "buffer": 0,
            "byteLength": 1152,
            "byteOffset": 25392,
            "target": 34962
        },
        {
            "buffer": 0,
            "byteLength": 768,
            "byteOffset": 26544,
            "target": 34962
        },
        {
            "buffer": 0,
            "byteLength": 180,
            "byteOffset": 27312,
            "target": 34963
        },
        {
            "buffer": 0,
            "byteLength": 648,
            "byteOffset": 27492,
            "target": 34962
        },
        {
            "buffer": 0,
            "byteLength": 648,
            "byteOffset": 28140,
            "target": 34962
        },
        {
            "buffer": 0,
            "byteLength": 432,
            "byteOffset": 28788,
            "target": 34962
        },
        {
            "buffer": 0,
            "byteLength": 180,
            "byteOffset": 29220,
            "target": 34963
        },
        {
            "buffer": 0,
            "byteLength": 648,
            "byteOffset": 29400,
            "target": 34962
        },
        {
            "buffer": 0,
            "byteLength": 648,
            "byteOffset": 30048,
            "target": 34962
        },
        {
            "buffer": 0,
            "byteLength": 432,
            "byteOffset": 30696,
            "target": 34962
        }
    ],
    "scenes": [
        {
            "name": "Root Scene",
            "nodes": [
                0
            ]
        }
    ],
    "accessors": [
        {
            "componentType": 5123,
            "type": "SCALAR",
            "count": 900,
            "bufferView": 0,
            "byteOffset": 0
        },
        {
            "componentType": 5126,
            "type": "VEC3",
            "count": 400,
            "bufferView": 1,
            "byteOffset": 0,
            "min": [
                -0.0567999966442585,
                0.0,
                0.0
            ],
            "max": [
                -0.000299999985145405,
                0.0850000008940697,
                0.109499998390675
            ]
        },
        {
            "componentType": 5126,
            "type": "VEC3",
            "count": 400,
            "bufferView": 2,
            "byteOffset": 0
        },
        {
            "componentType": 5126,
            "type": "VEC2",
            "count": 400,
            "bufferView": 3,
            "byteOffset": 0
        },
        {
            "componentType": 5123,
            "type": "SCALAR",
            "count": 156,
            "bufferView": 4,
            "byteOffset": 0
        },
        {
            "componentType": 5126,
            "type": "VEC3",
            "count": 60,
            "bufferView": 5,
            "byteOffset": 0,
            "min": [
                -0.054299995303154,
                0.0104999989271164,
                0.00600000005215406
            ],
            "max": [
                -0.00279999990016222,
                0.0744999945163727,
                0.105999998748302
            ]
        },
        {
            "componentType": 5126,
            "type": "VEC3",
            "count": 60,
            "bufferView": 6,
            "byteOffset": 0
        },
        {
            "componentType": 5126,
            "type": "VEC2",
            "count": 60,
            "bufferView": 7,
            "byteOffset": 0
        },
        {
            "componentType": 5123,
            "type": "SCALAR",
            "count": 102,
            "bufferView": 8,
            "byteOffset": 0
        },
        {
            "componentType": 5126,
            "type": "VEC3",
            "count": 52,
            "bufferView": 9,
            "byteOffset": 0,
            "min": [
                -0.0185907483100891,
                -0.0129999993368983,
                0.0749999955296516
            ],
            "max": [
                0.00585505412891507,
                0.00899999961256981,
                0.1891999989748
            ]
        },
        {
            "componentType": 5126,
            "type": "VEC3",
            "count": 52,
            "bufferView": 10,
            "byteOffset": 0
        },
        {
            "componentType": 5126,
            "type": "VEC2",
            "count": 52,
            "bufferView": 11,
            "byteOffset": 0
        },
        {
            "componentType": 5123,
            "type": "SCALAR",
            "count": 102,
            "bufferView": 12,
            "byteOffset": 0
        },
        {
            "componentType": 5126,
            "type": "VEC3",
            "count": 52,
            "bufferView": 13,
            "byteOffset": 0,
            "min": [
                -0.0185907483100891,
                -0.0129999993368983,
                0.0749999955296516
            ],
            "max": [
                0.00585505412891507,
                0.00899999961256981,
                0.1891999989748
            ]
        },
        {
            "componentType": 5126,
            "type": "VEC3",
            "count": 52,
            "bufferView": 14,
            "byteOffset": 0
        },
        {
            "componentType": 5126,
            "type": "VEC2",
            "count": 52,
            "bufferView": 15,
            "byteOffset": 0
        },
        {
            "componentType": 5123,
            "type": "SCALAR",
            "count": 150,
            "bufferView": 16,
            "byteOffset": 0
        },
        {
            "componentType": 5126,
            "type": "VEC3",
            "count": 96,
            "bufferView": 17,
            "byteOffset": 0,
            "min": [
                -0.0399999991059303,
                0.00600000005215406,
                0.0
            ],
            "max": [
                7.21911357868263e-17,
                0.0139999995008111,
                0.0399999991059303
            ]
        },
        {
            "componentType": 5126,
            "type": "VEC3",
            "count": 96,
            "bufferView": 18,
            "byteOffset": 0
        },
        {
            "componentType": 5126,
            "type": "VEC2",
            "count": 96,
            "bufferView": 19,
            "byteOffset": 0
        },
        {
            "componentType": 5123,
            "type": "SCALAR",
            "count": 150,
            "bufferView": 20,
            "byteOffset": 0
        },
        {
            "componentType": 5126,
            "type": "VEC3",
            "count": 96,
            "bufferView": 21,
            "byteOffset": 0,
            "min": [
                -0.0399999991059303,
                0.00600000005215406,
                0.0
            ],
            "max": [
                7.21911357868263e-17,
                0.0139999995008111,
                0.0399999991059303
            ]
        },
        {
            "componentType": 5126,
            "type": "VEC3",
            "count": 96,
            "bufferView": 22,
            "byteOffset": 0
        },
        {
            "componentType": 5126,
            "type": "VEC2",
            "count": 96,
            "bufferView": 23,
            "byteOffset": 0
        },
        {
            "componentType": 5123,
            "type": "SCALAR",
            "count": 90,
            "bufferView": 24,
            "byteOffset": 0
        },
        {
            "componentType": 5126,
            "type": "VEC3",
            "count": 54,
            "bufferView": 25,
            "byteOffset": 0,
            "min": [
                -0.156469404697418,
                -0.0129999993368983,
                0.0769999995827675
            ],
            "max": [
                0.00585505412891507,
                0.00699999975040555,
                0.187199994921684
            ]
        },
        {
            "componentType": 5126,
            "type": "VEC3",
            "count": 54,
            "bufferView": 26,
            "byteOffset": 0
        },
        {
            "componentType": 5126,
            "type": "VEC2",
            "count": 54,
            "bufferView": 27,
            "byteOffset": 0
        },
        {
            "componentType": 5123,
            "type": "SCALAR",
            "count": 90,
            "bufferView": 28,
            "byteOffset": 0
        },
        {
            "componentType": 5126,
            "type": "VEC3",
            "count": 54,
            "bufferView": 29,
            "byteOffset": 0,
            "min": [
                -0.156469404697418,
                -0.0129999993368983,
                0.0769999995827675
            ],
            "max": [
                0.00585505412891507,
                0.00699999975040555,
                0.187199994921684
            ]
        },
        {
            "componentType": 5126,
            "type": "VEC3",
            "count": 54,
            "bufferView": 30,
            "byteOffset": 0
        },
        {
            "componentType": 5126,
            "type": "VEC2",
            "count": 54,
            "bufferView": 31,
            "byteOffset": 0
        }
    ],
    "samplers": [
        {}
    ],
    "materials": [
        {
            "name": "wood",
            "alphaMode": "OPAQUE",
            "doubleSided": false,
            "extras": {
                "fromFBX": {
                    "shadingModel": "Phong",
                    "isTruePBR": false
                }
            },
            "pbrMetallicRoughness": {
                "baseColorFactor": [
                    0.896226406097412,
                    0.601571202278137,
                    0.39315590262413,
                    1.0
                ],
                "metallicFactor": 0.400000005960464,
                "roughnessFactor": 1.0
            }
        },
        {
            "name": "carpetWhite",
            "alphaMode": "OPAQUE",
            "doubleSided": false,
            "extras": {
                "fromFBX": {
                    "shadingModel": "Phong",
                    "isTruePBR": false
                }
            },
            "pbrMetallicRoughness": {
                "baseColorFactor": [
                    0.972549021244049,
                    1.0,
                    1.0,
                    1.0
                ],
                "metallicFactor": 0.400000005960464,
                "roughnessFactor": 1.0
            }
        },
        {
            "name": "carpet",
            "alphaMode": "OPAQUE",
            "doubleSided": false,
            "extras": {
                "fromFBX": {
                    "shadingModel": "Phong",
                    "isTruePBR": false
                }
            },
            "pbrMetallicRoughness": {
                "baseColorFactor": [
                    0.943396210670471,
                    0.367175996303558,
                    0.342648595571518,
                    1.0
                ],
                "metallicFactor": 0.400000005960464,
                "roughnessFactor": 1.0
            }
        }
    ],
    "meshes": [
        {
            "name": "bedBunk",
            "primitives": [
                {
                    "material": 0,
                    "mode": 4,
                    "attributes": {
                        "NORMAL": 2,
                        "POSITION": 1,
                        "TEXCOORD_0": 3
                    },
                    "indices": 0
                },
                {
                    "material": 1,
                    "mode": 4,
                    "attributes": {
                        "NORMAL": 6,
                        "POSITION": 5,
                        "TEXCOORD_0": 7
                    },
                    "indices": 4
                }
            ]
        },
        {
            "name": "coverBottom",
            "primitives": [
                {
                    "material": 1,
                    "mode": 4,
                    "attributes": {
                        "NORMAL": 10,
                        "POSITION": 9,
                        "TEXCOORD_0": 11
                    },
                    "indices": 8
                },
                {
                    "material": 2,
                    "mode": 4,
                    "attributes": {
                        "NORMAL": 26,
                        "POSITION": 25,
                        "TEXCOORD_0": 27
                    },
                    "indices": 24
                }
            ]
        },
        {
            "name": "coverTop",
            "primitives": [
                {
                    "material": 1,
                    "mode": 4,
                    "attributes": {
                        "NORMAL": 14,
                        "POSITION": 13,
                        "TEXCOORD_0": 15
                    },
                    "indices": 12
                },
                {
                    "material": 2,
                    "mode": 4,
                    "attributes": {
                        "NORMAL": 30,
                        "POSITION": 29,
                        "TEXCOORD_0": 31
                    },
                    "indices": 28
                }
            ]
        },
        {
            "name": "pillowBottom",
            "primitives": [
                {
                    "material": 1,
                    "mode": 4,
                    "attributes": {
                        "NORMAL": 18,
                        "POSITION": 17,
                        "TEXCOORD_0": 19
                    },
                    "indices": 16
                }
            ]
        },
        {
            "name": "pillowTop",
            "primitives": [
                {
                    "material": 1,
                    "mode": 4,
                    "attributes": {
                        "NORMAL": 22,
                        "POSITION": 21,
                        "TEXCOORD_0": 23
                    },
                    "indices": 20
                }
            ]
        }
    ],
    "nodes": [
        {
            "name": "RootNode",
            "translation": [
                0.0,
                0.0,
                0.0
            ],
            "rotation": [
                0.0,
                0.0,
                0.0,
                1.0
            ],
            "scale": [
                1.0,
                1.0,
                1.0
            ],
            "children": [
                1
            ]
        },
        {
            "name": "bedBunk",
            "translation": [
                0.0,
                0.0,
                0.0
            ],
            "rotation": [
                0.0,
                0.0,
                0.0,
                1.0
            ],
            "scale": [
                100.0,
                100.0,
                100.0
            ],
            "children": [
                2,
                3,
                4,
                5
            ],
            "mesh": 0
        },
        {
            "name": "coverBottom",
            "translation": [
                0.0374999977648258,
                0.0195000004023314,
                0.0827301740646362
            ],
            "rotation": [
                -0.0,
                -0.70710676908493,
                0.0,
                0.70710676908493
            ],
            "scale": [
                0.5,
                0.5,
                0.5
            ],
            "mesh": 1
        },
        {
            "name": "coverTop",
            "translation": [
                0.0374999977648258,
                0.0734999999403954,
                0.0827301740646362
            ],
            "rotation": [
                -0.0,
                -0.70710676908493,
                0.0,
                0.70710676908493
            ],
            "scale": [
                0.5,
                0.5,
                0.5
            ],
            "mesh": 2
        },
        {
            "name": "pillowBottom",
            "translation": [
                -0.011799999512732,
                0.0197044499218464,
                0.106626696884632
            ],
            "rotation": [
                -0.0443996004760265,
                -0.705711483955383,
                0.0443996004760265,
                0.705711483955383
            ],
            "scale": [
                0.5,
                0.5,
                0.850000023841858
            ],
            "mesh": 3
        },
        {
            "name": "pillowTop",
            "translation": [
                -0.011799999512732,
                0.0737044438719749,
                0.106626696884632
            ],
            "rotation": [
                -0.0443996004760265,
                -0.705711483955383,
                0.0443996004760265,
                0.705711483955383
            ],
            "scale": [
                0.5,
                0.5,
                0.850000023841858
            ],
            "mesh": 4
        }
    ]
}