{
    "asset": {
        "generator": "FBX2glTF v0.13.1",
        "version": "2.0"
    },
    "scene": 0,
    "buffers": [
        {
            "byteLength": 15952,
            "uri": "buffer.bin"
        }
    ],
    "bufferViews": [
        {
            "buffer": 0,
            "byteLength": 300,
            "byteOffset": 0,
            "target": 34963
        },
        {
            "buffer": 0,
            "byteLength": 888,
            "byteOffset": 300,
            "target": 34962
        },
        {
            "buffer": 0,
            "byteLength": 888,
            "byteOffset": 1188,
            "target": 34962
        },
        {
            "buffer": 0,
            "byteLength": 592,
            "byteOffset": 2076,
            "target": 34962
        },
        {
            "buffer": 0,
            "byteLength": 420,
            "byteOffset": 2668,
            "target": 34963
        },
        {
            "buffer": 0,
            "byteLength": 1440,
            "byteOffset": 3088,
            "target": 34962
        },
        {
            "buffer": 0,
            "byteLength": 1440,
            "byteOffset": 4528,
            "target": 34962
        },
        {
            "buffer": 0,
            "byteLength": 960,
            "byteOffset": 5968,
            "target": 34962
        },
        {
            "buffer": 0,
            "byteLength": 228,
            "byteOffset": 6928,
            "target": 34963
        },
        {
            "buffer": 0,
            "byteLength": 984,
            "byteOffset": 7156,
            "target": 34962
        },
        {
            "buffer": 0,
            "byteLength": 984,
            "byteOffset": 8140,
            "target": 34962
        },
        {
            "buffer": 0,
            "byteLength": 656,
            "byteOffset": 9124,
            "target": 34962
        },
        {
            "buffer": 0,
            "byteLength": 732,
            "byteOffset": 9780,
            "target": 34963
        },
        {
            "buffer": 0,
            "byteLength": 2040,
            "byteOffset": 10512,
            "target": 34962
        },
        {
            "buffer": 0,
            "byteLength": 2040,
            "byteOffset": 12552,
            "target": 34962
        },
        {
            "buffer": 0,
            "byteLength": 1360,
            "byteOffset": 14592,
            "target": 34962
        }
    ],
    "scenes": [
        {
            "name": "Root Scene",
            "nodes": [
                0
            ]
        }
    ],
    "accessors": [
        {
            "componentType": 5123,
            "type": "SCALAR",
            "count": 150,
            "bufferView": 0,
            "byteOffset": 0
        },
        {
            "componentType": 5126,
            "type": "VEC3",
            "count": 74,
            "bufferView": 1,
            "byteOffset": 0,
            "min": [
                -0.044999998062849,
                0.00999999977648258,
                -0.0912835225462914
            ],
            "max": [
                0.044999998062849,
                0.0499999970197678,
                0.0087164705619216
            ]
        },
        {
            "componentType": 5126,
            "type": "VEC3",
            "count": 74,
            "bufferView": 2,
            "byteOffset": 0
        },
        {
            "componentType": 5126,
            "type": "VEC2",
            "count": 74,
            "bufferView": 3,
            "byteOffset": 0
        },
        {
            "componentType": 5123,
            "type": "SCALAR",
            "count": 210,
            "bufferView": 4,
            "byteOffset": 0
        },
        {
            "componentType": 5126,
            "type": "VEC3",
            "count": 120,
            "bufferView": 5,
            "byteOffset": 0,
            "min": [
                -0.0599999986588955,
                0.0,
                -0.0912835225462914
            ],
            "max": [
                0.0599999986588955,
                0.0700000002980232,
                0.0687164664268494
            ]
        },
        {
            "componentType": 5126,
            "type": "VEC3",
            "count": 120,
            "bufferView": 6,
            "byteOffset": 0
        },
        {
            "componentType": 5126,
            "type": "VEC2",
            "count": 120,
            "bufferView": 7,
            "byteOffset": 0
        },
        {
            "componentType": 5123,
            "type": "SCALAR",
            "count": 114,
            "bufferView": 8,
            "byteOffset": 0
        },
        {
            "componentType": 5126,
            "type": "VEC3",
            "count": 82,
            "bufferView": 9,
            "byteOffset": 0,
            "min": [
                -0.0529289282858372,
                0.00999999977648258,
                -0.0912835225462914
            ],
            "max": [
                0.0529289282858372,
                0.0690049603581429,
                0.101283498108387
            ]
        },
        {
            "componentType": 5126,
            "type": "VEC3",
            "count": 82,
            "bufferView": 10,
            "byteOffset": 0
        },
        {
            "componentType": 5126,
            "type": "VEC2",
            "count": 82,
            "bufferView": 11,
            "byteOffset": 0
        },
        {
            "componentType": 5123,
            "type": "SCALAR",
            "count": 366,
            "bufferView": 12,
            "byteOffset": 0
        },
        {
            "componentType": 5126,
            "type": "VEC3",
            "count": 170,
            "bufferView": 13,
            "byteOffset": 0,
            "min": [
                -0.0599999986588955,
                0.0,
                -0.101283498108387
            ],
            "max": [
                0.0599999986588955,
                0.0749999955296516,
                0.101283498108387
            ]
        },
        {
            "componentType": 5126,
            "type": "VEC3",
            "count": 170,
            "bufferView": 14,
            "byteOffset": 0
        },
        {
            "componentType": 5126,
            "type": "VEC2",
            "count": 170,
            "bufferView": 15,
            "byteOffset": 0
        }
    ],
    "samplers": [
        {}
    ],
    "materials": [
        {
            "name": "metal",
            "alphaMode": "OPAQUE",
            "doubleSided": false,
            "extras": {
                "fromFBX": {
                    "shadingModel": "Phong",
                    "isTruePBR": false
                }
            },
            "pbrMetallicRoughness": {
                "baseColorFactor": [
                    0.843137323856354,
                    0.870588183403015,
                    0.909803926944733,
                    1.0
                ],
                "metallicFactor": 0.400000005960464,
                "roughnessFactor": 1.0
            }
        },
        {
            "name": "metalDark",
            "alphaMode": "OPAQUE",
            "doubleSided": false,
            "extras": {
                "fromFBX": {
                    "shadingModel": "Phong",
                    "isTruePBR": false
                }
            },
            "pbrMetallicRoughness": {
                "baseColorFactor": [
                    0.675062298774719,
                    0.710021913051605,
                    0.77358490228653,
                    1.0
                ],
                "metallicFactor": 0.400000005960464,
                "roughnessFactor": 1.0
            }
        },
        {
            "name": "dark",
            "alphaMode": "OPAQUE",
            "doubleSided": false,
            "extras": {
                "fromFBX": {
                    "shadingModel": "Phong",
                    "isTruePBR": false
                }
            },
            "pbrMetallicRoughness": {
                "baseColorFactor": [
                    0.274509787559509,
                    0.298039197921753,
                    0.341176509857178,
                    1.0
                ],
                "metallicFactor": 0.400000005960464,
                "roughnessFactor": 1.0
            }
        },
        {
            "name": "metalRed",
            "alphaMode": "OPAQUE",
            "doubleSided": false,
            "extras": {
                "fromFBX": {
                    "shadingModel": "Phong",
                    "isTruePBR": false
                }
            },
            "pbrMetallicRoughness": {
                "baseColorFactor": [
                    1.0,
                    0.62852418422699,
                    0.202830195426941,
                    1.0
                ],
                "metallicFactor": 0.400000005960464,
                "roughnessFactor": 1.0
            }
        }
    ],
    "meshes": [
        {
            "name": "craft_racer",
            "primitives": [
                {
                    "material": 0,
                    "mode": 4,
                    "attributes": {
                        "NORMAL": 2,
                        "POSITION": 1,
                        "TEXCOORD_0": 3
                    },
                    "indices": 0
                },
                {
                    "material": 1,
                    "mode": 4,
                    "attributes": {
                        "NORMAL": 6,
                        "POSITION": 5,
                        "TEXCOORD_0": 7
                    },
                    "indices": 4
                },
                {
                    "material": 2,
                    "mode": 4,
                    "attributes": {
                        "NORMAL": 10,
                        "POSITION": 9,
                        "TEXCOORD_0": 11
                    },
                    "indices": 8
                },
                {
                    "material": 3,
                    "mode": 4,
                    "attributes": {
                        "NORMAL": 14,
                        "POSITION": 13,
                        "TEXCOORD_0": 15
                    },
                    "indices": 12
                }
            ]
        }
    ],
    "nodes": [
        {
            "name": "RootNode",
            "translation": [
                0.0,
                0.0,
                0.0
            ],
            "rotation": [
                0.0,
                0.0,
                0.0,
                1.0
            ],
            "scale": [
                1.0,
                1.0,
                1.0
            ],
            "children": [
                1
            ]
        },
        {
            "name": "craft_racer",
            "translation": [
                -2.0,
                0.0,
                -1.5
            ],
            "rotation": [
                0.0,
                0.0,
                0.0,
                1.0
            ],
            "scale": [
                10.0,
                10.0,
                10.0
            ],
            "mesh": 0
        }
    ]
}