{
    "asset": {
        "generator": "FBX2glTF v0.13.1",
        "version": "2.0"
    },
    "scene": 0,
    "buffers": [
        {
            "byteLength": 142972,
            "uri": "buffer.bin"
        }
    ],
    "bufferViews": [
        {
            "buffer": 0,
            "byteLength": 6594,
            "byteOffset": 0,
            "target": 34963
        },
        {
            "buffer": 0,
            "byteLength": 19584,
            "byteOffset": 6596,
            "target": 34962
        },
        {
            "buffer": 0,
            "byteLength": 19584,
            "byteOffset": 26180,
            "target": 34962
        },
        {
            "buffer": 0,
            "byteLength": 26112,
            "byteOffset": 45764,
            "target": 34962
        },
        {
            "buffer": 0,
            "byteLength": 13056,
            "byteOffset": 71876,
            "target": 34962
        },
        {
            "buffer": 0,
            "byteLength": 1650,
            "byteOffset": 84932,
            "target": 34963
        },
        {
            "buffer": 0,
            "byteLength": 4812,
            "byteOffset": 86584,
            "target": 34962
        },
        {
            "buffer": 0,
            "byteLength": 4812,
            "byteOffset": 91396,
            "target": 34962
        },
        {
            "buffer": 0,
            "byteLength": 6416,
            "byteOffset": 96208,
            "target": 34962
        },
        {
            "buffer": 0,
            "byteLength": 3208,
            "byteOffset": 102624,
            "target": 34962
        },
        {
            "buffer": 0,
            "byteLength": 516,
            "byteOffset": 105832,
            "target": 34963
        },
        {
            "buffer": 0,
            "byteLength": 1776,
            "byteOffset": 106348,
            "target": 34962
        },
        {
            "buffer": 0,
            "byteLength": 1776,
            "byteOffset": 108124,
            "target": 34962
        },
        {
            "buffer": 0,
            "byteLength": 2368,
            "byteOffset": 109900,
            "target": 34962
        },
        {
            "buffer": 0,
            "byteLength": 1184,
            "byteOffset": 112268,
            "target": 34962
        },
        {
            "buffer": 0,
            "byteLength": 516,
            "byteOffset": 113452,
            "target": 34963
        },
        {
            "buffer": 0,
            "byteLength": 1776,
            "byteOffset": 113968,
            "target": 34962
        },
        {
            "buffer": 0,
            "byteLength": 1776,
            "byteOffset": 115744,
            "target": 34962
        },
        {
            "buffer": 0,
            "byteLength": 2368,
            "byteOffset": 117520,
            "target": 34962
        },
        {
            "buffer": 0,
            "byteLength": 1184,
            "byteOffset": 119888,
            "target": 34962
        },
        {
            "buffer": 0,
            "byteLength": 516,
            "byteOffset": 121072,
            "target": 34963
        },
        {
            "buffer": 0,
            "byteLength": 1776,
            "byteOffset": 121588,
            "target": 34962
        },
        {
            "buffer": 0,
            "byteLength": 1776,
            "byteOffset": 123364,
            "target": 34962
        },
        {
            "buffer": 0,
            "byteLength": 2368,
            "byteOffset": 125140,
            "target": 34962
        },
        {
            "buffer": 0,
            "byteLength": 1184,
            "byteOffset": 127508,
            "target": 34962
        },
        {
            "buffer": 0,
            "byteLength": 1080,
            "byteOffset": 128692,
            "target": 34963
        },
        {
            "buffer": 0,
            "byteLength": 3300,
            "byteOffset": 129772,
            "target": 34962
        },
        {
            "buffer": 0,
            "byteLength": 3300,
            "byteOffset": 133072,
            "target": 34962
        },
        {
            "buffer": 0,
            "byteLength": 4400,
            "byteOffset": 136372,
            "target": 34962
        },
        {
            "buffer": 0,
            "byteLength": 2200,
            "byteOffset": 140772,
            "target": 34962
        }
    ],
    "scenes": [
        {
            "name": "Root Scene",
            "nodes": [
                0
            ]
        }
    ],
    "accessors": [
        {
            "componentType": 5123,
            "type": "SCALAR",
            "count": 3297,
            "bufferView": 0,
            "byteOffset": 0
        },
        {
            "componentType": 5126,
            "type": "VEC3",
            "count": 1632,
            "bufferView": 1,
            "byteOffset": 0,
            "min": [
                -2.40000009536743,
                0.0,
                -5.29999971389771
            ],
            "max": [
                2.40000009536743,
                9.96352005004883,
                5.29999971389771
            ]
        },
        {
            "componentType": 5126,
            "type": "VEC3",
            "count": 1632,
            "bufferView": 2,
            "byteOffset": 0
        },
        {
            "componentType": 5126,
            "type": "VEC4",
            "count": 1632,
            "bufferView": 3,
            "byteOffset": 0
        },
        {
            "componentType": 5126,
            "type": "VEC2",
            "count": 1632,
            "bufferView": 4,
            "byteOffset": 0
        },
        {
            "componentType": 5123,
            "type": "SCALAR",
            "count": 825,
            "bufferView": 5,
            "byteOffset": 0
        },
        {
            "componentType": 5126,
            "type": "VEC3",
            "count": 401,
            "bufferView": 6,
            "byteOffset": 0,
            "min": [
                -2.20000004768372,
                0.0,
                -0.09999980032444
            ],
            "max": [
                2.20000004768372,
                4.72499990463257,
                1.13799369335175
            ]
        },
        {
            "componentType": 5126,
            "type": "VEC3",
            "count": 401,
            "bufferView": 7,
            "byteOffset": 0
        },
        {
            "componentType": 5126,
            "type": "VEC4",
            "count": 401,
            "bufferView": 8,
            "byteOffset": 0
        },
        {
            "componentType": 5126,
            "type": "VEC2",
            "count": 401,
            "bufferView": 9,
            "byteOffset": 0
        },
        {
            "componentType": 5123,
            "type": "SCALAR",
            "count": 258,
            "bufferView": 10,
            "byteOffset": 0
        },
        {
            "componentType": 5126,
            "type": "VEC3",
            "count": 148,
            "bufferView": 11,
            "byteOffset": 0,
            "min": [
                -0.17545048892498,
                0.0,
                -1.17888998985291
            ],
            "max": [
                0.17545048892498,
                0.962024986743927,
                0.17545048892498
            ]
        },
        {
            "componentType": 5126,
            "type": "VEC3",
            "count": 148,
            "bufferView": 12,
            "byteOffset": 0
        },
        {
            "componentType": 5126,
            "type": "VEC4",
            "count": 148,
            "bufferView": 13,
            "byteOffset": 0
        },
        {
            "componentType": 5126,
            "type": "VEC2",
            "count": 148,
            "bufferView": 14,
            "byteOffset": 0
        },
        {
            "componentType": 5123,
            "type": "SCALAR",
            "count": 258,
            "bufferView": 15,
            "byteOffset": 0
        },
        {
            "componentType": 5126,
            "type": "VEC3",
            "count": 148,
            "bufferView": 16,
            "byteOffset": 0,
            "min": [
                -0.17545048892498,
                0.0,
                -1.17888998985291
            ],
            "max": [
                0.17545048892498,
                0.962024986743927,
                0.17545048892498
            ]
        },
        {
            "componentType": 5126,
            "type": "VEC3",
            "count": 148,
            "bufferView": 17,
            "byteOffset": 0
        },
        {
            "componentType": 5126,
            "type": "VEC4",
            "count": 148,
            "bufferView": 18,
            "byteOffset": 0
        },
        {
            "componentType": 5126,
            "type": "VEC2",
            "count": 148,
            "bufferView": 19,
            "byteOffset": 0
        },
        {
            "componentType": 5123,
            "type": "SCALAR",
            "count": 258,
            "bufferView": 20,
            "byteOffset": 0
        },
        {
            "componentType": 5126,
            "type": "VEC3",
            "count": 148,
            "bufferView": 21,
            "byteOffset": 0,
            "min": [
                -0.17545048892498,
                -7.21911410807822e-16,
                -1.17888998985291
            ],
            "max": [
                0.17545048892498,
                0.962024986743927,
                0.17545048892498
            ]
        },
        {
            "componentType": 5126,
            "type": "VEC3",
            "count": 148,
            "bufferView": 22,
            "byteOffset": 0
        },
        {
            "componentType": 5126,
            "type": "VEC4",
            "count": 148,
            "bufferView": 23,
            "byteOffset": 0
        },
        {
            "componentType": 5126,
            "type": "VEC2",
            "count": 148,
            "bufferView": 24,
            "byteOffset": 0
        },
        {
            "componentType": 5123,
            "type": "SCALAR",
            "count": 540,
            "bufferView": 25,
            "byteOffset": 0
        },
        {
            "componentType": 5126,
            "type": "VEC3",
            "count": 275,
            "bufferView": 26,
            "byteOffset": 0,
            "min": [
                -2.20000004768372,
                0.0,
                -0.09999980032444
            ],
            "max": [
                2.20000004768372,
                3.625,
                0.891382575035095
            ]
        },
        {
            "componentType": 5126,
            "type": "VEC3",
            "count": 275,
            "bufferView": 27,
            "byteOffset": 0
        },
        {
            "componentType": 5126,
            "type": "VEC4",
            "count": 275,
            "bufferView": 28,
            "byteOffset": 0
        },
        {
            "componentType": 5126,
            "type": "VEC2",
            "count": 275,
            "bufferView": 29,
            "byteOffset": 0
        }
    ],
    "images": [
        {
            "name": "colormap.png",
            "uri": "colormap.png"
        }
    ],
    "samplers": [
        {}
    ],
    "textures": [
        {
            "name": "DiffuseColor_Texture",
            "sampler": 0,
            "source": 0
        }
    ],
    "materials": [
        {
            "name": "colormap",
            "alphaMode": "OPAQUE",
            "doubleSided": false,
            "extras": {
                "fromFBX": {
                    "shadingModel": "Lambert",
                    "isTruePBR": false
                }
            },
            "pbrMetallicRoughness": {
                "baseColorTexture": {
                    "index": 0,
                    "texCoord": 0
                },
                "baseColorFactor": [
                    1.0,
                    1.0,
                    1.0,
                    1.0
                ],
                "metallicFactor": 0.200000002980232,
                "roughnessFactor": 0.800000011920929
            }
        }
    ],
    "meshes": [
        {
            "name": "ship-pirate-medium",
            "primitives": [
                {
                    "material": 0,
                    "mode": 4,
                    "attributes": {
                        "NORMAL": 2,
                        "POSITION": 1,
                        "TANGENT": 3,
                        "TEXCOORD_0": 4
                    },
                    "indices": 0
                }
            ]
        },
        {
            "name": "sail-a",
            "primitives": [
                {
                    "material": 0,
                    "mode": 4,
                    "attributes": {
                        "NORMAL": 7,
                        "POSITION": 6,
                        "TANGENT": 8,
                        "TEXCOORD_0": 9
                    },
                    "indices": 5
                }
            ]
        },
        {
            "name": "flag-c",
            "primitives": [
                {
                    "material": 0,
                    "mode": 4,
                    "attributes": {
                        "NORMAL": 12,
                        "POSITION": 11,
                        "TANGENT": 13,
                        "TEXCOORD_0": 14
                    },
                    "indices": 10
                }
            ]
        },
        {
            "name": "flag-b",
            "primitives": [
                {
                    "material": 0,
                    "mode": 4,
                    "attributes": {
                        "NORMAL": 17,
                        "POSITION": 16,
                        "TANGENT": 18,
                        "TEXCOORD_0": 19
                    },
                    "indices": 15
                }
            ]
        },
        {
            "name": "flag-a",
            "primitives": [
                {
                    "material": 0,
                    "mode": 4,
                    "attributes": {
                        "NORMAL": 22,
                        "POSITION": 21,
                        "TANGENT": 23,
                        "TEXCOORD_0": 24
                    },
                    "indices": 20
                }
            ]
        },
        {
            "name": "sail-b",
            "primitives": [
                {
                    "material": 0,
                    "mode": 4,
                    "attributes": {
                        "NORMAL": 27,
                        "POSITION": 26,
                        "TANGENT": 28,
                        "TEXCOORD_0": 29
                    },
                    "indices": 25
                }
            ]
        }
    ],
    "nodes": [
        {
            "name": "RootNode",
            "translation": [
                0.0,
                0.0,
                0.0
            ],
            "rotation": [
                0.0,
                0.0,
                0.0,
                1.0
            ],
            "scale": [
                1.0,
                1.0,
                1.0
            ],
            "children": [
                1
            ]
        },
        {
            "name": "ship-pirate-medium",
            "translation": [
                0.0,
                0.0,
                0.0
            ],
            "rotation": [
                0.0,
                0.0,
                0.0,
                1.0
            ],
            "scale": [
                1.0,
                1.0,
                1.0
            ],
            "children": [
                2,
                3,
                4,
                5,
                6
            ],
            "mesh": 0
        },
        {
            "name": "sail-a",
            "translation": [
                -2.16573407360479e-15,
                3.13851976394653,
                0.666627466678619
            ],
            "rotation": [
                0.0,
                0.0,
                0.0,
                1.0
            ],
            "scale": [
                1.0,
                1.0,
                1.0
            ],
            "mesh": 1
        },
        {
            "name": "flag-c",
            "translation": [
                -9.3848480758039e-15,
                8.23797416687012,
                -4.0072660446167
            ],
            "rotation": [
                0.0,
                0.0,
                0.0,
                1.0
            ],
            "scale": [
                1.0,
                1.0,
                1.0
            ],
            "mesh": 2
        },
        {
            "name": "flag-b",
            "translation": [
                -1.22724943543099e-14,
                8.83797550201416,
                0.680233895778656
            ],
            "rotation": [
                0.0,
                0.0,
                0.0,
                1.0
            ],
            "scale": [
                1.0,
                1.0,
                1.0
            ],
            "mesh": 3
        },
        {
            "name": "flag-a",
            "translation": [
                5.05337992859432e-15,
                5.48097515106201,
                2.96532249450684
            ],
            "rotation": [
                0.0,
                0.0,
                0.0,
                1.0
            ],
            "scale": [
                1.0,
                1.0,
                1.0
            ],
            "mesh": 4
        },
        {
            "name": "sail-b",
            "translation": [
                -6.49720222081437e-15,
                4.54745626449585,
                -4.0072660446167
            ],
            "rotation": [
                0.0,
                0.0,
                0.0,
                1.0
            ],
            "scale": [
                1.0,
                1.0,
                1.0
            ],
            "mesh": 5
        }
    ]
}