{
    "asset": {
        "generator": "FBX2glTF v0.13.1",
        "version": "2.0"
    },
    "scene": 0,
    "buffers": [
        {
            "byteLength": 96180,
            "uri": "buffer.bin"
        }
    ],
    "bufferViews": [
        {
            "buffer": 0,
            "byteLength": 4068,
            "byteOffset": 0,
            "target": 34963
        },
        {
            "buffer": 0,
            "byteLength": 11760,
            "byteOffset": 4068,
            "target": 34962
        },
        {
            "buffer": 0,
            "byteLength": 11760,
            "byteOffset": 15828,
            "target": 34962
        },
        {
            "buffer": 0,
            "byteLength": 15680,
            "byteOffset": 27588,
            "target": 34962
        },
        {
            "buffer": 0,
            "byteLength": 7840,
            "byteOffset": 43268,
            "target": 34962
        },
        {
            "buffer": 0,
            "byteLength": 1896,
            "byteOffset": 51108,
            "target": 34963
        },
        {
            "buffer": 0,
            "byteLength": 5160,
            "byteOffset": 53004,
            "target": 34962
        },
        {
            "buffer": 0,
            "byteLength": 5160,
            "byteOffset": 58164,
            "target": 34962
        },
        {
            "buffer": 0,
            "byteLength": 6880,
            "byteOffset": 63324,
            "target": 34962
        },
        {
            "buffer": 0,
            "byteLength": 3440,
            "byteOffset": 70204,
            "target": 34962
        },
        {
            "buffer": 0,
            "byteLength": 1896,
            "byteOffset": 73644,
            "target": 34963
        },
        {
            "buffer": 0,
            "byteLength": 5160,
            "byteOffset": 75540,
            "target": 34962
        },
        {
            "buffer": 0,
            "byteLength": 5160,
            "byteOffset": 80700,
            "target": 34962
        },
        {
            "buffer": 0,
            "byteLength": 6880,
            "byteOffset": 85860,
            "target": 34962
        },
        {
            "buffer": 0,
            "byteLength": 3440,
            "byteOffset": 92740,
            "target": 34962
        }
    ],
    "scenes": [
        {
            "name": "Root Scene",
            "nodes": [
                0
            ]
        }
    ],
    "accessors": [
        {
            "componentType": 5123,
            "type": "SCALAR",
            "count": 2034,
            "bufferView": 0,
            "byteOffset": 0
        },
        {
            "componentType": 5126,
            "type": "VEC3",
            "count": 980,
            "bufferView": 1,
            "byteOffset": 0,
            "min": [
                -0.549999952316284,
                0.159499362111092,
                -1.29999995231628
            ],
            "max": [
                0.549999952316284,
                1.57119560241699,
                1.29999995231628
            ]
        },
        {
            "componentType": 5126,
            "type": "VEC3",
            "count": 980,
            "bufferView": 2,
            "byteOffset": 0
        },
        {
            "componentType": 5126,
            "type": "VEC4",
            "count": 980,
            "bufferView": 3,
            "byteOffset": 0
        },
        {
            "componentType": 5126,
            "type": "VEC2",
            "count": 980,
            "bufferView": 4,
            "byteOffset": 0
        },
        {
            "componentType": 5123,
            "type": "SCALAR",
            "count": 948,
            "bufferView": 5,
            "byteOffset": 0
        },
        {
            "componentType": 5126,
            "type": "VEC3",
            "count": 430,
            "bufferView": 6,
            "byteOffset": 0,
            "min": [
                -0.491499960422516,
                -0.359499365091324,
                -0.380595803260803
            ],
            "max": [
                0.491499960422516,
                0.0,
                0.380595803260803
            ]
        },
        {
            "componentType": 5126,
            "type": "VEC3",
            "count": 430,
            "bufferView": 7,
            "byteOffset": 0
        },
        {
            "componentType": 5126,
            "type": "VEC4",
            "count": 430,
            "bufferView": 8,
            "byteOffset": 0
        },
        {
            "componentType": 5126,
            "type": "VEC2",
            "count": 430,
            "bufferView": 9,
            "byteOffset": 0
        },
        {
            "componentType": 5123,
            "type": "SCALAR",
            "count": 948,
            "bufferView": 10,
            "byteOffset": 0
        },
        {
            "componentType": 5126,
            "type": "VEC3",
            "count": 430,
            "bufferView": 11,
            "byteOffset": 0,
            "min": [
                -0.491499960422516,
                -0.359499365091324,
                -0.380595803260803
            ],
            "max": [
                0.491499960422516,
                0.0,
                0.380595803260803
            ]
        },
        {
            "componentType": 5126,
            "type": "VEC3",
            "count": 430,
            "bufferView": 12,
            "byteOffset": 0
        },
        {
            "componentType": 5126,
            "type": "VEC4",
            "count": 430,
            "bufferView": 13,
            "byteOffset": 0
        },
        {
            "componentType": 5126,
            "type": "VEC2",
            "count": 430,
            "bufferView": 14,
            "byteOffset": 0
        }
    ],
    "images": [
        {
            "name": "colormap.png",
            "uri": "colormap.png"
        }
    ],
    "samplers": [
        {}
    ],
    "textures": [
        {
            "name": "DiffuseColor_Texture",
            "sampler": 0,
            "source": 0
        }
    ],
    "materials": [
        {
            "name": "colormap",
            "alphaMode": "OPAQUE",
            "doubleSided": false,
            "extras": {
                "fromFBX": {
                    "shadingModel": "Lambert",
                    "isTruePBR": false
                }
            },
            "pbrMetallicRoughness": {
                "baseColorTexture": {
                    "index": 0,
                    "texCoord": 0
                },
                "baseColorFactor": [
                    1.0,
                    1.0,
                    1.0,
                    1.0
                ],
                "metallicFactor": 0.200000002980232,
                "roughnessFactor": 0.800000011920929
            }
        }
    ],
    "meshes": [
        {
            "name": "train-electric-subway-b",
            "primitives": [
                {
                    "material": 0,
                    "mode": 4,
                    "attributes": {
                        "NORMAL": 2,
                        "POSITION": 1,
                        "TANGENT": 3,
                        "TEXCOORD_0": 4
                    },
                    "indices": 0
                }
            ]
        },
        {
            "name": "wheels-front",
            "primitives": [
                {
                    "material": 0,
                    "mode": 4,
                    "attributes": {
                        "NORMAL": 7,
                        "POSITION": 6,
                        "TANGENT": 8,
                        "TEXCOORD_0": 9
                    },
                    "indices": 5
                }
            ]
        },
        {
            "name": "wheels-back",
            "primitives": [
                {
                    "material": 0,
                    "mode": 4,
                    "attributes": {
                        "NORMAL": 12,
                        "POSITION": 11,
                        "TANGENT": 13,
                        "TEXCOORD_0": 14
                    },
                    "indices": 10
                }
            ]
        }
    ],
    "nodes": [
        {
            "name": "RootNode",
            "translation": [
                0.0,
                0.0,
                0.0
            ],
            "rotation": [
                0.0,
                0.0,
                0.0,
                1.0
            ],
            "scale": [
                1.0,
                1.0,
                1.0
            ],
            "children": [
                1
            ]
        },
        {
            "name": "train-electric-subway-b",
            "translation": [
                0.0,
                0.0,
                0.0
            ],
            "rotation": [
                0.0,
                0.0,
                0.0,
                1.0
            ],
            "scale": [
                1.0,
                1.0,
                1.0
            ],
            "children": [
                2,
                3
            ],
            "mesh": 0
        },
        {
            "name": "wheels-front",
            "translation": [
                1.21281118286264e-13,
                0.359499365091324,
                0.550000011920929
            ],
            "rotation": [
                0.0,
                0.0,
                0.0,
                1.0
            ],
            "scale": [
                1.0,
                1.0,
                1.0
            ],
            "mesh": 1
        },
        {
            "name": "wheels-back",
            "translation": [
                1.22724936766835e-13,
                0.359499365091324,
                -0.550000011920929
            ],
            "rotation": [
                0.0,
                0.0,
                0.0,
                1.0
            ],
            "scale": [
                1.0,
                1.0,
                1.0
            ],
            "mesh": 2
        }
    ]
}