{
    "asset": {
        "generator": "FBX2glTF v0.13.1",
        "version": "2.0"
    },
    "scene": 0,
    "buffers": [
        {
            "byteLength": 64872,
            "uri": "buffer.bin"
        }
    ],
    "bufferViews": [
        {
            "buffer": 0,
            "byteLength": 588,
            "byteOffset": 0,
            "target": 34963
        },
        {
            "buffer": 0,
            "byteLength": 1632,
            "byteOffset": 588,
            "target": 34962
        },
        {
            "buffer": 0,
            "byteLength": 1632,
            "byteOffset": 2220,
            "target": 34962
        },
        {
            "buffer": 0,
            "byteLength": 2176,
            "byteOffset": 3852,
            "target": 34962
        },
        {
            "buffer": 0,
            "byteLength": 1088,
            "byteOffset": 6028,
            "target": 34962
        },
        {
            "buffer": 0,
            "byteLength": 588,
            "byteOffset": 7116,
            "target": 34963
        },
        {
            "buffer": 0,
            "byteLength": 1632,
            "byteOffset": 7704,
            "target": 34962
        },
        {
            "buffer": 0,
            "byteLength": 1632,
            "byteOffset": 9336,
            "target": 34962
        },
        {
            "buffer": 0,
            "byteLength": 2176,
            "byteOffset": 10968,
            "target": 34962
        },
        {
            "buffer": 0,
            "byteLength": 1088,
            "byteOffset": 13144,
            "target": 34962
        },
        {
            "buffer": 0,
            "byteLength": 588,
            "byteOffset": 14232,
            "target": 34963
        },
        {
            "buffer": 0,
            "byteLength": 1632,
            "byteOffset": 14820,
            "target": 34962
        },
        {
            "buffer": 0,
            "byteLength": 1632,
            "byteOffset": 16452,
            "target": 34962
        },
        {
            "buffer": 0,
            "byteLength": 2176,
            "byteOffset": 18084,
            "target": 34962
        },
        {
            "buffer": 0,
            "byteLength": 1088,
            "byteOffset": 20260,
            "target": 34962
        },
        {
            "buffer": 0,
            "byteLength": 588,
            "byteOffset": 21348,
            "target": 34963
        },
        {
            "buffer": 0,
            "byteLength": 1632,
            "byteOffset": 21936,
            "target": 34962
        },
        {
            "buffer": 0,
            "byteLength": 1632,
            "byteOffset": 23568,
            "target": 34962
        },
        {
            "buffer": 0,
            "byteLength": 2176,
            "byteOffset": 25200,
            "target": 34962
        },
        {
            "buffer": 0,
            "byteLength": 1088,
            "byteOffset": 27376,
            "target": 34962
        },
        {
            "buffer": 0,
            "byteLength": 1848,
            "byteOffset": 28464,
            "target": 34963
        },
        {
            "buffer": 0,
            "byteLength": 6048,
            "byteOffset": 30312,
            "target": 34962
        },
        {
            "buffer": 0,
            "byteLength": 6048,
            "byteOffset": 36360,
            "target": 34962
        },
        {
            "buffer": 0,
            "byteLength": 8064,
            "byteOffset": 42408,
            "target": 34962
        },
        {
            "buffer": 0,
            "byteLength": 4032,
            "byteOffset": 50472,
            "target": 34962
        },
        {
            "buffer": 0,
            "byteLength": 960,
            "byteOffset": 54504,
            "target": 34963
        },
        {
            "buffer": 0,
            "byteLength": 2352,
            "byteOffset": 55464,
            "target": 34962
        },
        {
            "buffer": 0,
            "byteLength": 2352,
            "byteOffset": 57816,
            "target": 34962
        },
        {
            "buffer": 0,
            "byteLength": 3136,
            "byteOffset": 60168,
            "target": 34962
        },
        {
            "buffer": 0,
            "byteLength": 1568,
            "byteOffset": 63304,
            "target": 34962
        }
    ],
    "scenes": [
        {
            "name": "Root Scene",
            "nodes": [
                0
            ]
        }
    ],
    "accessors": [
        {
            "componentType": 5123,
            "type": "SCALAR",
            "count": 294,
            "bufferView": 0,
            "byteOffset": 0
        },
        {
            "componentType": 5126,
            "type": "VEC3",
            "count": 136,
            "bufferView": 1,
            "byteOffset": 0,
            "min": [
                -0.183279991149902,
                -0.183279991149902,
                -0.111389994621277
            ],
            "max": [
                0.183279991149902,
                0.183279991149902,
                0.111389994621277
            ]
        },
        {
            "componentType": 5126,
            "type": "VEC3",
            "count": 136,
            "bufferView": 2,
            "byteOffset": 0
        },
        {
            "componentType": 5126,
            "type": "VEC4",
            "count": 136,
            "bufferView": 3,
            "byteOffset": 0
        },
        {
            "componentType": 5126,
            "type": "VEC2",
            "count": 136,
            "bufferView": 4,
            "byteOffset": 0
        },
        {
            "componentType": 5123,
            "type": "SCALAR",
            "count": 294,
            "bufferView": 5,
            "byteOffset": 0
        },
        {
            "componentType": 5126,
            "type": "VEC3",
            "count": 136,
            "bufferView": 6,
            "byteOffset": 0,
            "min": [
                -0.183279991149902,
                -0.183279991149902,
                -0.111389994621277
            ],
            "max": [
                0.183279991149902,
                0.183279991149902,
                0.111389994621277
            ]
        },
        {
            "componentType": 5126,
            "type": "VEC3",
            "count": 136,
            "bufferView": 7,
            "byteOffset": 0
        },
        {
            "componentType": 5126,
            "type": "VEC4",
            "count": 136,
            "bufferView": 8,
            "byteOffset": 0
        },
        {
            "componentType": 5126,
            "type": "VEC2",
            "count": 136,
            "bufferView": 9,
            "byteOffset": 0
        },
        {
            "componentType": 5123,
            "type": "SCALAR",
            "count": 294,
            "bufferView": 10,
            "byteOffset": 0
        },
        {
            "componentType": 5126,
            "type": "VEC3",
            "count": 136,
            "bufferView": 11,
            "byteOffset": 0,
            "min": [
                -0.183279991149902,
                -0.183279991149902,
                -0.111389994621277
            ],
            "max": [
                0.183279991149902,
                0.183279991149902,
                0.111389994621277
            ]
        },
        {
            "componentType": 5126,
            "type": "VEC3",
            "count": 136,
            "bufferView": 12,
            "byteOffset": 0
        },
        {
            "componentType": 5126,
            "type": "VEC4",
            "count": 136,
            "bufferView": 13,
            "byteOffset": 0
        },
        {
            "componentType": 5126,
            "type": "VEC2",
            "count": 136,
            "bufferView": 14,
            "byteOffset": 0
        },
        {
            "componentType": 5123,
            "type": "SCALAR",
            "count": 294,
            "bufferView": 15,
            "byteOffset": 0
        },
        {
            "componentType": 5126,
            "type": "VEC3",
            "count": 136,
            "bufferView": 16,
            "byteOffset": 0,
            "min": [
                -0.183279991149902,
                -0.183279991149902,
                -0.111389994621277
            ],
            "max": [
                0.183279991149902,
                0.183279991149902,
                0.111389994621277
            ]
        },
        {
            "componentType": 5126,
            "type": "VEC3",
            "count": 136,
            "bufferView": 17,
            "byteOffset": 0
        },
        {
            "componentType": 5126,
            "type": "VEC4",
            "count": 136,
            "bufferView": 18,
            "byteOffset": 0
        },
        {
            "componentType": 5126,
            "type": "VEC2",
            "count": 136,
            "bufferView": 19,
            "byteOffset": 0
        },
        {
            "componentType": 5123,
            "type": "SCALAR",
            "count": 924,
            "bufferView": 20,
            "byteOffset": 0
        },
        {
            "componentType": 5126,
            "type": "VEC3",
            "count": 504,
            "bufferView": 21,
            "byteOffset": 0,
            "min": [
                -0.711000025272369,
                0.0,
                -0.495000183582306
            ],
            "max": [
                0.711000025272369,
                0.672749996185303,
                0.494999676942825
            ]
        },
        {
            "componentType": 5126,
            "type": "VEC3",
            "count": 504,
            "bufferView": 22,
            "byteOffset": 0
        },
        {
            "componentType": 5126,
            "type": "VEC4",
            "count": 504,
            "bufferView": 23,
            "byteOffset": 0
        },
        {
            "componentType": 5126,
            "type": "VEC2",
            "count": 504,
            "bufferView": 24,
            "byteOffset": 0
        },
        {
            "componentType": 5123,
            "type": "SCALAR",
            "count": 480,
            "bufferView": 25,
            "byteOffset": 0
        },
        {
            "componentType": 5126,
            "type": "VEC3",
            "count": 196,
            "bufferView": 26,
            "byteOffset": 0,
            "min": [
                -1.26399993896484,
                0.0,
                0.0
            ],
            "max": [
                0.0,
                0.355500012636185,
                0.789999961853027
            ]
        },
        {
            "componentType": 5126,
            "type": "VEC3",
            "count": 196,
            "bufferView": 27,
            "byteOffset": 0
        },
        {
            "componentType": 5126,
            "type": "VEC4",
            "count": 196,
            "bufferView": 28,
            "byteOffset": 0
        },
        {
            "componentType": 5126,
            "type": "VEC2",
            "count": 196,
            "bufferView": 29,
            "byteOffset": 0
        }
    ],
    "images": [
        {
            "name": "colormap.png",
            "uri": "colormap.png"
        }
    ],
    "samplers": [
        {}
    ],
    "textures": [
        {
            "name": "DiffuseColor_Texture",
            "sampler": 0,
            "source": 0
        }
    ],
    "materials": [
        {
            "name": "colormap",
            "alphaMode": "OPAQUE",
            "doubleSided": false,
            "extras": {
                "fromFBX": {
                    "shadingModel": "Lambert",
                    "isTruePBR": false
                }
            },
            "pbrMetallicRoughness": {
                "baseColorTexture": {
                    "index": 0,
                    "texCoord": 0
                },
                "baseColorFactor": [
                    1.0,
                    1.0,
                    1.0,
                    1.0
                ],
                "metallicFactor": 0.200000002980232,
                "roughnessFactor": 0.800000011920929
            }
        }
    ],
    "meshes": [
        {
            "name": "wheel-back-left",
            "primitives": [
                {
                    "material": 0,
                    "mode": 4,
                    "attributes": {
                        "NORMAL": 2,
                        "POSITION": 1,
                        "TANGENT": 3,
                        "TEXCOORD_0": 4
                    },
                    "indices": 0
                }
            ]
        },
        {
            "name": "wheel-back-right",
            "primitives": [
                {
                    "material": 0,
                    "mode": 4,
                    "attributes": {
                        "NORMAL": 7,
                        "POSITION": 6,
                        "TANGENT": 8,
                        "TEXCOORD_0": 9
                    },
                    "indices": 5
                }
            ]
        },
        {
            "name": "wheel-front-left",
            "primitives": [
                {
                    "material": 0,
                    "mode": 4,
                    "attributes": {
                        "NORMAL": 12,
                        "POSITION": 11,
                        "TANGENT": 13,
                        "TEXCOORD_0": 14
                    },
                    "indices": 10
                }
            ]
        },
        {
            "name": "wheel-front-right",
            "primitives": [
                {
                    "material": 0,
                    "mode": 4,
                    "attributes": {
                        "NORMAL": 17,
                        "POSITION": 16,
                        "TANGENT": 18,
                        "TEXCOORD_0": 19
                    },
                    "indices": 15
                }
            ]
        },
        {
            "name": "body",
            "primitives": [
                {
                    "material": 0,
                    "mode": 4,
                    "attributes": {
                        "NORMAL": 22,
                        "POSITION": 21,
                        "TANGENT": 23,
                        "TEXCOORD_0": 24
                    },
                    "indices": 20
                }
            ]
        },
        {
            "name": "Group",
            "primitives": [
                {
                    "material": 0,
                    "mode": 4,
                    "attributes": {
                        "NORMAL": 27,
                        "POSITION": 26,
                        "TANGENT": 28,
                        "TEXCOORD_0": 29
                    },
                    "indices": 25
                }
            ]
        }
    ],
    "nodes": [
        {
            "name": "RootNode",
            "translation": [
                0.0,
                0.0,
                0.0
            ],
            "rotation": [
                0.0,
                0.0,
                0.0,
                1.0
            ],
            "scale": [
                1.0,
                1.0,
                1.0
            ],
            "children": [
                1
            ]
        },
        {
            "name": "vehicle",
            "translation": [
                0.0,
                0.0,
                0.0
            ],
            "rotation": [
                0.0,
                0.0,
                0.0,
                1.0
            ],
            "scale": [
                1.0,
                1.0,
                1.0
            ],
            "children": [
                2,
                3,
                4,
                5,
                6
            ]
        },
        {
            "name": "wheel-back-left",
            "translation": [
                0.31972000002861,
                0.183279991149902,
                0.323109954595566
            ],
            "rotation": [
                0.0,
                0.0,
                0.0,
                1.0
            ],
            "scale": [
                1.0,
                1.0,
                1.0
            ],
            "mesh": 0
        },
        {
            "name": "wheel-back-right",
            "translation": [
                0.31972000002861,
                0.183279991149902,
                -0.323109954595566
            ],
            "rotation": [
                0.0,
                0.0,
                0.0,
                1.0
            ],
            "scale": [
                1.0,
                1.0,
                1.0
            ],
            "mesh": 1
        },
        {
            "name": "wheel-front-left",
            "translation": [
                -0.369719982147217,
                0.183279991149902,
                0.323109954595566
            ],
            "rotation": [
                0.0,
                0.0,
                0.0,
                1.0
            ],
            "scale": [
                1.0,
                1.0,
                1.0
            ],
            "mesh": 2
        },
        {
            "name": "wheel-front-right",
            "translation": [
                -0.369719982147217,
                0.183279991149902,
                -0.323109954595566
            ],
            "rotation": [
                0.0,
                0.0,
                0.0,
                1.0
            ],
            "scale": [
                1.0,
                1.0,
                1.0
            ],
            "mesh": 3
        },
        {
            "name": "body",
            "translation": [
                0.0,
                0.1042799949646,
                0.0
            ],
            "rotation": [
                0.0,
                0.0,
                0.0,
                1.0
            ],
            "scale": [
                1.0,
                1.0,
                1.0
            ],
            "children": [
                7
            ],
            "mesh": 4
        },
        {
            "name": "Group",
            "translation": [
                0.631999969482422,
                0.0394999980926514,
                -0.394999980926514
            ],
            "rotation": [
                0.0,
                0.0,
                0.0,
                1.0
            ],
            "scale": [
                1.0,
                1.0,
                1.0
            ],
            "mesh": 5
        }
    ]
}