{
    "asset": {
        "generator": "FBX2glTF v0.13.1",
        "version": "2.0"
    },
    "scene": 0,
    "buffers": [
        {
            "byteLength": 118656,
            "uri": "buffer.bin"
        }
    ],
    "bufferViews": [
        {
            "buffer": 0,
            "byteLength": 5256,
            "byteOffset": 0,
            "target": 34963
        },
        {
            "buffer": 0,
            "byteLength": 15048,
            "byteOffset": 5256,
            "target": 34962
        },
        {
            "buffer": 0,
            "byteLength": 15048,
            "byteOffset": 20304,
            "target": 34962
        },
        {
            "buffer": 0,
            "byteLength": 20064,
            "byteOffset": 35352,
            "target": 34962
        },
        {
            "buffer": 0,
            "byteLength": 10032,
            "byteOffset": 55416,
            "target": 34962
        },
        {
            "buffer": 0,
            "byteLength": 648,
            "byteOffset": 65448,
            "target": 34963
        },
        {
            "buffer": 0,
            "byteLength": 1872,
            "byteOffset": 66096,
            "target": 34962
        },
        {
            "buffer": 0,
            "byteLength": 1872,
            "byteOffset": 67968,
            "target": 34962
        },
        {
            "buffer": 0,
            "byteLength": 2496,
            "byteOffset": 69840,
            "target": 34962
        },
        {
            "buffer": 0,
            "byteLength": 1248,
            "byteOffset": 72336,
            "target": 34962
        },
        {
            "buffer": 0,
            "byteLength": 1896,
            "byteOffset": 73584,
            "target": 34963
        },
        {
            "buffer": 0,
            "byteLength": 5160,
            "byteOffset": 75480,
            "target": 34962
        },
        {
            "buffer": 0,
            "byteLength": 5160,
            "byteOffset": 80640,
            "target": 34962
        },
        {
            "buffer": 0,
            "byteLength": 6880,
            "byteOffset": 85800,
            "target": 34962
        },
        {
            "buffer": 0,
            "byteLength": 3440,
            "byteOffset": 92680,
            "target": 34962
        },
        {
            "buffer": 0,
            "byteLength": 1896,
            "byteOffset": 96120,
            "target": 34963
        },
        {
            "buffer": 0,
            "byteLength": 5160,
            "byteOffset": 98016,
            "target": 34962
        },
        {
            "buffer": 0,
            "byteLength": 5160,
            "byteOffset": 103176,
            "target": 34962
        },
        {
            "buffer": 0,
            "byteLength": 6880,
            "byteOffset": 108336,
            "target": 34962
        },
        {
            "buffer": 0,
            "byteLength": 3440,
            "byteOffset": 115216,
            "target": 34962
        }
    ],
    "scenes": [
        {
            "name": "Root Scene",
            "nodes": [
                0
            ]
        }
    ],
    "accessors": [
        {
            "componentType": 5123,
            "type": "SCALAR",
            "count": 2628,
            "bufferView": 0,
            "byteOffset": 0
        },
        {
            "componentType": 5126,
            "type": "VEC3",
            "count": 1254,
            "bufferView": 1,
            "byteOffset": 0,
            "min": [
                -0.549999952316284,
                0.159499362111092,
                -1.25000011920929
            ],
            "max": [
                0.549999952316284,
                1.7827981710434,
                1.35000014305115
            ]
        },
        {
            "componentType": 5126,
            "type": "VEC3",
            "count": 1254,
            "bufferView": 2,
            "byteOffset": 0
        },
        {
            "componentType": 5126,
            "type": "VEC4",
            "count": 1254,
            "bufferView": 3,
            "byteOffset": 0
        },
        {
            "componentType": 5126,
            "type": "VEC2",
            "count": 1254,
            "bufferView": 4,
            "byteOffset": 0
        },
        {
            "componentType": 5123,
            "type": "SCALAR",
            "count": 324,
            "bufferView": 5,
            "byteOffset": 0
        },
        {
            "componentType": 5126,
            "type": "VEC3",
            "count": 156,
            "bufferView": 6,
            "byteOffset": 0,
            "min": [
                -0.563830375671387,
                -0.0707106813788414,
                -0.0707106813788414
            ],
            "max": [
                0.563830375671387,
                0.636396110057831,
                0.318198025226593
            ]
        },
        {
            "componentType": 5126,
            "type": "VEC3",
            "count": 156,
            "bufferView": 7,
            "byteOffset": 0
        },
        {
            "componentType": 5126,
            "type": "VEC4",
            "count": 156,
            "bufferView": 8,
            "byteOffset": 0
        },
        {
            "componentType": 5126,
            "type": "VEC2",
            "count": 156,
            "bufferView": 9,
            "byteOffset": 0
        },
        {
            "componentType": 5123,
            "type": "SCALAR",
            "count": 948,
            "bufferView": 10,
            "byteOffset": 0
        },
        {
            "componentType": 5126,
            "type": "VEC3",
            "count": 430,
            "bufferView": 11,
            "byteOffset": 0,
            "min": [
                -0.491499960422516,
                -0.359499365091324,
                -0.380596041679382
            ],
            "max": [
                0.491499960422516,
                0.0,
                0.380596041679382
            ]
        },
        {
            "componentType": 5126,
            "type": "VEC3",
            "count": 430,
            "bufferView": 12,
            "byteOffset": 0
        },
        {
            "componentType": 5126,
            "type": "VEC4",
            "count": 430,
            "bufferView": 13,
            "byteOffset": 0
        },
        {
            "componentType": 5126,
            "type": "VEC2",
            "count": 430,
            "bufferView": 14,
            "byteOffset": 0
        },
        {
            "componentType": 5123,
            "type": "SCALAR",
            "count": 948,
            "bufferView": 15,
            "byteOffset": 0
        },
        {
            "componentType": 5126,
            "type": "VEC3",
            "count": 430,
            "bufferView": 16,
            "byteOffset": 0,
            "min": [
                -0.491499960422516,
                -0.359499365091324,
                -0.380596041679382
            ],
            "max": [
                0.491499960422516,
                0.0,
                0.380596041679382
            ]
        },
        {
            "componentType": 5126,
            "type": "VEC3",
            "count": 430,
            "bufferView": 17,
            "byteOffset": 0
        },
        {
            "componentType": 5126,
            "type": "VEC4",
            "count": 430,
            "bufferView": 18,
            "byteOffset": 0
        },
        {
            "componentType": 5126,
            "type": "VEC2",
            "count": 430,
            "bufferView": 19,
            "byteOffset": 0
        }
    ],
    "images": [
        {
            "name": "colormap.png",
            "uri": "colormap.png"
        }
    ],
    "samplers": [
        {}
    ],
    "textures": [
        {
            "name": "DiffuseColor_Texture",
            "sampler": 0,
            "source": 0
        }
    ],
    "materials": [
        {
            "name": "colormap",
            "alphaMode": "OPAQUE",
            "doubleSided": false,
            "extras": {
                "fromFBX": {
                    "shadingModel": "Lambert",
                    "isTruePBR": false
                }
            },
            "pbrMetallicRoughness": {
                "baseColorTexture": {
                    "index": 0,
                    "texCoord": 0
                },
                "baseColorFactor": [
                    1.0,
                    1.0,
                    1.0,
                    1.0
                ],
                "metallicFactor": 0.200000002980232,
                "roughnessFactor": 0.800000011920929
            }
        }
    ],
    "meshes": [
        {
            "name": "train-electric-square-a",
            "primitives": [
                {
                    "material": 0,
                    "mode": 4,
                    "attributes": {
                        "NORMAL": 2,
                        "POSITION": 1,
                        "TANGENT": 3,
                        "TEXCOORD_0": 4
                    },
                    "indices": 0
                }
            ]
        },
        {
            "name": "collector",
            "primitives": [
                {
                    "material": 0,
                    "mode": 4,
                    "attributes": {
                        "NORMAL": 7,
                        "POSITION": 6,
                        "TANGENT": 8,
                        "TEXCOORD_0": 9
                    },
                    "indices": 5
                }
            ]
        },
        {
            "name": "wheels-back",
            "primitives": [
                {
                    "material": 0,
                    "mode": 4,
                    "attributes": {
                        "NORMAL": 12,
                        "POSITION": 11,
                        "TANGENT": 13,
                        "TEXCOORD_0": 14
                    },
                    "indices": 10
                }
            ]
        },
        {
            "name": "wheels-front",
            "primitives": [
                {
                    "material": 0,
                    "mode": 4,
                    "attributes": {
                        "NORMAL": 17,
                        "POSITION": 16,
                        "TANGENT": 18,
                        "TEXCOORD_0": 19
                    },
                    "indices": 15
                }
            ]
        }
    ],
    "nodes": [
        {
            "name": "RootNode",
            "translation": [
                0.0,
                0.0,
                0.0
            ],
            "rotation": [
                0.0,
                0.0,
                0.0,
                1.0
            ],
            "scale": [
                1.0,
                1.0,
                1.0
            ],
            "children": [
                1
            ]
        },
        {
            "name": "train-electric-square-a",
            "translation": [
                0.0,
                0.0,
                0.0
            ],
            "rotation": [
                0.0,
                0.0,
                0.0,
                1.0
            ],
            "scale": [
                1.0,
                1.0,
                1.0
            ],
            "children": [
                2,
                3,
                4
            ],
            "mesh": 0
        },
        {
            "name": "collector",
            "translation": [
                -2.16573407360479e-15,
                1.68279826641083,
                0.0568019524216652
            ],
            "rotation": [
                0.0,
                0.0,
                0.0,
                1.0
            ],
            "scale": [
                1.0,
                1.0,
                1.0
            ],
            "mesh": 1
        },
        {
            "name": "wheels-back",
            "translation": [
                8.68820369381157e-13,
                0.359499365091324,
                -0.5
            ],
            "rotation": [
                0.0,
                0.0,
                0.0,
                1.0
            ],
            "scale": [
                1.0,
                1.0,
                1.0
            ],
            "mesh": 2
        },
        {
            "name": "wheels-front",
            "translation": [
                8.67376483137949e-13,
                0.359499365091324,
                0.600000023841858
            ],
            "rotation": [
                0.0,
                0.0,
                0.0,
                1.0
            ],
            "scale": [
                1.0,
                1.0,
                1.0
            ],
            "mesh": 3
        }
    ]
}