{
    "asset": {
        "generator": "FBX2glTF v0.13.1",
        "version": "2.0"
    },
    "scene": 0,
    "buffers": [
        {
            "byteLength": 12168,
            "uri": "buffer.bin"
        }
    ],
    "bufferViews": [
        {
            "buffer": 0,
            "byteLength": 564,
            "byteOffset": 0,
            "target": 34963
        },
        {
            "buffer": 0,
            "byteLength": 1800,
            "byteOffset": 564,
            "target": 34962
        },
        {
            "buffer": 0,
            "byteLength": 1800,
            "byteOffset": 2364,
            "target": 34962
        },
        {
            "buffer": 0,
            "byteLength": 1200,
            "byteOffset": 4164,
            "target": 34962
        },
        {
            "buffer": 0,
            "byteLength": 492,
            "byteOffset": 5364,
            "target": 34963
        },
        {
            "buffer": 0,
            "byteLength": 1728,
            "byteOffset": 5856,
            "target": 34962
        },
        {
            "buffer": 0,
            "byteLength": 1728,
            "byteOffset": 7584,
            "target": 34962
        },
        {
            "buffer": 0,
            "byteLength": 1152,
            "byteOffset": 9312,
            "target": 34962
        },
        {
            "buffer": 0,
            "byteLength": 168,
            "byteOffset": 10464,
            "target": 34963
        },
        {
            "buffer": 0,
            "byteLength": 576,
            "byteOffset": 10632,
            "target": 34962
        },
        {
            "buffer": 0,
            "byteLength": 576,
            "byteOffset": 11208,
            "target": 34962
        },
        {
            "buffer": 0,
            "byteLength": 384,
            "byteOffset": 11784,
            "target": 34962
        }
    ],
    "scenes": [
        {
            "name": "Root Scene",
            "nodes": [
                0
            ]
        }
    ],
    "accessors": [
        {
            "componentType": 5123,
            "type": "SCALAR",
            "count": 282,
            "bufferView": 0,
            "byteOffset": 0
        },
        {
            "componentType": 5126,
            "type": "VEC3",
            "count": 150,
            "bufferView": 1,
            "byteOffset": 0,
            "min": [
                -0.00999999977648258,
                0.0,
                -0.0115826399996877
            ],
            "max": [
                0.00999999977648258,
                0.0419999957084656,
                0.00573786767199636
            ]
        },
        {
            "componentType": 5126,
            "type": "VEC3",
            "count": 150,
            "bufferView": 2,
            "byteOffset": 0
        },
        {
            "componentType": 5126,
            "type": "VEC2",
            "count": 150,
            "bufferView": 3,
            "byteOffset": 0
        },
        {
            "componentType": 5123,
            "type": "SCALAR",
            "count": 246,
            "bufferView": 4,
            "byteOffset": 0
        },
        {
            "componentType": 5126,
            "type": "VEC3",
            "count": 144,
            "bufferView": 5,
            "byteOffset": 0,
            "min": [
                -0.00739499973133206,
                0.00800000037997961,
                -0.0093266423791647
            ],
            "max": [
                0.00739499973133206,
                0.0430000014603138,
                0.00348187191411853
            ]
        },
        {
            "componentType": 5126,
            "type": "VEC3",
            "count": 144,
            "bufferView": 6,
            "byteOffset": 0
        },
        {
            "componentType": 5126,
            "type": "VEC2",
            "count": 144,
            "bufferView": 7,
            "byteOffset": 0
        },
        {
            "componentType": 5123,
            "type": "SCALAR",
            "count": 84,
            "bufferView": 8,
            "byteOffset": 0
        },
        {
            "componentType": 5126,
            "type": "VEC3",
            "count": 48,
            "bufferView": 9,
            "byteOffset": 0,
            "min": [
                -0.00901005230844021,
                -0.0199999995529652,
                0.0
            ],
            "max": [
                0.0,
                0.00800000037997961,
                0.0190100502222776
            ]
        },
        {
            "componentType": 5126,
            "type": "VEC3",
            "count": 48,
            "bufferView": 10,
            "byteOffset": 0
        },
        {
            "componentType": 5126,
            "type": "VEC2",
            "count": 48,
            "bufferView": 11,
            "byteOffset": 0
        }
    ],
    "samplers": [
        {}
    ],
    "materials": [
        {
            "name": "green",
            "alphaMode": "OPAQUE",
            "doubleSided": false,
            "extras": {
                "fromFBX": {
                    "shadingModel": "Phong",
                    "isTruePBR": false
                }
            },
            "pbrMetallicRoughness": {
                "baseColorFactor": [
                    0.239215701818466,
                    0.517647087574005,
                    0.376470595598221,
                    1.0
                ],
                "metallicFactor": 0.400000005960464,
                "roughnessFactor": 1.0
            }
        },
        {
            "name": "dark",
            "alphaMode": "OPAQUE",
            "doubleSided": false,
            "extras": {
                "fromFBX": {
                    "shadingModel": "Phong",
                    "isTruePBR": false
                }
            },
            "pbrMetallicRoughness": {
                "baseColorFactor": [
                    0.26666671037674,
                    0.26666671037674,
                    0.26666671037674,
                    1.0
                ],
                "metallicFactor": 0.400000005960464,
                "roughnessFactor": 1.0
            }
        },
        {
            "name": "grey",
            "alphaMode": "OPAQUE",
            "doubleSided": false,
            "extras": {
                "fromFBX": {
                    "shadingModel": "Phong",
                    "isTruePBR": false
                }
            },
            "pbrMetallicRoughness": {
                "baseColorFactor": [
                    0.364705890417099,
                    0.454901993274689,
                    0.529411792755127,
                    1.0
                ],
                "metallicFactor": 0.400000005960464,
                "roughnessFactor": 1.0
            }
        }
    ],
    "meshes": [
        {
            "name": "grenadeFlash",
            "primitives": [
                {
                    "material": 0,
                    "mode": 4,
                    "attributes": {
                        "NORMAL": 2,
                        "POSITION": 1,
                        "TEXCOORD_0": 3
                    },
                    "indices": 0
                },
                {
                    "material": 1,
                    "mode": 4,
                    "attributes": {
                        "NORMAL": 6,
                        "POSITION": 5,
                        "TEXCOORD_0": 7
                    },
                    "indices": 4
                }
            ]
        },
        {
            "name": "grip",
            "primitives": [
                {
                    "material": 2,
                    "mode": 4,
                    "attributes": {
                        "NORMAL": 10,
                        "POSITION": 9,
                        "TEXCOORD_0": 11
                    },
                    "indices": 8
                }
            ]
        }
    ],
    "nodes": [
        {
            "name": "RootNode",
            "translation": [
                0.0,
                0.0,
                0.0
            ],
            "rotation": [
                0.0,
                0.0,
                0.0,
                1.0
            ],
            "scale": [
                1.0,
                1.0,
                1.0
            ],
            "children": [
                1
            ]
        },
        {
            "name": "grenadeFlash",
            "translation": [
                0.0,
                0.0,
                0.0
            ],
            "rotation": [
                0.0,
                0.0,
                0.0,
                1.0
            ],
            "scale": [
                3.82800006866455,
                3.82800006866455,
                3.82800006866455
            ],
            "children": [
                2
            ],
            "mesh": 0
        },
        {
            "name": "grip",
            "translation": [
                0.0045050261542201,
                0.0430000014603138,
                -0.00742741208523512
            ],
            "rotation": [
                0.0,
                0.0,
                0.0,
                1.0
            ],
            "scale": [
                1.0,
                1.0,
                1.0
            ],
            "mesh": 1
        }
    ]
}