{
    "asset": {
        "generator": "FBX2glTF v0.13.1",
        "version": "2.0"
    },
    "scene": 0,
    "buffers": [
        {
            "byteLength": 10152,
            "uri": "buffer.bin"
        }
    ],
    "bufferViews": [
        {
            "buffer": 0,
            "byteLength": 1044,
            "byteOffset": 0,
            "target": 34963
        },
        {
            "buffer": 0,
            "byteLength": 2544,
            "byteOffset": 1044,
            "target": 34962
        },
        {
            "buffer": 0,
            "byteLength": 2544,
            "byteOffset": 3588,
            "target": 34962
        },
        {
            "buffer": 0,
            "byteLength": 204,
            "byteOffset": 6132,
            "target": 34963
        },
        {
            "buffer": 0,
            "byteLength": 816,
            "byteOffset": 6336,
            "target": 34962
        },
        {
            "buffer": 0,
            "byteLength": 816,
            "byteOffset": 7152,
            "target": 34962
        },
        {
            "buffer": 0,
            "byteLength": 264,
            "byteOffset": 7968,
            "target": 34963
        },
        {
            "buffer": 0,
            "byteLength": 960,
            "byteOffset": 8232,
            "target": 34962
        },
        {
            "buffer": 0,
            "byteLength": 960,
            "byteOffset": 9192,
            "target": 34962
        }
    ],
    "scenes": [
        {
            "name": "Root Scene",
            "nodes": [
                0
            ]
        }
    ],
    "accessors": [
        {
            "componentType": 5123,
            "type": "SCALAR",
            "count": 522,
            "bufferView": 0,
            "byteOffset": 0
        },
        {
            "componentType": 5126,
            "type": "VEC3",
            "count": 212,
            "bufferView": 1,
            "byteOffset": 0,
            "min": [
                -0.159282520413399,
                -0.191052779555321,
                -0.152251109480858
            ],
            "max": [
                0.158498674631119,
                0.287515819072723,
                0.804042875766754
            ]
        },
        {
            "componentType": 5126,
            "type": "VEC3",
            "count": 212,
            "bufferView": 2,
            "byteOffset": 0
        },
        {
            "componentType": 5123,
            "type": "SCALAR",
            "count": 102,
            "bufferView": 3,
            "byteOffset": 0
        },
        {
            "componentType": 5126,
            "type": "VEC3",
            "count": 68,
            "bufferView": 4,
            "byteOffset": 0,
            "min": [
                -0.133901223540306,
                -0.166841238737106,
                0.0832331702113152
            ],
            "max": [
                0.134069204330444,
                0.25741183757782,
                0.580581545829773
            ]
        },
        {
            "componentType": 5126,
            "type": "VEC3",
            "count": 68,
            "bufferView": 5,
            "byteOffset": 0
        },
        {
            "componentType": 5123,
            "type": "SCALAR",
            "count": 132,
            "bufferView": 6,
            "byteOffset": 0
        },
        {
            "componentType": 5126,
            "type": "VEC3",
            "count": 80,
            "bufferView": 7,
            "byteOffset": 0,
            "min": [
                -0.159282520413399,
                0.0380563586950302,
                0.310365408658981
            ],
            "max": [
                0.158498674631119,
                0.287515819072723,
                0.742305099964142
            ]
        },
        {
            "componentType": 5126,
            "type": "VEC3",
            "count": 80,
            "bufferView": 8,
            "byteOffset": 0
        }
    ],
    "samplers": [
        {}
    ],
    "materials": [
        {
            "name": "Steel 3",
            "alphaMode": "OPAQUE",
            "doubleSided": false,
            "extras": {
                "fromFBX": {
                    "shadingModel": "Phong",
                    "isTruePBR": false
                }
            },
            "pbrMetallicRoughness": {
                "baseColorFactor": [
                    0.050408024340868,
                    0.0799189880490303,
                    0.11301064491272,
                    1.0
                ],
                "metallicFactor": 0.400000005960464,
                "roughnessFactor": 0.415087103843689
            }
        },
        {
            "name": "Orange 2",
            "alphaMode": "OPAQUE",
            "doubleSided": false,
            "extras": {
                "fromFBX": {
                    "shadingModel": "Phong",
                    "isTruePBR": false
                }
            },
            "pbrMetallicRoughness": {
                "baseColorFactor": [
                    0.723729014396667,
                    0.164063006639481,
                    0.0295115690678358,
                    1.0
                ],
                "metallicFactor": 0.400000005960464,
                "roughnessFactor": 0.415087103843689
            }
        },
        {
            "name": "Steel 4",
            "alphaMode": "OPAQUE",
            "doubleSided": false,
            "extras": {
                "fromFBX": {
                    "shadingModel": "Phong",
                    "isTruePBR": false
                }
            },
            "pbrMetallicRoughness": {
                "baseColorFactor": [
                    0.0338491313159466,
                    0.054782547056675,
                    0.0799189880490303,
                    1.0
                ],
                "metallicFactor": 0.400000005960464,
                "roughnessFactor": 0.415087103843689
            }
        }
    ],
    "meshes": [
        {
            "name": "astroGun",
            "primitives": [
                {
                    "material": 0,
                    "mode": 4,
                    "attributes": {
                        "NORMAL": 2,
                        "POSITION": 1
                    },
                    "indices": 0
                },
                {
                    "material": 1,
                    "mode": 4,
                    "attributes": {
                        "NORMAL": 5,
                        "POSITION": 4
                    },
                    "indices": 3
                },
                {
                    "material": 2,
                    "mode": 4,
                    "attributes": {
                        "NORMAL": 8,
                        "POSITION": 7
                    },
                    "indices": 6
                }
            ]
        }
    ],
    "nodes": [
        {
            "name": "RootNode",
            "translation": [
                0.0,
                0.0,
                0.0
            ],
            "rotation": [
                0.0,
                0.0,
                0.0,
                1.0
            ],
            "scale": [
                1.0,
                1.0,
                1.0
            ],
            "children": [
                1
            ]
        },
        {
            "name": "astroGun",
            "translation": [
                0.0,
                0.0,
                0.0
            ],
            "rotation": [
                0.0,
                0.0,
                0.0,
                1.0
            ],
            "scale": [
                1.0,
                1.0,
                1.0
            ],
            "mesh": 0
        }
    ]
}