{
    "asset": {
        "generator": "FBX2glTF v0.13.1",
        "version": "2.0"
    },
    "scene": 0,
    "buffers": [
        {
            "byteLength": 21408,
            "uri": "buffer.bin"
        }
    ],
    "bufferViews": [
        {
            "buffer": 0,
            "byteLength": 1056,
            "byteOffset": 0,
            "target": 34963
        },
        {
            "buffer": 0,
            "byteLength": 3720,
            "byteOffset": 1056,
            "target": 34962
        },
        {
            "buffer": 0,
            "byteLength": 3720,
            "byteOffset": 4776,
            "target": 34962
        },
        {
            "buffer": 0,
            "byteLength": 4960,
            "byteOffset": 8496,
            "target": 34962
        },
        {
            "buffer": 0,
            "byteLength": 2480,
            "byteOffset": 13456,
            "target": 34962
        },
        {
            "buffer": 0,
            "byteLength": 384,
            "byteOffset": 15936,
            "target": 34963
        },
        {
            "buffer": 0,
            "byteLength": 1272,
            "byteOffset": 16320,
            "target": 34962
        },
        {
            "buffer": 0,
            "byteLength": 1272,
            "byteOffset": 17592,
            "target": 34962
        },
        {
            "buffer": 0,
            "byteLength": 1696,
            "byteOffset": 18864,
            "target": 34962
        },
        {
            "buffer": 0,
            "byteLength": 848,
            "byteOffset": 20560,
            "target": 34962
        }
    ],
    "scenes": [
        {
            "name": "Root Scene",
            "nodes": [
                0
            ]
        }
    ],
    "accessors": [
        {
            "componentType": 5123,
            "type": "SCALAR",
            "count": 528,
            "bufferView": 0,
            "byteOffset": 0
        },
        {
            "componentType": 5126,
            "type": "VEC3",
            "count": 310,
            "bufferView": 1,
            "byteOffset": 0,
            "min": [
                -0.620710670948029,
                -0.300000011920929,
                -0.370710670948029
            ],
            "max": [
                0.620710670948029,
                0.111207187175751,
                0.444888859987259
            ]
        },
        {
            "componentType": 5126,
            "type": "VEC3",
            "count": 310,
            "bufferView": 2,
            "byteOffset": 0
        },
        {
            "componentType": 5126,
            "type": "VEC4",
            "count": 310,
            "bufferView": 3,
            "byteOffset": 0
        },
        {
            "componentType": 5126,
            "type": "VEC2",
            "count": 310,
            "bufferView": 4,
            "byteOffset": 0
        },
        {
            "componentType": 5123,
            "type": "SCALAR",
            "count": 192,
            "bufferView": 5,
            "byteOffset": 0
        },
        {
            "componentType": 5126,
            "type": "VEC3",
            "count": 106,
            "bufferView": 6,
            "byteOffset": 0,
            "min": [
                -0.150000005960464,
                0.0,
                -0.150000005960464
            ],
            "max": [
                0.150000005960464,
                0.150000005960464,
                0.150000005960464
            ]
        },
        {
            "componentType": 5126,
            "type": "VEC3",
            "count": 106,
            "bufferView": 7,
            "byteOffset": 0
        },
        {
            "componentType": 5126,
            "type": "VEC4",
            "count": 106,
            "bufferView": 8,
            "byteOffset": 0
        },
        {
            "componentType": 5126,
            "type": "VEC2",
            "count": 106,
            "bufferView": 9,
            "byteOffset": 0
        }
    ],
    "images": [
        {
            "name": "colormap.png",
            "uri": "colormap.png"
        }
    ],
    "samplers": [
        {}
    ],
    "textures": [
        {
            "name": "DiffuseColor_Texture",
            "sampler": 0,
            "source": 0
        }
    ],
    "materials": [
        {
            "name": "colormap",
            "alphaMode": "OPAQUE",
            "doubleSided": false,
            "extras": {
                "fromFBX": {
                    "shadingModel": "Lambert",
                    "isTruePBR": false
                }
            },
            "pbrMetallicRoughness": {
                "baseColorTexture": {
                    "index": 0,
                    "texCoord": 0
                },
                "baseColorFactor": [
                    1.0,
                    1.0,
                    1.0,
                    1.0
                ],
                "metallicFactor": 0.200000002980232,
                "roughnessFactor": 0.800000011920929
            }
        }
    ],
    "meshes": [
        {
            "name": "table-display",
            "primitives": [
                {
                    "material": 0,
                    "mode": 4,
                    "attributes": {
                        "NORMAL": 2,
                        "POSITION": 1,
                        "TANGENT": 3,
                        "TEXCOORD_0": 4
                    },
                    "indices": 0
                }
            ]
        },
        {
            "name": "ship",
            "primitives": [
                {
                    "material": 0,
                    "mode": 4,
                    "attributes": {
                        "NORMAL": 7,
                        "POSITION": 6,
                        "TANGENT": 8,
                        "TEXCOORD_0": 9
                    },
                    "indices": 5
                }
            ]
        }
    ],
    "nodes": [
        {
            "name": "RootNode",
            "translation": [
                0.0,
                0.0,
                0.0
            ],
            "rotation": [
                0.0,
                0.0,
                0.0,
                1.0
            ],
            "scale": [
                1.0,
                1.0,
                1.0
            ],
            "children": [
                1
            ]
        },
        {
            "name": "table-display",
            "translation": [
                0.0,
                0.0,
                0.0
            ],
            "rotation": [
                0.0,
                0.0,
                0.0,
                1.0
            ],
            "scale": [
                1.0,
                1.0,
                1.0
            ],
            "children": [
                2
            ],
            "mesh": 0
        },
        {
            "name": "ship",
            "translation": [
                1.44382282161564e-15,
                0.150000005960464,
                0.0
            ],
            "rotation": [
                0.0,
                0.0,
                0.0,
                1.0
            ],
            "scale": [
                1.0,
                1.0,
                1.0
            ],
            "mesh": 1
        }
    ]
}