{
    "asset": {
        "generator": "FBX2glTF v0.13.1",
        "version": "2.0"
    },
    "scene": 0,
    "buffers": [
        {
            "byteLength": 2136,
            "uri": "buffer.bin"
        }
    ],
    "bufferViews": [
        {
            "buffer": 0,
            "byteLength": 144,
            "byteOffset": 0,
            "target": 34963
        },
        {
            "buffer": 0,
            "byteLength": 456,
            "byteOffset": 144,
            "target": 34962
        },
        {
            "buffer": 0,
            "byteLength": 456,
            "byteOffset": 600,
            "target": 34962
        },
        {
            "buffer": 0,
            "byteLength": 304,
            "byteOffset": 1056,
            "target": 34962
        },
        {
            "buffer": 0,
            "byteLength": 72,
            "byteOffset": 1360,
            "target": 34963
        },
        {
            "buffer": 0,
            "byteLength": 264,
            "byteOffset": 1432,
            "target": 34962
        },
        {
            "buffer": 0,
            "byteLength": 264,
            "byteOffset": 1696,
            "target": 34962
        },
        {
            "buffer": 0,
            "byteLength": 176,
            "byteOffset": 1960,
            "target": 34962
        }
    ],
    "scenes": [
        {
            "name": "Root Scene",
            "nodes": [
                0
            ]
        }
    ],
    "accessors": [
        {
            "componentType": 5123,
            "type": "SCALAR",
            "count": 72,
            "bufferView": 0,
            "byteOffset": 0
        },
        {
            "componentType": 5126,
            "type": "VEC3",
            "count": 38,
            "bufferView": 1,
            "byteOffset": 0,
            "min": [
                -0.149999991059303,
                0.0,
                -0.149999991059303
            ],
            "max": [
                0.149999991059303,
                0.063000001013279,
                0.149999991059303
            ]
        },
        {
            "componentType": 5126,
            "type": "VEC3",
            "count": 38,
            "bufferView": 2,
            "byteOffset": 0
        },
        {
            "componentType": 5126,
            "type": "VEC2",
            "count": 38,
            "bufferView": 3,
            "byteOffset": 0
        },
        {
            "componentType": 5123,
            "type": "SCALAR",
            "count": 36,
            "bufferView": 4,
            "byteOffset": 0
        },
        {
            "componentType": 5126,
            "type": "VEC3",
            "count": 22,
            "bufferView": 5,
            "byteOffset": 0,
            "min": [
                0.103819794952869,
                0.056999996304512,
                -0.149999991059303
            ],
            "max": [
                0.149999991059303,
                0.063000001013279,
                -0.103819794952869
            ]
        },
        {
            "componentType": 5126,
            "type": "VEC3",
            "count": 22,
            "bufferView": 6,
            "byteOffset": 0
        },
        {
            "componentType": 5126,
            "type": "VEC2",
            "count": 22,
            "bufferView": 7,
            "byteOffset": 0
        }
    ],
    "samplers": [
        {}
    ],
    "materials": [
        {
            "name": "pavement",
            "alphaMode": "OPAQUE",
            "doubleSided": false,
            "extras": {
                "fromFBX": {
                    "shadingModel": "Phong",
                    "isTruePBR": false
                }
            },
            "pbrMetallicRoughness": {
                "baseColorFactor": [
                    0.847058773040771,
                    0.82745099067688,
                    0.749019622802734,
                    1.0
                ],
                "metallicFactor": 0.400000005960464,
                "roughnessFactor": 1.0
            }
        },
        {
            "name": "metal",
            "alphaMode": "OPAQUE",
            "doubleSided": false,
            "extras": {
                "fromFBX": {
                    "shadingModel": "Phong",
                    "isTruePBR": false
                }
            },
            "pbrMetallicRoughness": {
                "baseColorFactor": [
                    0.56078428030014,
                    0.5686274766922,
                    0.600000023841858,
                    1.0
                ],
                "metallicFactor": 0.400000005960464,
                "roughnessFactor": 1.0
            }
        }
    ],
    "meshes": [
        {
            "name": "tile243",
            "primitives": [
                {
                    "material": 0,
                    "mode": 4,
                    "attributes": {
                        "NORMAL": 2,
                        "POSITION": 1,
                        "TEXCOORD_0": 3
                    },
                    "indices": 0
                },
                {
                    "material": 1,
                    "mode": 4,
                    "attributes": {
                        "NORMAL": 6,
                        "POSITION": 5,
                        "TEXCOORD_0": 7
                    },
                    "indices": 4
                }
            ]
        }
    ],
    "nodes": [
        {
            "name": "RootNode",
            "translation": [
                0.0,
                0.0,
                0.0
            ],
            "rotation": [
                0.0,
                0.0,
                0.0,
                1.0
            ],
            "scale": [
                1.0,
                1.0,
                1.0
            ],
            "children": [
                1
            ]
        },
        {
            "name": "tile243",
            "translation": [
                0.0,
                0.0,
                0.0
            ],
            "rotation": [
                0.0,
                0.0,
                0.0,
                1.0
            ],
            "scale": [
                3.33333301544189,
                3.33333301544189,
                3.33333301544189
            ],
            "mesh": 0
        }
    ]
}