{
    "asset": {
        "generator": "FBX2glTF v0.13.1",
        "version": "2.0"
    },
    "scene": 0,
    "buffers": [
        {
            "byteLength": 9480,
            "uri": "buffer.bin"
        }
    ],
    "bufferViews": [
        {
            "buffer": 0,
            "byteLength": 732,
            "byteOffset": 0,
            "target": 34963
        },
        {
            "buffer": 0,
            "byteLength": 2400,
            "byteOffset": 732,
            "target": 34962
        },
        {
            "buffer": 0,
            "byteLength": 2400,
            "byteOffset": 3132,
            "target": 34962
        },
        {
            "buffer": 0,
            "byteLength": 1600,
            "byteOffset": 5532,
            "target": 34962
        },
        {
            "buffer": 0,
            "byteLength": 300,
            "byteOffset": 7132,
            "target": 34963
        },
        {
            "buffer": 0,
            "byteLength": 768,
            "byteOffset": 7432,
            "target": 34962
        },
        {
            "buffer": 0,
            "byteLength": 768,
            "byteOffset": 8200,
            "target": 34962
        },
        {
            "buffer": 0,
            "byteLength": 512,
            "byteOffset": 8968,
            "target": 34962
        }
    ],
    "scenes": [
        {
            "name": "Root Scene",
            "nodes": [
                0
            ]
        }
    ],
    "accessors": [
        {
            "componentType": 5123,
            "type": "SCALAR",
            "count": 366,
            "bufferView": 0,
            "byteOffset": 0
        },
        {
            "componentType": 5126,
            "type": "VEC3",
            "count": 200,
            "bufferView": 1,
            "byteOffset": 0,
            "min": [
                -0.105985097587109,
                0.0,
                -0.106712497770786
            ],
            "max": [
                0.105985097587109,
                0.244949996471405,
                0.106712497770786
            ]
        },
        {
            "componentType": 5126,
            "type": "VEC3",
            "count": 200,
            "bufferView": 2,
            "byteOffset": 0
        },
        {
            "componentType": 5126,
            "type": "VEC2",
            "count": 200,
            "bufferView": 3,
            "byteOffset": 0
        },
        {
            "componentType": 5123,
            "type": "SCALAR",
            "count": 150,
            "bufferView": 4,
            "byteOffset": 0
        },
        {
            "componentType": 5126,
            "type": "VEC3",
            "count": 64,
            "bufferView": 5,
            "byteOffset": 0,
            "min": [
                -0.0961850434541702,
                0.0480000004172325,
                -0.0934140086174011
            ],
            "max": [
                0.0795131102204323,
                0.244949996471405,
                0.0766689479351044
            ]
        },
        {
            "componentType": 5126,
            "type": "VEC3",
            "count": 64,
            "bufferView": 6,
            "byteOffset": 0
        },
        {
            "componentType": 5126,
            "type": "VEC2",
            "count": 64,
            "bufferView": 7,
            "byteOffset": 0
        }
    ],
    "samplers": [
        {}
    ],
    "materials": [
        {
            "name": "natureKit-wood",
            "alphaMode": "OPAQUE",
            "doubleSided": false,
            "extras": {
                "fromFBX": {
                    "shadingModel": "Phong",
                    "isTruePBR": false
                }
            },
            "pbrMetallicRoughness": {
                "baseColorFactor": [
                    1.0,
                    0.682353019714355,
                    0.435294091701508,
                    1.0
                ],
                "metallicFactor": 0.400000005960464,
                "roughnessFactor": 1.0
            }
        },
        {
            "name": "natureKit-leavesGreen",
            "alphaMode": "OPAQUE",
            "doubleSided": false,
            "extras": {
                "fromFBX": {
                    "shadingModel": "Phong",
                    "isTruePBR": false
                }
            },
            "pbrMetallicRoughness": {
                "baseColorFactor": [
                    0.352941185235977,
                    0.768627524375916,
                    0.713725507259369,
                    1.0
                ],
                "metallicFactor": 0.400000005960464,
                "roughnessFactor": 1.0
            }
        }
    ],
    "meshes": [
        {
            "name": "rock_tall2",
            "primitives": [
                {
                    "material": 0,
                    "mode": 4,
                    "attributes": {
                        "NORMAL": 2,
                        "POSITION": 1,
                        "TEXCOORD_0": 3
                    },
                    "indices": 0
                },
                {
                    "material": 1,
                    "mode": 4,
                    "attributes": {
                        "NORMAL": 6,
                        "POSITION": 5,
                        "TEXCOORD_0": 7
                    },
                    "indices": 4
                }
            ]
        }
    ],
    "nodes": [
        {
            "name": "RootNode",
            "translation": [
                0.0,
                0.0,
                0.0
            ],
            "rotation": [
                0.0,
                0.0,
                0.0,
                1.0
            ],
            "scale": [
                1.0,
                1.0,
                1.0
            ],
            "children": [
                1
            ]
        },
        {
            "name": "rock_tall2",
            "translation": [
                -43.004322052002,
                0.0,
                5.01418685913086
            ],
            "rotation": [
                0.0,
                0.0,
                0.0,
                1.0
            ],
            "scale": [
                36.0800018310547,
                36.0800018310547,
                36.0800018310547
            ],
            "mesh": 0
        }
    ]
}