{
    "asset": {
        "generator": "FBX2glTF v0.13.1",
        "version": "2.0"
    },
    "scene": 0,
    "buffers": [
        {
            "byteLength": 10672,
            "uri": "buffer.bin"
        }
    ],
    "bufferViews": [
        {
            "buffer": 0,
            "byteLength": 108,
            "byteOffset": 0,
            "target": 34963
        },
        {
            "buffer": 0,
            "byteLength": 432,
            "byteOffset": 108,
            "target": 34962
        },
        {
            "buffer": 0,
            "byteLength": 432,
            "byteOffset": 540,
            "target": 34962
        },
        {
            "buffer": 0,
            "byteLength": 288,
            "byteOffset": 972,
            "target": 34962
        },
        {
            "buffer": 0,
            "byteLength": 312,
            "byteOffset": 1260,
            "target": 34963
        },
        {
            "buffer": 0,
            "byteLength": 1056,
            "byteOffset": 1572,
            "target": 34962
        },
        {
            "buffer": 0,
            "byteLength": 1056,
            "byteOffset": 2628,
            "target": 34962
        },
        {
            "buffer": 0,
            "byteLength": 704,
            "byteOffset": 3684,
            "target": 34962
        },
        {
            "buffer": 0,
            "byteLength": 780,
            "byteOffset": 4388,
            "target": 34963
        },
        {
            "buffer": 0,
            "byteLength": 2064,
            "byteOffset": 5168,
            "target": 34962
        },
        {
            "buffer": 0,
            "byteLength": 2064,
            "byteOffset": 7232,
            "target": 34962
        },
        {
            "buffer": 0,
            "byteLength": 1376,
            "byteOffset": 9296,
            "target": 34962
        }
    ],
    "scenes": [
        {
            "name": "Root Scene",
            "nodes": [
                0
            ]
        }
    ],
    "accessors": [
        {
            "componentType": 5123,
            "type": "SCALAR",
            "count": 54,
            "bufferView": 0,
            "byteOffset": 0
        },
        {
            "componentType": 5126,
            "type": "VEC3",
            "count": 36,
            "bufferView": 1,
            "byteOffset": 0,
            "min": [
                -0.0259807612746954,
                0.044999998062849,
                -0.0259807612746954
            ],
            "max": [
                0.0259807612746954,
                0.0599999986588955,
                0.0259807612746954
            ]
        },
        {
            "componentType": 5126,
            "type": "VEC3",
            "count": 36,
            "bufferView": 2,
            "byteOffset": 0
        },
        {
            "componentType": 5126,
            "type": "VEC2",
            "count": 36,
            "bufferView": 3,
            "byteOffset": 0
        },
        {
            "componentType": 5123,
            "type": "SCALAR",
            "count": 156,
            "bufferView": 4,
            "byteOffset": 0
        },
        {
            "componentType": 5126,
            "type": "VEC3",
            "count": 88,
            "bufferView": 5,
            "byteOffset": 0,
            "min": [
                -0.0499999970197678,
                0.00999999977648258,
                -0.0499999970197678
            ],
            "max": [
                0.0499999970197678,
                0.0499999970197678,
                0.0499999970197678
            ]
        },
        {
            "componentType": 5126,
            "type": "VEC3",
            "count": 88,
            "bufferView": 6,
            "byteOffset": 0
        },
        {
            "componentType": 5126,
            "type": "VEC2",
            "count": 88,
            "bufferView": 7,
            "byteOffset": 0
        },
        {
            "componentType": 5123,
            "type": "SCALAR",
            "count": 390,
            "bufferView": 8,
            "byteOffset": 0
        },
        {
            "componentType": 5126,
            "type": "VEC3",
            "count": 172,
            "bufferView": 9,
            "byteOffset": 0,
            "min": [
                -0.0499999970197678,
                0.0,
                -0.0499999970197678
            ],
            "max": [
                0.0499999970197678,
                0.0599999986588955,
                0.0499999970197678
            ]
        },
        {
            "componentType": 5126,
            "type": "VEC3",
            "count": 172,
            "bufferView": 10,
            "byteOffset": 0
        },
        {
            "componentType": 5126,
            "type": "VEC2",
            "count": 172,
            "bufferView": 11,
            "byteOffset": 0
        }
    ],
    "samplers": [
        {}
    ],
    "materials": [
        {
            "name": "dark",
            "alphaMode": "OPAQUE",
            "doubleSided": false,
            "extras": {
                "fromFBX": {
                    "shadingModel": "Phong",
                    "isTruePBR": false
                }
            },
            "pbrMetallicRoughness": {
                "baseColorFactor": [
                    0.274509787559509,
                    0.298039197921753,
                    0.341176509857178,
                    1.0
                ],
                "metallicFactor": 0.400000005960464,
                "roughnessFactor": 1.0
            }
        },
        {
            "name": "metalDark",
            "alphaMode": "OPAQUE",
            "doubleSided": false,
            "extras": {
                "fromFBX": {
                    "shadingModel": "Phong",
                    "isTruePBR": false
                }
            },
            "pbrMetallicRoughness": {
                "baseColorFactor": [
                    0.675062298774719,
                    0.710021913051605,
                    0.77358490228653,
                    1.0
                ],
                "metallicFactor": 0.400000005960464,
                "roughnessFactor": 1.0
            }
        },
        {
            "name": "metal",
            "alphaMode": "OPAQUE",
            "doubleSided": false,
            "extras": {
                "fromFBX": {
                    "shadingModel": "Phong",
                    "isTruePBR": false
                }
            },
            "pbrMetallicRoughness": {
                "baseColorFactor": [
                    0.843137323856354,
                    0.870588183403015,
                    0.909803926944733,
                    1.0
                ],
                "metallicFactor": 0.400000005960464,
                "roughnessFactor": 1.0
            }
        }
    ],
    "meshes": [
        {
            "name": "pipe_cross",
            "primitives": [
                {
                    "material": 0,
                    "mode": 4,
                    "attributes": {
                        "NORMAL": 2,
                        "POSITION": 1,
                        "TEXCOORD_0": 3
                    },
                    "indices": 0
                },
                {
                    "material": 1,
                    "mode": 4,
                    "attributes": {
                        "NORMAL": 6,
                        "POSITION": 5,
                        "TEXCOORD_0": 7
                    },
                    "indices": 4
                },
                {
                    "material": 2,
                    "mode": 4,
                    "attributes": {
                        "NORMAL": 10,
                        "POSITION": 9,
                        "TEXCOORD_0": 11
                    },
                    "indices": 8
                }
            ]
        }
    ],
    "nodes": [
        {
            "name": "RootNode",
            "translation": [
                0.0,
                0.0,
                0.0
            ],
            "rotation": [
                0.0,
                0.0,
                0.0,
                1.0
            ],
            "scale": [
                1.0,
                1.0,
                1.0
            ],
            "children": [
                1
            ]
        },
        {
            "name": "pipe_cross",
            "translation": [
                -2.0,
                0.0,
                -1.5
            ],
            "rotation": [
                0.0,
                0.0,
                0.0,
                1.0
            ],
            "scale": [
                10.0,
                10.0,
                10.0
            ],
            "mesh": 0
        }
    ]
}